G04 #@! TF.GenerationSoftware,KiCad,Pcbnew,(5.0.0)*
G04 #@! TF.CreationDate,2019-11-21T16:47:14+05:30*
G04 #@! TF.ProjectId,Smartarter,536D61727461727465722E6B69636164,rev?*
G04 #@! TF.SameCoordinates,Original*
G04 #@! TF.FileFunction,Legend,Bot*
G04 #@! TF.FilePolarity,Positive*
%FSLAX46Y46*%
G04 Gerber Fmt 4.6, Leading zero omitted, Abs format (unit mm)*
G04 Created by KiCad (PCBNEW (5.0.0)) date 11/21/19 16:47:14*
%MOMM*%
%LPD*%
G01*
G04 APERTURE LIST*
%ADD10C,0.120000*%
%ADD11C,0.150000*%
G04 APERTURE END LIST*
D10*
G04 #@! TO.C,onRelay1*
X135008736Y-135972310D02*
X136008736Y-133972310D01*
X137508736Y-135972310D02*
X137508736Y-134972310D01*
X137508736Y-134972310D02*
X136508736Y-134972310D01*
X133508736Y-135972310D02*
X133508736Y-134972310D01*
X133508736Y-134972310D02*
X134508736Y-134972310D01*
X134508736Y-135972310D02*
X136508736Y-135972310D01*
X136508736Y-135988310D02*
X136508736Y-133972310D01*
X136508736Y-133972310D02*
X134508736Y-133972310D01*
X134508736Y-135972310D02*
X134508736Y-133972310D01*
D11*
X149508736Y-160472310D02*
X122584736Y-160472310D01*
X122584736Y-160472310D02*
X122584736Y-128468310D01*
X122584736Y-128468310D02*
X149508736Y-128468310D01*
X149508736Y-128468310D02*
X149508736Y-160472310D01*
D10*
G04 #@! TO.C,offRelay1*
X69008736Y-135972308D02*
X70008736Y-133972308D01*
X71508736Y-135972308D02*
X71508736Y-134972308D01*
X71508736Y-134972308D02*
X70508736Y-134972308D01*
X67508736Y-135972308D02*
X67508736Y-134972308D01*
X67508736Y-134972308D02*
X68508736Y-134972308D01*
X68508736Y-135972308D02*
X70508736Y-135972308D01*
X70508736Y-135988308D02*
X70508736Y-133972308D01*
X70508736Y-133972308D02*
X68508736Y-133972308D01*
X68508736Y-135972308D02*
X68508736Y-133972308D01*
D11*
X83508736Y-160472308D02*
X56584736Y-160472308D01*
X56584736Y-160472308D02*
X56584736Y-128468308D01*
X56584736Y-128468308D02*
X83508736Y-128468308D01*
X83508736Y-128468308D02*
X83508736Y-160472308D01*
D10*
G04 #@! TO.C,C1*
X133505000Y-69530199D02*
X133905000Y-69530199D01*
X133705000Y-69330199D02*
X133705000Y-69730199D01*
X134530000Y-73681000D02*
X135270000Y-73681000D01*
X134363000Y-73641000D02*
X135437000Y-73641000D01*
X134236000Y-73601000D02*
X135564000Y-73601000D01*
X134132000Y-73561000D02*
X135668000Y-73561000D01*
X134041000Y-73521000D02*
X135759000Y-73521000D01*
X133960000Y-73481000D02*
X135840000Y-73481000D01*
X133887000Y-73441000D02*
X135913000Y-73441000D01*
X135740000Y-73401000D02*
X135980000Y-73401000D01*
X133820000Y-73401000D02*
X134060000Y-73401000D01*
X135740000Y-73361000D02*
X136042000Y-73361000D01*
X133758000Y-73361000D02*
X134060000Y-73361000D01*
X135740000Y-73321000D02*
X136100000Y-73321000D01*
X133700000Y-73321000D02*
X134060000Y-73321000D01*
X135740000Y-73281000D02*
X136154000Y-73281000D01*
X133646000Y-73281000D02*
X134060000Y-73281000D01*
X135740000Y-73241000D02*
X136204000Y-73241000D01*
X133596000Y-73241000D02*
X134060000Y-73241000D01*
X135740000Y-73201000D02*
X136251000Y-73201000D01*
X133549000Y-73201000D02*
X134060000Y-73201000D01*
X135740000Y-73161000D02*
X136296000Y-73161000D01*
X133504000Y-73161000D02*
X134060000Y-73161000D01*
X135740000Y-73121000D02*
X136338000Y-73121000D01*
X133462000Y-73121000D02*
X134060000Y-73121000D01*
X135740000Y-73081000D02*
X136378000Y-73081000D01*
X133422000Y-73081000D02*
X134060000Y-73081000D01*
X135740000Y-73041000D02*
X136416000Y-73041000D01*
X133384000Y-73041000D02*
X134060000Y-73041000D01*
X135740000Y-73001000D02*
X136452000Y-73001000D01*
X133348000Y-73001000D02*
X134060000Y-73001000D01*
X135740000Y-72961000D02*
X136487000Y-72961000D01*
X133313000Y-72961000D02*
X134060000Y-72961000D01*
X135740000Y-72921000D02*
X136519000Y-72921000D01*
X133281000Y-72921000D02*
X134060000Y-72921000D01*
X135740000Y-72881000D02*
X136550000Y-72881000D01*
X133250000Y-72881000D02*
X134060000Y-72881000D01*
X135740000Y-72841000D02*
X136580000Y-72841000D01*
X133220000Y-72841000D02*
X134060000Y-72841000D01*
X135740000Y-72801000D02*
X136608000Y-72801000D01*
X133192000Y-72801000D02*
X134060000Y-72801000D01*
X135740000Y-72761000D02*
X136635000Y-72761000D01*
X133165000Y-72761000D02*
X134060000Y-72761000D01*
X135740000Y-72721000D02*
X136660000Y-72721000D01*
X133140000Y-72721000D02*
X134060000Y-72721000D01*
X135740000Y-72681000D02*
X136685000Y-72681000D01*
X133115000Y-72681000D02*
X134060000Y-72681000D01*
X135740000Y-72641000D02*
X136708000Y-72641000D01*
X133092000Y-72641000D02*
X134060000Y-72641000D01*
X135740000Y-72601000D02*
X136730000Y-72601000D01*
X133070000Y-72601000D02*
X134060000Y-72601000D01*
X135740000Y-72561000D02*
X136751000Y-72561000D01*
X133049000Y-72561000D02*
X134060000Y-72561000D01*
X135740000Y-72521000D02*
X136770000Y-72521000D01*
X133030000Y-72521000D02*
X134060000Y-72521000D01*
X135740000Y-72481000D02*
X136789000Y-72481000D01*
X133011000Y-72481000D02*
X134060000Y-72481000D01*
X135740000Y-72441000D02*
X136807000Y-72441000D01*
X132993000Y-72441000D02*
X134060000Y-72441000D01*
X135740000Y-72401000D02*
X136824000Y-72401000D01*
X132976000Y-72401000D02*
X134060000Y-72401000D01*
X135740000Y-72361000D02*
X136840000Y-72361000D01*
X132960000Y-72361000D02*
X134060000Y-72361000D01*
X135740000Y-72321000D02*
X136854000Y-72321000D01*
X132946000Y-72321000D02*
X134060000Y-72321000D01*
X135740000Y-72280000D02*
X136868000Y-72280000D01*
X132932000Y-72280000D02*
X134060000Y-72280000D01*
X135740000Y-72240000D02*
X136882000Y-72240000D01*
X132918000Y-72240000D02*
X134060000Y-72240000D01*
X135740000Y-72200000D02*
X136894000Y-72200000D01*
X132906000Y-72200000D02*
X134060000Y-72200000D01*
X135740000Y-72160000D02*
X136905000Y-72160000D01*
X132895000Y-72160000D02*
X134060000Y-72160000D01*
X135740000Y-72120000D02*
X136916000Y-72120000D01*
X132884000Y-72120000D02*
X134060000Y-72120000D01*
X135740000Y-72080000D02*
X136925000Y-72080000D01*
X132875000Y-72080000D02*
X134060000Y-72080000D01*
X135740000Y-72040000D02*
X136934000Y-72040000D01*
X132866000Y-72040000D02*
X134060000Y-72040000D01*
X135740000Y-72000000D02*
X136942000Y-72000000D01*
X132858000Y-72000000D02*
X134060000Y-72000000D01*
X135740000Y-71960000D02*
X136950000Y-71960000D01*
X132850000Y-71960000D02*
X134060000Y-71960000D01*
X135740000Y-71920000D02*
X136956000Y-71920000D01*
X132844000Y-71920000D02*
X134060000Y-71920000D01*
X135740000Y-71880000D02*
X136962000Y-71880000D01*
X132838000Y-71880000D02*
X134060000Y-71880000D01*
X135740000Y-71840000D02*
X136967000Y-71840000D01*
X132833000Y-71840000D02*
X134060000Y-71840000D01*
X135740000Y-71800000D02*
X136971000Y-71800000D01*
X132829000Y-71800000D02*
X134060000Y-71800000D01*
X132826000Y-71760000D02*
X136974000Y-71760000D01*
X132823000Y-71720000D02*
X136977000Y-71720000D01*
X132821000Y-71680000D02*
X136979000Y-71680000D01*
X132820000Y-71640000D02*
X136980000Y-71640000D01*
X132820000Y-71600000D02*
X136980000Y-71600000D01*
X137020000Y-71600000D02*
G75*
G03X137020000Y-71600000I-2120000J0D01*
G01*
G04 #@! TO.C,R1*
X106150538Y-92750538D02*
X106588944Y-93188944D01*
X106420000Y-92100000D02*
G75*
G03X106420000Y-92100000I-920000J0D01*
G01*
G04 #@! TO.C,R2*
X111050538Y-94450538D02*
X111488944Y-94888944D01*
X111320000Y-93800000D02*
G75*
G03X111320000Y-93800000I-920000J0D01*
G01*
G04 #@! TO.C,R3*
X115950538Y-96150538D02*
X116388944Y-96588944D01*
X116220000Y-95500000D02*
G75*
G03X116220000Y-95500000I-920000J0D01*
G01*
G04 #@! TO.C,R19*
X115580000Y-129200000D02*
X114960000Y-129200000D01*
X117420000Y-129200000D02*
G75*
G03X117420000Y-129200000I-920000J0D01*
G01*
G04 #@! TO.C,R20*
X127520000Y-70200000D02*
X128140000Y-70200000D01*
X127520000Y-70200000D02*
G75*
G03X127520000Y-70200000I-920000J0D01*
G01*
G04 #@! TO.C,R21*
X122380000Y-91100000D02*
X121760000Y-91100000D01*
X124220000Y-91100000D02*
G75*
G03X124220000Y-91100000I-920000J0D01*
G01*
G04 #@! TO.C,Q1*
X114758735Y-136032309D02*
X114758735Y-132432309D01*
X115485940Y-136556493D02*
G75*
G02X114758735Y-136032309I1122795J2324184D01*
G01*
X117707542Y-136588709D02*
G75*
G03X119208735Y-134232309I-1098807J2356400D01*
G01*
X117707542Y-131875909D02*
G75*
G02X119208735Y-134232309I-1098807J-2356400D01*
G01*
X115485940Y-131908125D02*
G75*
G03X114758735Y-132432309I1122795J-2324184D01*
G01*
G04 #@! TO.C,Q2*
X87585943Y-132008126D02*
G75*
G03X86858738Y-132532310I1122795J-2324184D01*
G01*
X89807545Y-131975910D02*
G75*
G02X91308738Y-134332310I-1098807J-2356400D01*
G01*
X89807545Y-136688710D02*
G75*
G03X91308738Y-134332310I-1098807J2356400D01*
G01*
X87585943Y-136656494D02*
G75*
G02X86858738Y-136132310I1122795J2324184D01*
G01*
X86858738Y-136132310D02*
X86858738Y-132532310D01*
G04 #@! TO.C,Q3*
X96440000Y-126022310D02*
X100040000Y-126022310D01*
X95915816Y-126749515D02*
G75*
G02X96440000Y-126022310I2324184J-1122795D01*
G01*
X95883600Y-128971117D02*
G75*
G03X98240000Y-130472310I2356400J1098807D01*
G01*
X100596400Y-128971117D02*
G75*
G02X98240000Y-130472310I-2356400J1098807D01*
G01*
X100564184Y-126749515D02*
G75*
G03X100040000Y-126022310I-2324184J-1122795D01*
G01*
G04 #@! TO.C,C1*
D11*
X132007142Y-71433333D02*
X132054761Y-71385714D01*
X132102380Y-71242857D01*
X132102380Y-71147619D01*
X132054761Y-71004761D01*
X131959523Y-70909523D01*
X131864285Y-70861904D01*
X131673809Y-70814285D01*
X131530952Y-70814285D01*
X131340476Y-70861904D01*
X131245238Y-70909523D01*
X131150000Y-71004761D01*
X131102380Y-71147619D01*
X131102380Y-71242857D01*
X131150000Y-71385714D01*
X131197619Y-71433333D01*
X132102380Y-72385714D02*
X132102380Y-71814285D01*
X132102380Y-72100000D02*
X131102380Y-72100000D01*
X131245238Y-72004761D01*
X131340476Y-71909523D01*
X131388095Y-71814285D01*
X138602380Y-70528571D02*
X138602380Y-69957142D01*
X138602380Y-70242857D02*
X137602380Y-70242857D01*
X137745238Y-70147619D01*
X137840476Y-70052380D01*
X137888095Y-69957142D01*
X137602380Y-71147619D02*
X137602380Y-71242857D01*
X137650000Y-71338095D01*
X137697619Y-71385714D01*
X137792857Y-71433333D01*
X137983333Y-71480952D01*
X138221428Y-71480952D01*
X138411904Y-71433333D01*
X138507142Y-71385714D01*
X138554761Y-71338095D01*
X138602380Y-71242857D01*
X138602380Y-71147619D01*
X138554761Y-71052380D01*
X138507142Y-71004761D01*
X138411904Y-70957142D01*
X138221428Y-70909523D01*
X137983333Y-70909523D01*
X137792857Y-70957142D01*
X137697619Y-71004761D01*
X137650000Y-71052380D01*
X137602380Y-71147619D01*
X137935714Y-72338095D02*
X138602380Y-72338095D01*
X137935714Y-71909523D02*
X138459523Y-71909523D01*
X138554761Y-71957142D01*
X138602380Y-72052380D01*
X138602380Y-72195238D01*
X138554761Y-72290476D01*
X138507142Y-72338095D01*
X138078571Y-73147619D02*
X138078571Y-72814285D01*
X138602380Y-72814285D02*
X137602380Y-72814285D01*
X137602380Y-73290476D01*
G04 #@! TO.C,R1*
X104838350Y-94793403D02*
X105410770Y-94692388D01*
X105242411Y-95197464D02*
X105949518Y-94490358D01*
X105680144Y-94220983D01*
X105579129Y-94187312D01*
X105511785Y-94187312D01*
X105410770Y-94220983D01*
X105309755Y-94321999D01*
X105276083Y-94423014D01*
X105276083Y-94490358D01*
X105309755Y-94591373D01*
X105579129Y-94860747D01*
X104164915Y-94119968D02*
X104568976Y-94524029D01*
X104366945Y-94321999D02*
X105074052Y-93614892D01*
X105040381Y-93783251D01*
X105040381Y-93917938D01*
X105074052Y-94018953D01*
X108951018Y-92195964D02*
X108951018Y-92128621D01*
X108917346Y-92027606D01*
X108748987Y-91859247D01*
X108647972Y-91825575D01*
X108580628Y-91825575D01*
X108479613Y-91859247D01*
X108412270Y-91926590D01*
X108344926Y-92061277D01*
X108344926Y-92869399D01*
X107907193Y-92431667D01*
X108277583Y-91522529D02*
X108277583Y-91455186D01*
X108243911Y-91354171D01*
X108075552Y-91185812D01*
X107974537Y-91152140D01*
X107907193Y-91152140D01*
X107806178Y-91185812D01*
X107738835Y-91253155D01*
X107671491Y-91387842D01*
X107671491Y-92195964D01*
X107233758Y-91758232D01*
X107503132Y-90613392D02*
X107435789Y-90546049D01*
X107334774Y-90512377D01*
X107267430Y-90512377D01*
X107166415Y-90546049D01*
X106998056Y-90647064D01*
X106829697Y-90815423D01*
X106728682Y-90983781D01*
X106695010Y-91084797D01*
X106695010Y-91152140D01*
X106728682Y-91253155D01*
X106796026Y-91320499D01*
X106897041Y-91354171D01*
X106964384Y-91354171D01*
X107065400Y-91320499D01*
X107233758Y-91219484D01*
X107402117Y-91051125D01*
X107503132Y-90882766D01*
X107536804Y-90781751D01*
X107536804Y-90714407D01*
X107503132Y-90613392D01*
G04 #@! TO.C,R2*
X109738350Y-96493403D02*
X110310770Y-96392388D01*
X110142411Y-96897464D02*
X110849518Y-96190358D01*
X110580144Y-95920983D01*
X110479129Y-95887312D01*
X110411785Y-95887312D01*
X110310770Y-95920983D01*
X110209755Y-96021999D01*
X110176083Y-96123014D01*
X110176083Y-96190358D01*
X110209755Y-96291373D01*
X110479129Y-96560747D01*
X110108739Y-95584266D02*
X110108739Y-95516922D01*
X110075068Y-95415907D01*
X109906709Y-95247548D01*
X109805693Y-95213877D01*
X109738350Y-95213877D01*
X109637335Y-95247548D01*
X109569991Y-95314892D01*
X109502648Y-95449579D01*
X109502648Y-96257701D01*
X109064915Y-95819968D01*
X113851018Y-93895964D02*
X113851018Y-93828621D01*
X113817346Y-93727606D01*
X113648987Y-93559247D01*
X113547972Y-93525575D01*
X113480628Y-93525575D01*
X113379613Y-93559247D01*
X113312270Y-93626590D01*
X113244926Y-93761277D01*
X113244926Y-94569399D01*
X112807193Y-94131667D01*
X113177583Y-93222529D02*
X113177583Y-93155186D01*
X113143911Y-93054171D01*
X112975552Y-92885812D01*
X112874537Y-92852140D01*
X112807193Y-92852140D01*
X112706178Y-92885812D01*
X112638835Y-92953155D01*
X112571491Y-93087842D01*
X112571491Y-93895964D01*
X112133758Y-93458232D01*
X112403132Y-92313392D02*
X112335789Y-92246049D01*
X112234774Y-92212377D01*
X112167430Y-92212377D01*
X112066415Y-92246049D01*
X111898056Y-92347064D01*
X111729697Y-92515423D01*
X111628682Y-92683781D01*
X111595010Y-92784797D01*
X111595010Y-92852140D01*
X111628682Y-92953155D01*
X111696026Y-93020499D01*
X111797041Y-93054171D01*
X111864384Y-93054171D01*
X111965400Y-93020499D01*
X112133758Y-92919484D01*
X112302117Y-92751125D01*
X112403132Y-92582766D01*
X112436804Y-92481751D01*
X112436804Y-92414407D01*
X112403132Y-92313392D01*
G04 #@! TO.C,R3*
X114638350Y-98193403D02*
X115210770Y-98092388D01*
X115042411Y-98597464D02*
X115749518Y-97890358D01*
X115480144Y-97620983D01*
X115379129Y-97587312D01*
X115311785Y-97587312D01*
X115210770Y-97620983D01*
X115109755Y-97721999D01*
X115076083Y-97823014D01*
X115076083Y-97890358D01*
X115109755Y-97991373D01*
X115379129Y-98260747D01*
X115109755Y-97250594D02*
X114672022Y-96812861D01*
X114638350Y-97317938D01*
X114537335Y-97216922D01*
X114436319Y-97183251D01*
X114368976Y-97183251D01*
X114267961Y-97216922D01*
X114099602Y-97385281D01*
X114065930Y-97486296D01*
X114065930Y-97553640D01*
X114099602Y-97654655D01*
X114301632Y-97856686D01*
X114402648Y-97890358D01*
X114469991Y-97890358D01*
X118751018Y-95595964D02*
X118751018Y-95528621D01*
X118717346Y-95427606D01*
X118548987Y-95259247D01*
X118447972Y-95225575D01*
X118380628Y-95225575D01*
X118279613Y-95259247D01*
X118212270Y-95326590D01*
X118144926Y-95461277D01*
X118144926Y-96269399D01*
X117707193Y-95831667D01*
X118077583Y-94922529D02*
X118077583Y-94855186D01*
X118043911Y-94754171D01*
X117875552Y-94585812D01*
X117774537Y-94552140D01*
X117707193Y-94552140D01*
X117606178Y-94585812D01*
X117538835Y-94653155D01*
X117471491Y-94787842D01*
X117471491Y-95595964D01*
X117033758Y-95158232D01*
X117303132Y-94013392D02*
X117235789Y-93946049D01*
X117134774Y-93912377D01*
X117067430Y-93912377D01*
X116966415Y-93946049D01*
X116798056Y-94047064D01*
X116629697Y-94215423D01*
X116528682Y-94383781D01*
X116495010Y-94484797D01*
X116495010Y-94552140D01*
X116528682Y-94653155D01*
X116596026Y-94720499D01*
X116697041Y-94754171D01*
X116764384Y-94754171D01*
X116865400Y-94720499D01*
X117033758Y-94619484D01*
X117202117Y-94451125D01*
X117303132Y-94282766D01*
X117336804Y-94181751D01*
X117336804Y-94114407D01*
X117303132Y-94013392D01*
G04 #@! TO.C,R19*
X115872857Y-127732380D02*
X116206190Y-127256190D01*
X116444285Y-127732380D02*
X116444285Y-126732380D01*
X116063333Y-126732380D01*
X115968095Y-126780000D01*
X115920476Y-126827619D01*
X115872857Y-126922857D01*
X115872857Y-127065714D01*
X115920476Y-127160952D01*
X115968095Y-127208571D01*
X116063333Y-127256190D01*
X116444285Y-127256190D01*
X114920476Y-127732380D02*
X115491904Y-127732380D01*
X115206190Y-127732380D02*
X115206190Y-126732380D01*
X115301428Y-126875238D01*
X115396666Y-126970476D01*
X115491904Y-127018095D01*
X114444285Y-127732380D02*
X114253809Y-127732380D01*
X114158571Y-127684761D01*
X114110952Y-127637142D01*
X114015714Y-127494285D01*
X113968095Y-127303809D01*
X113968095Y-126922857D01*
X114015714Y-126827619D01*
X114063333Y-126780000D01*
X114158571Y-126732380D01*
X114349047Y-126732380D01*
X114444285Y-126780000D01*
X114491904Y-126827619D01*
X114539523Y-126922857D01*
X114539523Y-127160952D01*
X114491904Y-127256190D01*
X114444285Y-127303809D01*
X114349047Y-127351428D01*
X114158571Y-127351428D01*
X114063333Y-127303809D01*
X114015714Y-127256190D01*
X113968095Y-127160952D01*
X112852380Y-128985714D02*
X112852380Y-128414285D01*
X112852380Y-128700000D02*
X111852380Y-128700000D01*
X111995238Y-128604761D01*
X112090476Y-128509523D01*
X112138095Y-128414285D01*
X112852380Y-129414285D02*
X111852380Y-129414285D01*
X112852380Y-129985714D02*
X112280952Y-129557142D01*
X111852380Y-129985714D02*
X112423809Y-129414285D01*
G04 #@! TO.C,R20*
X128512857Y-72572380D02*
X128846190Y-72096190D01*
X129084285Y-72572380D02*
X129084285Y-71572380D01*
X128703333Y-71572380D01*
X128608095Y-71620000D01*
X128560476Y-71667619D01*
X128512857Y-71762857D01*
X128512857Y-71905714D01*
X128560476Y-72000952D01*
X128608095Y-72048571D01*
X128703333Y-72096190D01*
X129084285Y-72096190D01*
X128131904Y-71667619D02*
X128084285Y-71620000D01*
X127989047Y-71572380D01*
X127750952Y-71572380D01*
X127655714Y-71620000D01*
X127608095Y-71667619D01*
X127560476Y-71762857D01*
X127560476Y-71858095D01*
X127608095Y-72000952D01*
X128179523Y-72572380D01*
X127560476Y-72572380D01*
X126941428Y-71572380D02*
X126846190Y-71572380D01*
X126750952Y-71620000D01*
X126703333Y-71667619D01*
X126655714Y-71762857D01*
X126608095Y-71953333D01*
X126608095Y-72191428D01*
X126655714Y-72381904D01*
X126703333Y-72477142D01*
X126750952Y-72524761D01*
X126846190Y-72572380D01*
X126941428Y-72572380D01*
X127036666Y-72524761D01*
X127084285Y-72477142D01*
X127131904Y-72381904D01*
X127179523Y-72191428D01*
X127179523Y-71953333D01*
X127131904Y-71762857D01*
X127084285Y-71667619D01*
X127036666Y-71620000D01*
X126941428Y-71572380D01*
X128084285Y-68732380D02*
X128655714Y-68732380D01*
X128370000Y-68732380D02*
X128370000Y-67732380D01*
X128465238Y-67875238D01*
X128560476Y-67970476D01*
X128655714Y-68018095D01*
X127655714Y-68732380D02*
X127655714Y-67732380D01*
X127084285Y-68732380D02*
X127512857Y-68160952D01*
X127084285Y-67732380D02*
X127655714Y-68303809D01*
G04 #@! TO.C,R21*
X122672857Y-89632380D02*
X123006190Y-89156190D01*
X123244285Y-89632380D02*
X123244285Y-88632380D01*
X122863333Y-88632380D01*
X122768095Y-88680000D01*
X122720476Y-88727619D01*
X122672857Y-88822857D01*
X122672857Y-88965714D01*
X122720476Y-89060952D01*
X122768095Y-89108571D01*
X122863333Y-89156190D01*
X123244285Y-89156190D01*
X122291904Y-88727619D02*
X122244285Y-88680000D01*
X122149047Y-88632380D01*
X121910952Y-88632380D01*
X121815714Y-88680000D01*
X121768095Y-88727619D01*
X121720476Y-88822857D01*
X121720476Y-88918095D01*
X121768095Y-89060952D01*
X122339523Y-89632380D01*
X121720476Y-89632380D01*
X120768095Y-89632380D02*
X121339523Y-89632380D01*
X121053809Y-89632380D02*
X121053809Y-88632380D01*
X121149047Y-88775238D01*
X121244285Y-88870476D01*
X121339523Y-88918095D01*
X122720476Y-93472380D02*
X123291904Y-93472380D01*
X123006190Y-93472380D02*
X123006190Y-92472380D01*
X123101428Y-92615238D01*
X123196666Y-92710476D01*
X123291904Y-92758095D01*
X122101428Y-92472380D02*
X122006190Y-92472380D01*
X121910952Y-92520000D01*
X121863333Y-92567619D01*
X121815714Y-92662857D01*
X121768095Y-92853333D01*
X121768095Y-93091428D01*
X121815714Y-93281904D01*
X121863333Y-93377142D01*
X121910952Y-93424761D01*
X122006190Y-93472380D01*
X122101428Y-93472380D01*
X122196666Y-93424761D01*
X122244285Y-93377142D01*
X122291904Y-93281904D01*
X122339523Y-93091428D01*
X122339523Y-92853333D01*
X122291904Y-92662857D01*
X122244285Y-92567619D01*
X122196666Y-92520000D01*
X122101428Y-92472380D01*
X121339523Y-93472380D02*
X121339523Y-92472380D01*
X120768095Y-93472380D02*
X121196666Y-92900952D01*
X120768095Y-92472380D02*
X121339523Y-93043809D01*
G04 #@! TO.C,Q1*
X120716354Y-134137070D02*
X120668735Y-134041832D01*
X120573496Y-133946594D01*
X120430639Y-133803737D01*
X120383020Y-133708499D01*
X120383020Y-133613261D01*
X120621115Y-133660880D02*
X120573496Y-133565642D01*
X120478258Y-133470404D01*
X120287782Y-133422785D01*
X119954449Y-133422785D01*
X119763973Y-133470404D01*
X119668735Y-133565642D01*
X119621115Y-133660880D01*
X119621115Y-133851356D01*
X119668735Y-133946594D01*
X119763973Y-134041832D01*
X119954449Y-134089451D01*
X120287782Y-134089451D01*
X120478258Y-134041832D01*
X120573496Y-133946594D01*
X120621115Y-133851356D01*
X120621115Y-133660880D01*
X120621115Y-135041832D02*
X120621115Y-134470404D01*
X120621115Y-134756118D02*
X119621115Y-134756118D01*
X119763973Y-134660880D01*
X119859211Y-134565642D01*
X119906830Y-134470404D01*
X113271115Y-133518023D02*
X113271115Y-133041832D01*
X113747306Y-132994213D01*
X113699687Y-133041832D01*
X113652068Y-133137070D01*
X113652068Y-133375166D01*
X113699687Y-133470404D01*
X113747306Y-133518023D01*
X113842544Y-133565642D01*
X114080639Y-133565642D01*
X114175877Y-133518023D01*
X114223496Y-133470404D01*
X114271115Y-133375166D01*
X114271115Y-133137070D01*
X114223496Y-133041832D01*
X114175877Y-132994213D01*
X113604449Y-134422785D02*
X114271115Y-134422785D01*
X113223496Y-134184689D02*
X113937782Y-133946594D01*
X113937782Y-134565642D01*
X113271115Y-134851356D02*
X113271115Y-135518023D01*
X114271115Y-135089451D01*
G04 #@! TO.C,Q2*
X92816357Y-134237071D02*
X92768738Y-134141833D01*
X92673499Y-134046595D01*
X92530642Y-133903738D01*
X92483023Y-133808500D01*
X92483023Y-133713262D01*
X92721118Y-133760881D02*
X92673499Y-133665643D01*
X92578261Y-133570405D01*
X92387785Y-133522786D01*
X92054452Y-133522786D01*
X91863976Y-133570405D01*
X91768738Y-133665643D01*
X91721118Y-133760881D01*
X91721118Y-133951357D01*
X91768738Y-134046595D01*
X91863976Y-134141833D01*
X92054452Y-134189452D01*
X92387785Y-134189452D01*
X92578261Y-134141833D01*
X92673499Y-134046595D01*
X92721118Y-133951357D01*
X92721118Y-133760881D01*
X91816357Y-134570405D02*
X91768738Y-134618024D01*
X91721118Y-134713262D01*
X91721118Y-134951357D01*
X91768738Y-135046595D01*
X91816357Y-135094214D01*
X91911595Y-135141833D01*
X92006833Y-135141833D01*
X92149690Y-135094214D01*
X92721118Y-134522786D01*
X92721118Y-135141833D01*
X85371118Y-133618024D02*
X85371118Y-133141833D01*
X85847309Y-133094214D01*
X85799690Y-133141833D01*
X85752071Y-133237071D01*
X85752071Y-133475167D01*
X85799690Y-133570405D01*
X85847309Y-133618024D01*
X85942547Y-133665643D01*
X86180642Y-133665643D01*
X86275880Y-133618024D01*
X86323499Y-133570405D01*
X86371118Y-133475167D01*
X86371118Y-133237071D01*
X86323499Y-133141833D01*
X86275880Y-133094214D01*
X85704452Y-134522786D02*
X86371118Y-134522786D01*
X85323499Y-134284690D02*
X86037785Y-134046595D01*
X86037785Y-134665643D01*
X85371118Y-134951357D02*
X85371118Y-135618024D01*
X86371118Y-135189452D01*
G04 #@! TO.C,Q3*
X98335238Y-131979929D02*
X98430476Y-131932310D01*
X98525714Y-131837071D01*
X98668571Y-131694214D01*
X98763809Y-131646595D01*
X98859047Y-131646595D01*
X98811428Y-131884690D02*
X98906666Y-131837071D01*
X99001904Y-131741833D01*
X99049523Y-131551357D01*
X99049523Y-131218024D01*
X99001904Y-131027548D01*
X98906666Y-130932310D01*
X98811428Y-130884690D01*
X98620952Y-130884690D01*
X98525714Y-130932310D01*
X98430476Y-131027548D01*
X98382857Y-131218024D01*
X98382857Y-131551357D01*
X98430476Y-131741833D01*
X98525714Y-131837071D01*
X98620952Y-131884690D01*
X98811428Y-131884690D01*
X98049523Y-130884690D02*
X97430476Y-130884690D01*
X97763809Y-131265643D01*
X97620952Y-131265643D01*
X97525714Y-131313262D01*
X97478095Y-131360881D01*
X97430476Y-131456119D01*
X97430476Y-131694214D01*
X97478095Y-131789452D01*
X97525714Y-131837071D01*
X97620952Y-131884690D01*
X97906666Y-131884690D01*
X98001904Y-131837071D01*
X98049523Y-131789452D01*
X98954285Y-124534690D02*
X99430476Y-124534690D01*
X99478095Y-125010881D01*
X99430476Y-124963262D01*
X99335238Y-124915643D01*
X99097142Y-124915643D01*
X99001904Y-124963262D01*
X98954285Y-125010881D01*
X98906666Y-125106119D01*
X98906666Y-125344214D01*
X98954285Y-125439452D01*
X99001904Y-125487071D01*
X99097142Y-125534690D01*
X99335238Y-125534690D01*
X99430476Y-125487071D01*
X99478095Y-125439452D01*
X98049523Y-124868024D02*
X98049523Y-125534690D01*
X98287619Y-124487071D02*
X98525714Y-125201357D01*
X97906666Y-125201357D01*
X97620952Y-124534690D02*
X96954285Y-124534690D01*
X97382857Y-125534690D01*
G04 #@! TD*
M02*
