G04 #@! TF.GenerationSoftware,KiCad,Pcbnew,(5.0.0)*
G04 #@! TF.CreationDate,2019-11-21T16:47:14+05:30*
G04 #@! TF.ProjectId,Smartarter,536D61727461727465722E6B69636164,rev?*
G04 #@! TF.SameCoordinates,Original*
G04 #@! TF.FileFunction,Copper,L1,Top,Signal*
G04 #@! TF.FilePolarity,Positive*
%FSLAX46Y46*%
G04 Gerber Fmt 4.6, Leading zero omitted, Abs format (unit mm)*
G04 Created by KiCad (PCBNEW (5.0.0)) date 11/21/19 16:47:14*
%MOMM*%
%LPD*%
G01*
G04 APERTURE LIST*
G04 #@! TA.AperFunction,ComponentPad*
%ADD10R,1.600000X1.600000*%
G04 #@! TD*
G04 #@! TA.AperFunction,ComponentPad*
%ADD11O,1.600000X1.600000*%
G04 #@! TD*
G04 #@! TA.AperFunction,Conductor*
%ADD12C,0.100000*%
G04 #@! TD*
G04 #@! TA.AperFunction,ComponentPad*
%ADD13C,2.000000*%
G04 #@! TD*
G04 #@! TA.AperFunction,ComponentPad*
%ADD14R,1.800000X1.800000*%
G04 #@! TD*
G04 #@! TA.AperFunction,ComponentPad*
%ADD15C,1.800000*%
G04 #@! TD*
G04 #@! TA.AperFunction,ComponentPad*
%ADD16C,1.500000*%
G04 #@! TD*
G04 #@! TA.AperFunction,ComponentPad*
%ADD17R,1.500000X1.500000*%
G04 #@! TD*
G04 #@! TA.AperFunction,ComponentPad*
%ADD18O,1.850000X3.048000*%
G04 #@! TD*
G04 #@! TA.AperFunction,ComponentPad*
%ADD19C,1.998980*%
G04 #@! TD*
G04 #@! TA.AperFunction,ComponentPad*
%ADD20O,1.800000X1.800000*%
G04 #@! TD*
G04 #@! TA.AperFunction,ComponentPad*
%ADD21O,1.400000X1.400000*%
G04 #@! TD*
G04 #@! TA.AperFunction,ComponentPad*
%ADD22C,1.400000*%
G04 #@! TD*
G04 #@! TA.AperFunction,ComponentPad*
%ADD23C,1.200000*%
G04 #@! TD*
G04 #@! TA.AperFunction,ComponentPad*
%ADD24R,1.200000X1.200000*%
G04 #@! TD*
G04 #@! TA.AperFunction,ComponentPad*
%ADD25C,3.000000*%
G04 #@! TD*
G04 #@! TA.AperFunction,ComponentPad*
%ADD26R,3.000000X3.000000*%
G04 #@! TD*
G04 #@! TA.AperFunction,Conductor*
%ADD27C,1.400000*%
G04 #@! TD*
G04 #@! TA.AperFunction,ComponentPad*
%ADD28O,1.600000X2.400000*%
G04 #@! TD*
G04 #@! TA.AperFunction,ComponentPad*
%ADD29C,0.800000*%
G04 #@! TD*
G04 #@! TA.AperFunction,ComponentPad*
%ADD30R,1.600000X2.400000*%
G04 #@! TD*
G04 #@! TA.AperFunction,Conductor*
%ADD31C,1.500000*%
G04 #@! TD*
G04 #@! TA.AperFunction,Conductor*
%ADD32C,1.000000*%
G04 #@! TD*
G04 #@! TA.AperFunction,Conductor*
%ADD33C,0.500000*%
G04 #@! TD*
G04 #@! TA.AperFunction,Conductor*
%ADD34C,0.250000*%
G04 #@! TD*
G04 APERTURE END LIST*
D10*
G04 #@! TO.P,A1,1*
G04 #@! TO.N,N/C*
X123300000Y-112700000D03*
D11*
G04 #@! TO.P,A1,17*
X156320000Y-97460000D03*
G04 #@! TO.P,A1,2*
X125840000Y-112700000D03*
G04 #@! TO.P,A1,18*
X153780000Y-97460000D03*
G04 #@! TO.P,A1,3*
X128380000Y-112700000D03*
G04 #@! TO.P,A1,19*
G04 #@! TO.N,/otherLed*
X151240000Y-97460000D03*
G04 #@! TO.P,A1,4*
G04 #@! TO.N,GND*
X130920000Y-112700000D03*
G04 #@! TO.P,A1,20*
G04 #@! TO.N,/slideSwitch*
X148700000Y-97460000D03*
G04 #@! TO.P,A1,5*
G04 #@! TO.N,/pushButton*
X133460000Y-112700000D03*
G04 #@! TO.P,A1,21*
G04 #@! TO.N,/monitor*
X146160000Y-97460000D03*
G04 #@! TO.P,A1,6*
G04 #@! TO.N,/data*
X136000000Y-112700000D03*
G04 #@! TO.P,A1,22*
G04 #@! TO.N,N/C*
X143620000Y-97460000D03*
G04 #@! TO.P,A1,7*
G04 #@! TO.N,/CLK*
X138540000Y-112700000D03*
G04 #@! TO.P,A1,23*
G04 #@! TO.N,N/C*
X141080000Y-97460000D03*
G04 #@! TO.P,A1,8*
G04 #@! TO.N,/D4*
X141080000Y-112700000D03*
G04 #@! TO.P,A1,24*
G04 #@! TO.N,N/C*
X138540000Y-97460000D03*
G04 #@! TO.P,A1,9*
G04 #@! TO.N,/D1*
X143620000Y-112700000D03*
G04 #@! TO.P,A1,25*
G04 #@! TO.N,N/C*
X136000000Y-97460000D03*
G04 #@! TO.P,A1,10*
G04 #@! TO.N,/D2*
X146160000Y-112700000D03*
G04 #@! TO.P,A1,26*
G04 #@! TO.N,/pot*
X133460000Y-97460000D03*
G04 #@! TO.P,A1,11*
G04 #@! TO.N,/D3*
X148700000Y-112700000D03*
G04 #@! TO.P,A1,27*
G04 #@! TO.N,N/C*
X130920000Y-97460000D03*
G04 #@! TO.P,A1,12*
G04 #@! TO.N,/offRelay*
X151240000Y-112700000D03*
G04 #@! TO.P,A1,28*
G04 #@! TO.N,N/C*
X128380000Y-97460000D03*
G04 #@! TO.P,A1,13*
G04 #@! TO.N,/buzz*
X153780000Y-112700000D03*
G04 #@! TO.P,A1,29*
G04 #@! TO.N,GND*
X125840000Y-97460000D03*
G04 #@! TO.P,A1,14*
G04 #@! TO.N,/onRelay*
X156320000Y-112700000D03*
G04 #@! TO.P,A1,30*
G04 #@! TO.N,+5V*
X123300000Y-97460000D03*
G04 #@! TO.P,A1,15*
G04 #@! TO.N,/onLed*
X158860000Y-112700000D03*
G04 #@! TO.P,A1,16*
G04 #@! TO.N,/offLed*
X158860000Y-97460000D03*
G04 #@! TD*
D12*
G04 #@! TO.N,*
G04 #@! TO.C,POT1*
G36*
X134471319Y-78093671D02*
X134519855Y-78100870D01*
X134567452Y-78112793D01*
X134613652Y-78129323D01*
X134658008Y-78150302D01*
X134700095Y-78175528D01*
X134739507Y-78204758D01*
X134775863Y-78237710D01*
X134808815Y-78274066D01*
X134838045Y-78313478D01*
X134863271Y-78355565D01*
X134884250Y-78399921D01*
X134900780Y-78446121D01*
X134912703Y-78493718D01*
X134919902Y-78542254D01*
X134922310Y-78591263D01*
X134922310Y-81591263D01*
X134919902Y-81640272D01*
X134912703Y-81688808D01*
X134900780Y-81736405D01*
X134884250Y-81782605D01*
X134863271Y-81826961D01*
X134838045Y-81869048D01*
X134808815Y-81908460D01*
X134775863Y-81944816D01*
X134739507Y-81977768D01*
X134700095Y-82006998D01*
X134658008Y-82032224D01*
X134613652Y-82053203D01*
X134567452Y-82069733D01*
X134519855Y-82081656D01*
X134471319Y-82088855D01*
X134422310Y-82091263D01*
X133422310Y-82091263D01*
X133373301Y-82088855D01*
X133324765Y-82081656D01*
X133277168Y-82069733D01*
X133230968Y-82053203D01*
X133186612Y-82032224D01*
X133144525Y-82006998D01*
X133105113Y-81977768D01*
X133068757Y-81944816D01*
X133035805Y-81908460D01*
X133006575Y-81869048D01*
X132981349Y-81826961D01*
X132960370Y-81782605D01*
X132943840Y-81736405D01*
X132931917Y-81688808D01*
X132924718Y-81640272D01*
X132922310Y-81591263D01*
X132922310Y-78591263D01*
X132924718Y-78542254D01*
X132931917Y-78493718D01*
X132943840Y-78446121D01*
X132960370Y-78399921D01*
X132981349Y-78355565D01*
X133006575Y-78313478D01*
X133035805Y-78274066D01*
X133068757Y-78237710D01*
X133105113Y-78204758D01*
X133144525Y-78175528D01*
X133186612Y-78150302D01*
X133230968Y-78129323D01*
X133277168Y-78112793D01*
X133324765Y-78100870D01*
X133373301Y-78093671D01*
X133422310Y-78091263D01*
X134422310Y-78091263D01*
X134471319Y-78093671D01*
X134471319Y-78093671D01*
G37*
D13*
G04 #@! TD*
G04 #@! TO.P,POT1,*
G04 #@! TO.N,*
X133922310Y-80091263D03*
D14*
G04 #@! TO.P,POT1,1*
G04 #@! TO.N,GND*
X135902310Y-90091263D03*
D15*
G04 #@! TO.P,POT1,2*
G04 #@! TO.N,/pot*
X139672310Y-90091263D03*
G04 #@! TO.P,POT1,3*
G04 #@! TO.N,+5V*
X143522310Y-90091263D03*
D12*
G04 #@! TD*
G04 #@! TO.N,*
G04 #@! TO.C,POT1*
G36*
X145971319Y-78093671D02*
X146019855Y-78100870D01*
X146067452Y-78112793D01*
X146113652Y-78129323D01*
X146158008Y-78150302D01*
X146200095Y-78175528D01*
X146239507Y-78204758D01*
X146275863Y-78237710D01*
X146308815Y-78274066D01*
X146338045Y-78313478D01*
X146363271Y-78355565D01*
X146384250Y-78399921D01*
X146400780Y-78446121D01*
X146412703Y-78493718D01*
X146419902Y-78542254D01*
X146422310Y-78591263D01*
X146422310Y-81591263D01*
X146419902Y-81640272D01*
X146412703Y-81688808D01*
X146400780Y-81736405D01*
X146384250Y-81782605D01*
X146363271Y-81826961D01*
X146338045Y-81869048D01*
X146308815Y-81908460D01*
X146275863Y-81944816D01*
X146239507Y-81977768D01*
X146200095Y-82006998D01*
X146158008Y-82032224D01*
X146113652Y-82053203D01*
X146067452Y-82069733D01*
X146019855Y-82081656D01*
X145971319Y-82088855D01*
X145922310Y-82091263D01*
X144922310Y-82091263D01*
X144873301Y-82088855D01*
X144824765Y-82081656D01*
X144777168Y-82069733D01*
X144730968Y-82053203D01*
X144686612Y-82032224D01*
X144644525Y-82006998D01*
X144605113Y-81977768D01*
X144568757Y-81944816D01*
X144535805Y-81908460D01*
X144506575Y-81869048D01*
X144481349Y-81826961D01*
X144460370Y-81782605D01*
X144443840Y-81736405D01*
X144431917Y-81688808D01*
X144424718Y-81640272D01*
X144422310Y-81591263D01*
X144422310Y-78591263D01*
X144424718Y-78542254D01*
X144431917Y-78493718D01*
X144443840Y-78446121D01*
X144460370Y-78399921D01*
X144481349Y-78355565D01*
X144506575Y-78313478D01*
X144535805Y-78274066D01*
X144568757Y-78237710D01*
X144605113Y-78204758D01*
X144644525Y-78175528D01*
X144686612Y-78150302D01*
X144730968Y-78129323D01*
X144777168Y-78112793D01*
X144824765Y-78100870D01*
X144873301Y-78093671D01*
X144922310Y-78091263D01*
X145922310Y-78091263D01*
X145971319Y-78093671D01*
X145971319Y-78093671D01*
G37*
D13*
G04 #@! TO.P,POT1,*
G04 #@! TO.N,*
X145422310Y-80091263D03*
G04 #@! TD*
D16*
G04 #@! TO.P,Q5,2*
G04 #@! TO.N,Net-(Q5-Pad2)*
X73460000Y-106900000D03*
G04 #@! TO.P,Q5,3*
G04 #@! TO.N,Net-(Q4-Pad2)*
X70920000Y-106900000D03*
D17*
G04 #@! TO.P,Q5,1*
G04 #@! TO.N,Net-(Q5-Pad1)*
X76000000Y-106900000D03*
G04 #@! TD*
D18*
G04 #@! TO.P,SW1,1*
G04 #@! TO.N,GND*
X126400000Y-86900000D03*
G04 #@! TO.P,SW1,2*
G04 #@! TO.N,Net-(R20-Pad1)*
X121400000Y-86900000D03*
G04 #@! TO.P,SW1,1*
G04 #@! TO.N,GND*
X126400000Y-74400000D03*
G04 #@! TO.P,SW1,2*
G04 #@! TO.N,Net-(R20-Pad1)*
X121400000Y-74400000D03*
G04 #@! TD*
D16*
G04 #@! TO.P,U1,12*
G04 #@! TO.N,/D1*
X82472310Y-72851265D03*
G04 #@! TO.P,U1,11*
G04 #@! TO.N,Net-(R4-Pad1)*
X85012310Y-72851265D03*
G04 #@! TO.P,U1,10*
G04 #@! TO.N,Net-(R9-Pad1)*
X87552310Y-72851265D03*
G04 #@! TO.P,U1,9*
G04 #@! TO.N,/D2*
X90092310Y-72851265D03*
G04 #@! TO.P,U1,8*
G04 #@! TO.N,/D3*
X92632310Y-72851265D03*
G04 #@! TO.P,U1,7*
G04 #@! TO.N,Net-(R5-Pad1)*
X95172310Y-72851265D03*
G04 #@! TO.P,U1,6*
G04 #@! TO.N,/D4*
X95172310Y-88091265D03*
G04 #@! TO.P,U1,5*
G04 #@! TO.N,Net-(R10-Pad1)*
X92632310Y-88091265D03*
G04 #@! TO.P,U1,4*
G04 #@! TO.N,Net-(R6-Pad1)*
X90092310Y-88091265D03*
G04 #@! TO.P,U1,3*
G04 #@! TO.N,Net-(R11-Pad1)*
X87552310Y-88091265D03*
G04 #@! TO.P,U1,2*
G04 #@! TO.N,Net-(R7-Pad1)*
X85012310Y-88091265D03*
D17*
G04 #@! TO.P,U1,1*
G04 #@! TO.N,Net-(R8-Pad1)*
X82472310Y-88091265D03*
G04 #@! TD*
D19*
G04 #@! TO.P,ANT1,1*
G04 #@! TO.N,Net-(ANT1-Pad1)*
X64200000Y-98927692D03*
G04 #@! TD*
D20*
G04 #@! TO.P,D1,2*
G04 #@! TO.N,Net-(D1-Pad2)*
X65900000Y-110480000D03*
D14*
G04 #@! TO.P,D1,1*
G04 #@! TO.N,/monitor*
X65900000Y-118100000D03*
G04 #@! TD*
D21*
G04 #@! TO.P,R14,2*
G04 #@! TO.N,GND*
X70740000Y-121900000D03*
D22*
G04 #@! TO.P,R14,1*
G04 #@! TO.N,/monitor*
X68200000Y-121900000D03*
G04 #@! TD*
D23*
G04 #@! TO.P,C2,2*
G04 #@! TO.N,GND*
X75700000Y-120600000D03*
D24*
G04 #@! TO.P,C2,1*
G04 #@! TO.N,/monitor*
X77700000Y-120600000D03*
G04 #@! TD*
D21*
G04 #@! TO.P,R15,2*
G04 #@! TO.N,+5V*
X67500000Y-97660000D03*
D22*
G04 #@! TO.P,R15,1*
G04 #@! TO.N,Net-(Q4-Pad1)*
X67500000Y-100200000D03*
G04 #@! TD*
D21*
G04 #@! TO.P,R16,2*
G04 #@! TO.N,+5V*
X71960000Y-112000000D03*
D22*
G04 #@! TO.P,R16,1*
G04 #@! TO.N,Net-(Q5-Pad1)*
X74500000Y-112000000D03*
G04 #@! TD*
D21*
G04 #@! TO.P,R17,2*
G04 #@! TO.N,+5V*
X67460000Y-93700000D03*
D22*
G04 #@! TO.P,R17,1*
G04 #@! TO.N,Net-(Q6-Pad1)*
X70000000Y-93700000D03*
G04 #@! TD*
D15*
G04 #@! TO.P,y1,2*
G04 #@! TO.N,Net-(R3-Pad1)*
X99560000Y-68000000D03*
D14*
G04 #@! TO.P,y1,1*
G04 #@! TO.N,GND*
X102100000Y-68000000D03*
G04 #@! TD*
D15*
G04 #@! TO.P,r1,2*
G04 #@! TO.N,Net-(R2-Pad1)*
X87840000Y-68000000D03*
D14*
G04 #@! TO.P,r1,1*
G04 #@! TO.N,GND*
X85300000Y-68000000D03*
G04 #@! TD*
D15*
G04 #@! TO.P,g1,2*
G04 #@! TO.N,Net-(R1-Pad1)*
X77940000Y-68000000D03*
D14*
G04 #@! TO.P,g1,1*
G04 #@! TO.N,GND*
X75400000Y-68000000D03*
G04 #@! TD*
D25*
G04 #@! TO.P,J1,2*
G04 #@! TO.N,/bz*
X110888737Y-135872309D03*
D26*
G04 #@! TO.P,J1,1*
G04 #@! TO.N,+12V*
X105808737Y-135872309D03*
G04 #@! TD*
D13*
G04 #@! TO.P,onRelay1,5*
G04 #@! TO.N,GND*
X140508736Y-135472310D03*
G04 #@! TO.P,onRelay1,1*
G04 #@! TO.N,Net-(D4-Pad2)*
X130508736Y-135472310D03*
G04 #@! TD*
G04 #@! TO.P,offRelay1,5*
G04 #@! TO.N,GND*
X74508736Y-135472308D03*
G04 #@! TO.P,offRelay1,1*
G04 #@! TO.N,Net-(D5-Pad2)*
X64508736Y-135472308D03*
G04 #@! TD*
D25*
G04 #@! TO.P,J2,2*
G04 #@! TO.N,GND*
X100188736Y-135872308D03*
D26*
G04 #@! TO.P,J2,1*
G04 #@! TO.N,+5V*
X95108736Y-135872308D03*
G04 #@! TD*
D20*
G04 #@! TO.P,D4,2*
G04 #@! TO.N,Net-(D4-Pad2)*
X131388736Y-126172308D03*
D14*
G04 #@! TO.P,D4,1*
G04 #@! TO.N,GND*
X139008736Y-126172308D03*
G04 #@! TD*
D20*
G04 #@! TO.P,D5,2*
G04 #@! TO.N,Net-(D5-Pad2)*
X65288736Y-126272310D03*
D14*
G04 #@! TO.P,D5,1*
G04 #@! TO.N,GND*
X72908736Y-126272310D03*
G04 #@! TD*
D23*
G04 #@! TO.P,C1,2*
G04 #@! TO.N,GND*
X134900000Y-72600000D03*
D24*
G04 #@! TO.P,C1,1*
G04 #@! TO.N,Net-(C1-Pad1)*
X134900000Y-70600000D03*
G04 #@! TD*
D22*
G04 #@! TO.P,R1,2*
G04 #@! TO.N,/onLed*
X107296051Y-93896051D03*
D27*
G04 #@! TD*
G04 #@! TO.N,/onLed*
G04 #@! TO.C,R1*
X107296051Y-93896051D02*
X107296051Y-93896051D01*
D22*
G04 #@! TO.P,R1,1*
G04 #@! TO.N,Net-(R1-Pad1)*
X105500000Y-92100000D03*
G04 #@! TD*
G04 #@! TO.P,R2,2*
G04 #@! TO.N,/offLed*
X112196051Y-95596051D03*
D27*
G04 #@! TD*
G04 #@! TO.N,/offLed*
G04 #@! TO.C,R2*
X112196051Y-95596051D02*
X112196051Y-95596051D01*
D22*
G04 #@! TO.P,R2,1*
G04 #@! TO.N,Net-(R2-Pad1)*
X110400000Y-93800000D03*
G04 #@! TD*
G04 #@! TO.P,R3,2*
G04 #@! TO.N,/otherLed*
X117096051Y-97296051D03*
D27*
G04 #@! TD*
G04 #@! TO.N,/otherLed*
G04 #@! TO.C,R3*
X117096051Y-97296051D02*
X117096051Y-97296051D01*
D22*
G04 #@! TO.P,R3,1*
G04 #@! TO.N,Net-(R3-Pad1)*
X115300000Y-95500000D03*
G04 #@! TD*
D21*
G04 #@! TO.P,R8,2*
G04 #@! TO.N,Net-(R8-Pad2)*
X97400000Y-95040000D03*
D22*
G04 #@! TO.P,R8,1*
G04 #@! TO.N,Net-(R8-Pad1)*
X97400000Y-92500000D03*
G04 #@! TD*
D21*
G04 #@! TO.P,R9,2*
G04 #@! TO.N,Net-(R9-Pad2)*
X93200000Y-95040000D03*
D22*
G04 #@! TO.P,R9,1*
G04 #@! TO.N,Net-(R9-Pad1)*
X93200000Y-92500000D03*
G04 #@! TD*
D21*
G04 #@! TO.P,R10,2*
G04 #@! TO.N,Net-(R10-Pad2)*
X89100000Y-95040000D03*
D22*
G04 #@! TO.P,R10,1*
G04 #@! TO.N,Net-(R10-Pad1)*
X89100000Y-92500000D03*
G04 #@! TD*
D21*
G04 #@! TO.P,R11,2*
G04 #@! TO.N,Net-(R11-Pad2)*
X84900000Y-95040000D03*
D22*
G04 #@! TO.P,R11,1*
G04 #@! TO.N,Net-(R11-Pad1)*
X84900000Y-92500000D03*
G04 #@! TD*
D21*
G04 #@! TO.P,R12,2*
G04 #@! TO.N,/slideSwitch*
X151572309Y-87051264D03*
D22*
G04 #@! TO.P,R12,1*
G04 #@! TO.N,GND*
X151572309Y-89591264D03*
G04 #@! TD*
D21*
G04 #@! TO.P,R13,2*
G04 #@! TO.N,/buzz*
X107748740Y-127872311D03*
D22*
G04 #@! TO.P,R13,1*
G04 #@! TO.N,Net-(Q3-Pad2)*
X105208740Y-127872311D03*
G04 #@! TD*
D21*
G04 #@! TO.P,R18,2*
G04 #@! TO.N,Net-(Q2-Pad2)*
X86800000Y-129940000D03*
D22*
G04 #@! TO.P,R18,1*
G04 #@! TO.N,/offRelay*
X86800000Y-127400000D03*
G04 #@! TD*
D21*
G04 #@! TO.P,R19,2*
G04 #@! TO.N,Net-(Q1-Pad2)*
X113960000Y-129200000D03*
D22*
G04 #@! TO.P,R19,1*
G04 #@! TO.N,/onRelay*
X116500000Y-129200000D03*
G04 #@! TD*
D21*
G04 #@! TO.P,R20,2*
G04 #@! TO.N,Net-(C1-Pad1)*
X129140000Y-70200000D03*
D22*
G04 #@! TO.P,R20,1*
G04 #@! TO.N,Net-(R20-Pad1)*
X126600000Y-70200000D03*
G04 #@! TD*
D21*
G04 #@! TO.P,R21,2*
G04 #@! TO.N,Net-(R20-Pad1)*
X120760000Y-91100000D03*
D22*
G04 #@! TO.P,R21,1*
G04 #@! TO.N,+5V*
X123300000Y-91100000D03*
G04 #@! TD*
D11*
G04 #@! TO.P,SW2,4*
G04 #@! TO.N,+5V*
X159292310Y-78691263D03*
G04 #@! TO.P,SW2,2*
G04 #@! TO.N,/slideSwitch*
X151672310Y-81231263D03*
G04 #@! TO.P,SW2,3*
G04 #@! TO.N,+5V*
X159292310Y-81231263D03*
D10*
G04 #@! TO.P,SW2,1*
G04 #@! TO.N,/slideSwitch*
X151672310Y-78691263D03*
G04 #@! TD*
D15*
G04 #@! TO.P,g2,2*
G04 #@! TO.N,Net-(R1-Pad1)*
X79760000Y-68000000D03*
D14*
G04 #@! TO.P,g2,1*
G04 #@! TO.N,GND*
X82300000Y-68000000D03*
G04 #@! TD*
D15*
G04 #@! TO.P,r2,2*
G04 #@! TO.N,Net-(R2-Pad1)*
X89660000Y-68000000D03*
D14*
G04 #@! TO.P,r2,1*
G04 #@! TO.N,GND*
X92200000Y-68000000D03*
G04 #@! TD*
D15*
G04 #@! TO.P,y2,2*
G04 #@! TO.N,Net-(R3-Pad1)*
X97740000Y-68000000D03*
D14*
G04 #@! TO.P,y2,1*
G04 #@! TO.N,GND*
X95200000Y-68000000D03*
G04 #@! TD*
D21*
G04 #@! TO.P,R4,2*
G04 #@! TO.N,Net-(R4-Pad2)*
X86620000Y-110500000D03*
D22*
G04 #@! TO.P,R4,1*
G04 #@! TO.N,Net-(R4-Pad1)*
X79000000Y-110500000D03*
G04 #@! TD*
D21*
G04 #@! TO.P,R5,2*
G04 #@! TO.N,Net-(R5-Pad2)*
X89520000Y-112700000D03*
D22*
G04 #@! TO.P,R5,1*
G04 #@! TO.N,Net-(R5-Pad1)*
X81900000Y-112700000D03*
G04 #@! TD*
D21*
G04 #@! TO.P,R6,2*
G04 #@! TO.N,Net-(R6-Pad2)*
X86620000Y-115000000D03*
D22*
G04 #@! TO.P,R6,1*
G04 #@! TO.N,Net-(R6-Pad1)*
X79000000Y-115000000D03*
G04 #@! TD*
D21*
G04 #@! TO.P,R7,2*
G04 #@! TO.N,Net-(R7-Pad2)*
X89420000Y-117200000D03*
D22*
G04 #@! TO.P,R7,1*
G04 #@! TO.N,Net-(R7-Pad1)*
X81800000Y-117200000D03*
G04 #@! TD*
D28*
G04 #@! TO.P,U7414,14*
G04 #@! TO.N,+5V*
X159300000Y-126020000D03*
G04 #@! TO.P,U7414,7*
G04 #@! TO.N,GND*
X144060000Y-118400000D03*
D29*
G04 #@! TO.P,U7414,13*
G04 #@! TO.N,N/C*
X156760000Y-126020000D03*
G04 #@! TO.P,U7414,6*
X146600000Y-118400000D03*
G04 #@! TO.P,U7414,12*
X154220000Y-126020000D03*
G04 #@! TO.P,U7414,5*
X149140000Y-118400000D03*
G04 #@! TO.P,U7414,11*
X151680000Y-126020000D03*
G04 #@! TO.P,U7414,4*
X151680000Y-118400000D03*
G04 #@! TO.P,U7414,10*
X149140000Y-126020000D03*
G04 #@! TO.P,U7414,3*
X154220000Y-118400000D03*
G04 #@! TO.P,U7414,9*
X146600000Y-126020000D03*
D28*
G04 #@! TO.P,U7414,2*
G04 #@! TO.N,/pushButton*
X156760000Y-118400000D03*
D29*
G04 #@! TO.P,U7414,8*
G04 #@! TO.N,N/C*
X144060000Y-126020000D03*
D30*
G04 #@! TO.P,U7414,1*
G04 #@! TO.N,Net-(C1-Pad1)*
X159300000Y-118400000D03*
G04 #@! TD*
D10*
G04 #@! TO.P,U74164,1*
G04 #@! TO.N,+5V*
X84700000Y-107000000D03*
D11*
G04 #@! TO.P,U74164,8*
G04 #@! TO.N,/CLK*
X99940000Y-99380000D03*
G04 #@! TO.P,U74164,2*
G04 #@! TO.N,/data*
X87240000Y-107000000D03*
G04 #@! TO.P,U74164,9*
G04 #@! TO.N,+5V*
X97400000Y-99380000D03*
G04 #@! TO.P,U74164,3*
G04 #@! TO.N,Net-(R4-Pad2)*
X89780000Y-107000000D03*
G04 #@! TO.P,U74164,10*
G04 #@! TO.N,Net-(R8-Pad2)*
X94860000Y-99380000D03*
G04 #@! TO.P,U74164,4*
G04 #@! TO.N,Net-(R5-Pad2)*
X92320000Y-107000000D03*
G04 #@! TO.P,U74164,11*
G04 #@! TO.N,Net-(R9-Pad2)*
X92320000Y-99380000D03*
G04 #@! TO.P,U74164,5*
G04 #@! TO.N,Net-(R6-Pad2)*
X94860000Y-107000000D03*
G04 #@! TO.P,U74164,12*
G04 #@! TO.N,Net-(R10-Pad2)*
X89780000Y-99380000D03*
G04 #@! TO.P,U74164,6*
G04 #@! TO.N,Net-(R7-Pad2)*
X97400000Y-107000000D03*
G04 #@! TO.P,U74164,13*
G04 #@! TO.N,Net-(R11-Pad2)*
X87240000Y-99380000D03*
G04 #@! TO.P,U74164,7*
G04 #@! TO.N,GND*
X99940000Y-107000000D03*
G04 #@! TO.P,U74164,14*
G04 #@! TO.N,+5V*
X84700000Y-99380000D03*
G04 #@! TD*
D16*
G04 #@! TO.P,Q1,2*
G04 #@! TO.N,Net-(Q1-Pad2)*
X116608735Y-134232309D03*
G04 #@! TO.P,Q1,3*
G04 #@! TO.N,Net-(D4-Pad2)*
X116608735Y-131692309D03*
D17*
G04 #@! TO.P,Q1,1*
G04 #@! TO.N,+12V*
X116608735Y-136772309D03*
G04 #@! TD*
G04 #@! TO.P,Q2,1*
G04 #@! TO.N,+12V*
X88708738Y-136872310D03*
D16*
G04 #@! TO.P,Q2,3*
G04 #@! TO.N,Net-(D5-Pad2)*
X88708738Y-131792310D03*
G04 #@! TO.P,Q2,2*
G04 #@! TO.N,Net-(Q2-Pad2)*
X88708738Y-134332310D03*
G04 #@! TD*
G04 #@! TO.P,Q3,2*
G04 #@! TO.N,Net-(Q3-Pad2)*
X98240000Y-127872310D03*
G04 #@! TO.P,Q3,3*
G04 #@! TO.N,/bz*
X100780000Y-127872310D03*
D17*
G04 #@! TO.P,Q3,1*
G04 #@! TO.N,+12V*
X95700000Y-127872310D03*
G04 #@! TD*
G04 #@! TO.P,Q4,1*
G04 #@! TO.N,Net-(Q4-Pad1)*
X64600000Y-102500000D03*
D16*
G04 #@! TO.P,Q4,3*
G04 #@! TO.N,Net-(D1-Pad2)*
X64600000Y-107580000D03*
G04 #@! TO.P,Q4,2*
G04 #@! TO.N,Net-(Q4-Pad2)*
X64600000Y-105040000D03*
G04 #@! TD*
D17*
G04 #@! TO.P,Q6,1*
G04 #@! TO.N,Net-(Q6-Pad1)*
X73091266Y-97827690D03*
D16*
G04 #@! TO.P,Q6,3*
G04 #@! TO.N,Net-(Q5-Pad2)*
X73091266Y-102907690D03*
G04 #@! TO.P,Q6,2*
G04 #@! TO.N,Net-(ANT1-Pad1)*
X73091266Y-100367690D03*
G04 #@! TD*
D31*
G04 #@! TO.N,GND*
X139008736Y-133972308D02*
X140508737Y-135472309D01*
X139008736Y-126172308D02*
X139008736Y-133972308D01*
X72908739Y-133872308D02*
X74508735Y-135472312D01*
X72908736Y-126272310D02*
X72908739Y-133872308D01*
D32*
X139008736Y-126172308D02*
X139008737Y-124272309D01*
X139008737Y-124272309D02*
X138108737Y-123372308D01*
X113908737Y-123372308D02*
X113208737Y-123372310D01*
X100408737Y-123372307D02*
X100408734Y-123372310D01*
X113208737Y-123372310D02*
X101900000Y-123372307D01*
X101900000Y-123372307D02*
X100408737Y-123372307D01*
X135400000Y-123372308D02*
X133000000Y-123372308D01*
X99940000Y-123332310D02*
X99900000Y-123372310D01*
X99940000Y-107000000D02*
X99940000Y-123332310D01*
X100408734Y-123372310D02*
X99900000Y-123372310D01*
X133000000Y-123372308D02*
X130900000Y-123372308D01*
X130900000Y-123372308D02*
X113908737Y-123372308D01*
X130920000Y-123352308D02*
X130900000Y-123372308D01*
X130920000Y-112700000D02*
X130920000Y-123352308D01*
X133208737Y-90091263D02*
X125840000Y-97460000D01*
X135902310Y-90091263D02*
X133208737Y-90091263D01*
D33*
X137787692Y-123372308D02*
X136400000Y-123372308D01*
X142760000Y-118400000D02*
X137787692Y-123372308D01*
X144060000Y-118400000D02*
X142760000Y-118400000D01*
D32*
X138108737Y-123372308D02*
X136400000Y-123372308D01*
X136400000Y-123372308D02*
X135400000Y-123372308D01*
D33*
X71508736Y-126272310D02*
X72908736Y-126272310D01*
X70740000Y-125503574D02*
X71508736Y-126272310D01*
X70740000Y-121900000D02*
X70740000Y-125503574D01*
X74400000Y-121900000D02*
X75700000Y-120600000D01*
X70740000Y-121900000D02*
X74400000Y-121900000D01*
D32*
X93888735Y-129572310D02*
X100188737Y-135872310D01*
X93708738Y-129392313D02*
X93888735Y-129572310D01*
X93708735Y-125672311D02*
X93708738Y-129392313D01*
X99900000Y-123372310D02*
X96008736Y-123372310D01*
X96008736Y-123372310D02*
X93708735Y-125672311D01*
D31*
G04 #@! TO.N,+12V*
X88913749Y-137077318D02*
X88708735Y-137077319D01*
X90653814Y-138817387D02*
X88913749Y-137077318D01*
X108908737Y-138817386D02*
X114563660Y-138817386D01*
X104308737Y-138817387D02*
X90653814Y-138817387D01*
X105808736Y-138717387D02*
X105908737Y-138817387D01*
X105808737Y-135872309D02*
X105808736Y-138717387D01*
X104308737Y-138817387D02*
X105908737Y-138817387D01*
X105908737Y-138817387D02*
X108908737Y-138817386D01*
X116608735Y-136772311D02*
X114563660Y-138817386D01*
X116608735Y-136772309D02*
X116608735Y-136772311D01*
D33*
G04 #@! TO.N,Net-(R8-Pad2)*
X97400000Y-95040000D02*
X94860000Y-97580000D01*
X94860000Y-99380000D02*
X94860000Y-97580000D01*
G04 #@! TO.N,Net-(R9-Pad2)*
X93200000Y-98500000D02*
X92320000Y-99380000D01*
X93200000Y-95040000D02*
X93200000Y-98500000D01*
G04 #@! TO.N,Net-(R10-Pad2)*
X89100000Y-98700000D02*
X89780000Y-99380000D01*
X89100000Y-95040000D02*
X89100000Y-98700000D01*
G04 #@! TO.N,Net-(R11-Pad2)*
X87240000Y-97380000D02*
X87240000Y-99380000D01*
X84900000Y-95040000D02*
X87240000Y-97380000D01*
D32*
G04 #@! TO.N,+5V*
X95108736Y-133372308D02*
X95108736Y-135872308D01*
X92000000Y-130263572D02*
X95108736Y-133372308D01*
X84700000Y-103100000D02*
X84700000Y-107000000D01*
X96780000Y-102200000D02*
X85600000Y-102200000D01*
X97400000Y-99380000D02*
X97400000Y-101580000D01*
X97400000Y-101580000D02*
X96780000Y-102200000D01*
X85600000Y-102200000D02*
X84700000Y-102200000D01*
X84700000Y-99380000D02*
X84700000Y-102200000D01*
X84700000Y-102200000D02*
X84700000Y-103100000D01*
X86700000Y-122100000D02*
X92000000Y-127400000D01*
X92000000Y-127400000D02*
X92000000Y-130263572D01*
X86700000Y-122100000D02*
X84700000Y-120100000D01*
X84700000Y-107000000D02*
X84700000Y-120100000D01*
X123300000Y-91100000D02*
X123300000Y-97460000D01*
X140931047Y-87500000D02*
X143522310Y-90091263D01*
X140931047Y-87500000D02*
X130800000Y-87500000D01*
X127200000Y-91100000D02*
X123300000Y-91100000D01*
X130800000Y-87500000D02*
X127200000Y-91100000D01*
D33*
X159292310Y-78691263D02*
X159292310Y-81607690D01*
X159292310Y-81607690D02*
X159292310Y-81231263D01*
X67460000Y-97620000D02*
X67500000Y-97660000D01*
X67460000Y-93700000D02*
X67460000Y-97620000D01*
X81400000Y-120100000D02*
X84700000Y-120100000D01*
X80400000Y-120100000D02*
X81400000Y-120100000D01*
X73270051Y-114300000D02*
X74600000Y-114300000D01*
X71960000Y-112989949D02*
X73270051Y-114300000D01*
X71960000Y-112000000D02*
X71960000Y-112989949D01*
X74600000Y-114300000D02*
X80400000Y-120100000D01*
D31*
G04 #@! TO.N,Net-(D4-Pad2)*
X131388738Y-134592307D02*
X130508738Y-135472308D01*
X131388737Y-126172309D02*
X131388738Y-134592307D01*
X121449395Y-135472309D02*
X124400000Y-135472309D01*
X117669395Y-131692309D02*
X121449395Y-135472309D01*
X116608735Y-131692309D02*
X117669395Y-131692309D01*
X130508738Y-135472308D02*
X124400000Y-135472309D01*
G04 #@! TO.N,Net-(D5-Pad2)*
X65288737Y-126272308D02*
X65288737Y-134692307D01*
X64508736Y-135472308D02*
X65288737Y-134692307D01*
D34*
G04 #@! TO.N,/pushButton*
X151800000Y-115300000D02*
X154060000Y-115300000D01*
X151800000Y-115300000D02*
X151960000Y-115300000D01*
X136060000Y-115300000D02*
X151800000Y-115300000D01*
D33*
X136060000Y-115300000D02*
X154060000Y-115300000D01*
X133460000Y-112700000D02*
X136060000Y-115300000D01*
D34*
X155660000Y-116900000D02*
X156760000Y-118000000D01*
D33*
X155460000Y-116700000D02*
X155400000Y-116640000D01*
X156760000Y-118000000D02*
X155460000Y-116700000D01*
X156760000Y-118400000D02*
X156760000Y-118000000D01*
X154060000Y-115300000D02*
X155400000Y-116640000D01*
X155400000Y-116640000D02*
X155660000Y-116900000D01*
G04 #@! TO.N,Net-(D1-Pad2)*
X64600000Y-109180000D02*
X65900000Y-110480000D01*
X64600000Y-107580000D02*
X64600000Y-109180000D01*
G04 #@! TO.N,Net-(Q4-Pad2)*
X66460000Y-106900000D02*
X70920000Y-106900000D01*
X64600000Y-105040000D02*
X66460000Y-106900000D01*
G04 #@! TO.N,Net-(Q4-Pad1)*
X67500000Y-100200000D02*
X67500000Y-101800000D01*
X66800000Y-102500000D02*
X64600000Y-102500000D01*
X67500000Y-101800000D02*
X66800000Y-102500000D01*
G04 #@! TO.N,Net-(Q5-Pad1)*
X76000000Y-110500000D02*
X74500000Y-112000000D01*
X76000000Y-106900000D02*
X76000000Y-110500000D01*
G04 #@! TO.N,Net-(Q5-Pad2)*
X73091266Y-106531266D02*
X73460000Y-106900000D01*
X73091266Y-102907690D02*
X73091266Y-106531266D01*
G04 #@! TO.N,Net-(Q6-Pad1)*
X72866266Y-97827690D02*
X73091266Y-97827690D01*
X71841266Y-97827690D02*
X73091266Y-97827690D01*
X70000000Y-95986424D02*
X71841266Y-97827690D01*
X70000000Y-93700000D02*
X70000000Y-95986424D01*
G04 #@! TO.N,Net-(C1-Pad1)*
X160600000Y-118400000D02*
X160700000Y-118300000D01*
X159300000Y-118400000D02*
X160600000Y-118400000D01*
D34*
X160700000Y-102300000D02*
X160700000Y-88400000D01*
D33*
X160700000Y-88400000D02*
X160700000Y-102500000D01*
X160700000Y-118300000D02*
X160700000Y-102500000D01*
X160700000Y-102500000D02*
X160700000Y-102300000D01*
X154800000Y-82500000D02*
X160700000Y-88400000D01*
X154800000Y-79300000D02*
X154800000Y-82500000D01*
X149900000Y-74400000D02*
X154800000Y-79300000D01*
X139800000Y-74400000D02*
X149900000Y-74400000D01*
X134900000Y-70600000D02*
X136000000Y-70600000D01*
X136000000Y-70600000D02*
X139800000Y-74400000D01*
G04 #@! TO.N,Net-(Q1-Pad2)*
X115232309Y-134232309D02*
X116608735Y-134232309D01*
X113960000Y-129200000D02*
X113960000Y-132960000D01*
X113960000Y-132960000D02*
X115232309Y-134232309D01*
G04 #@! TO.N,Net-(Q2-Pad2)*
X86815768Y-133500000D02*
X86800000Y-133500000D01*
X87648078Y-134332310D02*
X86815768Y-133500000D01*
X88708738Y-134332310D02*
X87648078Y-134332310D01*
X86800000Y-129940000D02*
X86800000Y-133500000D01*
G04 #@! TO.N,Net-(R20-Pad1)*
X121400000Y-73801000D02*
X121400000Y-74400000D01*
X125001000Y-70200000D02*
X121400000Y-73801000D01*
X126600000Y-70200000D02*
X125001000Y-70200000D01*
X121400000Y-90460000D02*
X120760000Y-91100000D01*
X121400000Y-86900000D02*
X121400000Y-90460000D01*
G04 #@! TO.N,Net-(ANT1-Pad1)*
X64200000Y-98927692D02*
X64227692Y-98900000D01*
X71623576Y-98900000D02*
X73091266Y-100367690D01*
X64227692Y-98900000D02*
X71623576Y-98900000D01*
G04 #@! TO.N,Net-(R7-Pad1)*
X82499999Y-116500001D02*
X81800000Y-117200000D01*
X83050001Y-115949999D02*
X82499999Y-116500001D01*
X83050001Y-91114234D02*
X83050001Y-115949999D01*
X85012310Y-89151925D02*
X83050001Y-91114234D01*
X85012310Y-88091265D02*
X85012310Y-89151925D01*
G04 #@! TO.N,Net-(R8-Pad1)*
X83013575Y-86300000D02*
X93300000Y-86300000D01*
X82472310Y-86841265D02*
X83013575Y-86300000D01*
X82472310Y-88091265D02*
X82472310Y-86841265D01*
X93900000Y-86900000D02*
X93900000Y-89000000D01*
X93300000Y-86300000D02*
X93900000Y-86900000D01*
X97400000Y-92500000D02*
X93900000Y-89000000D01*
G04 #@! TO.N,Net-(R10-Pad1)*
X89100000Y-91623575D02*
X89100000Y-92500000D01*
X92632310Y-88091265D02*
X89100000Y-91623575D01*
G04 #@! TO.N,Net-(R11-Pad1)*
X87552310Y-89847690D02*
X84900000Y-92500000D01*
X87552310Y-88091265D02*
X87552310Y-89847690D01*
D32*
G04 #@! TO.N,/bz*
X105673737Y-130657310D02*
X107008737Y-131992311D01*
X110888738Y-135872309D02*
X107008737Y-131992311D01*
X109388738Y-134372310D02*
X110888737Y-135872309D01*
X105016428Y-130000000D02*
X109388738Y-134372310D01*
X100780000Y-127872310D02*
X102907690Y-130000000D01*
X102907690Y-130000000D02*
X105016428Y-130000000D01*
D33*
G04 #@! TO.N,/D1*
X83222309Y-73601264D02*
X82472310Y-72851265D01*
X83222309Y-74222309D02*
X83222309Y-73601264D01*
X115800000Y-106800000D02*
X83222309Y-74222309D01*
X137720000Y-106800000D02*
X143620000Y-112700000D01*
X115800000Y-106800000D02*
X137720000Y-106800000D01*
G04 #@! TO.N,/pot*
X133460000Y-96303573D02*
X133460000Y-97460000D01*
X139672310Y-90091263D02*
X133460000Y-96303573D01*
G04 #@! TO.N,/onLed*
X149160000Y-103000000D02*
X158860000Y-112700000D01*
X107296051Y-93896051D02*
X116400000Y-103000000D01*
X116400000Y-103000000D02*
X149160000Y-103000000D01*
G04 #@! TO.N,/offLed*
X118300000Y-101700000D02*
X155751370Y-101700000D01*
X112196051Y-95596051D02*
X118300000Y-101700000D01*
X158860000Y-98591370D02*
X155751370Y-101700000D01*
X158860000Y-97460000D02*
X158860000Y-98591370D01*
G04 #@! TO.N,/otherLed*
X150440001Y-98259999D02*
X151240000Y-97460000D01*
X148600000Y-100100000D02*
X150440001Y-98259999D01*
X119900000Y-100100000D02*
X148600000Y-100100000D01*
X117096051Y-97296051D02*
X119900000Y-100100000D01*
G04 #@! TO.N,/data*
X89040000Y-105200000D02*
X102100000Y-105200000D01*
X87240000Y-107000000D02*
X89040000Y-105200000D01*
X102100000Y-105200000D02*
X107300000Y-110400000D01*
X133700000Y-110400000D02*
X136000000Y-112700000D01*
X107300000Y-110400000D02*
X133700000Y-110400000D01*
G04 #@! TO.N,/CLK*
X135140000Y-109300000D02*
X138540000Y-112700000D01*
X108728630Y-109300000D02*
X135140000Y-109300000D01*
X99940000Y-99380000D02*
X99940000Y-100511370D01*
X99940000Y-100511370D02*
X108728630Y-109300000D01*
G04 #@! TO.N,/D4*
X115181045Y-108100000D02*
X95172310Y-88091265D01*
X141080000Y-112700000D02*
X136480000Y-108100000D01*
X136480000Y-108100000D02*
X115181045Y-108100000D01*
G04 #@! TO.N,/D3*
X115897998Y-104200000D02*
X116100000Y-104200000D01*
X92632310Y-80934312D02*
X115897998Y-104200000D01*
X92632310Y-72851265D02*
X92632310Y-80934312D01*
D34*
X116100000Y-104200000D02*
X140200000Y-104200000D01*
D33*
X140200000Y-104200000D02*
X148700000Y-112700000D01*
X115897998Y-104200000D02*
X140200000Y-104200000D01*
G04 #@! TO.N,/D2*
X139060000Y-105600000D02*
X146160000Y-112700000D01*
X115900000Y-105600000D02*
X139060000Y-105600000D01*
X90092310Y-72851265D02*
X90092310Y-79792310D01*
X90092310Y-79792310D02*
X115900000Y-105600000D01*
G04 #@! TO.N,/slideSwitch*
X148700000Y-96328630D02*
X148700000Y-97460000D01*
X148700000Y-88933624D02*
X148700000Y-96328630D01*
X150582360Y-87051264D02*
X148700000Y-88933624D01*
X151572309Y-87051264D02*
X150582360Y-87051264D01*
X151672310Y-86951263D02*
X151572309Y-87051264D01*
X151672310Y-81231263D02*
X151672310Y-86951263D01*
X151672310Y-78691263D02*
X151672310Y-81231263D01*
G04 #@! TO.N,Net-(R1-Pad1)*
X79741843Y-68018157D02*
X79760000Y-68000000D01*
X96100000Y-71300000D02*
X98900000Y-74100000D01*
X81787208Y-71300000D02*
X96100000Y-71300000D01*
X79760000Y-68000000D02*
X79760000Y-69272792D01*
X79760000Y-69272792D02*
X81787208Y-71300000D01*
X98900000Y-85500000D02*
X105500000Y-92100000D01*
X98900000Y-74100000D02*
X98900000Y-85500000D01*
X77940000Y-68000000D02*
X79760000Y-68000000D01*
D34*
G04 #@! TO.N,Net-(R2-Pad1)*
X100200000Y-79400000D02*
X100200000Y-79300000D01*
X100200000Y-73400000D02*
X100200000Y-79100000D01*
X100200000Y-79100000D02*
X100200000Y-79300000D01*
X100200000Y-79100000D02*
X100200000Y-83600000D01*
D33*
X87440000Y-68000000D02*
X90060000Y-68000000D01*
X97000000Y-70200000D02*
X100200000Y-73400000D01*
X100200000Y-83600000D02*
X110400000Y-93800000D01*
X100200000Y-73400000D02*
X100200000Y-83600000D01*
X89660000Y-68000000D02*
X87940000Y-68000000D01*
X90587208Y-70200000D02*
X91300000Y-70200000D01*
X89660000Y-69272792D02*
X90587208Y-70200000D01*
X89660000Y-68000000D02*
X89660000Y-69272792D01*
X91300000Y-70200000D02*
X97000000Y-70200000D01*
D34*
G04 #@! TO.N,Net-(R3-Pad1)*
X101400000Y-78400000D02*
X101400000Y-77500000D01*
X101400000Y-72932792D02*
X101400000Y-77500000D01*
X101400000Y-81600000D02*
X101400000Y-77500000D01*
D33*
X97740000Y-69272792D02*
X101400000Y-72932792D01*
X97740000Y-68000000D02*
X97740000Y-69272792D01*
X101400000Y-81600000D02*
X115300000Y-95500000D01*
X101400000Y-72932792D02*
X101400000Y-81600000D01*
X97740000Y-68000000D02*
X99560000Y-68000000D01*
G04 #@! TD*
M02*
