G04 #@! TF.GenerationSoftware,KiCad,Pcbnew,(5.0.0)*
G04 #@! TF.CreationDate,2019-11-21T16:47:14+05:30*
G04 #@! TF.ProjectId,Smartarter,536D61727461727465722E6B69636164,rev?*
G04 #@! TF.SameCoordinates,Original*
G04 #@! TF.FileFunction,Legend,Top*
G04 #@! TF.FilePolarity,Positive*
%FSLAX46Y46*%
G04 Gerber Fmt 4.6, Leading zero omitted, Abs format (unit mm)*
G04 Created by KiCad (PCBNEW (5.0.0)) date 11/21/19 16:47:14*
%MOMM*%
%LPD*%
G01*
G04 APERTURE LIST*
%ADD10C,0.600000*%
%ADD11C,0.300000*%
%ADD12C,0.120000*%
%ADD13C,0.100000*%
%ADD14C,0.150000*%
%ADD15C,0.050000*%
%ADD16C,0.200000*%
G04 APERTURE END LIST*
D10*
X83400000Y-104000000D02*
G75*
G02X83400000Y-102400000I0J800000D01*
G01*
X160600000Y-121500000D02*
G75*
G02X160600000Y-123100000I0J-800000D01*
G01*
D11*
X94914285Y-139678571D02*
X94200000Y-139678571D01*
X94128571Y-140392857D01*
X94200000Y-140321428D01*
X94342857Y-140250000D01*
X94700000Y-140250000D01*
X94842857Y-140321428D01*
X94914285Y-140392857D01*
X94985714Y-140535714D01*
X94985714Y-140892857D01*
X94914285Y-141035714D01*
X94842857Y-141107142D01*
X94700000Y-141178571D01*
X94342857Y-141178571D01*
X94200000Y-141107142D01*
X94128571Y-141035714D01*
X95414285Y-139678571D02*
X95914285Y-141178571D01*
X96414285Y-139678571D01*
X99057142Y-139650000D02*
X98914285Y-139578571D01*
X98700000Y-139578571D01*
X98485714Y-139650000D01*
X98342857Y-139792857D01*
X98271428Y-139935714D01*
X98200000Y-140221428D01*
X98200000Y-140435714D01*
X98271428Y-140721428D01*
X98342857Y-140864285D01*
X98485714Y-141007142D01*
X98700000Y-141078571D01*
X98842857Y-141078571D01*
X99057142Y-141007142D01*
X99128571Y-140935714D01*
X99128571Y-140435714D01*
X98842857Y-140435714D01*
X99771428Y-141078571D02*
X99771428Y-139578571D01*
X100628571Y-141078571D01*
X100628571Y-139578571D01*
X101342857Y-141078571D02*
X101342857Y-139578571D01*
X101700000Y-139578571D01*
X101914285Y-139650000D01*
X102057142Y-139792857D01*
X102128571Y-139935714D01*
X102200000Y-140221428D01*
X102200000Y-140435714D01*
X102128571Y-140721428D01*
X102057142Y-140864285D01*
X101914285Y-141007142D01*
X101700000Y-141078571D01*
X101342857Y-141078571D01*
X110392857Y-140292857D02*
X110607142Y-140364285D01*
X110678571Y-140435714D01*
X110750000Y-140578571D01*
X110750000Y-140792857D01*
X110678571Y-140935714D01*
X110607142Y-141007142D01*
X110464285Y-141078571D01*
X109892857Y-141078571D01*
X109892857Y-139578571D01*
X110392857Y-139578571D01*
X110535714Y-139650000D01*
X110607142Y-139721428D01*
X110678571Y-139864285D01*
X110678571Y-140007142D01*
X110607142Y-140150000D01*
X110535714Y-140221428D01*
X110392857Y-140292857D01*
X109892857Y-140292857D01*
X111250000Y-139578571D02*
X112250000Y-139578571D01*
X111250000Y-141078571D01*
X112250000Y-141078571D01*
X104971428Y-141078571D02*
X104114285Y-141078571D01*
X104542857Y-141078571D02*
X104542857Y-139578571D01*
X104400000Y-139792857D01*
X104257142Y-139935714D01*
X104114285Y-140007142D01*
X105542857Y-139721428D02*
X105614285Y-139650000D01*
X105757142Y-139578571D01*
X106114285Y-139578571D01*
X106257142Y-139650000D01*
X106328571Y-139721428D01*
X106400000Y-139864285D01*
X106400000Y-140007142D01*
X106328571Y-140221428D01*
X105471428Y-141078571D01*
X106400000Y-141078571D01*
X106828571Y-139578571D02*
X107328571Y-141078571D01*
X107828571Y-139578571D01*
D12*
G04 #@! TO.C,A1*
X124570000Y-111430000D02*
X122030000Y-111430000D01*
X122030000Y-111430000D02*
X122030000Y-114100000D01*
X124570000Y-114100000D02*
X162800000Y-114100000D01*
X119360000Y-114100000D02*
X122030000Y-114100000D01*
X122030000Y-98730000D02*
X122030000Y-96060000D01*
X122030000Y-98730000D02*
X160130000Y-98730000D01*
X160130000Y-98730000D02*
X160130000Y-96060000D01*
X124570000Y-111430000D02*
X124570000Y-114100000D01*
X124570000Y-111430000D02*
X160130000Y-111430000D01*
X160130000Y-111430000D02*
X160130000Y-114100000D01*
D13*
X155050000Y-108890000D02*
X155050000Y-101270000D01*
X155050000Y-101270000D02*
X165210000Y-101270000D01*
X165210000Y-101270000D02*
X165210000Y-108890000D01*
X165210000Y-108890000D02*
X155050000Y-108890000D01*
D12*
X162800000Y-114100000D02*
X162800000Y-96060000D01*
X162800000Y-96060000D02*
X119360000Y-96060000D01*
X119360000Y-96060000D02*
X119360000Y-114100000D01*
D14*
G04 #@! TO.C,POT1*
X142001835Y-80181263D02*
G75*
G03X142001835Y-80181263I-2289525J0D01*
G01*
D15*
X144157310Y-83741263D02*
X145427310Y-85011263D01*
X145427310Y-85011263D02*
X145427310Y-91361263D01*
X135267310Y-83741263D02*
X133997310Y-85011263D01*
X145391923Y-80431263D02*
G75*
G03X145391923Y-80431263I-5679613J0D01*
G01*
X133997310Y-91361263D02*
X145427310Y-91361263D01*
X133997310Y-85011263D02*
X133997310Y-91361263D01*
D12*
G04 #@! TO.C,Q5*
X75260000Y-105050000D02*
X71660000Y-105050000D01*
X75784184Y-105777205D02*
G75*
G03X75260000Y-105050000I-2324184J-1122795D01*
G01*
X75816400Y-107998807D02*
G75*
G02X73460000Y-109500000I-2356400J1098807D01*
G01*
X71103600Y-107998807D02*
G75*
G03X73460000Y-109500000I2356400J1098807D01*
G01*
X71135816Y-105777205D02*
G75*
G02X71660000Y-105050000I2324184J-1122795D01*
G01*
G04 #@! TO.C,SW1*
X130050000Y-74500000D02*
X130050000Y-86800000D01*
X125470000Y-86800000D02*
X122330000Y-86800000D01*
X117750000Y-86800000D02*
X117750000Y-74500000D01*
X127330000Y-74500000D02*
X130050000Y-74500000D01*
X128439050Y-80750000D02*
G75*
G03X128439050Y-80750000I-4579050J0D01*
G01*
X117750000Y-74500000D02*
X120470000Y-74500000D01*
X122330000Y-74500000D02*
X125470000Y-74500000D01*
X120470000Y-86800000D02*
X117750000Y-86800000D01*
X130050000Y-86800000D02*
X127330000Y-86800000D01*
G04 #@! TO.C,U1*
X81472310Y-90471265D02*
X83472310Y-90471265D01*
X114092310Y-70851265D02*
X63552310Y-70851265D01*
X114092310Y-90091265D02*
X114092310Y-70851265D01*
X63552310Y-90091265D02*
X114092310Y-90091265D01*
X63552310Y-90091265D02*
X63552310Y-70851265D01*
G04 #@! TO.C,D1*
X64430000Y-116230000D02*
X67370000Y-116230000D01*
X64430000Y-115990000D02*
X67370000Y-115990000D01*
X64430000Y-116110000D02*
X67370000Y-116110000D01*
X67370000Y-111570000D02*
X67040000Y-111570000D01*
X67370000Y-117010000D02*
X67370000Y-111570000D01*
X67040000Y-117010000D02*
X67370000Y-117010000D01*
X64430000Y-111570000D02*
X64760000Y-111570000D01*
X64430000Y-117010000D02*
X64430000Y-111570000D01*
X64760000Y-117010000D02*
X64430000Y-117010000D01*
G04 #@! TO.C,R14*
X69120000Y-121900000D02*
X69740000Y-121900000D01*
X69120000Y-121900000D02*
G75*
G03X69120000Y-121900000I-920000J0D01*
G01*
G04 #@! TO.C,C2*
X78769801Y-121995000D02*
X78769801Y-121595000D01*
X78969801Y-121795000D02*
X78569801Y-121795000D01*
X74619000Y-120970000D02*
X74619000Y-120230000D01*
X74659000Y-121137000D02*
X74659000Y-120063000D01*
X74699000Y-121264000D02*
X74699000Y-119936000D01*
X74739000Y-121368000D02*
X74739000Y-119832000D01*
X74779000Y-121459000D02*
X74779000Y-119741000D01*
X74819000Y-121540000D02*
X74819000Y-119660000D01*
X74859000Y-121613000D02*
X74859000Y-119587000D01*
X74899000Y-119760000D02*
X74899000Y-119520000D01*
X74899000Y-121680000D02*
X74899000Y-121440000D01*
X74939000Y-119760000D02*
X74939000Y-119458000D01*
X74939000Y-121742000D02*
X74939000Y-121440000D01*
X74979000Y-119760000D02*
X74979000Y-119400000D01*
X74979000Y-121800000D02*
X74979000Y-121440000D01*
X75019000Y-119760000D02*
X75019000Y-119346000D01*
X75019000Y-121854000D02*
X75019000Y-121440000D01*
X75059000Y-119760000D02*
X75059000Y-119296000D01*
X75059000Y-121904000D02*
X75059000Y-121440000D01*
X75099000Y-119760000D02*
X75099000Y-119249000D01*
X75099000Y-121951000D02*
X75099000Y-121440000D01*
X75139000Y-119760000D02*
X75139000Y-119204000D01*
X75139000Y-121996000D02*
X75139000Y-121440000D01*
X75179000Y-119760000D02*
X75179000Y-119162000D01*
X75179000Y-122038000D02*
X75179000Y-121440000D01*
X75219000Y-119760000D02*
X75219000Y-119122000D01*
X75219000Y-122078000D02*
X75219000Y-121440000D01*
X75259000Y-119760000D02*
X75259000Y-119084000D01*
X75259000Y-122116000D02*
X75259000Y-121440000D01*
X75299000Y-119760000D02*
X75299000Y-119048000D01*
X75299000Y-122152000D02*
X75299000Y-121440000D01*
X75339000Y-119760000D02*
X75339000Y-119013000D01*
X75339000Y-122187000D02*
X75339000Y-121440000D01*
X75379000Y-119760000D02*
X75379000Y-118981000D01*
X75379000Y-122219000D02*
X75379000Y-121440000D01*
X75419000Y-119760000D02*
X75419000Y-118950000D01*
X75419000Y-122250000D02*
X75419000Y-121440000D01*
X75459000Y-119760000D02*
X75459000Y-118920000D01*
X75459000Y-122280000D02*
X75459000Y-121440000D01*
X75499000Y-119760000D02*
X75499000Y-118892000D01*
X75499000Y-122308000D02*
X75499000Y-121440000D01*
X75539000Y-119760000D02*
X75539000Y-118865000D01*
X75539000Y-122335000D02*
X75539000Y-121440000D01*
X75579000Y-119760000D02*
X75579000Y-118840000D01*
X75579000Y-122360000D02*
X75579000Y-121440000D01*
X75619000Y-119760000D02*
X75619000Y-118815000D01*
X75619000Y-122385000D02*
X75619000Y-121440000D01*
X75659000Y-119760000D02*
X75659000Y-118792000D01*
X75659000Y-122408000D02*
X75659000Y-121440000D01*
X75699000Y-119760000D02*
X75699000Y-118770000D01*
X75699000Y-122430000D02*
X75699000Y-121440000D01*
X75739000Y-119760000D02*
X75739000Y-118749000D01*
X75739000Y-122451000D02*
X75739000Y-121440000D01*
X75779000Y-119760000D02*
X75779000Y-118730000D01*
X75779000Y-122470000D02*
X75779000Y-121440000D01*
X75819000Y-119760000D02*
X75819000Y-118711000D01*
X75819000Y-122489000D02*
X75819000Y-121440000D01*
X75859000Y-119760000D02*
X75859000Y-118693000D01*
X75859000Y-122507000D02*
X75859000Y-121440000D01*
X75899000Y-119760000D02*
X75899000Y-118676000D01*
X75899000Y-122524000D02*
X75899000Y-121440000D01*
X75939000Y-119760000D02*
X75939000Y-118660000D01*
X75939000Y-122540000D02*
X75939000Y-121440000D01*
X75979000Y-119760000D02*
X75979000Y-118646000D01*
X75979000Y-122554000D02*
X75979000Y-121440000D01*
X76020000Y-119760000D02*
X76020000Y-118632000D01*
X76020000Y-122568000D02*
X76020000Y-121440000D01*
X76060000Y-119760000D02*
X76060000Y-118618000D01*
X76060000Y-122582000D02*
X76060000Y-121440000D01*
X76100000Y-119760000D02*
X76100000Y-118606000D01*
X76100000Y-122594000D02*
X76100000Y-121440000D01*
X76140000Y-119760000D02*
X76140000Y-118595000D01*
X76140000Y-122605000D02*
X76140000Y-121440000D01*
X76180000Y-119760000D02*
X76180000Y-118584000D01*
X76180000Y-122616000D02*
X76180000Y-121440000D01*
X76220000Y-119760000D02*
X76220000Y-118575000D01*
X76220000Y-122625000D02*
X76220000Y-121440000D01*
X76260000Y-119760000D02*
X76260000Y-118566000D01*
X76260000Y-122634000D02*
X76260000Y-121440000D01*
X76300000Y-119760000D02*
X76300000Y-118558000D01*
X76300000Y-122642000D02*
X76300000Y-121440000D01*
X76340000Y-119760000D02*
X76340000Y-118550000D01*
X76340000Y-122650000D02*
X76340000Y-121440000D01*
X76380000Y-119760000D02*
X76380000Y-118544000D01*
X76380000Y-122656000D02*
X76380000Y-121440000D01*
X76420000Y-119760000D02*
X76420000Y-118538000D01*
X76420000Y-122662000D02*
X76420000Y-121440000D01*
X76460000Y-119760000D02*
X76460000Y-118533000D01*
X76460000Y-122667000D02*
X76460000Y-121440000D01*
X76500000Y-119760000D02*
X76500000Y-118529000D01*
X76500000Y-122671000D02*
X76500000Y-121440000D01*
X76540000Y-122674000D02*
X76540000Y-118526000D01*
X76580000Y-122677000D02*
X76580000Y-118523000D01*
X76620000Y-122679000D02*
X76620000Y-118521000D01*
X76660000Y-122680000D02*
X76660000Y-118520000D01*
X76700000Y-122680000D02*
X76700000Y-118520000D01*
X78820000Y-120600000D02*
G75*
G03X78820000Y-120600000I-2120000J0D01*
G01*
G04 #@! TO.C,R15*
X67500000Y-99280000D02*
X67500000Y-98660000D01*
X68420000Y-100200000D02*
G75*
G03X68420000Y-100200000I-920000J0D01*
G01*
G04 #@! TO.C,R16*
X73580000Y-112000000D02*
X72960000Y-112000000D01*
X75420000Y-112000000D02*
G75*
G03X75420000Y-112000000I-920000J0D01*
G01*
G04 #@! TO.C,R17*
X69080000Y-93700000D02*
X68460000Y-93700000D01*
X70920000Y-93700000D02*
G75*
G03X70920000Y-93700000I-920000J0D01*
G01*
G04 #@! TO.C,y1*
X98820000Y-67175000D02*
X98820000Y-67065000D01*
X98820000Y-68935000D02*
X98820000Y-68825000D01*
X98830000Y-67065000D02*
X98820000Y-67065000D01*
X101020000Y-67065000D02*
X100289000Y-67065000D01*
X98830000Y-68935000D02*
X98820000Y-68935000D01*
X101020000Y-68935000D02*
X100289000Y-68935000D01*
G04 #@! TO.C,r1*
X88580000Y-68825000D02*
X88580000Y-68935000D01*
X88580000Y-67065000D02*
X88580000Y-67175000D01*
X88570000Y-68935000D02*
X88580000Y-68935000D01*
X86380000Y-68935000D02*
X87111000Y-68935000D01*
X88570000Y-67065000D02*
X88580000Y-67065000D01*
X86380000Y-67065000D02*
X87111000Y-67065000D01*
G04 #@! TO.C,g1*
X78680000Y-68825000D02*
X78680000Y-68935000D01*
X78680000Y-67065000D02*
X78680000Y-67175000D01*
X78670000Y-68935000D02*
X78680000Y-68935000D01*
X76480000Y-68935000D02*
X77211000Y-68935000D01*
X78670000Y-67065000D02*
X78680000Y-67065000D01*
X76480000Y-67065000D02*
X77211000Y-67065000D01*
G04 #@! TO.C,J1*
X103268737Y-139682309D02*
X113428737Y-139682309D01*
X103268737Y-132062309D02*
X103268737Y-139682309D01*
X113428737Y-132062309D02*
X103268737Y-132062309D01*
X113428737Y-139682309D02*
X113428737Y-132062309D01*
X113428737Y-138412309D02*
X103268737Y-138412309D01*
G04 #@! TO.C,J2*
X92568736Y-139682308D02*
X102728736Y-139682308D01*
X92568736Y-132062308D02*
X92568736Y-139682308D01*
X102728736Y-132062308D02*
X92568736Y-132062308D01*
X102728736Y-139682308D02*
X102728736Y-132062308D01*
X102728736Y-138412308D02*
X92568736Y-138412308D01*
G04 #@! TO.C,D4*
X137138736Y-127642308D02*
X137138736Y-124702308D01*
X136898736Y-127642308D02*
X136898736Y-124702308D01*
X137018736Y-127642308D02*
X137018736Y-124702308D01*
X132478736Y-124702308D02*
X132478736Y-125032308D01*
X137918736Y-124702308D02*
X132478736Y-124702308D01*
X137918736Y-125032308D02*
X137918736Y-124702308D01*
X132478736Y-127642308D02*
X132478736Y-127312308D01*
X137918736Y-127642308D02*
X132478736Y-127642308D01*
X137918736Y-127312308D02*
X137918736Y-127642308D01*
G04 #@! TO.C,D5*
X71038736Y-127742310D02*
X71038736Y-124802310D01*
X70798736Y-127742310D02*
X70798736Y-124802310D01*
X70918736Y-127742310D02*
X70918736Y-124802310D01*
X66378736Y-124802310D02*
X66378736Y-125132310D01*
X71818736Y-124802310D02*
X66378736Y-124802310D01*
X71818736Y-125132310D02*
X71818736Y-124802310D01*
X66378736Y-127742310D02*
X66378736Y-127412310D01*
X71818736Y-127742310D02*
X66378736Y-127742310D01*
X71818736Y-127412310D02*
X71818736Y-127742310D01*
G04 #@! TO.C,R8*
X97400000Y-93420000D02*
X97400000Y-94040000D01*
X98320000Y-92500000D02*
G75*
G03X98320000Y-92500000I-920000J0D01*
G01*
G04 #@! TO.C,R9*
X93200000Y-93420000D02*
X93200000Y-94040000D01*
X94120000Y-92500000D02*
G75*
G03X94120000Y-92500000I-920000J0D01*
G01*
G04 #@! TO.C,R10*
X89100000Y-93420000D02*
X89100000Y-94040000D01*
X90020000Y-92500000D02*
G75*
G03X90020000Y-92500000I-920000J0D01*
G01*
G04 #@! TO.C,R11*
X84900000Y-93420000D02*
X84900000Y-94040000D01*
X85820000Y-92500000D02*
G75*
G03X85820000Y-92500000I-920000J0D01*
G01*
G04 #@! TO.C,R12*
X151572309Y-88671264D02*
X151572309Y-88051264D01*
X152492309Y-89591264D02*
G75*
G03X152492309Y-89591264I-920000J0D01*
G01*
G04 #@! TO.C,R13*
X106128740Y-127872311D02*
X106748740Y-127872311D01*
X106128740Y-127872311D02*
G75*
G03X106128740Y-127872311I-920000J0D01*
G01*
G04 #@! TO.C,R18*
X86800000Y-128320000D02*
X86800000Y-128940000D01*
X87720000Y-127400000D02*
G75*
G03X87720000Y-127400000I-920000J0D01*
G01*
G04 #@! TO.C,SW2*
X154805643Y-80596263D02*
X154805643Y-81866263D01*
X153452310Y-81796263D02*
X154805643Y-81796263D01*
X153452310Y-81676263D02*
X154805643Y-81676263D01*
X153452310Y-81556263D02*
X154805643Y-81556263D01*
X153452310Y-81436263D02*
X154805643Y-81436263D01*
X153452310Y-81316263D02*
X154805643Y-81316263D01*
X153452310Y-81196263D02*
X154805643Y-81196263D01*
X153452310Y-81076263D02*
X154805643Y-81076263D01*
X153452310Y-80956263D02*
X154805643Y-80956263D01*
X153452310Y-80836263D02*
X154805643Y-80836263D01*
X153452310Y-80716263D02*
X154805643Y-80716263D01*
X157512310Y-80596263D02*
X153452310Y-80596263D01*
X157512310Y-81866263D02*
X157512310Y-80596263D01*
X153452310Y-81866263D02*
X157512310Y-81866263D01*
X153452310Y-80596263D02*
X153452310Y-81866263D01*
X154805643Y-78056263D02*
X154805643Y-79326263D01*
X153452310Y-79256263D02*
X154805643Y-79256263D01*
X153452310Y-79136263D02*
X154805643Y-79136263D01*
X153452310Y-79016263D02*
X154805643Y-79016263D01*
X153452310Y-78896263D02*
X154805643Y-78896263D01*
X153452310Y-78776263D02*
X154805643Y-78776263D01*
X153452310Y-78656263D02*
X154805643Y-78656263D01*
X153452310Y-78536263D02*
X154805643Y-78536263D01*
X153452310Y-78416263D02*
X154805643Y-78416263D01*
X153452310Y-78296263D02*
X154805643Y-78296263D01*
X153452310Y-78176263D02*
X154805643Y-78176263D01*
X157512310Y-78056263D02*
X153452310Y-78056263D01*
X157512310Y-79326263D02*
X157512310Y-78056263D01*
X153452310Y-79326263D02*
X157512310Y-79326263D01*
X153452310Y-78056263D02*
X153452310Y-79326263D01*
X150292310Y-76031263D02*
X150292310Y-77414263D01*
X150292310Y-76031263D02*
X151676310Y-76031263D01*
X160432310Y-76271263D02*
X160432310Y-83651263D01*
X150532310Y-76271263D02*
X150532310Y-83651263D01*
X150532310Y-83651263D02*
X160432310Y-83651263D01*
X150532310Y-76271263D02*
X160432310Y-76271263D01*
G04 #@! TO.C,g2*
X79020000Y-67175000D02*
X79020000Y-67065000D01*
X79020000Y-68935000D02*
X79020000Y-68825000D01*
X79030000Y-67065000D02*
X79020000Y-67065000D01*
X81220000Y-67065000D02*
X80489000Y-67065000D01*
X79030000Y-68935000D02*
X79020000Y-68935000D01*
X81220000Y-68935000D02*
X80489000Y-68935000D01*
G04 #@! TO.C,r2*
X88920000Y-67175000D02*
X88920000Y-67065000D01*
X88920000Y-68935000D02*
X88920000Y-68825000D01*
X88930000Y-67065000D02*
X88920000Y-67065000D01*
X91120000Y-67065000D02*
X90389000Y-67065000D01*
X88930000Y-68935000D02*
X88920000Y-68935000D01*
X91120000Y-68935000D02*
X90389000Y-68935000D01*
G04 #@! TO.C,y2*
X98480000Y-68825000D02*
X98480000Y-68935000D01*
X98480000Y-67065000D02*
X98480000Y-67175000D01*
X98470000Y-68935000D02*
X98480000Y-68935000D01*
X96280000Y-68935000D02*
X97011000Y-68935000D01*
X98470000Y-67065000D02*
X98480000Y-67065000D01*
X96280000Y-67065000D02*
X97011000Y-67065000D01*
G04 #@! TO.C,R4*
X85680000Y-110500000D02*
X84730000Y-110500000D01*
X79940000Y-110500000D02*
X80890000Y-110500000D01*
X84730000Y-109580000D02*
X80890000Y-109580000D01*
X84730000Y-111420000D02*
X84730000Y-109580000D01*
X80890000Y-111420000D02*
X84730000Y-111420000D01*
X80890000Y-109580000D02*
X80890000Y-111420000D01*
G04 #@! TO.C,R5*
X88580000Y-112700000D02*
X87630000Y-112700000D01*
X82840000Y-112700000D02*
X83790000Y-112700000D01*
X87630000Y-111780000D02*
X83790000Y-111780000D01*
X87630000Y-113620000D02*
X87630000Y-111780000D01*
X83790000Y-113620000D02*
X87630000Y-113620000D01*
X83790000Y-111780000D02*
X83790000Y-113620000D01*
G04 #@! TO.C,R6*
X85680000Y-115000000D02*
X84730000Y-115000000D01*
X79940000Y-115000000D02*
X80890000Y-115000000D01*
X84730000Y-114080000D02*
X80890000Y-114080000D01*
X84730000Y-115920000D02*
X84730000Y-114080000D01*
X80890000Y-115920000D02*
X84730000Y-115920000D01*
X80890000Y-114080000D02*
X80890000Y-115920000D01*
G04 #@! TO.C,R7*
X88480000Y-117200000D02*
X87530000Y-117200000D01*
X82740000Y-117200000D02*
X83690000Y-117200000D01*
X87530000Y-116280000D02*
X83690000Y-116280000D01*
X87530000Y-118120000D02*
X87530000Y-116280000D01*
X83690000Y-118120000D02*
X87530000Y-118120000D01*
X83690000Y-116280000D02*
X83690000Y-118120000D01*
G04 #@! TO.C,U7414*
X160630000Y-124460000D02*
X160630000Y-123210000D01*
X142730000Y-124460000D02*
X160630000Y-124460000D01*
X142730000Y-119960000D02*
X142730000Y-124460000D01*
X160630000Y-119960000D02*
X142730000Y-119960000D01*
X160630000Y-121210000D02*
X160630000Y-119960000D01*
X160630000Y-123210000D02*
G75*
G02X160630000Y-121210000I0J1000000D01*
G01*
G04 #@! TO.C,U74164*
X83370000Y-102190000D02*
G75*
G02X83370000Y-104190000I0J-1000000D01*
G01*
X83370000Y-104190000D02*
X83370000Y-105840000D01*
X83370000Y-105840000D02*
X101270000Y-105840000D01*
X101270000Y-105840000D02*
X101270000Y-100540000D01*
X101270000Y-100540000D02*
X83370000Y-100540000D01*
X83370000Y-100540000D02*
X83370000Y-102190000D01*
G04 #@! TO.C,Q4*
X63477205Y-107364184D02*
G75*
G02X62750000Y-106840000I1122795J2324184D01*
G01*
X65698807Y-107396400D02*
G75*
G03X67200000Y-105040000I-1098807J2356400D01*
G01*
X65698807Y-102683600D02*
G75*
G02X67200000Y-105040000I-1098807J-2356400D01*
G01*
X63477205Y-102715816D02*
G75*
G03X62750000Y-103240000I1122795J-2324184D01*
G01*
X62750000Y-103240000D02*
X62750000Y-106840000D01*
G04 #@! TO.C,Q6*
X71968471Y-102691874D02*
G75*
G02X71241266Y-102167690I1122795J2324184D01*
G01*
X74190073Y-102724090D02*
G75*
G03X75691266Y-100367690I-1098807J2356400D01*
G01*
X74190073Y-98011290D02*
G75*
G02X75691266Y-100367690I-1098807J-2356400D01*
G01*
X71968471Y-98043506D02*
G75*
G03X71241266Y-98567690I1122795J-2324184D01*
G01*
X71241266Y-98567690D02*
X71241266Y-102167690D01*
G04 #@! TO.C,A1*
D14*
X118386666Y-105794285D02*
X118386666Y-105318095D01*
X118672380Y-105889523D02*
X117672380Y-105556190D01*
X118672380Y-105222857D01*
X118672380Y-104365714D02*
X118672380Y-104937142D01*
X118672380Y-104651428D02*
X117672380Y-104651428D01*
X117815238Y-104746666D01*
X117910476Y-104841904D01*
X117958095Y-104937142D01*
X132442857Y-104966666D02*
X132919047Y-104966666D01*
X132347619Y-105252380D02*
X132680952Y-104252380D01*
X133014285Y-105252380D01*
X133347619Y-105252380D02*
X133347619Y-104585714D01*
X133347619Y-104776190D02*
X133395238Y-104680952D01*
X133442857Y-104633333D01*
X133538095Y-104585714D01*
X133633333Y-104585714D01*
X134395238Y-105252380D02*
X134395238Y-104252380D01*
X134395238Y-105204761D02*
X134300000Y-105252380D01*
X134109523Y-105252380D01*
X134014285Y-105204761D01*
X133966666Y-105157142D01*
X133919047Y-105061904D01*
X133919047Y-104776190D01*
X133966666Y-104680952D01*
X134014285Y-104633333D01*
X134109523Y-104585714D01*
X134300000Y-104585714D01*
X134395238Y-104633333D01*
X135300000Y-104585714D02*
X135300000Y-105252380D01*
X134871428Y-104585714D02*
X134871428Y-105109523D01*
X134919047Y-105204761D01*
X135014285Y-105252380D01*
X135157142Y-105252380D01*
X135252380Y-105204761D01*
X135300000Y-105157142D01*
X135776190Y-105252380D02*
X135776190Y-104585714D01*
X135776190Y-104252380D02*
X135728571Y-104300000D01*
X135776190Y-104347619D01*
X135823809Y-104300000D01*
X135776190Y-104252380D01*
X135776190Y-104347619D01*
X136252380Y-104585714D02*
X136252380Y-105252380D01*
X136252380Y-104680952D02*
X136300000Y-104633333D01*
X136395238Y-104585714D01*
X136538095Y-104585714D01*
X136633333Y-104633333D01*
X136680952Y-104728571D01*
X136680952Y-105252380D01*
X137300000Y-105252380D02*
X137204761Y-105204761D01*
X137157142Y-105157142D01*
X137109523Y-105061904D01*
X137109523Y-104776190D01*
X137157142Y-104680952D01*
X137204761Y-104633333D01*
X137300000Y-104585714D01*
X137442857Y-104585714D01*
X137538095Y-104633333D01*
X137585714Y-104680952D01*
X137633333Y-104776190D01*
X137633333Y-105061904D01*
X137585714Y-105157142D01*
X137538095Y-105204761D01*
X137442857Y-105252380D01*
X137300000Y-105252380D01*
X137823809Y-105347619D02*
X138585714Y-105347619D01*
X138823809Y-105252380D02*
X138823809Y-104252380D01*
X139395238Y-105252380D01*
X139395238Y-104252380D01*
X140300000Y-105252380D02*
X140300000Y-104728571D01*
X140252380Y-104633333D01*
X140157142Y-104585714D01*
X139966666Y-104585714D01*
X139871428Y-104633333D01*
X140300000Y-105204761D02*
X140204761Y-105252380D01*
X139966666Y-105252380D01*
X139871428Y-105204761D01*
X139823809Y-105109523D01*
X139823809Y-105014285D01*
X139871428Y-104919047D01*
X139966666Y-104871428D01*
X140204761Y-104871428D01*
X140300000Y-104823809D01*
X140776190Y-104585714D02*
X140776190Y-105252380D01*
X140776190Y-104680952D02*
X140823809Y-104633333D01*
X140919047Y-104585714D01*
X141061904Y-104585714D01*
X141157142Y-104633333D01*
X141204761Y-104728571D01*
X141204761Y-105252380D01*
X141823809Y-105252380D02*
X141728571Y-105204761D01*
X141680952Y-105157142D01*
X141633333Y-105061904D01*
X141633333Y-104776190D01*
X141680952Y-104680952D01*
X141728571Y-104633333D01*
X141823809Y-104585714D01*
X141966666Y-104585714D01*
X142061904Y-104633333D01*
X142109523Y-104680952D01*
X142157142Y-104776190D01*
X142157142Y-105061904D01*
X142109523Y-105157142D01*
X142061904Y-105204761D01*
X141966666Y-105252380D01*
X141823809Y-105252380D01*
G04 #@! TO.C,POT1*
X139009523Y-92552380D02*
X138438095Y-92552380D01*
X138723809Y-92552380D02*
X138723809Y-91552380D01*
X138628571Y-91695238D01*
X138533333Y-91790476D01*
X138438095Y-91838095D01*
X139628571Y-91552380D02*
X139723809Y-91552380D01*
X139819047Y-91600000D01*
X139866666Y-91647619D01*
X139914285Y-91742857D01*
X139961904Y-91933333D01*
X139961904Y-92171428D01*
X139914285Y-92361904D01*
X139866666Y-92457142D01*
X139819047Y-92504761D01*
X139723809Y-92552380D01*
X139628571Y-92552380D01*
X139533333Y-92504761D01*
X139485714Y-92457142D01*
X139438095Y-92361904D01*
X139390476Y-92171428D01*
X139390476Y-91933333D01*
X139438095Y-91742857D01*
X139485714Y-91647619D01*
X139533333Y-91600000D01*
X139628571Y-91552380D01*
X140390476Y-92552380D02*
X140390476Y-91552380D01*
X140961904Y-92552380D02*
X140533333Y-91980952D01*
X140961904Y-91552380D02*
X140390476Y-92123809D01*
G04 #@! TO.C,Q5*
X76604761Y-105547619D02*
X76509523Y-105500000D01*
X76414285Y-105404761D01*
X76271428Y-105261904D01*
X76176190Y-105214285D01*
X76080952Y-105214285D01*
X76128571Y-105452380D02*
X76033333Y-105404761D01*
X75938095Y-105309523D01*
X75890476Y-105119047D01*
X75890476Y-104785714D01*
X75938095Y-104595238D01*
X76033333Y-104500000D01*
X76128571Y-104452380D01*
X76319047Y-104452380D01*
X76414285Y-104500000D01*
X76509523Y-104595238D01*
X76557142Y-104785714D01*
X76557142Y-105119047D01*
X76509523Y-105309523D01*
X76414285Y-105404761D01*
X76319047Y-105452380D01*
X76128571Y-105452380D01*
X77461904Y-104452380D02*
X76985714Y-104452380D01*
X76938095Y-104928571D01*
X76985714Y-104880952D01*
X77080952Y-104833333D01*
X77319047Y-104833333D01*
X77414285Y-104880952D01*
X77461904Y-104928571D01*
X77509523Y-105023809D01*
X77509523Y-105261904D01*
X77461904Y-105357142D01*
X77414285Y-105404761D01*
X77319047Y-105452380D01*
X77080952Y-105452380D01*
X76985714Y-105404761D01*
X76938095Y-105357142D01*
X77352380Y-107914285D02*
X77352380Y-108390476D01*
X77828571Y-108438095D01*
X77780952Y-108390476D01*
X77733333Y-108295238D01*
X77733333Y-108057142D01*
X77780952Y-107961904D01*
X77828571Y-107914285D01*
X77923809Y-107866666D01*
X78161904Y-107866666D01*
X78257142Y-107914285D01*
X78304761Y-107961904D01*
X78352380Y-108057142D01*
X78352380Y-108295238D01*
X78304761Y-108390476D01*
X78257142Y-108438095D01*
X77685714Y-107009523D02*
X78352380Y-107009523D01*
X77304761Y-107247619D02*
X78019047Y-107485714D01*
X78019047Y-106866666D01*
X77352380Y-106580952D02*
X77352380Y-105914285D01*
X78352380Y-106342857D01*
G04 #@! TO.C,U1*
X61738095Y-89152380D02*
X61738095Y-89961904D01*
X61785714Y-90057142D01*
X61833333Y-90104761D01*
X61928571Y-90152380D01*
X62119047Y-90152380D01*
X62214285Y-90104761D01*
X62261904Y-90057142D01*
X62309523Y-89961904D01*
X62309523Y-89152380D01*
X63309523Y-90152380D02*
X62738095Y-90152380D01*
X63023809Y-90152380D02*
X63023809Y-89152380D01*
X62928571Y-89295238D01*
X62833333Y-89390476D01*
X62738095Y-89438095D01*
X72300000Y-90785714D02*
X72300000Y-91452380D01*
X72061904Y-90404761D02*
X71823809Y-91119047D01*
X72442857Y-91119047D01*
X72585714Y-91547619D02*
X73347619Y-91547619D01*
X73585714Y-91452380D02*
X73585714Y-90452380D01*
X73823809Y-90452380D01*
X73966666Y-90500000D01*
X74061904Y-90595238D01*
X74109523Y-90690476D01*
X74157142Y-90880952D01*
X74157142Y-91023809D01*
X74109523Y-91214285D01*
X74061904Y-91309523D01*
X73966666Y-91404761D01*
X73823809Y-91452380D01*
X73585714Y-91452380D01*
X74585714Y-91452380D02*
X74585714Y-90785714D01*
X74585714Y-90452380D02*
X74538095Y-90500000D01*
X74585714Y-90547619D01*
X74633333Y-90500000D01*
X74585714Y-90452380D01*
X74585714Y-90547619D01*
X75490476Y-90785714D02*
X75490476Y-91595238D01*
X75442857Y-91690476D01*
X75395238Y-91738095D01*
X75300000Y-91785714D01*
X75157142Y-91785714D01*
X75061904Y-91738095D01*
X75490476Y-91404761D02*
X75395238Y-91452380D01*
X75204761Y-91452380D01*
X75109523Y-91404761D01*
X75061904Y-91357142D01*
X75014285Y-91261904D01*
X75014285Y-90976190D01*
X75061904Y-90880952D01*
X75109523Y-90833333D01*
X75204761Y-90785714D01*
X75395238Y-90785714D01*
X75490476Y-90833333D01*
X75966666Y-91452380D02*
X75966666Y-90785714D01*
X75966666Y-90452380D02*
X75919047Y-90500000D01*
X75966666Y-90547619D01*
X76014285Y-90500000D01*
X75966666Y-90452380D01*
X75966666Y-90547619D01*
X76300000Y-90785714D02*
X76680952Y-90785714D01*
X76442857Y-90452380D02*
X76442857Y-91309523D01*
X76490476Y-91404761D01*
X76585714Y-91452380D01*
X76680952Y-91452380D01*
X76776190Y-91547619D02*
X77538095Y-91547619D01*
X77680952Y-90452380D02*
X78347619Y-90452380D01*
X77919047Y-91452380D01*
X78490476Y-91547619D02*
X79252380Y-91547619D01*
X79442857Y-91404761D02*
X79585714Y-91452380D01*
X79823809Y-91452380D01*
X79919047Y-91404761D01*
X79966666Y-91357142D01*
X80014285Y-91261904D01*
X80014285Y-91166666D01*
X79966666Y-91071428D01*
X79919047Y-91023809D01*
X79823809Y-90976190D01*
X79633333Y-90928571D01*
X79538095Y-90880952D01*
X79490476Y-90833333D01*
X79442857Y-90738095D01*
X79442857Y-90642857D01*
X79490476Y-90547619D01*
X79538095Y-90500000D01*
X79633333Y-90452380D01*
X79871428Y-90452380D01*
X80014285Y-90500000D01*
X80823809Y-91404761D02*
X80728571Y-91452380D01*
X80538095Y-91452380D01*
X80442857Y-91404761D01*
X80395238Y-91309523D01*
X80395238Y-90928571D01*
X80442857Y-90833333D01*
X80538095Y-90785714D01*
X80728571Y-90785714D01*
X80823809Y-90833333D01*
X80871428Y-90928571D01*
X80871428Y-91023809D01*
X80395238Y-91119047D01*
X81728571Y-90785714D02*
X81728571Y-91595238D01*
X81680952Y-91690476D01*
X81633333Y-91738095D01*
X81538095Y-91785714D01*
X81395238Y-91785714D01*
X81300000Y-91738095D01*
X81728571Y-91404761D02*
X81633333Y-91452380D01*
X81442857Y-91452380D01*
X81347619Y-91404761D01*
X81300000Y-91357142D01*
X81252380Y-91261904D01*
X81252380Y-90976190D01*
X81300000Y-90880952D01*
X81347619Y-90833333D01*
X81442857Y-90785714D01*
X81633333Y-90785714D01*
X81728571Y-90833333D01*
G04 #@! TO.C,ANT1*
D16*
X62949821Y-97000000D02*
X63521250Y-97000000D01*
X62792678Y-97342857D02*
X63342678Y-96142857D01*
X63592678Y-97342857D01*
X63992678Y-97342857D02*
X64142678Y-96142857D01*
X64678392Y-97342857D01*
X64828392Y-96142857D01*
X65228392Y-96142857D02*
X65914107Y-96142857D01*
X65421250Y-97342857D02*
X65571250Y-96142857D01*
G04 #@! TO.C,D1*
D14*
X63882380Y-115028095D02*
X62882380Y-115028095D01*
X62882380Y-114790000D01*
X62930000Y-114647142D01*
X63025238Y-114551904D01*
X63120476Y-114504285D01*
X63310952Y-114456666D01*
X63453809Y-114456666D01*
X63644285Y-114504285D01*
X63739523Y-114551904D01*
X63834761Y-114647142D01*
X63882380Y-114790000D01*
X63882380Y-115028095D01*
X63882380Y-113504285D02*
X63882380Y-114075714D01*
X63882380Y-113790000D02*
X62882380Y-113790000D01*
X63025238Y-113885238D01*
X63120476Y-113980476D01*
X63168095Y-114075714D01*
X64452380Y-118361904D02*
X63452380Y-118361904D01*
X64452380Y-117790476D02*
X63880952Y-118219047D01*
X63452380Y-117790476D02*
X64023809Y-118361904D01*
G04 #@! TO.C,R14*
X68827142Y-120432380D02*
X68493809Y-119956190D01*
X68255714Y-120432380D02*
X68255714Y-119432380D01*
X68636666Y-119432380D01*
X68731904Y-119480000D01*
X68779523Y-119527619D01*
X68827142Y-119622857D01*
X68827142Y-119765714D01*
X68779523Y-119860952D01*
X68731904Y-119908571D01*
X68636666Y-119956190D01*
X68255714Y-119956190D01*
X69779523Y-120432380D02*
X69208095Y-120432380D01*
X69493809Y-120432380D02*
X69493809Y-119432380D01*
X69398571Y-119575238D01*
X69303333Y-119670476D01*
X69208095Y-119718095D01*
X70636666Y-119765714D02*
X70636666Y-120432380D01*
X70398571Y-119384761D02*
X70160476Y-120099047D01*
X70779523Y-120099047D01*
X64000000Y-121547619D02*
X64047619Y-121500000D01*
X64142857Y-121452380D01*
X64380952Y-121452380D01*
X64476190Y-121500000D01*
X64523809Y-121547619D01*
X64571428Y-121642857D01*
X64571428Y-121738095D01*
X64523809Y-121880952D01*
X63952380Y-122452380D01*
X64571428Y-122452380D01*
X65000000Y-122357142D02*
X65047619Y-122404761D01*
X65000000Y-122452380D01*
X64952380Y-122404761D01*
X65000000Y-122357142D01*
X65000000Y-122452380D01*
X65428571Y-121547619D02*
X65476190Y-121500000D01*
X65571428Y-121452380D01*
X65809523Y-121452380D01*
X65904761Y-121500000D01*
X65952380Y-121547619D01*
X66000000Y-121642857D01*
X66000000Y-121738095D01*
X65952380Y-121880952D01*
X65380952Y-122452380D01*
X66000000Y-122452380D01*
X66428571Y-122452380D02*
X66428571Y-121452380D01*
X67000000Y-122452380D02*
X66571428Y-121880952D01*
X67000000Y-121452380D02*
X66428571Y-122023809D01*
G04 #@! TO.C,C2*
X79542857Y-120633333D02*
X79495238Y-120585714D01*
X79447619Y-120442857D01*
X79447619Y-120347619D01*
X79495238Y-120204761D01*
X79590476Y-120109523D01*
X79685714Y-120061904D01*
X79876190Y-120014285D01*
X80019047Y-120014285D01*
X80209523Y-120061904D01*
X80304761Y-120109523D01*
X80400000Y-120204761D01*
X80447619Y-120347619D01*
X80447619Y-120442857D01*
X80400000Y-120585714D01*
X80352380Y-120633333D01*
X80352380Y-121014285D02*
X80400000Y-121061904D01*
X80447619Y-121157142D01*
X80447619Y-121395238D01*
X80400000Y-121490476D01*
X80352380Y-121538095D01*
X80257142Y-121585714D01*
X80161904Y-121585714D01*
X80019047Y-121538095D01*
X79447619Y-120966666D01*
X79447619Y-121585714D01*
X75052380Y-124252380D02*
X74480952Y-124252380D01*
X74766666Y-124252380D02*
X74766666Y-123252380D01*
X74671428Y-123395238D01*
X74576190Y-123490476D01*
X74480952Y-123538095D01*
X75671428Y-123252380D02*
X75766666Y-123252380D01*
X75861904Y-123300000D01*
X75909523Y-123347619D01*
X75957142Y-123442857D01*
X76004761Y-123633333D01*
X76004761Y-123871428D01*
X75957142Y-124061904D01*
X75909523Y-124157142D01*
X75861904Y-124204761D01*
X75766666Y-124252380D01*
X75671428Y-124252380D01*
X75576190Y-124204761D01*
X75528571Y-124157142D01*
X75480952Y-124061904D01*
X75433333Y-123871428D01*
X75433333Y-123633333D01*
X75480952Y-123442857D01*
X75528571Y-123347619D01*
X75576190Y-123300000D01*
X75671428Y-123252380D01*
X76623809Y-123252380D02*
X76719047Y-123252380D01*
X76814285Y-123300000D01*
X76861904Y-123347619D01*
X76909523Y-123442857D01*
X76957142Y-123633333D01*
X76957142Y-123871428D01*
X76909523Y-124061904D01*
X76861904Y-124157142D01*
X76814285Y-124204761D01*
X76719047Y-124252380D01*
X76623809Y-124252380D01*
X76528571Y-124204761D01*
X76480952Y-124157142D01*
X76433333Y-124061904D01*
X76385714Y-123871428D01*
X76385714Y-123633333D01*
X76433333Y-123442857D01*
X76480952Y-123347619D01*
X76528571Y-123300000D01*
X76623809Y-123252380D01*
X77814285Y-123585714D02*
X77814285Y-124252380D01*
X77385714Y-123585714D02*
X77385714Y-124109523D01*
X77433333Y-124204761D01*
X77528571Y-124252380D01*
X77671428Y-124252380D01*
X77766666Y-124204761D01*
X77814285Y-124157142D01*
X78623809Y-123728571D02*
X78290476Y-123728571D01*
X78290476Y-124252380D02*
X78290476Y-123252380D01*
X78766666Y-123252380D01*
G04 #@! TO.C,R15*
X69552380Y-98842857D02*
X69076190Y-99176190D01*
X69552380Y-99414285D02*
X68552380Y-99414285D01*
X68552380Y-99033333D01*
X68600000Y-98938095D01*
X68647619Y-98890476D01*
X68742857Y-98842857D01*
X68885714Y-98842857D01*
X68980952Y-98890476D01*
X69028571Y-98938095D01*
X69076190Y-99033333D01*
X69076190Y-99414285D01*
X69552380Y-97890476D02*
X69552380Y-98461904D01*
X69552380Y-98176190D02*
X68552380Y-98176190D01*
X68695238Y-98271428D01*
X68790476Y-98366666D01*
X68838095Y-98461904D01*
X68552380Y-96985714D02*
X68552380Y-97461904D01*
X69028571Y-97509523D01*
X68980952Y-97461904D01*
X68933333Y-97366666D01*
X68933333Y-97128571D01*
X68980952Y-97033333D01*
X69028571Y-96985714D01*
X69123809Y-96938095D01*
X69361904Y-96938095D01*
X69457142Y-96985714D01*
X69504761Y-97033333D01*
X69552380Y-97128571D01*
X69552380Y-97366666D01*
X69504761Y-97461904D01*
X69457142Y-97509523D01*
X69652380Y-101414285D02*
X69652380Y-101985714D01*
X69652380Y-101700000D02*
X68652380Y-101700000D01*
X68795238Y-101795238D01*
X68890476Y-101890476D01*
X68938095Y-101985714D01*
X69652380Y-100985714D02*
X68652380Y-100985714D01*
X69652380Y-100414285D02*
X69080952Y-100842857D01*
X68652380Y-100414285D02*
X69223809Y-100985714D01*
G04 #@! TO.C,R16*
X70852380Y-112742857D02*
X70376190Y-113076190D01*
X70852380Y-113314285D02*
X69852380Y-113314285D01*
X69852380Y-112933333D01*
X69900000Y-112838095D01*
X69947619Y-112790476D01*
X70042857Y-112742857D01*
X70185714Y-112742857D01*
X70280952Y-112790476D01*
X70328571Y-112838095D01*
X70376190Y-112933333D01*
X70376190Y-113314285D01*
X70852380Y-111790476D02*
X70852380Y-112361904D01*
X70852380Y-112076190D02*
X69852380Y-112076190D01*
X69995238Y-112171428D01*
X70090476Y-112266666D01*
X70138095Y-112361904D01*
X69852380Y-110933333D02*
X69852380Y-111123809D01*
X69900000Y-111219047D01*
X69947619Y-111266666D01*
X70090476Y-111361904D01*
X70280952Y-111409523D01*
X70661904Y-111409523D01*
X70757142Y-111361904D01*
X70804761Y-111314285D01*
X70852380Y-111219047D01*
X70852380Y-111028571D01*
X70804761Y-110933333D01*
X70757142Y-110885714D01*
X70661904Y-110838095D01*
X70423809Y-110838095D01*
X70328571Y-110885714D01*
X70280952Y-110933333D01*
X70233333Y-111028571D01*
X70233333Y-111219047D01*
X70280952Y-111314285D01*
X70328571Y-111361904D01*
X70423809Y-111409523D01*
X72233333Y-114252380D02*
X71661904Y-114252380D01*
X71947619Y-114252380D02*
X71947619Y-113252380D01*
X71852380Y-113395238D01*
X71757142Y-113490476D01*
X71661904Y-113538095D01*
X72852380Y-113252380D02*
X72947619Y-113252380D01*
X73042857Y-113300000D01*
X73090476Y-113347619D01*
X73138095Y-113442857D01*
X73185714Y-113633333D01*
X73185714Y-113871428D01*
X73138095Y-114061904D01*
X73090476Y-114157142D01*
X73042857Y-114204761D01*
X72947619Y-114252380D01*
X72852380Y-114252380D01*
X72757142Y-114204761D01*
X72709523Y-114157142D01*
X72661904Y-114061904D01*
X72614285Y-113871428D01*
X72614285Y-113633333D01*
X72661904Y-113442857D01*
X72709523Y-113347619D01*
X72757142Y-113300000D01*
X72852380Y-113252380D01*
X73804761Y-113252380D02*
X73900000Y-113252380D01*
X73995238Y-113300000D01*
X74042857Y-113347619D01*
X74090476Y-113442857D01*
X74138095Y-113633333D01*
X74138095Y-113871428D01*
X74090476Y-114061904D01*
X74042857Y-114157142D01*
X73995238Y-114204761D01*
X73900000Y-114252380D01*
X73804761Y-114252380D01*
X73709523Y-114204761D01*
X73661904Y-114157142D01*
X73614285Y-114061904D01*
X73566666Y-113871428D01*
X73566666Y-113633333D01*
X73614285Y-113442857D01*
X73661904Y-113347619D01*
X73709523Y-113300000D01*
X73804761Y-113252380D01*
X74566666Y-114252380D02*
X74566666Y-113252380D01*
X75138095Y-114252380D02*
X74709523Y-113680952D01*
X75138095Y-113252380D02*
X74566666Y-113823809D01*
G04 #@! TO.C,R17*
X67957142Y-92552380D02*
X67623809Y-92076190D01*
X67385714Y-92552380D02*
X67385714Y-91552380D01*
X67766666Y-91552380D01*
X67861904Y-91600000D01*
X67909523Y-91647619D01*
X67957142Y-91742857D01*
X67957142Y-91885714D01*
X67909523Y-91980952D01*
X67861904Y-92028571D01*
X67766666Y-92076190D01*
X67385714Y-92076190D01*
X68909523Y-92552380D02*
X68338095Y-92552380D01*
X68623809Y-92552380D02*
X68623809Y-91552380D01*
X68528571Y-91695238D01*
X68433333Y-91790476D01*
X68338095Y-91838095D01*
X69242857Y-91552380D02*
X69909523Y-91552380D01*
X69480952Y-92552380D01*
X65852380Y-93985714D02*
X65852380Y-94557142D01*
X65852380Y-94271428D02*
X64852380Y-94271428D01*
X64995238Y-94366666D01*
X65090476Y-94461904D01*
X65138095Y-94557142D01*
X65852380Y-93557142D02*
X64852380Y-93557142D01*
X65566666Y-93223809D01*
X64852380Y-92890476D01*
X65852380Y-92890476D01*
G04 #@! TO.C,y1*
X95885714Y-69585714D02*
X96123809Y-70252380D01*
X96361904Y-69585714D02*
X96123809Y-70252380D01*
X96028571Y-70490476D01*
X95980952Y-70538095D01*
X95885714Y-70585714D01*
X97266666Y-70252380D02*
X96695238Y-70252380D01*
X96980952Y-70252380D02*
X96980952Y-69252380D01*
X96885714Y-69395238D01*
X96790476Y-69490476D01*
X96695238Y-69538095D01*
G04 #@! TO.C,r1*
X86252380Y-70252380D02*
X86252380Y-69585714D01*
X86252380Y-69776190D02*
X86300000Y-69680952D01*
X86347619Y-69633333D01*
X86442857Y-69585714D01*
X86538095Y-69585714D01*
X87395238Y-70252380D02*
X86823809Y-70252380D01*
X87109523Y-70252380D02*
X87109523Y-69252380D01*
X87014285Y-69395238D01*
X86919047Y-69490476D01*
X86823809Y-69538095D01*
G04 #@! TO.C,g1*
X76938095Y-69585714D02*
X76938095Y-70395238D01*
X76890476Y-70490476D01*
X76842857Y-70538095D01*
X76747619Y-70585714D01*
X76604761Y-70585714D01*
X76509523Y-70538095D01*
X76938095Y-70204761D02*
X76842857Y-70252380D01*
X76652380Y-70252380D01*
X76557142Y-70204761D01*
X76509523Y-70157142D01*
X76461904Y-70061904D01*
X76461904Y-69776190D01*
X76509523Y-69680952D01*
X76557142Y-69633333D01*
X76652380Y-69585714D01*
X76842857Y-69585714D01*
X76938095Y-69633333D01*
X77938095Y-70252380D02*
X77366666Y-70252380D01*
X77652380Y-70252380D02*
X77652380Y-69252380D01*
X77557142Y-69395238D01*
X77461904Y-69490476D01*
X77366666Y-69538095D01*
G04 #@! TO.C,onRelay1*
X140252380Y-141052380D02*
X140157142Y-141004761D01*
X140109523Y-140957142D01*
X140061904Y-140861904D01*
X140061904Y-140576190D01*
X140109523Y-140480952D01*
X140157142Y-140433333D01*
X140252380Y-140385714D01*
X140395238Y-140385714D01*
X140490476Y-140433333D01*
X140538095Y-140480952D01*
X140585714Y-140576190D01*
X140585714Y-140861904D01*
X140538095Y-140957142D01*
X140490476Y-141004761D01*
X140395238Y-141052380D01*
X140252380Y-141052380D01*
X141014285Y-140385714D02*
X141014285Y-141052380D01*
X141014285Y-140480952D02*
X141061904Y-140433333D01*
X141157142Y-140385714D01*
X141300000Y-140385714D01*
X141395238Y-140433333D01*
X141442857Y-140528571D01*
X141442857Y-141052380D01*
X142490476Y-141052380D02*
X142157142Y-140576190D01*
X141919047Y-141052380D02*
X141919047Y-140052380D01*
X142300000Y-140052380D01*
X142395238Y-140100000D01*
X142442857Y-140147619D01*
X142490476Y-140242857D01*
X142490476Y-140385714D01*
X142442857Y-140480952D01*
X142395238Y-140528571D01*
X142300000Y-140576190D01*
X141919047Y-140576190D01*
X143300000Y-141004761D02*
X143204761Y-141052380D01*
X143014285Y-141052380D01*
X142919047Y-141004761D01*
X142871428Y-140909523D01*
X142871428Y-140528571D01*
X142919047Y-140433333D01*
X143014285Y-140385714D01*
X143204761Y-140385714D01*
X143300000Y-140433333D01*
X143347619Y-140528571D01*
X143347619Y-140623809D01*
X142871428Y-140719047D01*
X143919047Y-141052380D02*
X143823809Y-141004761D01*
X143776190Y-140909523D01*
X143776190Y-140052380D01*
X144728571Y-141052380D02*
X144728571Y-140528571D01*
X144680952Y-140433333D01*
X144585714Y-140385714D01*
X144395238Y-140385714D01*
X144300000Y-140433333D01*
X144728571Y-141004761D02*
X144633333Y-141052380D01*
X144395238Y-141052380D01*
X144300000Y-141004761D01*
X144252380Y-140909523D01*
X144252380Y-140814285D01*
X144300000Y-140719047D01*
X144395238Y-140671428D01*
X144633333Y-140671428D01*
X144728571Y-140623809D01*
X145109523Y-140385714D02*
X145347619Y-141052380D01*
X145585714Y-140385714D02*
X145347619Y-141052380D01*
X145252380Y-141290476D01*
X145204761Y-141338095D01*
X145109523Y-141385714D01*
G04 #@! TO.C,offRelay1*
X74233333Y-141052380D02*
X74138095Y-141004761D01*
X74090476Y-140957142D01*
X74042857Y-140861904D01*
X74042857Y-140576190D01*
X74090476Y-140480952D01*
X74138095Y-140433333D01*
X74233333Y-140385714D01*
X74376190Y-140385714D01*
X74471428Y-140433333D01*
X74519047Y-140480952D01*
X74566666Y-140576190D01*
X74566666Y-140861904D01*
X74519047Y-140957142D01*
X74471428Y-141004761D01*
X74376190Y-141052380D01*
X74233333Y-141052380D01*
X74852380Y-140385714D02*
X75233333Y-140385714D01*
X74995238Y-141052380D02*
X74995238Y-140195238D01*
X75042857Y-140100000D01*
X75138095Y-140052380D01*
X75233333Y-140052380D01*
X75423809Y-140385714D02*
X75804761Y-140385714D01*
X75566666Y-141052380D02*
X75566666Y-140195238D01*
X75614285Y-140100000D01*
X75709523Y-140052380D01*
X75804761Y-140052380D01*
X76709523Y-141052380D02*
X76376190Y-140576190D01*
X76138095Y-141052380D02*
X76138095Y-140052380D01*
X76519047Y-140052380D01*
X76614285Y-140100000D01*
X76661904Y-140147619D01*
X76709523Y-140242857D01*
X76709523Y-140385714D01*
X76661904Y-140480952D01*
X76614285Y-140528571D01*
X76519047Y-140576190D01*
X76138095Y-140576190D01*
X77519047Y-141004761D02*
X77423809Y-141052380D01*
X77233333Y-141052380D01*
X77138095Y-141004761D01*
X77090476Y-140909523D01*
X77090476Y-140528571D01*
X77138095Y-140433333D01*
X77233333Y-140385714D01*
X77423809Y-140385714D01*
X77519047Y-140433333D01*
X77566666Y-140528571D01*
X77566666Y-140623809D01*
X77090476Y-140719047D01*
X78138095Y-141052380D02*
X78042857Y-141004761D01*
X77995238Y-140909523D01*
X77995238Y-140052380D01*
X78947619Y-141052380D02*
X78947619Y-140528571D01*
X78900000Y-140433333D01*
X78804761Y-140385714D01*
X78614285Y-140385714D01*
X78519047Y-140433333D01*
X78947619Y-141004761D02*
X78852380Y-141052380D01*
X78614285Y-141052380D01*
X78519047Y-141004761D01*
X78471428Y-140909523D01*
X78471428Y-140814285D01*
X78519047Y-140719047D01*
X78614285Y-140671428D01*
X78852380Y-140671428D01*
X78947619Y-140623809D01*
X79328571Y-140385714D02*
X79566666Y-141052380D01*
X79804761Y-140385714D02*
X79566666Y-141052380D01*
X79471428Y-141290476D01*
X79423809Y-141338095D01*
X79328571Y-141385714D01*
G04 #@! TO.C,D4*
X134460640Y-129094688D02*
X134460640Y-128094688D01*
X134698736Y-128094688D01*
X134841593Y-128142308D01*
X134936831Y-128237546D01*
X134984450Y-128332784D01*
X135032069Y-128523260D01*
X135032069Y-128666117D01*
X134984450Y-128856593D01*
X134936831Y-128951831D01*
X134841593Y-129047069D01*
X134698736Y-129094688D01*
X134460640Y-129094688D01*
X135889212Y-128428022D02*
X135889212Y-129094688D01*
X135651116Y-128047069D02*
X135413021Y-128761355D01*
X136032069Y-128761355D01*
X138746831Y-128524688D02*
X138746831Y-127524688D01*
X139318259Y-128524688D02*
X138889688Y-127953260D01*
X139318259Y-127524688D02*
X138746831Y-128096117D01*
G04 #@! TO.C,D5*
X68360640Y-129194690D02*
X68360640Y-128194690D01*
X68598736Y-128194690D01*
X68741593Y-128242310D01*
X68836831Y-128337548D01*
X68884450Y-128432786D01*
X68932069Y-128623262D01*
X68932069Y-128766119D01*
X68884450Y-128956595D01*
X68836831Y-129051833D01*
X68741593Y-129147071D01*
X68598736Y-129194690D01*
X68360640Y-129194690D01*
X69836831Y-128194690D02*
X69360640Y-128194690D01*
X69313021Y-128670881D01*
X69360640Y-128623262D01*
X69455878Y-128575643D01*
X69693974Y-128575643D01*
X69789212Y-128623262D01*
X69836831Y-128670881D01*
X69884450Y-128766119D01*
X69884450Y-129004214D01*
X69836831Y-129099452D01*
X69789212Y-129147071D01*
X69693974Y-129194690D01*
X69455878Y-129194690D01*
X69360640Y-129147071D01*
X69313021Y-129099452D01*
X72646831Y-128624690D02*
X72646831Y-127624690D01*
X73218259Y-128624690D02*
X72789688Y-128053262D01*
X73218259Y-127624690D02*
X72646831Y-128196119D01*
G04 #@! TO.C,R8*
X97333333Y-97152380D02*
X97000000Y-96676190D01*
X96761904Y-97152380D02*
X96761904Y-96152380D01*
X97142857Y-96152380D01*
X97238095Y-96200000D01*
X97285714Y-96247619D01*
X97333333Y-96342857D01*
X97333333Y-96485714D01*
X97285714Y-96580952D01*
X97238095Y-96628571D01*
X97142857Y-96676190D01*
X96761904Y-96676190D01*
X97904761Y-96580952D02*
X97809523Y-96533333D01*
X97761904Y-96485714D01*
X97714285Y-96390476D01*
X97714285Y-96342857D01*
X97761904Y-96247619D01*
X97809523Y-96200000D01*
X97904761Y-96152380D01*
X98095238Y-96152380D01*
X98190476Y-96200000D01*
X98238095Y-96247619D01*
X98285714Y-96342857D01*
X98285714Y-96390476D01*
X98238095Y-96485714D01*
X98190476Y-96533333D01*
X98095238Y-96580952D01*
X97904761Y-96580952D01*
X97809523Y-96628571D01*
X97761904Y-96676190D01*
X97714285Y-96771428D01*
X97714285Y-96961904D01*
X97761904Y-97057142D01*
X97809523Y-97104761D01*
X97904761Y-97152380D01*
X98095238Y-97152380D01*
X98190476Y-97104761D01*
X98238095Y-97057142D01*
X98285714Y-96961904D01*
X98285714Y-96771428D01*
X98238095Y-96676190D01*
X98190476Y-96628571D01*
X98095238Y-96580952D01*
X98927619Y-95008095D02*
X98880000Y-94960476D01*
X98832380Y-94865238D01*
X98832380Y-94627142D01*
X98880000Y-94531904D01*
X98927619Y-94484285D01*
X99022857Y-94436666D01*
X99118095Y-94436666D01*
X99260952Y-94484285D01*
X99832380Y-95055714D01*
X99832380Y-94436666D01*
X98927619Y-94055714D02*
X98880000Y-94008095D01*
X98832380Y-93912857D01*
X98832380Y-93674761D01*
X98880000Y-93579523D01*
X98927619Y-93531904D01*
X99022857Y-93484285D01*
X99118095Y-93484285D01*
X99260952Y-93531904D01*
X99832380Y-94103333D01*
X99832380Y-93484285D01*
X98832380Y-92865238D02*
X98832380Y-92770000D01*
X98880000Y-92674761D01*
X98927619Y-92627142D01*
X99022857Y-92579523D01*
X99213333Y-92531904D01*
X99451428Y-92531904D01*
X99641904Y-92579523D01*
X99737142Y-92627142D01*
X99784761Y-92674761D01*
X99832380Y-92770000D01*
X99832380Y-92865238D01*
X99784761Y-92960476D01*
X99737142Y-93008095D01*
X99641904Y-93055714D01*
X99451428Y-93103333D01*
X99213333Y-93103333D01*
X99022857Y-93055714D01*
X98927619Y-93008095D01*
X98880000Y-92960476D01*
X98832380Y-92865238D01*
G04 #@! TO.C,R9*
X93033333Y-97152380D02*
X92700000Y-96676190D01*
X92461904Y-97152380D02*
X92461904Y-96152380D01*
X92842857Y-96152380D01*
X92938095Y-96200000D01*
X92985714Y-96247619D01*
X93033333Y-96342857D01*
X93033333Y-96485714D01*
X92985714Y-96580952D01*
X92938095Y-96628571D01*
X92842857Y-96676190D01*
X92461904Y-96676190D01*
X93509523Y-97152380D02*
X93700000Y-97152380D01*
X93795238Y-97104761D01*
X93842857Y-97057142D01*
X93938095Y-96914285D01*
X93985714Y-96723809D01*
X93985714Y-96342857D01*
X93938095Y-96247619D01*
X93890476Y-96200000D01*
X93795238Y-96152380D01*
X93604761Y-96152380D01*
X93509523Y-96200000D01*
X93461904Y-96247619D01*
X93414285Y-96342857D01*
X93414285Y-96580952D01*
X93461904Y-96676190D01*
X93509523Y-96723809D01*
X93604761Y-96771428D01*
X93795238Y-96771428D01*
X93890476Y-96723809D01*
X93938095Y-96676190D01*
X93985714Y-96580952D01*
X94727619Y-95008095D02*
X94680000Y-94960476D01*
X94632380Y-94865238D01*
X94632380Y-94627142D01*
X94680000Y-94531904D01*
X94727619Y-94484285D01*
X94822857Y-94436666D01*
X94918095Y-94436666D01*
X95060952Y-94484285D01*
X95632380Y-95055714D01*
X95632380Y-94436666D01*
X94727619Y-94055714D02*
X94680000Y-94008095D01*
X94632380Y-93912857D01*
X94632380Y-93674761D01*
X94680000Y-93579523D01*
X94727619Y-93531904D01*
X94822857Y-93484285D01*
X94918095Y-93484285D01*
X95060952Y-93531904D01*
X95632380Y-94103333D01*
X95632380Y-93484285D01*
X94632380Y-92865238D02*
X94632380Y-92770000D01*
X94680000Y-92674761D01*
X94727619Y-92627142D01*
X94822857Y-92579523D01*
X95013333Y-92531904D01*
X95251428Y-92531904D01*
X95441904Y-92579523D01*
X95537142Y-92627142D01*
X95584761Y-92674761D01*
X95632380Y-92770000D01*
X95632380Y-92865238D01*
X95584761Y-92960476D01*
X95537142Y-93008095D01*
X95441904Y-93055714D01*
X95251428Y-93103333D01*
X95013333Y-93103333D01*
X94822857Y-93055714D01*
X94727619Y-93008095D01*
X94680000Y-92960476D01*
X94632380Y-92865238D01*
G04 #@! TO.C,R10*
X88557142Y-97252380D02*
X88223809Y-96776190D01*
X87985714Y-97252380D02*
X87985714Y-96252380D01*
X88366666Y-96252380D01*
X88461904Y-96300000D01*
X88509523Y-96347619D01*
X88557142Y-96442857D01*
X88557142Y-96585714D01*
X88509523Y-96680952D01*
X88461904Y-96728571D01*
X88366666Y-96776190D01*
X87985714Y-96776190D01*
X89509523Y-97252380D02*
X88938095Y-97252380D01*
X89223809Y-97252380D02*
X89223809Y-96252380D01*
X89128571Y-96395238D01*
X89033333Y-96490476D01*
X88938095Y-96538095D01*
X90128571Y-96252380D02*
X90223809Y-96252380D01*
X90319047Y-96300000D01*
X90366666Y-96347619D01*
X90414285Y-96442857D01*
X90461904Y-96633333D01*
X90461904Y-96871428D01*
X90414285Y-97061904D01*
X90366666Y-97157142D01*
X90319047Y-97204761D01*
X90223809Y-97252380D01*
X90128571Y-97252380D01*
X90033333Y-97204761D01*
X89985714Y-97157142D01*
X89938095Y-97061904D01*
X89890476Y-96871428D01*
X89890476Y-96633333D01*
X89938095Y-96442857D01*
X89985714Y-96347619D01*
X90033333Y-96300000D01*
X90128571Y-96252380D01*
X90627619Y-95008095D02*
X90580000Y-94960476D01*
X90532380Y-94865238D01*
X90532380Y-94627142D01*
X90580000Y-94531904D01*
X90627619Y-94484285D01*
X90722857Y-94436666D01*
X90818095Y-94436666D01*
X90960952Y-94484285D01*
X91532380Y-95055714D01*
X91532380Y-94436666D01*
X90627619Y-94055714D02*
X90580000Y-94008095D01*
X90532380Y-93912857D01*
X90532380Y-93674761D01*
X90580000Y-93579523D01*
X90627619Y-93531904D01*
X90722857Y-93484285D01*
X90818095Y-93484285D01*
X90960952Y-93531904D01*
X91532380Y-94103333D01*
X91532380Y-93484285D01*
X90532380Y-92865238D02*
X90532380Y-92770000D01*
X90580000Y-92674761D01*
X90627619Y-92627142D01*
X90722857Y-92579523D01*
X90913333Y-92531904D01*
X91151428Y-92531904D01*
X91341904Y-92579523D01*
X91437142Y-92627142D01*
X91484761Y-92674761D01*
X91532380Y-92770000D01*
X91532380Y-92865238D01*
X91484761Y-92960476D01*
X91437142Y-93008095D01*
X91341904Y-93055714D01*
X91151428Y-93103333D01*
X90913333Y-93103333D01*
X90722857Y-93055714D01*
X90627619Y-93008095D01*
X90580000Y-92960476D01*
X90532380Y-92865238D01*
G04 #@! TO.C,R11*
X84157142Y-97152380D02*
X83823809Y-96676190D01*
X83585714Y-97152380D02*
X83585714Y-96152380D01*
X83966666Y-96152380D01*
X84061904Y-96200000D01*
X84109523Y-96247619D01*
X84157142Y-96342857D01*
X84157142Y-96485714D01*
X84109523Y-96580952D01*
X84061904Y-96628571D01*
X83966666Y-96676190D01*
X83585714Y-96676190D01*
X85109523Y-97152380D02*
X84538095Y-97152380D01*
X84823809Y-97152380D02*
X84823809Y-96152380D01*
X84728571Y-96295238D01*
X84633333Y-96390476D01*
X84538095Y-96438095D01*
X86061904Y-97152380D02*
X85490476Y-97152380D01*
X85776190Y-97152380D02*
X85776190Y-96152380D01*
X85680952Y-96295238D01*
X85585714Y-96390476D01*
X85490476Y-96438095D01*
X86427619Y-95008095D02*
X86380000Y-94960476D01*
X86332380Y-94865238D01*
X86332380Y-94627142D01*
X86380000Y-94531904D01*
X86427619Y-94484285D01*
X86522857Y-94436666D01*
X86618095Y-94436666D01*
X86760952Y-94484285D01*
X87332380Y-95055714D01*
X87332380Y-94436666D01*
X86427619Y-94055714D02*
X86380000Y-94008095D01*
X86332380Y-93912857D01*
X86332380Y-93674761D01*
X86380000Y-93579523D01*
X86427619Y-93531904D01*
X86522857Y-93484285D01*
X86618095Y-93484285D01*
X86760952Y-93531904D01*
X87332380Y-94103333D01*
X87332380Y-93484285D01*
X86332380Y-92865238D02*
X86332380Y-92770000D01*
X86380000Y-92674761D01*
X86427619Y-92627142D01*
X86522857Y-92579523D01*
X86713333Y-92531904D01*
X86951428Y-92531904D01*
X87141904Y-92579523D01*
X87237142Y-92627142D01*
X87284761Y-92674761D01*
X87332380Y-92770000D01*
X87332380Y-92865238D01*
X87284761Y-92960476D01*
X87237142Y-93008095D01*
X87141904Y-93055714D01*
X86951428Y-93103333D01*
X86713333Y-93103333D01*
X86522857Y-93055714D01*
X86427619Y-93008095D01*
X86380000Y-92960476D01*
X86332380Y-92865238D01*
G04 #@! TO.C,R12*
X150104689Y-88964121D02*
X149628499Y-89297454D01*
X150104689Y-89535549D02*
X149104689Y-89535549D01*
X149104689Y-89154597D01*
X149152309Y-89059359D01*
X149199928Y-89011740D01*
X149295166Y-88964121D01*
X149438023Y-88964121D01*
X149533261Y-89011740D01*
X149580880Y-89059359D01*
X149628499Y-89154597D01*
X149628499Y-89535549D01*
X150104689Y-88011740D02*
X150104689Y-88583168D01*
X150104689Y-88297454D02*
X149104689Y-88297454D01*
X149247547Y-88392692D01*
X149342785Y-88487930D01*
X149390404Y-88583168D01*
X149199928Y-87630787D02*
X149152309Y-87583168D01*
X149104689Y-87487930D01*
X149104689Y-87249835D01*
X149152309Y-87154597D01*
X149199928Y-87106978D01*
X149295166Y-87059359D01*
X149390404Y-87059359D01*
X149533261Y-87106978D01*
X150104689Y-87678406D01*
X150104689Y-87059359D01*
X153944689Y-89011740D02*
X153944689Y-89583168D01*
X153944689Y-89297454D02*
X152944689Y-89297454D01*
X153087547Y-89392692D01*
X153182785Y-89487930D01*
X153230404Y-89583168D01*
X152944689Y-88392692D02*
X152944689Y-88297454D01*
X152992309Y-88202216D01*
X153039928Y-88154597D01*
X153135166Y-88106978D01*
X153325642Y-88059359D01*
X153563737Y-88059359D01*
X153754213Y-88106978D01*
X153849451Y-88154597D01*
X153897070Y-88202216D01*
X153944689Y-88297454D01*
X153944689Y-88392692D01*
X153897070Y-88487930D01*
X153849451Y-88535549D01*
X153754213Y-88583168D01*
X153563737Y-88630787D01*
X153325642Y-88630787D01*
X153135166Y-88583168D01*
X153039928Y-88535549D01*
X152992309Y-88487930D01*
X152944689Y-88392692D01*
X153944689Y-87630787D02*
X152944689Y-87630787D01*
X153944689Y-87059359D02*
X153373261Y-87487930D01*
X152944689Y-87059359D02*
X153516118Y-87630787D01*
G04 #@! TO.C,R13*
X105835882Y-126404691D02*
X105502549Y-125928501D01*
X105264454Y-126404691D02*
X105264454Y-125404691D01*
X105645406Y-125404691D01*
X105740644Y-125452311D01*
X105788263Y-125499930D01*
X105835882Y-125595168D01*
X105835882Y-125738025D01*
X105788263Y-125833263D01*
X105740644Y-125880882D01*
X105645406Y-125928501D01*
X105264454Y-125928501D01*
X106788263Y-126404691D02*
X106216835Y-126404691D01*
X106502549Y-126404691D02*
X106502549Y-125404691D01*
X106407311Y-125547549D01*
X106312073Y-125642787D01*
X106216835Y-125690406D01*
X107121597Y-125404691D02*
X107740644Y-125404691D01*
X107407311Y-125785644D01*
X107550168Y-125785644D01*
X107645406Y-125833263D01*
X107693025Y-125880882D01*
X107740644Y-125976120D01*
X107740644Y-126214215D01*
X107693025Y-126309453D01*
X107645406Y-126357072D01*
X107550168Y-126404691D01*
X107264454Y-126404691D01*
X107169216Y-126357072D01*
X107121597Y-126309453D01*
X106264454Y-130244691D02*
X105693025Y-130244691D01*
X105978740Y-130244691D02*
X105978740Y-129244691D01*
X105883501Y-129387549D01*
X105788263Y-129482787D01*
X105693025Y-129530406D01*
X106693025Y-130244691D02*
X106693025Y-129244691D01*
X107264454Y-130244691D02*
X106835882Y-129673263D01*
X107264454Y-129244691D02*
X106693025Y-129816120D01*
G04 #@! TO.C,R18*
X89172380Y-129312857D02*
X88696190Y-129646190D01*
X89172380Y-129884285D02*
X88172380Y-129884285D01*
X88172380Y-129503333D01*
X88220000Y-129408095D01*
X88267619Y-129360476D01*
X88362857Y-129312857D01*
X88505714Y-129312857D01*
X88600952Y-129360476D01*
X88648571Y-129408095D01*
X88696190Y-129503333D01*
X88696190Y-129884285D01*
X89172380Y-128360476D02*
X89172380Y-128931904D01*
X89172380Y-128646190D02*
X88172380Y-128646190D01*
X88315238Y-128741428D01*
X88410476Y-128836666D01*
X88458095Y-128931904D01*
X88600952Y-127789047D02*
X88553333Y-127884285D01*
X88505714Y-127931904D01*
X88410476Y-127979523D01*
X88362857Y-127979523D01*
X88267619Y-127931904D01*
X88220000Y-127884285D01*
X88172380Y-127789047D01*
X88172380Y-127598571D01*
X88220000Y-127503333D01*
X88267619Y-127455714D01*
X88362857Y-127408095D01*
X88410476Y-127408095D01*
X88505714Y-127455714D01*
X88553333Y-127503333D01*
X88600952Y-127598571D01*
X88600952Y-127789047D01*
X88648571Y-127884285D01*
X88696190Y-127931904D01*
X88791428Y-127979523D01*
X88981904Y-127979523D01*
X89077142Y-127931904D01*
X89124761Y-127884285D01*
X89172380Y-127789047D01*
X89172380Y-127598571D01*
X89124761Y-127503333D01*
X89077142Y-127455714D01*
X88981904Y-127408095D01*
X88791428Y-127408095D01*
X88696190Y-127455714D01*
X88648571Y-127503333D01*
X88600952Y-127598571D01*
X85332380Y-128884285D02*
X85332380Y-129455714D01*
X85332380Y-129170000D02*
X84332380Y-129170000D01*
X84475238Y-129265238D01*
X84570476Y-129360476D01*
X84618095Y-129455714D01*
X85332380Y-128455714D02*
X84332380Y-128455714D01*
X85332380Y-127884285D02*
X84760952Y-128312857D01*
X84332380Y-127884285D02*
X84903809Y-128455714D01*
G04 #@! TO.C,SW2*
X151268024Y-85056024D02*
X151410881Y-85103643D01*
X151648976Y-85103643D01*
X151744214Y-85056024D01*
X151791833Y-85008405D01*
X151839452Y-84913167D01*
X151839452Y-84817929D01*
X151791833Y-84722691D01*
X151744214Y-84675072D01*
X151648976Y-84627453D01*
X151458500Y-84579834D01*
X151363262Y-84532215D01*
X151315643Y-84484596D01*
X151268024Y-84389358D01*
X151268024Y-84294120D01*
X151315643Y-84198882D01*
X151363262Y-84151263D01*
X151458500Y-84103643D01*
X151696595Y-84103643D01*
X151839452Y-84151263D01*
X152172786Y-84103643D02*
X152410881Y-85103643D01*
X152601357Y-84389358D01*
X152791833Y-85103643D01*
X153029929Y-84103643D01*
X153172786Y-85198882D02*
X153934690Y-85198882D01*
X154172786Y-85103643D02*
X154172786Y-84103643D01*
X154410881Y-84103643D01*
X154553738Y-84151263D01*
X154648976Y-84246501D01*
X154696595Y-84341739D01*
X154744214Y-84532215D01*
X154744214Y-84675072D01*
X154696595Y-84865548D01*
X154648976Y-84960786D01*
X154553738Y-85056024D01*
X154410881Y-85103643D01*
X154172786Y-85103643D01*
X155172786Y-85103643D02*
X155172786Y-84103643D01*
X155648976Y-85103643D02*
X155648976Y-84103643D01*
X156029929Y-84103643D01*
X156125167Y-84151263D01*
X156172786Y-84198882D01*
X156220405Y-84294120D01*
X156220405Y-84436977D01*
X156172786Y-84532215D01*
X156125167Y-84579834D01*
X156029929Y-84627453D01*
X155648976Y-84627453D01*
X156410881Y-85198882D02*
X157172786Y-85198882D01*
X157315643Y-85103643D02*
X157839452Y-84436977D01*
X157315643Y-84436977D02*
X157839452Y-85103643D01*
X158410881Y-84103643D02*
X158506119Y-84103643D01*
X158601357Y-84151263D01*
X158648976Y-84198882D01*
X158696595Y-84294120D01*
X158744214Y-84484596D01*
X158744214Y-84722691D01*
X158696595Y-84913167D01*
X158648976Y-85008405D01*
X158601357Y-85056024D01*
X158506119Y-85103643D01*
X158410881Y-85103643D01*
X158315643Y-85056024D01*
X158268024Y-85008405D01*
X158220405Y-84913167D01*
X158172786Y-84722691D01*
X158172786Y-84484596D01*
X158220405Y-84294120D01*
X158268024Y-84198882D01*
X158315643Y-84151263D01*
X158410881Y-84103643D01*
X159125167Y-84198882D02*
X159172786Y-84151263D01*
X159268024Y-84103643D01*
X159506119Y-84103643D01*
X159601357Y-84151263D01*
X159648976Y-84198882D01*
X159696595Y-84294120D01*
X159696595Y-84389358D01*
X159648976Y-84532215D01*
X159077548Y-85103643D01*
X159696595Y-85103643D01*
G04 #@! TO.C,g2*
X80538095Y-69585714D02*
X80538095Y-70395238D01*
X80490476Y-70490476D01*
X80442857Y-70538095D01*
X80347619Y-70585714D01*
X80204761Y-70585714D01*
X80109523Y-70538095D01*
X80538095Y-70204761D02*
X80442857Y-70252380D01*
X80252380Y-70252380D01*
X80157142Y-70204761D01*
X80109523Y-70157142D01*
X80061904Y-70061904D01*
X80061904Y-69776190D01*
X80109523Y-69680952D01*
X80157142Y-69633333D01*
X80252380Y-69585714D01*
X80442857Y-69585714D01*
X80538095Y-69633333D01*
X80966666Y-69347619D02*
X81014285Y-69300000D01*
X81109523Y-69252380D01*
X81347619Y-69252380D01*
X81442857Y-69300000D01*
X81490476Y-69347619D01*
X81538095Y-69442857D01*
X81538095Y-69538095D01*
X81490476Y-69680952D01*
X80919047Y-70252380D01*
X81538095Y-70252380D01*
G04 #@! TO.C,r2*
X90052380Y-70252380D02*
X90052380Y-69585714D01*
X90052380Y-69776190D02*
X90100000Y-69680952D01*
X90147619Y-69633333D01*
X90242857Y-69585714D01*
X90338095Y-69585714D01*
X90623809Y-69347619D02*
X90671428Y-69300000D01*
X90766666Y-69252380D01*
X91004761Y-69252380D01*
X91100000Y-69300000D01*
X91147619Y-69347619D01*
X91195238Y-69442857D01*
X91195238Y-69538095D01*
X91147619Y-69680952D01*
X90576190Y-70252380D01*
X91195238Y-70252380D01*
G04 #@! TO.C,y2*
X100085714Y-69585714D02*
X100323809Y-70252380D01*
X100561904Y-69585714D02*
X100323809Y-70252380D01*
X100228571Y-70490476D01*
X100180952Y-70538095D01*
X100085714Y-70585714D01*
X100895238Y-69347619D02*
X100942857Y-69300000D01*
X101038095Y-69252380D01*
X101276190Y-69252380D01*
X101371428Y-69300000D01*
X101419047Y-69347619D01*
X101466666Y-69442857D01*
X101466666Y-69538095D01*
X101419047Y-69680952D01*
X100847619Y-70252380D01*
X101466666Y-70252380D01*
G04 #@! TO.C,R4*
X77033333Y-111052380D02*
X76700000Y-110576190D01*
X76461904Y-111052380D02*
X76461904Y-110052380D01*
X76842857Y-110052380D01*
X76938095Y-110100000D01*
X76985714Y-110147619D01*
X77033333Y-110242857D01*
X77033333Y-110385714D01*
X76985714Y-110480952D01*
X76938095Y-110528571D01*
X76842857Y-110576190D01*
X76461904Y-110576190D01*
X77890476Y-110385714D02*
X77890476Y-111052380D01*
X77652380Y-110004761D02*
X77414285Y-110719047D01*
X78033333Y-110719047D01*
X87761904Y-110147619D02*
X87809523Y-110100000D01*
X87904761Y-110052380D01*
X88142857Y-110052380D01*
X88238095Y-110100000D01*
X88285714Y-110147619D01*
X88333333Y-110242857D01*
X88333333Y-110338095D01*
X88285714Y-110480952D01*
X87714285Y-111052380D01*
X88333333Y-111052380D01*
X88714285Y-110147619D02*
X88761904Y-110100000D01*
X88857142Y-110052380D01*
X89095238Y-110052380D01*
X89190476Y-110100000D01*
X89238095Y-110147619D01*
X89285714Y-110242857D01*
X89285714Y-110338095D01*
X89238095Y-110480952D01*
X88666666Y-111052380D01*
X89285714Y-111052380D01*
X89904761Y-110052380D02*
X90000000Y-110052380D01*
X90095238Y-110100000D01*
X90142857Y-110147619D01*
X90190476Y-110242857D01*
X90238095Y-110433333D01*
X90238095Y-110671428D01*
X90190476Y-110861904D01*
X90142857Y-110957142D01*
X90095238Y-111004761D01*
X90000000Y-111052380D01*
X89904761Y-111052380D01*
X89809523Y-111004761D01*
X89761904Y-110957142D01*
X89714285Y-110861904D01*
X89666666Y-110671428D01*
X89666666Y-110433333D01*
X89714285Y-110242857D01*
X89761904Y-110147619D01*
X89809523Y-110100000D01*
X89904761Y-110052380D01*
G04 #@! TO.C,R5*
X79833333Y-113152380D02*
X79500000Y-112676190D01*
X79261904Y-113152380D02*
X79261904Y-112152380D01*
X79642857Y-112152380D01*
X79738095Y-112200000D01*
X79785714Y-112247619D01*
X79833333Y-112342857D01*
X79833333Y-112485714D01*
X79785714Y-112580952D01*
X79738095Y-112628571D01*
X79642857Y-112676190D01*
X79261904Y-112676190D01*
X80738095Y-112152380D02*
X80261904Y-112152380D01*
X80214285Y-112628571D01*
X80261904Y-112580952D01*
X80357142Y-112533333D01*
X80595238Y-112533333D01*
X80690476Y-112580952D01*
X80738095Y-112628571D01*
X80785714Y-112723809D01*
X80785714Y-112961904D01*
X80738095Y-113057142D01*
X80690476Y-113104761D01*
X80595238Y-113152380D01*
X80357142Y-113152380D01*
X80261904Y-113104761D01*
X80214285Y-113057142D01*
X90661904Y-112247619D02*
X90709523Y-112200000D01*
X90804761Y-112152380D01*
X91042857Y-112152380D01*
X91138095Y-112200000D01*
X91185714Y-112247619D01*
X91233333Y-112342857D01*
X91233333Y-112438095D01*
X91185714Y-112580952D01*
X90614285Y-113152380D01*
X91233333Y-113152380D01*
X91614285Y-112247619D02*
X91661904Y-112200000D01*
X91757142Y-112152380D01*
X91995238Y-112152380D01*
X92090476Y-112200000D01*
X92138095Y-112247619D01*
X92185714Y-112342857D01*
X92185714Y-112438095D01*
X92138095Y-112580952D01*
X91566666Y-113152380D01*
X92185714Y-113152380D01*
X92804761Y-112152380D02*
X92900000Y-112152380D01*
X92995238Y-112200000D01*
X93042857Y-112247619D01*
X93090476Y-112342857D01*
X93138095Y-112533333D01*
X93138095Y-112771428D01*
X93090476Y-112961904D01*
X93042857Y-113057142D01*
X92995238Y-113104761D01*
X92900000Y-113152380D01*
X92804761Y-113152380D01*
X92709523Y-113104761D01*
X92661904Y-113057142D01*
X92614285Y-112961904D01*
X92566666Y-112771428D01*
X92566666Y-112533333D01*
X92614285Y-112342857D01*
X92661904Y-112247619D01*
X92709523Y-112200000D01*
X92804761Y-112152380D01*
G04 #@! TO.C,R6*
X76933333Y-115452380D02*
X76600000Y-114976190D01*
X76361904Y-115452380D02*
X76361904Y-114452380D01*
X76742857Y-114452380D01*
X76838095Y-114500000D01*
X76885714Y-114547619D01*
X76933333Y-114642857D01*
X76933333Y-114785714D01*
X76885714Y-114880952D01*
X76838095Y-114928571D01*
X76742857Y-114976190D01*
X76361904Y-114976190D01*
X77790476Y-114452380D02*
X77600000Y-114452380D01*
X77504761Y-114500000D01*
X77457142Y-114547619D01*
X77361904Y-114690476D01*
X77314285Y-114880952D01*
X77314285Y-115261904D01*
X77361904Y-115357142D01*
X77409523Y-115404761D01*
X77504761Y-115452380D01*
X77695238Y-115452380D01*
X77790476Y-115404761D01*
X77838095Y-115357142D01*
X77885714Y-115261904D01*
X77885714Y-115023809D01*
X77838095Y-114928571D01*
X77790476Y-114880952D01*
X77695238Y-114833333D01*
X77504761Y-114833333D01*
X77409523Y-114880952D01*
X77361904Y-114928571D01*
X77314285Y-115023809D01*
X87761904Y-114547619D02*
X87809523Y-114500000D01*
X87904761Y-114452380D01*
X88142857Y-114452380D01*
X88238095Y-114500000D01*
X88285714Y-114547619D01*
X88333333Y-114642857D01*
X88333333Y-114738095D01*
X88285714Y-114880952D01*
X87714285Y-115452380D01*
X88333333Y-115452380D01*
X88714285Y-114547619D02*
X88761904Y-114500000D01*
X88857142Y-114452380D01*
X89095238Y-114452380D01*
X89190476Y-114500000D01*
X89238095Y-114547619D01*
X89285714Y-114642857D01*
X89285714Y-114738095D01*
X89238095Y-114880952D01*
X88666666Y-115452380D01*
X89285714Y-115452380D01*
X89904761Y-114452380D02*
X90000000Y-114452380D01*
X90095238Y-114500000D01*
X90142857Y-114547619D01*
X90190476Y-114642857D01*
X90238095Y-114833333D01*
X90238095Y-115071428D01*
X90190476Y-115261904D01*
X90142857Y-115357142D01*
X90095238Y-115404761D01*
X90000000Y-115452380D01*
X89904761Y-115452380D01*
X89809523Y-115404761D01*
X89761904Y-115357142D01*
X89714285Y-115261904D01*
X89666666Y-115071428D01*
X89666666Y-114833333D01*
X89714285Y-114642857D01*
X89761904Y-114547619D01*
X89809523Y-114500000D01*
X89904761Y-114452380D01*
G04 #@! TO.C,R7*
X79733333Y-117652380D02*
X79400000Y-117176190D01*
X79161904Y-117652380D02*
X79161904Y-116652380D01*
X79542857Y-116652380D01*
X79638095Y-116700000D01*
X79685714Y-116747619D01*
X79733333Y-116842857D01*
X79733333Y-116985714D01*
X79685714Y-117080952D01*
X79638095Y-117128571D01*
X79542857Y-117176190D01*
X79161904Y-117176190D01*
X80066666Y-116652380D02*
X80733333Y-116652380D01*
X80304761Y-117652380D01*
X90561904Y-116747619D02*
X90609523Y-116700000D01*
X90704761Y-116652380D01*
X90942857Y-116652380D01*
X91038095Y-116700000D01*
X91085714Y-116747619D01*
X91133333Y-116842857D01*
X91133333Y-116938095D01*
X91085714Y-117080952D01*
X90514285Y-117652380D01*
X91133333Y-117652380D01*
X91514285Y-116747619D02*
X91561904Y-116700000D01*
X91657142Y-116652380D01*
X91895238Y-116652380D01*
X91990476Y-116700000D01*
X92038095Y-116747619D01*
X92085714Y-116842857D01*
X92085714Y-116938095D01*
X92038095Y-117080952D01*
X91466666Y-117652380D01*
X92085714Y-117652380D01*
X92704761Y-116652380D02*
X92800000Y-116652380D01*
X92895238Y-116700000D01*
X92942857Y-116747619D01*
X92990476Y-116842857D01*
X93038095Y-117033333D01*
X93038095Y-117271428D01*
X92990476Y-117461904D01*
X92942857Y-117557142D01*
X92895238Y-117604761D01*
X92800000Y-117652380D01*
X92704761Y-117652380D01*
X92609523Y-117604761D01*
X92561904Y-117557142D01*
X92514285Y-117461904D01*
X92466666Y-117271428D01*
X92466666Y-117033333D01*
X92514285Y-116842857D01*
X92561904Y-116747619D01*
X92609523Y-116700000D01*
X92704761Y-116652380D01*
G04 #@! TO.C,U7414*
X149509523Y-127652380D02*
X149509523Y-128461904D01*
X149557142Y-128557142D01*
X149604761Y-128604761D01*
X149700000Y-128652380D01*
X149890476Y-128652380D01*
X149985714Y-128604761D01*
X150033333Y-128557142D01*
X150080952Y-128461904D01*
X150080952Y-127652380D01*
X150461904Y-127652380D02*
X151128571Y-127652380D01*
X150700000Y-128652380D01*
X151938095Y-127985714D02*
X151938095Y-128652380D01*
X151700000Y-127604761D02*
X151461904Y-128319047D01*
X152080952Y-128319047D01*
X152985714Y-128652380D02*
X152414285Y-128652380D01*
X152700000Y-128652380D02*
X152700000Y-127652380D01*
X152604761Y-127795238D01*
X152509523Y-127890476D01*
X152414285Y-127938095D01*
X153842857Y-127985714D02*
X153842857Y-128652380D01*
X153604761Y-127604761D02*
X153366666Y-128319047D01*
X153985714Y-128319047D01*
G04 #@! TO.C,U74164*
X101652380Y-105966666D02*
X102461904Y-105966666D01*
X102557142Y-105919047D01*
X102604761Y-105871428D01*
X102652380Y-105776190D01*
X102652380Y-105585714D01*
X102604761Y-105490476D01*
X102557142Y-105442857D01*
X102461904Y-105395238D01*
X101652380Y-105395238D01*
X101652380Y-105014285D02*
X101652380Y-104347619D01*
X102652380Y-104776190D01*
X101985714Y-103538095D02*
X102652380Y-103538095D01*
X101604761Y-103776190D02*
X102319047Y-104014285D01*
X102319047Y-103395238D01*
X102652380Y-102490476D02*
X102652380Y-103061904D01*
X102652380Y-102776190D02*
X101652380Y-102776190D01*
X101795238Y-102871428D01*
X101890476Y-102966666D01*
X101938095Y-103061904D01*
X101652380Y-101633333D02*
X101652380Y-101823809D01*
X101700000Y-101919047D01*
X101747619Y-101966666D01*
X101890476Y-102061904D01*
X102080952Y-102109523D01*
X102461904Y-102109523D01*
X102557142Y-102061904D01*
X102604761Y-102014285D01*
X102652380Y-101919047D01*
X102652380Y-101728571D01*
X102604761Y-101633333D01*
X102557142Y-101585714D01*
X102461904Y-101538095D01*
X102223809Y-101538095D01*
X102128571Y-101585714D01*
X102080952Y-101633333D01*
X102033333Y-101728571D01*
X102033333Y-101919047D01*
X102080952Y-102014285D01*
X102128571Y-102061904D01*
X102223809Y-102109523D01*
X101985714Y-100680952D02*
X102652380Y-100680952D01*
X101604761Y-100919047D02*
X102319047Y-101157142D01*
X102319047Y-100538095D01*
G04 #@! TO.C,Q4*
X67304761Y-103347619D02*
X67209523Y-103300000D01*
X67114285Y-103204761D01*
X66971428Y-103061904D01*
X66876190Y-103014285D01*
X66780952Y-103014285D01*
X66828571Y-103252380D02*
X66733333Y-103204761D01*
X66638095Y-103109523D01*
X66590476Y-102919047D01*
X66590476Y-102585714D01*
X66638095Y-102395238D01*
X66733333Y-102300000D01*
X66828571Y-102252380D01*
X67019047Y-102252380D01*
X67114285Y-102300000D01*
X67209523Y-102395238D01*
X67257142Y-102585714D01*
X67257142Y-102919047D01*
X67209523Y-103109523D01*
X67114285Y-103204761D01*
X67019047Y-103252380D01*
X66828571Y-103252380D01*
X68114285Y-102585714D02*
X68114285Y-103252380D01*
X67876190Y-102204761D02*
X67638095Y-102919047D01*
X68257142Y-102919047D01*
X67452380Y-106314285D02*
X67452380Y-106790476D01*
X67928571Y-106838095D01*
X67880952Y-106790476D01*
X67833333Y-106695238D01*
X67833333Y-106457142D01*
X67880952Y-106361904D01*
X67928571Y-106314285D01*
X68023809Y-106266666D01*
X68261904Y-106266666D01*
X68357142Y-106314285D01*
X68404761Y-106361904D01*
X68452380Y-106457142D01*
X68452380Y-106695238D01*
X68404761Y-106790476D01*
X68357142Y-106838095D01*
X67785714Y-105409523D02*
X68452380Y-105409523D01*
X67404761Y-105647619D02*
X68119047Y-105885714D01*
X68119047Y-105266666D01*
X67452380Y-104980952D02*
X67452380Y-104314285D01*
X68452380Y-104742857D01*
G04 #@! TO.C,Q6*
X75504761Y-98247619D02*
X75409523Y-98200000D01*
X75314285Y-98104761D01*
X75171428Y-97961904D01*
X75076190Y-97914285D01*
X74980952Y-97914285D01*
X75028571Y-98152380D02*
X74933333Y-98104761D01*
X74838095Y-98009523D01*
X74790476Y-97819047D01*
X74790476Y-97485714D01*
X74838095Y-97295238D01*
X74933333Y-97200000D01*
X75028571Y-97152380D01*
X75219047Y-97152380D01*
X75314285Y-97200000D01*
X75409523Y-97295238D01*
X75457142Y-97485714D01*
X75457142Y-97819047D01*
X75409523Y-98009523D01*
X75314285Y-98104761D01*
X75219047Y-98152380D01*
X75028571Y-98152380D01*
X76314285Y-97152380D02*
X76123809Y-97152380D01*
X76028571Y-97200000D01*
X75980952Y-97247619D01*
X75885714Y-97390476D01*
X75838095Y-97580952D01*
X75838095Y-97961904D01*
X75885714Y-98057142D01*
X75933333Y-98104761D01*
X76028571Y-98152380D01*
X76219047Y-98152380D01*
X76314285Y-98104761D01*
X76361904Y-98057142D01*
X76409523Y-97961904D01*
X76409523Y-97723809D01*
X76361904Y-97628571D01*
X76314285Y-97580952D01*
X76219047Y-97533333D01*
X76028571Y-97533333D01*
X75933333Y-97580952D01*
X75885714Y-97628571D01*
X75838095Y-97723809D01*
X76052380Y-101814285D02*
X76052380Y-102290476D01*
X76528571Y-102338095D01*
X76480952Y-102290476D01*
X76433333Y-102195238D01*
X76433333Y-101957142D01*
X76480952Y-101861904D01*
X76528571Y-101814285D01*
X76623809Y-101766666D01*
X76861904Y-101766666D01*
X76957142Y-101814285D01*
X77004761Y-101861904D01*
X77052380Y-101957142D01*
X77052380Y-102195238D01*
X77004761Y-102290476D01*
X76957142Y-102338095D01*
X76385714Y-100909523D02*
X77052380Y-100909523D01*
X76004761Y-101147619D02*
X76719047Y-101385714D01*
X76719047Y-100766666D01*
X76052380Y-100480952D02*
X76052380Y-99814285D01*
X77052380Y-100242857D01*
G04 #@! TD*
M02*
