M48
;DRILL file {KiCad (5.0.0)} date 11/21/19 16:48:13
;FORMAT={-:-/ absolute / inch / decimal}
FMAT,2
INCH,TZ
T1C0.0236
T2C0.0276
T3C0.0315
T4C0.0315
T5C0.0354
T6C0.0394
T7C0.0512
T8C0.0591
T9C0.0598
%
G90
G05
M72
T1
X2.9803Y-4.748
X3.0591Y-4.748
X5.311Y-2.7795
X5.311Y-2.8583
T2
X4.3465Y-3.6929
X4.4172Y-3.7636
X4.1421Y-5.0343
X4.2421Y-5.0343
X3.2205Y-4.6142
X3.5205Y-4.6142
X3.2244Y-4.437
X3.5244Y-4.437
X4.7543Y-3.5866
X4.8543Y-3.5866
X5.9674Y-3.4272
X5.9674Y-3.5272
X3.1102Y-4.3504
X3.4102Y-4.3504
X2.685Y-4.7992
X2.785Y-4.7992
X4.1535Y-3.626
X4.2243Y-3.6967
X4.9843Y-2.7638
X5.0843Y-2.7638
X3.5079Y-3.6417
X3.5079Y-3.7417
X2.6575Y-3.8449
X2.6575Y-3.9449
X3.3425Y-3.6417
X3.3425Y-3.7417
X3.6693Y-3.6417
X3.6693Y-3.7417
X2.6559Y-3.689
X2.7559Y-3.689
X4.4866Y-5.0866
X4.5866Y-5.0866
X4.5394Y-3.7598
X4.6101Y-3.8306
X3.1102Y-4.5276
X3.4102Y-4.5276
X3.8346Y-3.6417
X3.8346Y-3.7417
X2.8331Y-4.4094
X2.9331Y-4.4094
X3.4173Y-5.0157
X3.4173Y-5.1157
T3
X3.3346Y-3.9126
X3.3346Y-4.2126
X3.4346Y-3.9126
X3.4346Y-4.2126
X3.5346Y-3.9126
X3.5346Y-4.2126
X3.6346Y-3.9126
X3.6346Y-4.2126
X3.7346Y-3.9126
X3.7346Y-4.2126
X3.8346Y-3.9126
X3.8346Y-4.2126
X3.9346Y-3.9126
X3.9346Y-4.2126
X3.4925Y-5.1887
X3.4925Y-5.2887
X3.4925Y-5.3887
X5.9714Y-3.0981
X5.9714Y-3.1981
X6.2714Y-3.0981
X6.2714Y-3.1981
X5.6717Y-4.6614
X5.6717Y-4.9614
X5.7717Y-4.6614
X5.7717Y-4.9614
X5.8717Y-4.6614
X5.8717Y-4.9614
X5.9717Y-4.6614
X5.9717Y-4.9614
X6.0717Y-4.6614
X6.0717Y-4.9614
X6.1717Y-4.6614
X6.1717Y-4.9614
X6.2717Y-4.6614
X6.2717Y-4.9614
X2.8776Y-3.8515
X2.8776Y-3.9515
X2.8776Y-4.0515
X3.7677Y-5.0343
X3.8677Y-5.0343
X3.9677Y-5.0343
X2.5433Y-4.0354
X2.5433Y-4.1354
X2.5433Y-4.2354
X2.7921Y-4.2087
X2.8921Y-4.2087
X2.9921Y-4.2087
X4.5909Y-5.1847
X4.5909Y-5.2847
X4.5909Y-5.3847
T4
X2.5276Y-3.8948
T5
X3.3583Y-2.6772
X3.4583Y-2.6772
X5.1728Y-4.9674
X5.4728Y-4.9674
X4.8543Y-3.837
X4.8543Y-4.437
X4.9543Y-3.837
X4.9543Y-4.437
X5.0543Y-3.837
X5.0543Y-4.437
X5.1543Y-3.837
X5.1543Y-4.437
X5.2543Y-3.837
X5.2543Y-4.437
X5.3543Y-3.837
X5.3543Y-4.437
X5.4543Y-3.837
X5.4543Y-4.437
X5.5543Y-3.837
X5.5543Y-4.437
X5.6543Y-3.837
X5.6543Y-4.437
X5.7543Y-3.837
X5.7543Y-4.437
X5.8543Y-3.837
X5.8543Y-4.437
X5.9543Y-3.837
X5.9543Y-4.437
X6.0543Y-3.837
X6.0543Y-4.437
X6.1543Y-3.837
X6.1543Y-4.437
X6.2543Y-3.837
X6.2543Y-4.437
X3.9197Y-2.6772
X4.0197Y-2.6772
X2.5704Y-4.9714
X2.8704Y-4.9714
X3.748Y-2.6772
X3.848Y-2.6772
X3.1402Y-2.6772
X3.2402Y-2.6772
X2.9685Y-2.6772
X3.0685Y-2.6772
X2.5945Y-4.3496
X2.5945Y-4.6496
X3.5299Y-2.6772
X3.6299Y-2.6772
T6
X5.1381Y-5.3336
X5.5318Y-5.3336
X3.2469Y-2.8682
X3.2469Y-3.4682
X3.3469Y-2.8682
X3.3469Y-3.4682
X3.4469Y-2.8682
X3.4469Y-3.4682
X3.5469Y-2.8682
X3.5469Y-3.4682
X3.6469Y-2.8682
X3.6469Y-3.4682
X3.7469Y-2.8682
X3.7469Y-3.4682
X5.3505Y-3.5469
X5.4989Y-3.5469
X5.6505Y-3.5469
X2.5397Y-5.3336
X2.9334Y-5.3336
T7
X4.7795Y-2.9291
X4.7795Y-3.4213
X4.9764Y-2.9291
X4.9764Y-3.4213
T9
X3.7444Y-5.3493
X3.9444Y-5.3493
X4.1657Y-5.3493
X4.3657Y-5.3493
T8
X5.2725Y-3.1926G85X5.2725Y-3.1138
G05
X5.7253Y-3.1926G85X5.7253Y-3.1138
G05
T0
M30
