G04 #@! TF.GenerationSoftware,KiCad,Pcbnew,(5.0.0)*
G04 #@! TF.CreationDate,2019-11-21T16:47:14+05:30*
G04 #@! TF.ProjectId,Smartarter,536D61727461727465722E6B69636164,rev?*
G04 #@! TF.SameCoordinates,Original*
G04 #@! TF.FileFunction,Copper,L2,Bot,Signal*
G04 #@! TF.FilePolarity,Positive*
%FSLAX46Y46*%
G04 Gerber Fmt 4.6, Leading zero omitted, Abs format (unit mm)*
G04 Created by KiCad (PCBNEW (5.0.0)) date 11/21/19 16:47:14*
%MOMM*%
%LPD*%
G01*
G04 APERTURE LIST*
G04 #@! TA.AperFunction,ComponentPad*
%ADD10R,1.600000X1.600000*%
G04 #@! TD*
G04 #@! TA.AperFunction,ComponentPad*
%ADD11O,1.600000X1.600000*%
G04 #@! TD*
G04 #@! TA.AperFunction,Conductor*
%ADD12C,0.100000*%
G04 #@! TD*
G04 #@! TA.AperFunction,ComponentPad*
%ADD13C,2.000000*%
G04 #@! TD*
G04 #@! TA.AperFunction,ComponentPad*
%ADD14R,1.800000X1.800000*%
G04 #@! TD*
G04 #@! TA.AperFunction,ComponentPad*
%ADD15C,1.800000*%
G04 #@! TD*
G04 #@! TA.AperFunction,ComponentPad*
%ADD16C,1.500000*%
G04 #@! TD*
G04 #@! TA.AperFunction,ComponentPad*
%ADD17R,1.500000X1.500000*%
G04 #@! TD*
G04 #@! TA.AperFunction,ComponentPad*
%ADD18O,1.850000X3.048000*%
G04 #@! TD*
G04 #@! TA.AperFunction,ComponentPad*
%ADD19C,1.998980*%
G04 #@! TD*
G04 #@! TA.AperFunction,ComponentPad*
%ADD20O,1.800000X1.800000*%
G04 #@! TD*
G04 #@! TA.AperFunction,ComponentPad*
%ADD21O,1.400000X1.400000*%
G04 #@! TD*
G04 #@! TA.AperFunction,ComponentPad*
%ADD22C,1.400000*%
G04 #@! TD*
G04 #@! TA.AperFunction,ComponentPad*
%ADD23C,1.200000*%
G04 #@! TD*
G04 #@! TA.AperFunction,ComponentPad*
%ADD24R,1.200000X1.200000*%
G04 #@! TD*
G04 #@! TA.AperFunction,ComponentPad*
%ADD25C,3.000000*%
G04 #@! TD*
G04 #@! TA.AperFunction,ComponentPad*
%ADD26R,3.000000X3.000000*%
G04 #@! TD*
G04 #@! TA.AperFunction,Conductor*
%ADD27C,1.400000*%
G04 #@! TD*
G04 #@! TA.AperFunction,ComponentPad*
%ADD28O,1.600000X2.400000*%
G04 #@! TD*
G04 #@! TA.AperFunction,ComponentPad*
%ADD29C,0.800000*%
G04 #@! TD*
G04 #@! TA.AperFunction,ComponentPad*
%ADD30R,1.600000X2.400000*%
G04 #@! TD*
G04 #@! TA.AperFunction,Conductor*
%ADD31C,0.250000*%
G04 #@! TD*
G04 #@! TA.AperFunction,Conductor*
%ADD32C,0.500000*%
G04 #@! TD*
G04 #@! TA.AperFunction,Conductor*
%ADD33C,1.500000*%
G04 #@! TD*
G04 #@! TA.AperFunction,Conductor*
%ADD34C,1.000000*%
G04 #@! TD*
G04 APERTURE END LIST*
D10*
G04 #@! TO.P,A1,1*
G04 #@! TO.N,N/C*
X123300000Y-112700000D03*
D11*
G04 #@! TO.P,A1,17*
X156320000Y-97460000D03*
G04 #@! TO.P,A1,2*
X125840000Y-112700000D03*
G04 #@! TO.P,A1,18*
X153780000Y-97460000D03*
G04 #@! TO.P,A1,3*
X128380000Y-112700000D03*
G04 #@! TO.P,A1,19*
G04 #@! TO.N,/otherLed*
X151240000Y-97460000D03*
G04 #@! TO.P,A1,4*
G04 #@! TO.N,GND*
X130920000Y-112700000D03*
G04 #@! TO.P,A1,20*
G04 #@! TO.N,/slideSwitch*
X148700000Y-97460000D03*
G04 #@! TO.P,A1,5*
G04 #@! TO.N,/pushButton*
X133460000Y-112700000D03*
G04 #@! TO.P,A1,21*
G04 #@! TO.N,/monitor*
X146160000Y-97460000D03*
G04 #@! TO.P,A1,6*
G04 #@! TO.N,/data*
X136000000Y-112700000D03*
G04 #@! TO.P,A1,22*
G04 #@! TO.N,N/C*
X143620000Y-97460000D03*
G04 #@! TO.P,A1,7*
G04 #@! TO.N,/CLK*
X138540000Y-112700000D03*
G04 #@! TO.P,A1,23*
G04 #@! TO.N,N/C*
X141080000Y-97460000D03*
G04 #@! TO.P,A1,8*
G04 #@! TO.N,/D4*
X141080000Y-112700000D03*
G04 #@! TO.P,A1,24*
G04 #@! TO.N,N/C*
X138540000Y-97460000D03*
G04 #@! TO.P,A1,9*
G04 #@! TO.N,/D1*
X143620000Y-112700000D03*
G04 #@! TO.P,A1,25*
G04 #@! TO.N,N/C*
X136000000Y-97460000D03*
G04 #@! TO.P,A1,10*
G04 #@! TO.N,/D2*
X146160000Y-112700000D03*
G04 #@! TO.P,A1,26*
G04 #@! TO.N,/pot*
X133460000Y-97460000D03*
G04 #@! TO.P,A1,11*
G04 #@! TO.N,/D3*
X148700000Y-112700000D03*
G04 #@! TO.P,A1,27*
G04 #@! TO.N,N/C*
X130920000Y-97460000D03*
G04 #@! TO.P,A1,12*
G04 #@! TO.N,/offRelay*
X151240000Y-112700000D03*
G04 #@! TO.P,A1,28*
G04 #@! TO.N,N/C*
X128380000Y-97460000D03*
G04 #@! TO.P,A1,13*
G04 #@! TO.N,/buzz*
X153780000Y-112700000D03*
G04 #@! TO.P,A1,29*
G04 #@! TO.N,GND*
X125840000Y-97460000D03*
G04 #@! TO.P,A1,14*
G04 #@! TO.N,/onRelay*
X156320000Y-112700000D03*
G04 #@! TO.P,A1,30*
G04 #@! TO.N,+5V*
X123300000Y-97460000D03*
G04 #@! TO.P,A1,15*
G04 #@! TO.N,/onLed*
X158860000Y-112700000D03*
G04 #@! TO.P,A1,16*
G04 #@! TO.N,/offLed*
X158860000Y-97460000D03*
G04 #@! TD*
D12*
G04 #@! TO.N,*
G04 #@! TO.C,POT1*
G36*
X134471319Y-78093671D02*
X134519855Y-78100870D01*
X134567452Y-78112793D01*
X134613652Y-78129323D01*
X134658008Y-78150302D01*
X134700095Y-78175528D01*
X134739507Y-78204758D01*
X134775863Y-78237710D01*
X134808815Y-78274066D01*
X134838045Y-78313478D01*
X134863271Y-78355565D01*
X134884250Y-78399921D01*
X134900780Y-78446121D01*
X134912703Y-78493718D01*
X134919902Y-78542254D01*
X134922310Y-78591263D01*
X134922310Y-81591263D01*
X134919902Y-81640272D01*
X134912703Y-81688808D01*
X134900780Y-81736405D01*
X134884250Y-81782605D01*
X134863271Y-81826961D01*
X134838045Y-81869048D01*
X134808815Y-81908460D01*
X134775863Y-81944816D01*
X134739507Y-81977768D01*
X134700095Y-82006998D01*
X134658008Y-82032224D01*
X134613652Y-82053203D01*
X134567452Y-82069733D01*
X134519855Y-82081656D01*
X134471319Y-82088855D01*
X134422310Y-82091263D01*
X133422310Y-82091263D01*
X133373301Y-82088855D01*
X133324765Y-82081656D01*
X133277168Y-82069733D01*
X133230968Y-82053203D01*
X133186612Y-82032224D01*
X133144525Y-82006998D01*
X133105113Y-81977768D01*
X133068757Y-81944816D01*
X133035805Y-81908460D01*
X133006575Y-81869048D01*
X132981349Y-81826961D01*
X132960370Y-81782605D01*
X132943840Y-81736405D01*
X132931917Y-81688808D01*
X132924718Y-81640272D01*
X132922310Y-81591263D01*
X132922310Y-78591263D01*
X132924718Y-78542254D01*
X132931917Y-78493718D01*
X132943840Y-78446121D01*
X132960370Y-78399921D01*
X132981349Y-78355565D01*
X133006575Y-78313478D01*
X133035805Y-78274066D01*
X133068757Y-78237710D01*
X133105113Y-78204758D01*
X133144525Y-78175528D01*
X133186612Y-78150302D01*
X133230968Y-78129323D01*
X133277168Y-78112793D01*
X133324765Y-78100870D01*
X133373301Y-78093671D01*
X133422310Y-78091263D01*
X134422310Y-78091263D01*
X134471319Y-78093671D01*
X134471319Y-78093671D01*
G37*
D13*
G04 #@! TD*
G04 #@! TO.P,POT1,*
G04 #@! TO.N,*
X133922310Y-80091263D03*
D14*
G04 #@! TO.P,POT1,1*
G04 #@! TO.N,GND*
X135902310Y-90091263D03*
D15*
G04 #@! TO.P,POT1,2*
G04 #@! TO.N,/pot*
X139672310Y-90091263D03*
G04 #@! TO.P,POT1,3*
G04 #@! TO.N,+5V*
X143522310Y-90091263D03*
D12*
G04 #@! TD*
G04 #@! TO.N,*
G04 #@! TO.C,POT1*
G36*
X145971319Y-78093671D02*
X146019855Y-78100870D01*
X146067452Y-78112793D01*
X146113652Y-78129323D01*
X146158008Y-78150302D01*
X146200095Y-78175528D01*
X146239507Y-78204758D01*
X146275863Y-78237710D01*
X146308815Y-78274066D01*
X146338045Y-78313478D01*
X146363271Y-78355565D01*
X146384250Y-78399921D01*
X146400780Y-78446121D01*
X146412703Y-78493718D01*
X146419902Y-78542254D01*
X146422310Y-78591263D01*
X146422310Y-81591263D01*
X146419902Y-81640272D01*
X146412703Y-81688808D01*
X146400780Y-81736405D01*
X146384250Y-81782605D01*
X146363271Y-81826961D01*
X146338045Y-81869048D01*
X146308815Y-81908460D01*
X146275863Y-81944816D01*
X146239507Y-81977768D01*
X146200095Y-82006998D01*
X146158008Y-82032224D01*
X146113652Y-82053203D01*
X146067452Y-82069733D01*
X146019855Y-82081656D01*
X145971319Y-82088855D01*
X145922310Y-82091263D01*
X144922310Y-82091263D01*
X144873301Y-82088855D01*
X144824765Y-82081656D01*
X144777168Y-82069733D01*
X144730968Y-82053203D01*
X144686612Y-82032224D01*
X144644525Y-82006998D01*
X144605113Y-81977768D01*
X144568757Y-81944816D01*
X144535805Y-81908460D01*
X144506575Y-81869048D01*
X144481349Y-81826961D01*
X144460370Y-81782605D01*
X144443840Y-81736405D01*
X144431917Y-81688808D01*
X144424718Y-81640272D01*
X144422310Y-81591263D01*
X144422310Y-78591263D01*
X144424718Y-78542254D01*
X144431917Y-78493718D01*
X144443840Y-78446121D01*
X144460370Y-78399921D01*
X144481349Y-78355565D01*
X144506575Y-78313478D01*
X144535805Y-78274066D01*
X144568757Y-78237710D01*
X144605113Y-78204758D01*
X144644525Y-78175528D01*
X144686612Y-78150302D01*
X144730968Y-78129323D01*
X144777168Y-78112793D01*
X144824765Y-78100870D01*
X144873301Y-78093671D01*
X144922310Y-78091263D01*
X145922310Y-78091263D01*
X145971319Y-78093671D01*
X145971319Y-78093671D01*
G37*
D13*
G04 #@! TO.P,POT1,*
G04 #@! TO.N,*
X145422310Y-80091263D03*
G04 #@! TD*
D16*
G04 #@! TO.P,Q5,2*
G04 #@! TO.N,Net-(Q5-Pad2)*
X73460000Y-106900000D03*
G04 #@! TO.P,Q5,3*
G04 #@! TO.N,Net-(Q4-Pad2)*
X70920000Y-106900000D03*
D17*
G04 #@! TO.P,Q5,1*
G04 #@! TO.N,Net-(Q5-Pad1)*
X76000000Y-106900000D03*
G04 #@! TD*
D18*
G04 #@! TO.P,SW1,1*
G04 #@! TO.N,GND*
X126400000Y-86900000D03*
G04 #@! TO.P,SW1,2*
G04 #@! TO.N,Net-(R20-Pad1)*
X121400000Y-86900000D03*
G04 #@! TO.P,SW1,1*
G04 #@! TO.N,GND*
X126400000Y-74400000D03*
G04 #@! TO.P,SW1,2*
G04 #@! TO.N,Net-(R20-Pad1)*
X121400000Y-74400000D03*
G04 #@! TD*
D16*
G04 #@! TO.P,U1,12*
G04 #@! TO.N,/D1*
X82472310Y-72851265D03*
G04 #@! TO.P,U1,11*
G04 #@! TO.N,Net-(R4-Pad1)*
X85012310Y-72851265D03*
G04 #@! TO.P,U1,10*
G04 #@! TO.N,Net-(R9-Pad1)*
X87552310Y-72851265D03*
G04 #@! TO.P,U1,9*
G04 #@! TO.N,/D2*
X90092310Y-72851265D03*
G04 #@! TO.P,U1,8*
G04 #@! TO.N,/D3*
X92632310Y-72851265D03*
G04 #@! TO.P,U1,7*
G04 #@! TO.N,Net-(R5-Pad1)*
X95172310Y-72851265D03*
G04 #@! TO.P,U1,6*
G04 #@! TO.N,/D4*
X95172310Y-88091265D03*
G04 #@! TO.P,U1,5*
G04 #@! TO.N,Net-(R10-Pad1)*
X92632310Y-88091265D03*
G04 #@! TO.P,U1,4*
G04 #@! TO.N,Net-(R6-Pad1)*
X90092310Y-88091265D03*
G04 #@! TO.P,U1,3*
G04 #@! TO.N,Net-(R11-Pad1)*
X87552310Y-88091265D03*
G04 #@! TO.P,U1,2*
G04 #@! TO.N,Net-(R7-Pad1)*
X85012310Y-88091265D03*
D17*
G04 #@! TO.P,U1,1*
G04 #@! TO.N,Net-(R8-Pad1)*
X82472310Y-88091265D03*
G04 #@! TD*
D19*
G04 #@! TO.P,ANT1,1*
G04 #@! TO.N,Net-(ANT1-Pad1)*
X64200000Y-98927692D03*
G04 #@! TD*
D20*
G04 #@! TO.P,D1,2*
G04 #@! TO.N,Net-(D1-Pad2)*
X65900000Y-110480000D03*
D14*
G04 #@! TO.P,D1,1*
G04 #@! TO.N,/monitor*
X65900000Y-118100000D03*
G04 #@! TD*
D21*
G04 #@! TO.P,R14,2*
G04 #@! TO.N,GND*
X70740000Y-121900000D03*
D22*
G04 #@! TO.P,R14,1*
G04 #@! TO.N,/monitor*
X68200000Y-121900000D03*
G04 #@! TD*
D23*
G04 #@! TO.P,C2,2*
G04 #@! TO.N,GND*
X75700000Y-120600000D03*
D24*
G04 #@! TO.P,C2,1*
G04 #@! TO.N,/monitor*
X77700000Y-120600000D03*
G04 #@! TD*
D21*
G04 #@! TO.P,R15,2*
G04 #@! TO.N,+5V*
X67500000Y-97660000D03*
D22*
G04 #@! TO.P,R15,1*
G04 #@! TO.N,Net-(Q4-Pad1)*
X67500000Y-100200000D03*
G04 #@! TD*
D21*
G04 #@! TO.P,R16,2*
G04 #@! TO.N,+5V*
X71960000Y-112000000D03*
D22*
G04 #@! TO.P,R16,1*
G04 #@! TO.N,Net-(Q5-Pad1)*
X74500000Y-112000000D03*
G04 #@! TD*
D21*
G04 #@! TO.P,R17,2*
G04 #@! TO.N,+5V*
X67460000Y-93700000D03*
D22*
G04 #@! TO.P,R17,1*
G04 #@! TO.N,Net-(Q6-Pad1)*
X70000000Y-93700000D03*
G04 #@! TD*
D15*
G04 #@! TO.P,y1,2*
G04 #@! TO.N,Net-(R3-Pad1)*
X99560000Y-68000000D03*
D14*
G04 #@! TO.P,y1,1*
G04 #@! TO.N,GND*
X102100000Y-68000000D03*
G04 #@! TD*
D15*
G04 #@! TO.P,r1,2*
G04 #@! TO.N,Net-(R2-Pad1)*
X87840000Y-68000000D03*
D14*
G04 #@! TO.P,r1,1*
G04 #@! TO.N,GND*
X85300000Y-68000000D03*
G04 #@! TD*
D15*
G04 #@! TO.P,g1,2*
G04 #@! TO.N,Net-(R1-Pad1)*
X77940000Y-68000000D03*
D14*
G04 #@! TO.P,g1,1*
G04 #@! TO.N,GND*
X75400000Y-68000000D03*
G04 #@! TD*
D25*
G04 #@! TO.P,J1,2*
G04 #@! TO.N,/bz*
X110888737Y-135872309D03*
D26*
G04 #@! TO.P,J1,1*
G04 #@! TO.N,+12V*
X105808737Y-135872309D03*
G04 #@! TD*
D13*
G04 #@! TO.P,onRelay1,5*
G04 #@! TO.N,GND*
X140508736Y-135472310D03*
G04 #@! TO.P,onRelay1,1*
G04 #@! TO.N,Net-(D4-Pad2)*
X130508736Y-135472310D03*
G04 #@! TD*
G04 #@! TO.P,offRelay1,5*
G04 #@! TO.N,GND*
X74508736Y-135472308D03*
G04 #@! TO.P,offRelay1,1*
G04 #@! TO.N,Net-(D5-Pad2)*
X64508736Y-135472308D03*
G04 #@! TD*
D25*
G04 #@! TO.P,J2,2*
G04 #@! TO.N,GND*
X100188736Y-135872308D03*
D26*
G04 #@! TO.P,J2,1*
G04 #@! TO.N,+5V*
X95108736Y-135872308D03*
G04 #@! TD*
D20*
G04 #@! TO.P,D4,2*
G04 #@! TO.N,Net-(D4-Pad2)*
X131388736Y-126172308D03*
D14*
G04 #@! TO.P,D4,1*
G04 #@! TO.N,GND*
X139008736Y-126172308D03*
G04 #@! TD*
D20*
G04 #@! TO.P,D5,2*
G04 #@! TO.N,Net-(D5-Pad2)*
X65288736Y-126272310D03*
D14*
G04 #@! TO.P,D5,1*
G04 #@! TO.N,GND*
X72908736Y-126272310D03*
G04 #@! TD*
D23*
G04 #@! TO.P,C1,2*
G04 #@! TO.N,GND*
X134900000Y-72600000D03*
D24*
G04 #@! TO.P,C1,1*
G04 #@! TO.N,Net-(C1-Pad1)*
X134900000Y-70600000D03*
G04 #@! TD*
D22*
G04 #@! TO.P,R1,2*
G04 #@! TO.N,/onLed*
X107296051Y-93896051D03*
D27*
G04 #@! TD*
G04 #@! TO.N,/onLed*
G04 #@! TO.C,R1*
X107296051Y-93896051D02*
X107296051Y-93896051D01*
D22*
G04 #@! TO.P,R1,1*
G04 #@! TO.N,Net-(R1-Pad1)*
X105500000Y-92100000D03*
G04 #@! TD*
G04 #@! TO.P,R2,2*
G04 #@! TO.N,/offLed*
X112196051Y-95596051D03*
D27*
G04 #@! TD*
G04 #@! TO.N,/offLed*
G04 #@! TO.C,R2*
X112196051Y-95596051D02*
X112196051Y-95596051D01*
D22*
G04 #@! TO.P,R2,1*
G04 #@! TO.N,Net-(R2-Pad1)*
X110400000Y-93800000D03*
G04 #@! TD*
G04 #@! TO.P,R3,2*
G04 #@! TO.N,/otherLed*
X117096051Y-97296051D03*
D27*
G04 #@! TD*
G04 #@! TO.N,/otherLed*
G04 #@! TO.C,R3*
X117096051Y-97296051D02*
X117096051Y-97296051D01*
D22*
G04 #@! TO.P,R3,1*
G04 #@! TO.N,Net-(R3-Pad1)*
X115300000Y-95500000D03*
G04 #@! TD*
D21*
G04 #@! TO.P,R8,2*
G04 #@! TO.N,Net-(R8-Pad2)*
X97400000Y-95040000D03*
D22*
G04 #@! TO.P,R8,1*
G04 #@! TO.N,Net-(R8-Pad1)*
X97400000Y-92500000D03*
G04 #@! TD*
D21*
G04 #@! TO.P,R9,2*
G04 #@! TO.N,Net-(R9-Pad2)*
X93200000Y-95040000D03*
D22*
G04 #@! TO.P,R9,1*
G04 #@! TO.N,Net-(R9-Pad1)*
X93200000Y-92500000D03*
G04 #@! TD*
D21*
G04 #@! TO.P,R10,2*
G04 #@! TO.N,Net-(R10-Pad2)*
X89100000Y-95040000D03*
D22*
G04 #@! TO.P,R10,1*
G04 #@! TO.N,Net-(R10-Pad1)*
X89100000Y-92500000D03*
G04 #@! TD*
D21*
G04 #@! TO.P,R11,2*
G04 #@! TO.N,Net-(R11-Pad2)*
X84900000Y-95040000D03*
D22*
G04 #@! TO.P,R11,1*
G04 #@! TO.N,Net-(R11-Pad1)*
X84900000Y-92500000D03*
G04 #@! TD*
D21*
G04 #@! TO.P,R12,2*
G04 #@! TO.N,/slideSwitch*
X151572309Y-87051264D03*
D22*
G04 #@! TO.P,R12,1*
G04 #@! TO.N,GND*
X151572309Y-89591264D03*
G04 #@! TD*
D21*
G04 #@! TO.P,R13,2*
G04 #@! TO.N,/buzz*
X107748740Y-127872311D03*
D22*
G04 #@! TO.P,R13,1*
G04 #@! TO.N,Net-(Q3-Pad2)*
X105208740Y-127872311D03*
G04 #@! TD*
D21*
G04 #@! TO.P,R18,2*
G04 #@! TO.N,Net-(Q2-Pad2)*
X86800000Y-129940000D03*
D22*
G04 #@! TO.P,R18,1*
G04 #@! TO.N,/offRelay*
X86800000Y-127400000D03*
G04 #@! TD*
D21*
G04 #@! TO.P,R19,2*
G04 #@! TO.N,Net-(Q1-Pad2)*
X113960000Y-129200000D03*
D22*
G04 #@! TO.P,R19,1*
G04 #@! TO.N,/onRelay*
X116500000Y-129200000D03*
G04 #@! TD*
D21*
G04 #@! TO.P,R20,2*
G04 #@! TO.N,Net-(C1-Pad1)*
X129140000Y-70200000D03*
D22*
G04 #@! TO.P,R20,1*
G04 #@! TO.N,Net-(R20-Pad1)*
X126600000Y-70200000D03*
G04 #@! TD*
D21*
G04 #@! TO.P,R21,2*
G04 #@! TO.N,Net-(R20-Pad1)*
X120760000Y-91100000D03*
D22*
G04 #@! TO.P,R21,1*
G04 #@! TO.N,+5V*
X123300000Y-91100000D03*
G04 #@! TD*
D11*
G04 #@! TO.P,SW2,4*
G04 #@! TO.N,+5V*
X159292310Y-78691263D03*
G04 #@! TO.P,SW2,2*
G04 #@! TO.N,/slideSwitch*
X151672310Y-81231263D03*
G04 #@! TO.P,SW2,3*
G04 #@! TO.N,+5V*
X159292310Y-81231263D03*
D10*
G04 #@! TO.P,SW2,1*
G04 #@! TO.N,/slideSwitch*
X151672310Y-78691263D03*
G04 #@! TD*
D15*
G04 #@! TO.P,g2,2*
G04 #@! TO.N,Net-(R1-Pad1)*
X79760000Y-68000000D03*
D14*
G04 #@! TO.P,g2,1*
G04 #@! TO.N,GND*
X82300000Y-68000000D03*
G04 #@! TD*
D15*
G04 #@! TO.P,r2,2*
G04 #@! TO.N,Net-(R2-Pad1)*
X89660000Y-68000000D03*
D14*
G04 #@! TO.P,r2,1*
G04 #@! TO.N,GND*
X92200000Y-68000000D03*
G04 #@! TD*
D15*
G04 #@! TO.P,y2,2*
G04 #@! TO.N,Net-(R3-Pad1)*
X97740000Y-68000000D03*
D14*
G04 #@! TO.P,y2,1*
G04 #@! TO.N,GND*
X95200000Y-68000000D03*
G04 #@! TD*
D21*
G04 #@! TO.P,R4,2*
G04 #@! TO.N,Net-(R4-Pad2)*
X86620000Y-110500000D03*
D22*
G04 #@! TO.P,R4,1*
G04 #@! TO.N,Net-(R4-Pad1)*
X79000000Y-110500000D03*
G04 #@! TD*
D21*
G04 #@! TO.P,R5,2*
G04 #@! TO.N,Net-(R5-Pad2)*
X89520000Y-112700000D03*
D22*
G04 #@! TO.P,R5,1*
G04 #@! TO.N,Net-(R5-Pad1)*
X81900000Y-112700000D03*
G04 #@! TD*
D21*
G04 #@! TO.P,R6,2*
G04 #@! TO.N,Net-(R6-Pad2)*
X86620000Y-115000000D03*
D22*
G04 #@! TO.P,R6,1*
G04 #@! TO.N,Net-(R6-Pad1)*
X79000000Y-115000000D03*
G04 #@! TD*
D21*
G04 #@! TO.P,R7,2*
G04 #@! TO.N,Net-(R7-Pad2)*
X89420000Y-117200000D03*
D22*
G04 #@! TO.P,R7,1*
G04 #@! TO.N,Net-(R7-Pad1)*
X81800000Y-117200000D03*
G04 #@! TD*
D28*
G04 #@! TO.P,U7414,14*
G04 #@! TO.N,+5V*
X159300000Y-126020000D03*
G04 #@! TO.P,U7414,7*
G04 #@! TO.N,GND*
X144060000Y-118400000D03*
D29*
G04 #@! TO.P,U7414,13*
G04 #@! TO.N,N/C*
X156760000Y-126020000D03*
G04 #@! TO.P,U7414,6*
X146600000Y-118400000D03*
G04 #@! TO.P,U7414,12*
X154220000Y-126020000D03*
G04 #@! TO.P,U7414,5*
X149140000Y-118400000D03*
G04 #@! TO.P,U7414,11*
X151680000Y-126020000D03*
G04 #@! TO.P,U7414,4*
X151680000Y-118400000D03*
G04 #@! TO.P,U7414,10*
X149140000Y-126020000D03*
G04 #@! TO.P,U7414,3*
X154220000Y-118400000D03*
G04 #@! TO.P,U7414,9*
X146600000Y-126020000D03*
D28*
G04 #@! TO.P,U7414,2*
G04 #@! TO.N,/pushButton*
X156760000Y-118400000D03*
D29*
G04 #@! TO.P,U7414,8*
G04 #@! TO.N,N/C*
X144060000Y-126020000D03*
D30*
G04 #@! TO.P,U7414,1*
G04 #@! TO.N,Net-(C1-Pad1)*
X159300000Y-118400000D03*
G04 #@! TD*
D10*
G04 #@! TO.P,U74164,1*
G04 #@! TO.N,+5V*
X84700000Y-107000000D03*
D11*
G04 #@! TO.P,U74164,8*
G04 #@! TO.N,/CLK*
X99940000Y-99380000D03*
G04 #@! TO.P,U74164,2*
G04 #@! TO.N,/data*
X87240000Y-107000000D03*
G04 #@! TO.P,U74164,9*
G04 #@! TO.N,+5V*
X97400000Y-99380000D03*
G04 #@! TO.P,U74164,3*
G04 #@! TO.N,Net-(R4-Pad2)*
X89780000Y-107000000D03*
G04 #@! TO.P,U74164,10*
G04 #@! TO.N,Net-(R8-Pad2)*
X94860000Y-99380000D03*
G04 #@! TO.P,U74164,4*
G04 #@! TO.N,Net-(R5-Pad2)*
X92320000Y-107000000D03*
G04 #@! TO.P,U74164,11*
G04 #@! TO.N,Net-(R9-Pad2)*
X92320000Y-99380000D03*
G04 #@! TO.P,U74164,5*
G04 #@! TO.N,Net-(R6-Pad2)*
X94860000Y-107000000D03*
G04 #@! TO.P,U74164,12*
G04 #@! TO.N,Net-(R10-Pad2)*
X89780000Y-99380000D03*
G04 #@! TO.P,U74164,6*
G04 #@! TO.N,Net-(R7-Pad2)*
X97400000Y-107000000D03*
G04 #@! TO.P,U74164,13*
G04 #@! TO.N,Net-(R11-Pad2)*
X87240000Y-99380000D03*
G04 #@! TO.P,U74164,7*
G04 #@! TO.N,GND*
X99940000Y-107000000D03*
G04 #@! TO.P,U74164,14*
G04 #@! TO.N,+5V*
X84700000Y-99380000D03*
G04 #@! TD*
D16*
G04 #@! TO.P,Q1,2*
G04 #@! TO.N,Net-(Q1-Pad2)*
X116608735Y-134232309D03*
G04 #@! TO.P,Q1,3*
G04 #@! TO.N,Net-(D4-Pad2)*
X116608735Y-131692309D03*
D17*
G04 #@! TO.P,Q1,1*
G04 #@! TO.N,+12V*
X116608735Y-136772309D03*
G04 #@! TD*
G04 #@! TO.P,Q2,1*
G04 #@! TO.N,+12V*
X88708738Y-136872310D03*
D16*
G04 #@! TO.P,Q2,3*
G04 #@! TO.N,Net-(D5-Pad2)*
X88708738Y-131792310D03*
G04 #@! TO.P,Q2,2*
G04 #@! TO.N,Net-(Q2-Pad2)*
X88708738Y-134332310D03*
G04 #@! TD*
G04 #@! TO.P,Q3,2*
G04 #@! TO.N,Net-(Q3-Pad2)*
X98240000Y-127872310D03*
G04 #@! TO.P,Q3,3*
G04 #@! TO.N,/bz*
X100780000Y-127872310D03*
D17*
G04 #@! TO.P,Q3,1*
G04 #@! TO.N,+12V*
X95700000Y-127872310D03*
G04 #@! TD*
G04 #@! TO.P,Q4,1*
G04 #@! TO.N,Net-(Q4-Pad1)*
X64600000Y-102500000D03*
D16*
G04 #@! TO.P,Q4,3*
G04 #@! TO.N,Net-(D1-Pad2)*
X64600000Y-107580000D03*
G04 #@! TO.P,Q4,2*
G04 #@! TO.N,Net-(Q4-Pad2)*
X64600000Y-105040000D03*
G04 #@! TD*
D17*
G04 #@! TO.P,Q6,1*
G04 #@! TO.N,Net-(Q6-Pad1)*
X73091266Y-97827690D03*
D16*
G04 #@! TO.P,Q6,3*
G04 #@! TO.N,Net-(Q5-Pad2)*
X73091266Y-102907690D03*
G04 #@! TO.P,Q6,2*
G04 #@! TO.N,Net-(ANT1-Pad1)*
X73091266Y-100367690D03*
G04 #@! TD*
D31*
G04 #@! TO.N,GND*
X92600000Y-70800000D02*
X84900000Y-70800000D01*
X102900000Y-68000000D02*
X102900000Y-70800000D01*
X102900000Y-70800000D02*
X95200000Y-70800000D01*
X95200000Y-70800000D02*
X92600000Y-70800000D01*
X125225000Y-74400000D02*
X126400000Y-74400000D01*
X121625000Y-70800000D02*
X125225000Y-74400000D01*
X102900000Y-70800000D02*
X121625000Y-70800000D01*
D32*
X124975000Y-74400000D02*
X126400000Y-74400000D01*
X121375000Y-70800000D02*
X124975000Y-74400000D01*
X82300000Y-68000000D02*
X84900000Y-68000000D01*
X84900000Y-68000000D02*
X84900000Y-70800000D01*
X95200000Y-68000000D02*
X92600000Y-68000000D01*
X95200000Y-68000000D02*
X95200000Y-70800000D01*
X102900000Y-70700000D02*
X103000000Y-70800000D01*
X102900000Y-68000000D02*
X102900000Y-70700000D01*
X77361461Y-70800000D02*
X103000000Y-70800000D01*
X103000000Y-70800000D02*
X121375000Y-70800000D01*
X133100000Y-74400000D02*
X134900000Y-72600000D01*
X126400000Y-74400000D02*
X133100000Y-74400000D01*
X135902310Y-91491263D02*
X136411047Y-92000000D01*
X135902310Y-90091263D02*
X135902310Y-91491263D01*
X149163573Y-92000000D02*
X151572309Y-89591264D01*
X136411047Y-92000000D02*
X149163573Y-92000000D01*
X135902310Y-88691263D02*
X135902310Y-90091263D01*
X134111047Y-86900000D02*
X135902310Y-88691263D01*
X126400000Y-86900000D02*
X134111047Y-86900000D01*
D33*
X74508739Y-137517387D02*
X74508735Y-135472312D01*
X76191352Y-139200000D02*
X74508739Y-137517387D01*
X98982365Y-139200000D02*
X76191352Y-139200000D01*
X100188737Y-135872310D02*
X100188737Y-137993628D01*
X100188737Y-137993628D02*
X98982365Y-139200000D01*
D32*
X76300000Y-70800000D02*
X77361461Y-70800000D01*
X74900000Y-69400000D02*
X76300000Y-70800000D01*
X74900000Y-68000000D02*
X74900000Y-69400000D01*
D34*
G04 #@! TO.N,+12V*
X91908737Y-130272309D02*
X94308737Y-127872308D01*
X91908738Y-135572310D02*
X91908737Y-130272309D01*
X88708738Y-136872310D02*
X90608739Y-136872309D01*
X90608739Y-136872309D02*
X91908738Y-135572310D01*
X94308739Y-127872310D02*
X94308737Y-127872308D01*
X95700000Y-127872310D02*
X94308739Y-127872310D01*
D32*
G04 #@! TO.N,Net-(R4-Pad2)*
X89780000Y-107340000D02*
X86620000Y-110500000D01*
X89780000Y-107000000D02*
X89780000Y-107340000D01*
G04 #@! TO.N,Net-(R5-Pad2)*
X92320000Y-109900000D02*
X89520000Y-112700000D01*
X92320000Y-107000000D02*
X92320000Y-109900000D01*
G04 #@! TO.N,Net-(R6-Pad2)*
X94860000Y-109540000D02*
X89400000Y-115000000D01*
X94860000Y-107000000D02*
X94860000Y-109540000D01*
X86620000Y-115000000D02*
X89400000Y-115000000D01*
G04 #@! TO.N,Net-(R7-Pad2)*
X97400000Y-109220000D02*
X89420000Y-117200000D01*
X97400000Y-107000000D02*
X97400000Y-109220000D01*
D34*
G04 #@! TO.N,+5V*
X95108736Y-135872308D02*
X95108736Y-133372308D01*
X159300000Y-129300000D02*
X159300000Y-126020000D01*
X156500000Y-132100000D02*
X159300000Y-129300000D01*
X159300000Y-123820000D02*
X159300000Y-126020000D01*
X160300000Y-122820000D02*
X159300000Y-123820000D01*
X160900000Y-122220000D02*
X160300000Y-122820000D01*
X160900000Y-96100000D02*
X160900000Y-122220000D01*
X159700000Y-94900000D02*
X160900000Y-96100000D01*
X123900000Y-94900000D02*
X159700000Y-94900000D01*
X123300000Y-97460000D02*
X123300000Y-95500000D01*
X123300000Y-95500000D02*
X123900000Y-94900000D01*
X95127692Y-133372308D02*
X96400000Y-132100000D01*
X95108736Y-133372308D02*
X95127692Y-133372308D01*
X96400000Y-132100000D02*
X156500000Y-132100000D01*
D32*
X144422309Y-89191264D02*
X143522310Y-90091263D01*
X149713573Y-83900000D02*
X144422309Y-89191264D01*
X159292310Y-81231263D02*
X156623573Y-83900000D01*
X156623573Y-83900000D02*
X149713573Y-83900000D01*
X71260001Y-111300001D02*
X71960000Y-112000000D01*
X69200000Y-109240000D02*
X71260001Y-111300001D01*
X67500000Y-97660000D02*
X69200000Y-99360000D01*
X69200000Y-99360000D02*
X69200000Y-109240000D01*
D33*
G04 #@! TO.N,Net-(D5-Pad2)*
X64508738Y-135472308D02*
X67108738Y-132872310D01*
X86568078Y-132872310D02*
X85800000Y-132872310D01*
X87648078Y-131792310D02*
X86568078Y-132872310D01*
X88708738Y-131792310D02*
X87648078Y-131792310D01*
X67108738Y-132872310D02*
X85800000Y-132872310D01*
D32*
G04 #@! TO.N,Net-(Q3-Pad2)*
X105208737Y-128862257D02*
X104198684Y-129872307D01*
X105208740Y-127872311D02*
X105208737Y-128862257D01*
X99179338Y-129872308D02*
X100500000Y-129872308D01*
X98240000Y-128932970D02*
X99179338Y-129872308D01*
X98240000Y-127872310D02*
X98240000Y-128932970D01*
X104198684Y-129872307D02*
X100500000Y-129872308D01*
D31*
G04 #@! TO.N,/monitor*
X77700000Y-119750000D02*
X77700000Y-120600000D01*
X76050000Y-118100000D02*
X77700000Y-119750000D01*
X65900000Y-118100000D02*
X68200000Y-118100000D01*
X68200000Y-118100000D02*
X76050000Y-118100000D01*
D32*
X77700000Y-119500000D02*
X77700000Y-120600000D01*
X76300000Y-118100000D02*
X77700000Y-119500000D01*
X65900000Y-118100000D02*
X76300000Y-118100000D01*
X78800000Y-120600000D02*
X79200000Y-120200000D01*
X77700000Y-120600000D02*
X78800000Y-120600000D01*
X124800000Y-106500000D02*
X111100000Y-120200000D01*
X137120000Y-106500000D02*
X124800000Y-106500000D01*
X146160000Y-97460000D02*
X137120000Y-106500000D01*
X79200000Y-120200000D02*
X111100000Y-120200000D01*
X68200000Y-121900000D02*
X68200000Y-118100000D01*
G04 #@! TO.N,Net-(C1-Pad1)*
X134500000Y-70200000D02*
X134900000Y-70600000D01*
X129140000Y-70200000D02*
X134500000Y-70200000D01*
G04 #@! TO.N,Net-(R4-Pad1)*
X79000000Y-78863575D02*
X79000000Y-110500000D01*
X85012310Y-72851265D02*
X79000000Y-78863575D01*
G04 #@! TO.N,Net-(R5-Pad1)*
X95172310Y-72851265D02*
X99400000Y-77078955D01*
X99400000Y-95700000D02*
X97700000Y-97400000D01*
X99400000Y-77078955D02*
X99400000Y-95700000D01*
X81900000Y-99100000D02*
X81900000Y-99200000D01*
X83600000Y-97400000D02*
X81900000Y-99100000D01*
X97700000Y-97400000D02*
X83600000Y-97400000D01*
D31*
X81900000Y-112700000D02*
X81900000Y-99200000D01*
D32*
X81900000Y-99100000D02*
X81900000Y-112700000D01*
G04 #@! TO.N,Net-(R6-Pad1)*
X79000000Y-112900000D02*
X79000000Y-115000000D01*
X80500000Y-111400000D02*
X79000000Y-112900000D01*
X87200000Y-90983575D02*
X87200000Y-95600000D01*
X90092310Y-88091265D02*
X87200000Y-90983575D01*
X87200000Y-95600000D02*
X86200000Y-96600000D01*
X82600000Y-96600000D02*
X80500000Y-98700000D01*
X86200000Y-96600000D02*
X82600000Y-96600000D01*
X80500000Y-98700000D02*
X80500000Y-111400000D01*
G04 #@! TO.N,Net-(R9-Pad1)*
X87552310Y-82852310D02*
X91400000Y-86700000D01*
X87552310Y-72851265D02*
X87552310Y-82852310D01*
X91400000Y-90700000D02*
X93200000Y-92500000D01*
X91400000Y-86700000D02*
X91400000Y-90700000D01*
G04 #@! TO.N,/offRelay*
X87499999Y-126700001D02*
X86800000Y-127400000D01*
X92800000Y-121400000D02*
X87499999Y-126700001D01*
X134400000Y-121400000D02*
X92800000Y-121400000D01*
X141000000Y-114800000D02*
X134400000Y-121400000D01*
X151240000Y-112700000D02*
X149140000Y-114800000D01*
X149140000Y-114800000D02*
X141000000Y-114800000D01*
G04 #@! TO.N,/buzz*
X112921051Y-122700000D02*
X107748740Y-127872311D01*
X135100000Y-122700000D02*
X112921051Y-122700000D01*
X142099990Y-115700010D02*
X135100000Y-122700000D01*
X153780000Y-112700000D02*
X150779990Y-115700010D01*
X150779990Y-115700010D02*
X142099990Y-115700010D01*
G04 #@! TO.N,/onRelay*
X152420000Y-116600000D02*
X156320000Y-112700000D01*
X143200000Y-116600000D02*
X152420000Y-116600000D01*
X135700000Y-124100000D02*
X143200000Y-116600000D01*
X116500000Y-129200000D02*
X121600000Y-124100000D01*
X121600000Y-124100000D02*
X135700000Y-124100000D01*
G04 #@! TD*
M02*
