G04 #@! TF.GenerationSoftware,KiCad,Pcbnew,(5.0.0)*
G04 #@! TF.CreationDate,2019-11-21T16:47:14+05:30*
G04 #@! TF.ProjectId,Smartarter,536D61727461727465722E6B69636164,rev?*
G04 #@! TF.SameCoordinates,Original*
G04 #@! TF.FileFunction,Soldermask,Bot*
G04 #@! TF.FilePolarity,Negative*
%FSLAX46Y46*%
G04 Gerber Fmt 4.6, Leading zero omitted, Abs format (unit mm)*
G04 Created by KiCad (PCBNEW (5.0.0)) date 11/21/19 16:47:14*
%MOMM*%
%LPD*%
G01*
G04 APERTURE LIST*
%ADD10R,1.600000X1.600000*%
%ADD11O,1.600000X1.600000*%
%ADD12C,0.100000*%
%ADD13C,2.000000*%
%ADD14R,1.800000X1.800000*%
%ADD15C,1.800000*%
%ADD16C,1.500000*%
%ADD17R,1.500000X1.500000*%
%ADD18O,1.850000X3.048000*%
%ADD19C,1.998980*%
%ADD20O,1.800000X1.800000*%
%ADD21O,1.400000X1.400000*%
%ADD22C,1.400000*%
%ADD23C,1.200000*%
%ADD24R,1.200000X1.200000*%
%ADD25C,3.000000*%
%ADD26R,3.000000X3.000000*%
%ADD27C,1.400000*%
%ADD28O,1.600000X2.400000*%
%ADD29C,0.800000*%
%ADD30R,1.600000X2.400000*%
G04 APERTURE END LIST*
D10*
G04 #@! TO.C,A1*
X123300000Y-112700000D03*
D11*
X156320000Y-97460000D03*
X125840000Y-112700000D03*
X153780000Y-97460000D03*
X128380000Y-112700000D03*
X151240000Y-97460000D03*
X130920000Y-112700000D03*
X148700000Y-97460000D03*
X133460000Y-112700000D03*
X146160000Y-97460000D03*
X136000000Y-112700000D03*
X143620000Y-97460000D03*
X138540000Y-112700000D03*
X141080000Y-97460000D03*
X141080000Y-112700000D03*
X138540000Y-97460000D03*
X143620000Y-112700000D03*
X136000000Y-97460000D03*
X146160000Y-112700000D03*
X133460000Y-97460000D03*
X148700000Y-112700000D03*
X130920000Y-97460000D03*
X151240000Y-112700000D03*
X128380000Y-97460000D03*
X153780000Y-112700000D03*
X125840000Y-97460000D03*
X156320000Y-112700000D03*
X123300000Y-97460000D03*
X158860000Y-112700000D03*
X158860000Y-97460000D03*
G04 #@! TD*
D12*
G04 #@! TO.C,POT1*
G36*
X134471319Y-78093671D02*
X134519855Y-78100870D01*
X134567452Y-78112793D01*
X134613652Y-78129323D01*
X134658008Y-78150302D01*
X134700095Y-78175528D01*
X134739507Y-78204758D01*
X134775863Y-78237710D01*
X134808815Y-78274066D01*
X134838045Y-78313478D01*
X134863271Y-78355565D01*
X134884250Y-78399921D01*
X134900780Y-78446121D01*
X134912703Y-78493718D01*
X134919902Y-78542254D01*
X134922310Y-78591263D01*
X134922310Y-81591263D01*
X134919902Y-81640272D01*
X134912703Y-81688808D01*
X134900780Y-81736405D01*
X134884250Y-81782605D01*
X134863271Y-81826961D01*
X134838045Y-81869048D01*
X134808815Y-81908460D01*
X134775863Y-81944816D01*
X134739507Y-81977768D01*
X134700095Y-82006998D01*
X134658008Y-82032224D01*
X134613652Y-82053203D01*
X134567452Y-82069733D01*
X134519855Y-82081656D01*
X134471319Y-82088855D01*
X134422310Y-82091263D01*
X133422310Y-82091263D01*
X133373301Y-82088855D01*
X133324765Y-82081656D01*
X133277168Y-82069733D01*
X133230968Y-82053203D01*
X133186612Y-82032224D01*
X133144525Y-82006998D01*
X133105113Y-81977768D01*
X133068757Y-81944816D01*
X133035805Y-81908460D01*
X133006575Y-81869048D01*
X132981349Y-81826961D01*
X132960370Y-81782605D01*
X132943840Y-81736405D01*
X132931917Y-81688808D01*
X132924718Y-81640272D01*
X132922310Y-81591263D01*
X132922310Y-78591263D01*
X132924718Y-78542254D01*
X132931917Y-78493718D01*
X132943840Y-78446121D01*
X132960370Y-78399921D01*
X132981349Y-78355565D01*
X133006575Y-78313478D01*
X133035805Y-78274066D01*
X133068757Y-78237710D01*
X133105113Y-78204758D01*
X133144525Y-78175528D01*
X133186612Y-78150302D01*
X133230968Y-78129323D01*
X133277168Y-78112793D01*
X133324765Y-78100870D01*
X133373301Y-78093671D01*
X133422310Y-78091263D01*
X134422310Y-78091263D01*
X134471319Y-78093671D01*
X134471319Y-78093671D01*
G37*
D13*
X133922310Y-80091263D03*
D14*
X135902310Y-90091263D03*
D15*
X139672310Y-90091263D03*
X143522310Y-90091263D03*
D12*
G36*
X145971319Y-78093671D02*
X146019855Y-78100870D01*
X146067452Y-78112793D01*
X146113652Y-78129323D01*
X146158008Y-78150302D01*
X146200095Y-78175528D01*
X146239507Y-78204758D01*
X146275863Y-78237710D01*
X146308815Y-78274066D01*
X146338045Y-78313478D01*
X146363271Y-78355565D01*
X146384250Y-78399921D01*
X146400780Y-78446121D01*
X146412703Y-78493718D01*
X146419902Y-78542254D01*
X146422310Y-78591263D01*
X146422310Y-81591263D01*
X146419902Y-81640272D01*
X146412703Y-81688808D01*
X146400780Y-81736405D01*
X146384250Y-81782605D01*
X146363271Y-81826961D01*
X146338045Y-81869048D01*
X146308815Y-81908460D01*
X146275863Y-81944816D01*
X146239507Y-81977768D01*
X146200095Y-82006998D01*
X146158008Y-82032224D01*
X146113652Y-82053203D01*
X146067452Y-82069733D01*
X146019855Y-82081656D01*
X145971319Y-82088855D01*
X145922310Y-82091263D01*
X144922310Y-82091263D01*
X144873301Y-82088855D01*
X144824765Y-82081656D01*
X144777168Y-82069733D01*
X144730968Y-82053203D01*
X144686612Y-82032224D01*
X144644525Y-82006998D01*
X144605113Y-81977768D01*
X144568757Y-81944816D01*
X144535805Y-81908460D01*
X144506575Y-81869048D01*
X144481349Y-81826961D01*
X144460370Y-81782605D01*
X144443840Y-81736405D01*
X144431917Y-81688808D01*
X144424718Y-81640272D01*
X144422310Y-81591263D01*
X144422310Y-78591263D01*
X144424718Y-78542254D01*
X144431917Y-78493718D01*
X144443840Y-78446121D01*
X144460370Y-78399921D01*
X144481349Y-78355565D01*
X144506575Y-78313478D01*
X144535805Y-78274066D01*
X144568757Y-78237710D01*
X144605113Y-78204758D01*
X144644525Y-78175528D01*
X144686612Y-78150302D01*
X144730968Y-78129323D01*
X144777168Y-78112793D01*
X144824765Y-78100870D01*
X144873301Y-78093671D01*
X144922310Y-78091263D01*
X145922310Y-78091263D01*
X145971319Y-78093671D01*
X145971319Y-78093671D01*
G37*
D13*
X145422310Y-80091263D03*
G04 #@! TD*
D16*
G04 #@! TO.C,Q5*
X73460000Y-106900000D03*
X70920000Y-106900000D03*
D17*
X76000000Y-106900000D03*
G04 #@! TD*
D18*
G04 #@! TO.C,SW1*
X126400000Y-86900000D03*
X121400000Y-86900000D03*
X126400000Y-74400000D03*
X121400000Y-74400000D03*
G04 #@! TD*
D16*
G04 #@! TO.C,U1*
X82472310Y-72851265D03*
X85012310Y-72851265D03*
X87552310Y-72851265D03*
X90092310Y-72851265D03*
X92632310Y-72851265D03*
X95172310Y-72851265D03*
X95172310Y-88091265D03*
X92632310Y-88091265D03*
X90092310Y-88091265D03*
X87552310Y-88091265D03*
X85012310Y-88091265D03*
D17*
X82472310Y-88091265D03*
G04 #@! TD*
D19*
G04 #@! TO.C,ANT1*
X64200000Y-98927692D03*
G04 #@! TD*
D20*
G04 #@! TO.C,D1*
X65900000Y-110480000D03*
D14*
X65900000Y-118100000D03*
G04 #@! TD*
D21*
G04 #@! TO.C,R14*
X70740000Y-121900000D03*
D22*
X68200000Y-121900000D03*
G04 #@! TD*
D23*
G04 #@! TO.C,C2*
X75700000Y-120600000D03*
D24*
X77700000Y-120600000D03*
G04 #@! TD*
D21*
G04 #@! TO.C,R15*
X67500000Y-97660000D03*
D22*
X67500000Y-100200000D03*
G04 #@! TD*
D21*
G04 #@! TO.C,R16*
X71960000Y-112000000D03*
D22*
X74500000Y-112000000D03*
G04 #@! TD*
D21*
G04 #@! TO.C,R17*
X67460000Y-93700000D03*
D22*
X70000000Y-93700000D03*
G04 #@! TD*
D15*
G04 #@! TO.C,y1*
X99560000Y-68000000D03*
D14*
X102100000Y-68000000D03*
G04 #@! TD*
D15*
G04 #@! TO.C,r1*
X87840000Y-68000000D03*
D14*
X85300000Y-68000000D03*
G04 #@! TD*
D15*
G04 #@! TO.C,g1*
X77940000Y-68000000D03*
D14*
X75400000Y-68000000D03*
G04 #@! TD*
D25*
G04 #@! TO.C,J1*
X110888737Y-135872309D03*
D26*
X105808737Y-135872309D03*
G04 #@! TD*
D13*
G04 #@! TO.C,onRelay1*
X140508736Y-135472310D03*
X130508736Y-135472310D03*
G04 #@! TD*
G04 #@! TO.C,offRelay1*
X74508736Y-135472308D03*
X64508736Y-135472308D03*
G04 #@! TD*
D25*
G04 #@! TO.C,J2*
X100188736Y-135872308D03*
D26*
X95108736Y-135872308D03*
G04 #@! TD*
D20*
G04 #@! TO.C,D4*
X131388736Y-126172308D03*
D14*
X139008736Y-126172308D03*
G04 #@! TD*
D20*
G04 #@! TO.C,D5*
X65288736Y-126272310D03*
D14*
X72908736Y-126272310D03*
G04 #@! TD*
D23*
G04 #@! TO.C,C1*
X134900000Y-72600000D03*
D24*
X134900000Y-70600000D03*
G04 #@! TD*
D22*
G04 #@! TO.C,R1*
X107296051Y-93896051D03*
D27*
X107296051Y-93896051D02*
X107296051Y-93896051D01*
D22*
X105500000Y-92100000D03*
G04 #@! TD*
G04 #@! TO.C,R2*
X112196051Y-95596051D03*
D27*
X112196051Y-95596051D02*
X112196051Y-95596051D01*
D22*
X110400000Y-93800000D03*
G04 #@! TD*
G04 #@! TO.C,R3*
X117096051Y-97296051D03*
D27*
X117096051Y-97296051D02*
X117096051Y-97296051D01*
D22*
X115300000Y-95500000D03*
G04 #@! TD*
D21*
G04 #@! TO.C,R8*
X97400000Y-95040000D03*
D22*
X97400000Y-92500000D03*
G04 #@! TD*
D21*
G04 #@! TO.C,R9*
X93200000Y-95040000D03*
D22*
X93200000Y-92500000D03*
G04 #@! TD*
D21*
G04 #@! TO.C,R10*
X89100000Y-95040000D03*
D22*
X89100000Y-92500000D03*
G04 #@! TD*
D21*
G04 #@! TO.C,R11*
X84900000Y-95040000D03*
D22*
X84900000Y-92500000D03*
G04 #@! TD*
D21*
G04 #@! TO.C,R12*
X151572309Y-87051264D03*
D22*
X151572309Y-89591264D03*
G04 #@! TD*
D21*
G04 #@! TO.C,R13*
X107748740Y-127872311D03*
D22*
X105208740Y-127872311D03*
G04 #@! TD*
D21*
G04 #@! TO.C,R18*
X86800000Y-129940000D03*
D22*
X86800000Y-127400000D03*
G04 #@! TD*
D21*
G04 #@! TO.C,R19*
X113960000Y-129200000D03*
D22*
X116500000Y-129200000D03*
G04 #@! TD*
D21*
G04 #@! TO.C,R20*
X129140000Y-70200000D03*
D22*
X126600000Y-70200000D03*
G04 #@! TD*
D21*
G04 #@! TO.C,R21*
X120760000Y-91100000D03*
D22*
X123300000Y-91100000D03*
G04 #@! TD*
D11*
G04 #@! TO.C,SW2*
X159292310Y-78691263D03*
X151672310Y-81231263D03*
X159292310Y-81231263D03*
D10*
X151672310Y-78691263D03*
G04 #@! TD*
D15*
G04 #@! TO.C,g2*
X79760000Y-68000000D03*
D14*
X82300000Y-68000000D03*
G04 #@! TD*
D15*
G04 #@! TO.C,r2*
X89660000Y-68000000D03*
D14*
X92200000Y-68000000D03*
G04 #@! TD*
D15*
G04 #@! TO.C,y2*
X97740000Y-68000000D03*
D14*
X95200000Y-68000000D03*
G04 #@! TD*
D21*
G04 #@! TO.C,R4*
X86620000Y-110500000D03*
D22*
X79000000Y-110500000D03*
G04 #@! TD*
D21*
G04 #@! TO.C,R5*
X89520000Y-112700000D03*
D22*
X81900000Y-112700000D03*
G04 #@! TD*
D21*
G04 #@! TO.C,R6*
X86620000Y-115000000D03*
D22*
X79000000Y-115000000D03*
G04 #@! TD*
D21*
G04 #@! TO.C,R7*
X89420000Y-117200000D03*
D22*
X81800000Y-117200000D03*
G04 #@! TD*
D28*
G04 #@! TO.C,U7414*
X159300000Y-126020000D03*
X144060000Y-118400000D03*
D29*
X156760000Y-126020000D03*
X146600000Y-118400000D03*
X154220000Y-126020000D03*
X149140000Y-118400000D03*
X151680000Y-126020000D03*
X151680000Y-118400000D03*
X149140000Y-126020000D03*
X154220000Y-118400000D03*
X146600000Y-126020000D03*
D28*
X156760000Y-118400000D03*
D29*
X144060000Y-126020000D03*
D30*
X159300000Y-118400000D03*
G04 #@! TD*
D10*
G04 #@! TO.C,U74164*
X84700000Y-107000000D03*
D11*
X99940000Y-99380000D03*
X87240000Y-107000000D03*
X97400000Y-99380000D03*
X89780000Y-107000000D03*
X94860000Y-99380000D03*
X92320000Y-107000000D03*
X92320000Y-99380000D03*
X94860000Y-107000000D03*
X89780000Y-99380000D03*
X97400000Y-107000000D03*
X87240000Y-99380000D03*
X99940000Y-107000000D03*
X84700000Y-99380000D03*
G04 #@! TD*
D16*
G04 #@! TO.C,Q1*
X116608735Y-134232309D03*
X116608735Y-131692309D03*
D17*
X116608735Y-136772309D03*
G04 #@! TD*
G04 #@! TO.C,Q2*
X88708738Y-136872310D03*
D16*
X88708738Y-131792310D03*
X88708738Y-134332310D03*
G04 #@! TD*
G04 #@! TO.C,Q3*
X98240000Y-127872310D03*
X100780000Y-127872310D03*
D17*
X95700000Y-127872310D03*
G04 #@! TD*
G04 #@! TO.C,Q4*
X64600000Y-102500000D03*
D16*
X64600000Y-107580000D03*
X64600000Y-105040000D03*
G04 #@! TD*
D17*
G04 #@! TO.C,Q6*
X73091266Y-97827690D03*
D16*
X73091266Y-102907690D03*
X73091266Y-100367690D03*
G04 #@! TD*
M02*
