<svg version="1.1" xmlns="http://www.w3.org/2000/svg" xmlns:xlink="http://www.w3.org/1999/xlink" stroke-linecap="round" stroke-linejoin="round" stroke-width="0" fill-rule="evenodd" clip-rule="evenodd" id="WyHfx3lfoqT4FnJRkyss_bottom" viewBox="61000 -142000 101600.00099999999 76200" width="101.60000099999999mm" height="76.2mm" class="w-100 h-100"><defs><style>.WyHfx3lfoqT4FnJRkyss_fr4 {color: #666666;}
.WyHfx3lfoqT4FnJRkyss_cu {color: #cccccc;}
.WyHfx3lfoqT4FnJRkyss_cf {color: #cc9933;}
.WyHfx3lfoqT4FnJRkyss_sm {color: #004200; opacity: 0.75;}
.WyHfx3lfoqT4FnJRkyss_ss {color: #ffffff;}
.WyHfx3lfoqT4FnJRkyss_sp {color: #999999;}
.WyHfx3lfoqT4FnJRkyss_out {color: #000000;}</style><rect x="-800" y="-800" width="1600" height="1600" id="q0dHSxRn4Wv8P42R77b0_pad-10"/><rect x="-800" y="-800" width="1600" height="1600" rx="800" ry="800" id="q0dHSxRn4Wv8P42R77b0_pad-11"/><circle cx="0" cy="0" r="1000" id="q0dHSxRn4Wv8P42R77b0_pad-13"/><rect x="-900" y="-900" width="1800" height="1800" id="q0dHSxRn4Wv8P42R77b0_pad-14"/><circle cx="0" cy="0" r="900" id="q0dHSxRn4Wv8P42R77b0_pad-15"/><circle cx="0" cy="0" r="750" id="q0dHSxRn4Wv8P42R77b0_pad-16"/><rect x="-750" y="-750" width="1500" height="1500" id="q0dHSxRn4Wv8P42R77b0_pad-17"/><rect x="-925" y="-1524" width="1850" height="3048" rx="925" ry="925" id="q0dHSxRn4Wv8P42R77b0_pad-18"/><circle cx="0" cy="0" r="999.49" id="q0dHSxRn4Wv8P42R77b0_pad-19"/><rect x="-900" y="-900" width="1800" height="1800" rx="900" ry="900" id="q0dHSxRn4Wv8P42R77b0_pad-20"/><rect x="-700" y="-700" width="1400" height="1400" rx="700" ry="700" id="q0dHSxRn4Wv8P42R77b0_pad-21"/><circle cx="0" cy="0" r="700" id="q0dHSxRn4Wv8P42R77b0_pad-22"/><circle cx="0" cy="0" r="600" id="q0dHSxRn4Wv8P42R77b0_pad-23"/><rect x="-600" y="-600" width="1200" height="1200" id="q0dHSxRn4Wv8P42R77b0_pad-24"/><circle cx="0" cy="0" r="1500" id="q0dHSxRn4Wv8P42R77b0_pad-25"/><rect x="-1500" y="-1500" width="3000" height="3000" id="q0dHSxRn4Wv8P42R77b0_pad-26"/><rect x="-800" y="-1200" width="1600" height="2400" rx="800" ry="800" id="q0dHSxRn4Wv8P42R77b0_pad-28"/><circle cx="0" cy="0" r="400" id="q0dHSxRn4Wv8P42R77b0_pad-29"/><rect x="-800" y="-1200" width="1600" height="2400" id="q0dHSxRn4Wv8P42R77b0_pad-30"/><rect x="-800" y="-800" width="1600" height="1600" id="z4B7hx9PabE4udsEXajW_pad-10"/><rect x="-800" y="-800" width="1600" height="1600" rx="800" ry="800" id="z4B7hx9PabE4udsEXajW_pad-11"/><circle cx="0" cy="0" r="1000" id="z4B7hx9PabE4udsEXajW_pad-13"/><rect x="-900" y="-900" width="1800" height="1800" id="z4B7hx9PabE4udsEXajW_pad-14"/><circle cx="0" cy="0" r="900" id="z4B7hx9PabE4udsEXajW_pad-15"/><circle cx="0" cy="0" r="750" id="z4B7hx9PabE4udsEXajW_pad-16"/><rect x="-750" y="-750" width="1500" height="1500" id="z4B7hx9PabE4udsEXajW_pad-17"/><rect x="-925" y="-1524" width="1850" height="3048" rx="925" ry="925" id="z4B7hx9PabE4udsEXajW_pad-18"/><circle cx="0" cy="0" r="999.49" id="z4B7hx9PabE4udsEXajW_pad-19"/><rect x="-900" y="-900" width="1800" height="1800" rx="900" ry="900" id="z4B7hx9PabE4udsEXajW_pad-20"/><rect x="-700" y="-700" width="1400" height="1400" rx="700" ry="700" id="z4B7hx9PabE4udsEXajW_pad-21"/><circle cx="0" cy="0" r="700" id="z4B7hx9PabE4udsEXajW_pad-22"/><circle cx="0" cy="0" r="600" id="z4B7hx9PabE4udsEXajW_pad-23"/><rect x="-600" y="-600" width="1200" height="1200" id="z4B7hx9PabE4udsEXajW_pad-24"/><circle cx="0" cy="0" r="1500" id="z4B7hx9PabE4udsEXajW_pad-25"/><rect x="-1500" y="-1500" width="3000" height="3000" id="z4B7hx9PabE4udsEXajW_pad-26"/><rect x="-800" y="-1200" width="1600" height="2400" rx="800" ry="800" id="z4B7hx9PabE4udsEXajW_pad-28"/><circle cx="0" cy="0" r="400" id="z4B7hx9PabE4udsEXajW_pad-29"/><rect x="-800" y="-1200" width="1600" height="2400" id="z4B7hx9PabE4udsEXajW_pad-30"/><circle cx="0" cy="0" r="11.8" id="BC4w0pVvjCe30zBpnAwo_pad-1"/><circle cx="0" cy="0" r="13.8" id="BC4w0pVvjCe30zBpnAwo_pad-2"/><circle cx="0" cy="0" r="15.75" id="BC4w0pVvjCe30zBpnAwo_pad-3"/><circle cx="0" cy="0" r="15.75" id="BC4w0pVvjCe30zBpnAwo_pad-4"/><circle cx="0" cy="0" r="17.7" id="BC4w0pVvjCe30zBpnAwo_pad-5"/><circle cx="0" cy="0" r="19.7" id="BC4w0pVvjCe30zBpnAwo_pad-6"/><circle cx="0" cy="0" r="25.6" id="BC4w0pVvjCe30zBpnAwo_pad-7"/><circle cx="0" cy="0" r="29.9" id="BC4w0pVvjCe30zBpnAwo_pad-9"/><g id="WyHfx3lfoqT4FnJRkyss_bottom_silkscreen"><path d="M 135008.736 -135972.31 136008.736 -133972.31 M 137508.736 -135972.31 137508.736 -134972.31 136508.736 -134972.31 M 133508.736 -135972.31 133508.736 -134972.31 134508.736 -134972.31 M 134508.736 -135972.31 136508.736 -135972.31 M 136508.736 -135988.31 136508.736 -133972.31 134508.736 -133972.31 M 134508.736 -135972.31 134508.736 -133972.31" fill="none" stroke-width="120"/><path d="M 149508.736 -160472.31 122584.736 -160472.31 122584.736 -128468.31 149508.736 -128468.31 149508.736 -160472.31" fill="none" stroke-width="150"/><path d="M 69008.736 -135972.308 70008.736 -133972.308 M 71508.736 -135972.308 71508.736 -134972.308 70508.736 -134972.308 M 67508.736 -135972.308 67508.736 -134972.308 68508.736 -134972.308 M 68508.736 -135972.308 70508.736 -135972.308 M 70508.736 -135988.308 70508.736 -133972.308 68508.736 -133972.308 M 68508.736 -135972.308 68508.736 -133972.308" fill="none" stroke-width="120"/><path d="M 83508.736 -160472.308 56584.736 -160472.308 56584.736 -128468.308 83508.736 -128468.308 83508.736 -160472.308" fill="none" stroke-width="150"/><path d="M 133505 -69530.199 133905 -69530.199 M 133705 -69330.199 133705 -69730.199 M 134530 -73681 135270 -73681 M 134363 -73641 135437 -73641 M 134236 -73601 135564 -73601 M 134132 -73561 135668 -73561 M 134041 -73521 135759 -73521 M 133960 -73481 135840 -73481 M 133887 -73441 135913 -73441 M 135740 -73401 135980 -73401 M 133820 -73401 134060 -73401 M 135740 -73361 136042 -73361 M 133758 -73361 134060 -73361 M 135740 -73321 136100 -73321 M 133700 -73321 134060 -73321 M 135740 -73281 136154 -73281 M 133646 -73281 134060 -73281 M 135740 -73241 136204 -73241 M 133596 -73241 134060 -73241 M 135740 -73201 136251 -73201 M 133549 -73201 134060 -73201 M 135740 -73161 136296 -73161 M 133504 -73161 134060 -73161 M 135740 -73121 136338 -73121 M 133462 -73121 134060 -73121 M 135740 -73081 136378 -73081 M 133422 -73081 134060 -73081 M 135740 -73041 136416 -73041 M 133384 -73041 134060 -73041 M 135740 -73001 136452 -73001 M 133348 -73001 134060 -73001 M 135740 -72961 136487 -72961 M 133313 -72961 134060 -72961 M 135740 -72921 136519 -72921 M 133281 -72921 134060 -72921 M 135740 -72881 136550 -72881 M 133250 -72881 134060 -72881 M 135740 -72841 136580 -72841 M 133220 -72841 134060 -72841 M 135740 -72801 136608 -72801 M 133192 -72801 134060 -72801 M 135740 -72761 136635 -72761 M 133165 -72761 134060 -72761 M 135740 -72721 136660 -72721 M 133140 -72721 134060 -72721 M 135740 -72681 136685 -72681 M 133115 -72681 134060 -72681 M 135740 -72641 136708 -72641 M 133092 -72641 134060 -72641 M 135740 -72601 136730 -72601 M 133070 -72601 134060 -72601 M 135740 -72561 136751 -72561 M 133049 -72561 134060 -72561 M 135740 -72521 136770 -72521 M 133030 -72521 134060 -72521 M 135740 -72481 136789 -72481 M 133011 -72481 134060 -72481 M 135740 -72441 136807 -72441 M 132993 -72441 134060 -72441 M 135740 -72401 136824 -72401 M 132976 -72401 134060 -72401 M 135740 -72361 136840 -72361 M 132960 -72361 134060 -72361 M 135740 -72321 136854 -72321 M 132946 -72321 134060 -72321 M 135740 -72280 136868 -72280 M 132932 -72280 134060 -72280 M 135740 -72240 136882 -72240 M 132918 -72240 134060 -72240 M 135740 -72200 136894 -72200 M 132906 -72200 134060 -72200 M 135740 -72160 136905 -72160 M 132895 -72160 134060 -72160 M 135740 -72120 136916 -72120 M 132884 -72120 134060 -72120 M 135740 -72080 136925 -72080 M 132875 -72080 134060 -72080 M 135740 -72040 136934 -72040 M 132866 -72040 134060 -72040 M 135740 -72000 136942 -72000 M 132858 -72000 134060 -72000 M 135740 -71960 136950 -71960 M 132850 -71960 134060 -71960 M 135740 -71920 136956 -71920 M 132844 -71920 134060 -71920 M 135740 -71880 136962 -71880 M 132838 -71880 134060 -71880 M 135740 -71840 136967 -71840 M 132833 -71840 134060 -71840 M 135740 -71800 136971 -71800 M 132829 -71800 134060 -71800 M 132826 -71760 136974 -71760 M 132823 -71720 136977 -71720 M 132821 -71680 136979 -71680 M 132820 -71640 136980 -71640 M 132820 -71600 136980 -71600 M 137020 -71600 A 2120 2120 0 0 1 132780 -71600 2120 2120 0 0 1 137020 -71600 M 106150.538 -92750.538 106588.944 -93188.944 M 106420 -92100 A 920 920 0 0 1 104580 -92100 920 920 0 0 1 106420 -92100 M 111050.538 -94450.538 111488.944 -94888.944 M 111320 -93800 A 920 920 0 0 1 109480 -93800 920 920 0 0 1 111320 -93800 M 115950.538 -96150.538 116388.944 -96588.944 M 116220 -95500 A 920 920 0 0 1 114380 -95500 920 920 0 0 1 116220 -95500 M 115580 -129200 114960 -129200 M 117420 -129200 A 920 920 0 0 1 115580 -129200 920 920 0 0 1 117420 -129200 M 127520 -70200 128140 -70200 M 127520 -70200 A 920 920 0 0 1 125680 -70200 920 920 0 0 1 127520 -70200 M 122380 -91100 121760 -91100 M 124220 -91100 A 920 920 0 0 1 122380 -91100 920 920 0 0 1 124220 -91100 M 114758.735 -136032.309 114758.735 -132432.309 M 115485.94 -136556.493 A 2581.1818762 2581.1818762 0 0 0 114758.735 -136032.309 M 117707.542 -136588.709 A 2599.9995737 2599.9995737 0 0 1 119208.735 -134232.309 M 117707.542 -131875.909 A 2599.9995737 2599.9995737 0 0 0 119208.735 -134232.309 M 115485.94 -131908.125 A 2581.1818762 2581.1818762 0 0 1 114758.735 -132432.309 M 87585.943 -132008.126 A 2581.1818762 2581.1818762 0 0 1 86858.738 -132532.31 M 89807.545 -131975.91 A 2599.9995737 2599.9995737 0 0 0 91308.738 -134332.31 M 89807.545 -136688.71 A 2599.9995737 2599.9995737 0 0 1 91308.738 -134332.31 M 87585.943 -136656.494 A 2581.1818762 2581.1818762 0 0 0 86858.738 -136132.31 L 86858.738 -132532.31 M 96440 -126022.31 100040 -126022.31 M 95915.816 -126749.515 A 2581.1818762 2581.1818762 0 0 0 96440 -126022.31 M 95883.6 -128971.117 A 2599.9995737 2599.9995737 0 0 1 98240 -130472.31 M 100596.4 -128971.117 A 2599.9995737 2599.9995737 0 0 0 98240 -130472.31 M 100564.184 -126749.515 A 2581.1818762 2581.1818762 0 0 1 100040 -126022.31" fill="none" stroke-width="120"/><path d="M 132007.142 -71433.333 132054.761 -71385.714 132102.38 -71242.857 132102.38 -71147.619 132054.761 -71004.761 131959.523 -70909.523 131864.285 -70861.904 131673.809 -70814.285 131530.952 -70814.285 131340.476 -70861.904 131245.238 -70909.523 131150 -71004.761 131102.38 -71147.619 131102.38 -71242.857 131150 -71385.714 131197.619 -71433.333 M 132102.38 -72385.714 132102.38 -71814.285 M 132102.38 -72100 131102.38 -72100 131245.238 -72004.761 131340.476 -71909.523 131388.095 -71814.285 M 138602.38 -70528.571 138602.38 -69957.142 M 138602.38 -70242.857 137602.38 -70242.857 137745.238 -70147.619 137840.476 -70052.38 137888.095 -69957.142 M 137602.38 -71147.619 137602.38 -71242.857 137650 -71338.095 137697.619 -71385.714 137792.857 -71433.333 137983.333 -71480.952 138221.428 -71480.952 138411.904 -71433.333 138507.142 -71385.714 138554.761 -71338.095 138602.38 -71242.857 138602.38 -71147.619 138554.761 -71052.38 138507.142 -71004.761 138411.904 -70957.142 138221.428 -70909.523 137983.333 -70909.523 137792.857 -70957.142 137697.619 -71004.761 137650 -71052.38 137602.38 -71147.619 M 137935.714 -72338.095 138602.38 -72338.095 M 137935.714 -71909.523 138459.523 -71909.523 138554.761 -71957.142 138602.38 -72052.38 138602.38 -72195.238 138554.761 -72290.476 138507.142 -72338.095 M 138078.571 -73147.619 138078.571 -72814.285 M 138602.38 -72814.285 137602.38 -72814.285 137602.38 -73290.476 M 104838.35 -94793.403 105410.77 -94692.388 M 105242.411 -95197.464 105949.518 -94490.358 105680.144 -94220.983 105579.129 -94187.312 105511.785 -94187.312 105410.77 -94220.983 105309.755 -94321.999 105276.083 -94423.014 105276.083 -94490.358 105309.755 -94591.373 105579.129 -94860.747 M 104164.915 -94119.968 104568.976 -94524.029 M 104366.945 -94321.999 105074.052 -93614.892 105040.381 -93783.251 105040.381 -93917.938 105074.052 -94018.953 M 108951.018 -92195.964 108951.018 -92128.621 108917.346 -92027.606 108748.987 -91859.247 108647.972 -91825.575 108580.628 -91825.575 108479.613 -91859.247 108412.27 -91926.59 108344.926 -92061.277 108344.926 -92869.399 107907.193 -92431.667 M 108277.583 -91522.529 108277.583 -91455.186 108243.911 -91354.171 108075.552 -91185.812 107974.537 -91152.14 107907.193 -91152.14 107806.178 -91185.812 107738.835 -91253.155 107671.491 -91387.842 107671.491 -92195.964 107233.758 -91758.232 M 107503.132 -90613.392 107435.789 -90546.049 107334.774 -90512.377 107267.43 -90512.377 107166.415 -90546.049 106998.056 -90647.064 106829.697 -90815.423 106728.682 -90983.781 106695.01 -91084.797 106695.01 -91152.14 106728.682 -91253.155 106796.026 -91320.499 106897.041 -91354.171 106964.384 -91354.171 107065.4 -91320.499 107233.758 -91219.484 107402.117 -91051.125 107503.132 -90882.766 107536.804 -90781.751 107536.804 -90714.407 107503.132 -90613.392 M 109738.35 -96493.403 110310.77 -96392.388 M 110142.411 -96897.464 110849.518 -96190.358 110580.144 -95920.983 110479.129 -95887.312 110411.785 -95887.312 110310.77 -95920.983 110209.755 -96021.999 110176.083 -96123.014 110176.083 -96190.358 110209.755 -96291.373 110479.129 -96560.747 M 110108.739 -95584.266 110108.739 -95516.922 110075.068 -95415.907 109906.709 -95247.548 109805.693 -95213.877 109738.35 -95213.877 109637.335 -95247.548 109569.991 -95314.892 109502.648 -95449.579 109502.648 -96257.701 109064.915 -95819.968 M 113851.018 -93895.964 113851.018 -93828.621 113817.346 -93727.606 113648.987 -93559.247 113547.972 -93525.575 113480.628 -93525.575 113379.613 -93559.247 113312.27 -93626.59 113244.926 -93761.277 113244.926 -94569.399 112807.193 -94131.667 M 113177.583 -93222.529 113177.583 -93155.186 113143.911 -93054.171 112975.552 -92885.812 112874.537 -92852.14 112807.193 -92852.14 112706.178 -92885.812 112638.835 -92953.155 112571.491 -93087.842 112571.491 -93895.964 112133.758 -93458.232 M 112403.132 -92313.392 112335.789 -92246.049 112234.774 -92212.377 112167.43 -92212.377 112066.415 -92246.049 111898.056 -92347.064 111729.697 -92515.423 111628.682 -92683.781 111595.01 -92784.797 111595.01 -92852.14 111628.682 -92953.155 111696.026 -93020.499 111797.041 -93054.171 111864.384 -93054.171 111965.4 -93020.499 112133.758 -92919.484 112302.117 -92751.125 112403.132 -92582.766 112436.804 -92481.751 112436.804 -92414.407 112403.132 -92313.392 M 114638.35 -98193.403 115210.77 -98092.388 M 115042.411 -98597.464 115749.518 -97890.358 115480.144 -97620.983 115379.129 -97587.312 115311.785 -97587.312 115210.77 -97620.983 115109.755 -97721.999 115076.083 -97823.014 115076.083 -97890.358 115109.755 -97991.373 115379.129 -98260.747 M 115109.755 -97250.594 114672.022 -96812.861 114638.35 -97317.938 114537.335 -97216.922 114436.319 -97183.251 114368.976 -97183.251 114267.961 -97216.922 114099.602 -97385.281 114065.93 -97486.296 114065.93 -97553.64 114099.602 -97654.655 114301.632 -97856.686 114402.648 -97890.358 114469.991 -97890.358 M 118751.018 -95595.964 118751.018 -95528.621 118717.346 -95427.606 118548.987 -95259.247 118447.972 -95225.575 118380.628 -95225.575 118279.613 -95259.247 118212.27 -95326.59 118144.926 -95461.277 118144.926 -96269.399 117707.193 -95831.667 M 118077.583 -94922.529 118077.583 -94855.186 118043.911 -94754.171 117875.552 -94585.812 117774.537 -94552.14 117707.193 -94552.14 117606.178 -94585.812 117538.835 -94653.155 117471.491 -94787.842 117471.491 -95595.964 117033.758 -95158.232 M 117303.132 -94013.392 117235.789 -93946.049 117134.774 -93912.377 117067.43 -93912.377 116966.415 -93946.049 116798.056 -94047.064 116629.697 -94215.423 116528.682 -94383.781 116495.01 -94484.797 116495.01 -94552.14 116528.682 -94653.155 116596.026 -94720.499 116697.041 -94754.171 116764.384 -94754.171 116865.4 -94720.499 117033.758 -94619.484 117202.117 -94451.125 117303.132 -94282.766 117336.804 -94181.751 117336.804 -94114.407 117303.132 -94013.392 M 115872.857 -127732.38 116206.19 -127256.19 M 116444.285 -127732.38 116444.285 -126732.38 116063.333 -126732.38 115968.095 -126780 115920.476 -126827.619 115872.857 -126922.857 115872.857 -127065.714 115920.476 -127160.952 115968.095 -127208.571 116063.333 -127256.19 116444.285 -127256.19 M 114920.476 -127732.38 115491.904 -127732.38 M 115206.19 -127732.38 115206.19 -126732.38 115301.428 -126875.238 115396.666 -126970.476 115491.904 -127018.095 M 114444.285 -127732.38 114253.809 -127732.38 114158.571 -127684.761 114110.952 -127637.142 114015.714 -127494.285 113968.095 -127303.809 113968.095 -126922.857 114015.714 -126827.619 114063.333 -126780 114158.571 -126732.38 114349.047 -126732.38 114444.285 -126780 114491.904 -126827.619 114539.523 -126922.857 114539.523 -127160.952 114491.904 -127256.19 114444.285 -127303.809 114349.047 -127351.428 114158.571 -127351.428 114063.333 -127303.809 114015.714 -127256.19 113968.095 -127160.952 M 112852.38 -128985.714 112852.38 -128414.285 M 112852.38 -128700 111852.38 -128700 111995.238 -128604.761 112090.476 -128509.523 112138.095 -128414.285 M 112852.38 -129414.285 111852.38 -129414.285 M 112852.38 -129985.714 112280.952 -129557.142 M 111852.38 -129985.714 112423.809 -129414.285 M 128512.857 -72572.38 128846.19 -72096.19 M 129084.285 -72572.38 129084.285 -71572.38 128703.333 -71572.38 128608.095 -71620 128560.476 -71667.619 128512.857 -71762.857 128512.857 -71905.714 128560.476 -72000.952 128608.095 -72048.571 128703.333 -72096.19 129084.285 -72096.19 M 128131.904 -71667.619 128084.285 -71620 127989.047 -71572.38 127750.952 -71572.38 127655.714 -71620 127608.095 -71667.619 127560.476 -71762.857 127560.476 -71858.095 127608.095 -72000.952 128179.523 -72572.38 127560.476 -72572.38 M 126941.428 -71572.38 126846.19 -71572.38 126750.952 -71620 126703.333 -71667.619 126655.714 -71762.857 126608.095 -71953.333 126608.095 -72191.428 126655.714 -72381.904 126703.333 -72477.142 126750.952 -72524.761 126846.19 -72572.38 126941.428 -72572.38 127036.666 -72524.761 127084.285 -72477.142 127131.904 -72381.904 127179.523 -72191.428 127179.523 -71953.333 127131.904 -71762.857 127084.285 -71667.619 127036.666 -71620 126941.428 -71572.38 M 128084.285 -68732.38 128655.714 -68732.38 M 128370 -68732.38 128370 -67732.38 128465.238 -67875.238 128560.476 -67970.476 128655.714 -68018.095 M 127655.714 -68732.38 127655.714 -67732.38 M 127084.285 -68732.38 127512.857 -68160.952 M 127084.285 -67732.38 127655.714 -68303.809 M 122672.857 -89632.38 123006.19 -89156.19 M 123244.285 -89632.38 123244.285 -88632.38 122863.333 -88632.38 122768.095 -88680 122720.476 -88727.619 122672.857 -88822.857 122672.857 -88965.714 122720.476 -89060.952 122768.095 -89108.571 122863.333 -89156.19 123244.285 -89156.19 M 122291.904 -88727.619 122244.285 -88680 122149.047 -88632.38 121910.952 -88632.38 121815.714 -88680 121768.095 -88727.619 121720.476 -88822.857 121720.476 -88918.095 121768.095 -89060.952 122339.523 -89632.38 121720.476 -89632.38 M 120768.095 -89632.38 121339.523 -89632.38 M 121053.809 -89632.38 121053.809 -88632.38 121149.047 -88775.238 121244.285 -88870.476 121339.523 -88918.095 M 122720.476 -93472.38 123291.904 -93472.38 M 123006.19 -93472.38 123006.19 -92472.38 123101.428 -92615.238 123196.666 -92710.476 123291.904 -92758.095 M 122101.428 -92472.38 122006.19 -92472.38 121910.952 -92520 121863.333 -92567.619 121815.714 -92662.857 121768.095 -92853.333 121768.095 -93091.428 121815.714 -93281.904 121863.333 -93377.142 121910.952 -93424.761 122006.19 -93472.38 122101.428 -93472.38 122196.666 -93424.761 122244.285 -93377.142 122291.904 -93281.904 122339.523 -93091.428 122339.523 -92853.333 122291.904 -92662.857 122244.285 -92567.619 122196.666 -92520 122101.428 -92472.38 M 121339.523 -93472.38 121339.523 -92472.38 M 120768.095 -93472.38 121196.666 -92900.952 M 120768.095 -92472.38 121339.523 -93043.809 M 120716.354 -134137.07 120668.735 -134041.832 120573.496 -133946.594 120430.639 -133803.737 120383.02 -133708.499 120383.02 -133613.261 M 120621.115 -133660.88 120573.496 -133565.642 120478.258 -133470.404 120287.782 -133422.785 119954.449 -133422.785 119763.973 -133470.404 119668.735 -133565.642 119621.115 -133660.88 119621.115 -133851.356 119668.735 -133946.594 119763.973 -134041.832 119954.449 -134089.451 120287.782 -134089.451 120478.258 -134041.832 120573.496 -133946.594 120621.115 -133851.356 120621.115 -133660.88 M 120621.115 -135041.832 120621.115 -134470.404 M 120621.115 -134756.118 119621.115 -134756.118 119763.973 -134660.88 119859.211 -134565.642 119906.83 -134470.404 M 113271.115 -133518.023 113271.115 -133041.832 113747.306 -132994.213 113699.687 -133041.832 113652.068 -133137.07 113652.068 -133375.166 113699.687 -133470.404 113747.306 -133518.023 113842.544 -133565.642 114080.639 -133565.642 114175.877 -133518.023 114223.496 -133470.404 114271.115 -133375.166 114271.115 -133137.07 114223.496 -133041.832 114175.877 -132994.213 M 113604.449 -134422.785 114271.115 -134422.785 M 113223.496 -134184.689 113937.782 -133946.594 113937.782 -134565.642 M 113271.115 -134851.356 113271.115 -135518.023 114271.115 -135089.451 M 92816.357 -134237.071 92768.738 -134141.833 92673.499 -134046.595 92530.642 -133903.738 92483.023 -133808.5 92483.023 -133713.262 M 92721.118 -133760.881 92673.499 -133665.643 92578.261 -133570.405 92387.785 -133522.786 92054.452 -133522.786 91863.976 -133570.405 91768.738 -133665.643 91721.118 -133760.881 91721.118 -133951.357 91768.738 -134046.595 91863.976 -134141.833 92054.452 -134189.452 92387.785 -134189.452 92578.261 -134141.833 92673.499 -134046.595 92721.118 -133951.357 92721.118 -133760.881 M 91816.357 -134570.405 91768.738 -134618.024 91721.118 -134713.262 91721.118 -134951.357 91768.738 -135046.595 91816.357 -135094.214 91911.595 -135141.833 92006.833 -135141.833 92149.69 -135094.214 92721.118 -134522.786 92721.118 -135141.833 M 85371.118 -133618.024 85371.118 -133141.833 85847.309 -133094.214 85799.69 -133141.833 85752.071 -133237.071 85752.071 -133475.167 85799.69 -133570.405 85847.309 -133618.024 85942.547 -133665.643 86180.642 -133665.643 86275.88 -133618.024 86323.499 -133570.405 86371.118 -133475.167 86371.118 -133237.071 86323.499 -133141.833 86275.88 -133094.214 M 85704.452 -134522.786 86371.118 -134522.786 M 85323.499 -134284.69 86037.785 -134046.595 86037.785 -134665.643 M 85371.118 -134951.357 85371.118 -135618.024 86371.118 -135189.452 M 98335.238 -131979.929 98430.476 -131932.31 98525.714 -131837.071 98668.571 -131694.214 98763.809 -131646.595 98859.047 -131646.595 M 98811.428 -131884.69 98906.666 -131837.071 99001.904 -131741.833 99049.523 -131551.357 99049.523 -131218.024 99001.904 -131027.548 98906.666 -130932.31 98811.428 -130884.69 98620.952 -130884.69 98525.714 -130932.31 98430.476 -131027.548 98382.857 -131218.024 98382.857 -131551.357 98430.476 -131741.833 98525.714 -131837.071 98620.952 -131884.69 98811.428 -131884.69 M 98049.523 -130884.69 97430.476 -130884.69 97763.809 -131265.643 97620.952 -131265.643 97525.714 -131313.262 97478.095 -131360.881 97430.476 -131456.119 97430.476 -131694.214 97478.095 -131789.452 97525.714 -131837.071 97620.952 -131884.69 97906.666 -131884.69 98001.904 -131837.071 98049.523 -131789.452 M 98954.285 -124534.69 99430.476 -124534.69 99478.095 -125010.881 99430.476 -124963.262 99335.238 -124915.643 99097.142 -124915.643 99001.904 -124963.262 98954.285 -125010.881 98906.666 -125106.119 98906.666 -125344.214 98954.285 -125439.452 99001.904 -125487.071 99097.142 -125534.69 99335.238 -125534.69 99430.476 -125487.071 99478.095 -125439.452 M 98049.523 -124868.024 98049.523 -125534.69 M 98287.619 -124487.071 98525.714 -125201.357 97906.666 -125201.357 M 97620.952 -124534.69 96954.285 -124534.69 97382.857 -125534.69" fill="none" stroke-width="150"/></g><g id="WyHfx3lfoqT4FnJRkyss_bottom_copper"><use xlink:href="#q0dHSxRn4Wv8P42R77b0_pad-10" x="123300" y="-112700"/><use xlink:href="#q0dHSxRn4Wv8P42R77b0_pad-11" x="156320" y="-97460"/><use xlink:href="#q0dHSxRn4Wv8P42R77b0_pad-11" x="125840" y="-112700"/><use xlink:href="#q0dHSxRn4Wv8P42R77b0_pad-11" x="153780" y="-97460"/><use xlink:href="#q0dHSxRn4Wv8P42R77b0_pad-11" x="128380" y="-112700"/><use xlink:href="#q0dHSxRn4Wv8P42R77b0_pad-11" x="151240" y="-97460"/><use xlink:href="#q0dHSxRn4Wv8P42R77b0_pad-11" x="130920" y="-112700"/><use xlink:href="#q0dHSxRn4Wv8P42R77b0_pad-11" x="148700" y="-97460"/><use xlink:href="#q0dHSxRn4Wv8P42R77b0_pad-11" x="133460" y="-112700"/><use xlink:href="#q0dHSxRn4Wv8P42R77b0_pad-11" x="146160" y="-97460"/><use xlink:href="#q0dHSxRn4Wv8P42R77b0_pad-11" x="136000" y="-112700"/><use xlink:href="#q0dHSxRn4Wv8P42R77b0_pad-11" x="143620" y="-97460"/><use xlink:href="#q0dHSxRn4Wv8P42R77b0_pad-11" x="138540" y="-112700"/><use xlink:href="#q0dHSxRn4Wv8P42R77b0_pad-11" x="141080" y="-97460"/><use xlink:href="#q0dHSxRn4Wv8P42R77b0_pad-11" x="141080" y="-112700"/><use xlink:href="#q0dHSxRn4Wv8P42R77b0_pad-11" x="138540" y="-97460"/><use xlink:href="#q0dHSxRn4Wv8P42R77b0_pad-11" x="143620" y="-112700"/><use xlink:href="#q0dHSxRn4Wv8P42R77b0_pad-11" x="136000" y="-97460"/><use xlink:href="#q0dHSxRn4Wv8P42R77b0_pad-11" x="146160" y="-112700"/><use xlink:href="#q0dHSxRn4Wv8P42R77b0_pad-11" x="133460" y="-97460"/><use xlink:href="#q0dHSxRn4Wv8P42R77b0_pad-11" x="148700" y="-112700"/><use xlink:href="#q0dHSxRn4Wv8P42R77b0_pad-11" x="130920" y="-97460"/><use xlink:href="#q0dHSxRn4Wv8P42R77b0_pad-11" x="151240" y="-112700"/><use xlink:href="#q0dHSxRn4Wv8P42R77b0_pad-11" x="128380" y="-97460"/><use xlink:href="#q0dHSxRn4Wv8P42R77b0_pad-11" x="153780" y="-112700"/><use xlink:href="#q0dHSxRn4Wv8P42R77b0_pad-11" x="125840" y="-97460"/><use xlink:href="#q0dHSxRn4Wv8P42R77b0_pad-11" x="156320" y="-112700"/><use xlink:href="#q0dHSxRn4Wv8P42R77b0_pad-11" x="123300" y="-97460"/><use xlink:href="#q0dHSxRn4Wv8P42R77b0_pad-11" x="158860" y="-112700"/><use xlink:href="#q0dHSxRn4Wv8P42R77b0_pad-11" x="158860" y="-97460"/><path d="M 134471.319 -78093.671 134519.855 -78100.87 134567.452 -78112.793 134613.652 -78129.323 134658.008 -78150.302 134700.095 -78175.528 134739.507 -78204.758 134775.863 -78237.71 134808.815 -78274.066 134838.045 -78313.478 134863.271 -78355.565 134884.25 -78399.921 134900.78 -78446.121 134912.703 -78493.718 134919.902 -78542.254 134922.31 -78591.263 134922.31 -81591.263 134919.902 -81640.272 134912.703 -81688.808 134900.78 -81736.405 134884.25 -81782.605 134863.271 -81826.961 134838.045 -81869.048 134808.815 -81908.46 134775.863 -81944.816 134739.507 -81977.768 134700.095 -82006.998 134658.008 -82032.224 134613.652 -82053.203 134567.452 -82069.733 134519.855 -82081.656 134471.319 -82088.855 134422.31 -82091.263 133422.31 -82091.263 133373.301 -82088.855 133324.765 -82081.656 133277.168 -82069.733 133230.968 -82053.203 133186.612 -82032.224 133144.525 -82006.998 133105.113 -81977.768 133068.757 -81944.816 133035.805 -81908.46 133006.575 -81869.048 132981.349 -81826.961 132960.37 -81782.605 132943.84 -81736.405 132931.917 -81688.808 132924.718 -81640.272 132922.31 -81591.263 132922.31 -78591.263 132924.718 -78542.254 132931.917 -78493.718 132943.84 -78446.121 132960.37 -78399.921 132981.349 -78355.565 133006.575 -78313.478 133035.805 -78274.066 133068.757 -78237.71 133105.113 -78204.758 133144.525 -78175.528 133186.612 -78150.302 133230.968 -78129.323 133277.168 -78112.793 133324.765 -78100.87 133373.301 -78093.671 133422.31 -78091.263 134422.31 -78091.263 134471.319 -78093.671 134471.319 -78093.671"/><use xlink:href="#q0dHSxRn4Wv8P42R77b0_pad-13" x="133922.31" y="-80091.263"/><use xlink:href="#q0dHSxRn4Wv8P42R77b0_pad-14" x="135902.31" y="-90091.263"/><use xlink:href="#q0dHSxRn4Wv8P42R77b0_pad-15" x="139672.31" y="-90091.263"/><use xlink:href="#q0dHSxRn4Wv8P42R77b0_pad-15" x="143522.31" y="-90091.263"/><path d="M 145971.319 -78093.671 146019.855 -78100.87 146067.452 -78112.793 146113.652 -78129.323 146158.008 -78150.302 146200.095 -78175.528 146239.507 -78204.758 146275.863 -78237.71 146308.815 -78274.066 146338.045 -78313.478 146363.271 -78355.565 146384.25 -78399.921 146400.78 -78446.121 146412.703 -78493.718 146419.902 -78542.254 146422.31 -78591.263 146422.31 -81591.263 146419.902 -81640.272 146412.703 -81688.808 146400.78 -81736.405 146384.25 -81782.605 146363.271 -81826.961 146338.045 -81869.048 146308.815 -81908.46 146275.863 -81944.816 146239.507 -81977.768 146200.095 -82006.998 146158.008 -82032.224 146113.652 -82053.203 146067.452 -82069.733 146019.855 -82081.656 145971.319 -82088.855 145922.31 -82091.263 144922.31 -82091.263 144873.301 -82088.855 144824.765 -82081.656 144777.168 -82069.733 144730.968 -82053.203 144686.612 -82032.224 144644.525 -82006.998 144605.113 -81977.768 144568.757 -81944.816 144535.805 -81908.46 144506.575 -81869.048 144481.349 -81826.961 144460.37 -81782.605 144443.84 -81736.405 144431.917 -81688.808 144424.718 -81640.272 144422.31 -81591.263 144422.31 -78591.263 144424.718 -78542.254 144431.917 -78493.718 144443.84 -78446.121 144460.37 -78399.921 144481.349 -78355.565 144506.575 -78313.478 144535.805 -78274.066 144568.757 -78237.71 144605.113 -78204.758 144644.525 -78175.528 144686.612 -78150.302 144730.968 -78129.323 144777.168 -78112.793 144824.765 -78100.87 144873.301 -78093.671 144922.31 -78091.263 145922.31 -78091.263 145971.319 -78093.671 145971.319 -78093.671"/><use xlink:href="#q0dHSxRn4Wv8P42R77b0_pad-13" x="145422.31" y="-80091.263"/><use xlink:href="#q0dHSxRn4Wv8P42R77b0_pad-16" x="73460" y="-106900"/><use xlink:href="#q0dHSxRn4Wv8P42R77b0_pad-16" x="70920" y="-106900"/><use xlink:href="#q0dHSxRn4Wv8P42R77b0_pad-17" x="76000" y="-106900"/><use xlink:href="#q0dHSxRn4Wv8P42R77b0_pad-18" x="126400" y="-86900"/><use xlink:href="#q0dHSxRn4Wv8P42R77b0_pad-18" x="121400" y="-86900"/><use xlink:href="#q0dHSxRn4Wv8P42R77b0_pad-18" x="126400" y="-74400"/><use xlink:href="#q0dHSxRn4Wv8P42R77b0_pad-18" x="121400" y="-74400"/><use xlink:href="#q0dHSxRn4Wv8P42R77b0_pad-16" x="82472.31" y="-72851.265"/><use xlink:href="#q0dHSxRn4Wv8P42R77b0_pad-16" x="85012.31" y="-72851.265"/><use xlink:href="#q0dHSxRn4Wv8P42R77b0_pad-16" x="87552.31" y="-72851.265"/><use xlink:href="#q0dHSxRn4Wv8P42R77b0_pad-16" x="90092.31" y="-72851.265"/><use xlink:href="#q0dHSxRn4Wv8P42R77b0_pad-16" x="92632.31" y="-72851.265"/><use xlink:href="#q0dHSxRn4Wv8P42R77b0_pad-16" x="95172.31" y="-72851.265"/><use xlink:href="#q0dHSxRn4Wv8P42R77b0_pad-16" x="95172.31" y="-88091.265"/><use xlink:href="#q0dHSxRn4Wv8P42R77b0_pad-16" x="92632.31" y="-88091.265"/><use xlink:href="#q0dHSxRn4Wv8P42R77b0_pad-16" x="90092.31" y="-88091.265"/><use xlink:href="#q0dHSxRn4Wv8P42R77b0_pad-16" x="87552.31" y="-88091.265"/><use xlink:href="#q0dHSxRn4Wv8P42R77b0_pad-16" x="85012.31" y="-88091.265"/><use xlink:href="#q0dHSxRn4Wv8P42R77b0_pad-17" x="82472.31" y="-88091.265"/><use xlink:href="#q0dHSxRn4Wv8P42R77b0_pad-19" x="64200" y="-98927.692"/><use xlink:href="#q0dHSxRn4Wv8P42R77b0_pad-20" x="65900" y="-110480"/><use xlink:href="#q0dHSxRn4Wv8P42R77b0_pad-14" x="65900" y="-118100"/><use xlink:href="#q0dHSxRn4Wv8P42R77b0_pad-21" x="70740" y="-121900"/><use xlink:href="#q0dHSxRn4Wv8P42R77b0_pad-22" x="68200" y="-121900"/><use xlink:href="#q0dHSxRn4Wv8P42R77b0_pad-23" x="75700" y="-120600"/><use xlink:href="#q0dHSxRn4Wv8P42R77b0_pad-24" x="77700" y="-120600"/><use xlink:href="#q0dHSxRn4Wv8P42R77b0_pad-21" x="67500" y="-97660"/><use xlink:href="#q0dHSxRn4Wv8P42R77b0_pad-22" x="67500" y="-100200"/><use xlink:href="#q0dHSxRn4Wv8P42R77b0_pad-21" x="71960" y="-112000"/><use xlink:href="#q0dHSxRn4Wv8P42R77b0_pad-22" x="74500" y="-112000"/><use xlink:href="#q0dHSxRn4Wv8P42R77b0_pad-21" x="67460" y="-93700"/><use xlink:href="#q0dHSxRn4Wv8P42R77b0_pad-22" x="70000" y="-93700"/><use xlink:href="#q0dHSxRn4Wv8P42R77b0_pad-15" x="99560" y="-68000"/><use xlink:href="#q0dHSxRn4Wv8P42R77b0_pad-14" x="102100" y="-68000"/><use xlink:href="#q0dHSxRn4Wv8P42R77b0_pad-15" x="87840" y="-68000"/><use xlink:href="#q0dHSxRn4Wv8P42R77b0_pad-14" x="85300" y="-68000"/><use xlink:href="#q0dHSxRn4Wv8P42R77b0_pad-15" x="77940" y="-68000"/><use xlink:href="#q0dHSxRn4Wv8P42R77b0_pad-14" x="75400" y="-68000"/><use xlink:href="#q0dHSxRn4Wv8P42R77b0_pad-25" x="110888.737" y="-135872.309"/><use xlink:href="#q0dHSxRn4Wv8P42R77b0_pad-26" x="105808.737" y="-135872.309"/><use xlink:href="#q0dHSxRn4Wv8P42R77b0_pad-13" x="140508.736" y="-135472.31"/><use xlink:href="#q0dHSxRn4Wv8P42R77b0_pad-13" x="130508.736" y="-135472.31"/><use xlink:href="#q0dHSxRn4Wv8P42R77b0_pad-13" x="74508.736" y="-135472.308"/><use xlink:href="#q0dHSxRn4Wv8P42R77b0_pad-13" x="64508.736" y="-135472.308"/><use xlink:href="#q0dHSxRn4Wv8P42R77b0_pad-25" x="100188.736" y="-135872.308"/><use xlink:href="#q0dHSxRn4Wv8P42R77b0_pad-26" x="95108.736" y="-135872.308"/><use xlink:href="#q0dHSxRn4Wv8P42R77b0_pad-20" x="131388.736" y="-126172.308"/><use xlink:href="#q0dHSxRn4Wv8P42R77b0_pad-14" x="139008.736" y="-126172.308"/><use xlink:href="#q0dHSxRn4Wv8P42R77b0_pad-20" x="65288.736" y="-126272.31"/><use xlink:href="#q0dHSxRn4Wv8P42R77b0_pad-14" x="72908.736" y="-126272.31"/><use xlink:href="#q0dHSxRn4Wv8P42R77b0_pad-23" x="134900" y="-72600"/><use xlink:href="#q0dHSxRn4Wv8P42R77b0_pad-24" x="134900" y="-70600"/><use xlink:href="#q0dHSxRn4Wv8P42R77b0_pad-22" x="107296.051" y="-93896.051"/><path d="M 107296.051 -93896.051 107296.051 -93896.051" fill="none" stroke-width="1400"/><use xlink:href="#q0dHSxRn4Wv8P42R77b0_pad-22" x="105500" y="-92100"/><use xlink:href="#q0dHSxRn4Wv8P42R77b0_pad-22" x="112196.051" y="-95596.051"/><path d="M 112196.051 -95596.051 112196.051 -95596.051" fill="none" stroke-width="1400"/><use xlink:href="#q0dHSxRn4Wv8P42R77b0_pad-22" x="110400" y="-93800"/><use xlink:href="#q0dHSxRn4Wv8P42R77b0_pad-22" x="117096.051" y="-97296.051"/><path d="M 117096.051 -97296.051 117096.051 -97296.051" fill="none" stroke-width="1400"/><use xlink:href="#q0dHSxRn4Wv8P42R77b0_pad-22" x="115300" y="-95500"/><use xlink:href="#q0dHSxRn4Wv8P42R77b0_pad-21" x="97400" y="-95040"/><use xlink:href="#q0dHSxRn4Wv8P42R77b0_pad-22" x="97400" y="-92500"/><use xlink:href="#q0dHSxRn4Wv8P42R77b0_pad-21" x="93200" y="-95040"/><use xlink:href="#q0dHSxRn4Wv8P42R77b0_pad-22" x="93200" y="-92500"/><use xlink:href="#q0dHSxRn4Wv8P42R77b0_pad-21" x="89100" y="-95040"/><use xlink:href="#q0dHSxRn4Wv8P42R77b0_pad-22" x="89100" y="-92500"/><use xlink:href="#q0dHSxRn4Wv8P42R77b0_pad-21" x="84900" y="-95040"/><use xlink:href="#q0dHSxRn4Wv8P42R77b0_pad-22" x="84900" y="-92500"/><use xlink:href="#q0dHSxRn4Wv8P42R77b0_pad-21" x="151572.309" y="-87051.264"/><use xlink:href="#q0dHSxRn4Wv8P42R77b0_pad-22" x="151572.309" y="-89591.264"/><use xlink:href="#q0dHSxRn4Wv8P42R77b0_pad-21" x="107748.74" y="-127872.311"/><use xlink:href="#q0dHSxRn4Wv8P42R77b0_pad-22" x="105208.74" y="-127872.311"/><use xlink:href="#q0dHSxRn4Wv8P42R77b0_pad-21" x="86800" y="-129940"/><use xlink:href="#q0dHSxRn4Wv8P42R77b0_pad-22" x="86800" y="-127400"/><use xlink:href="#q0dHSxRn4Wv8P42R77b0_pad-21" x="113960" y="-129200"/><use xlink:href="#q0dHSxRn4Wv8P42R77b0_pad-22" x="116500" y="-129200"/><use xlink:href="#q0dHSxRn4Wv8P42R77b0_pad-21" x="129140" y="-70200"/><use xlink:href="#q0dHSxRn4Wv8P42R77b0_pad-22" x="126600" y="-70200"/><use xlink:href="#q0dHSxRn4Wv8P42R77b0_pad-21" x="120760" y="-91100"/><use xlink:href="#q0dHSxRn4Wv8P42R77b0_pad-22" x="123300" y="-91100"/><use xlink:href="#q0dHSxRn4Wv8P42R77b0_pad-11" x="159292.31" y="-78691.263"/><use xlink:href="#q0dHSxRn4Wv8P42R77b0_pad-11" x="151672.31" y="-81231.263"/><use xlink:href="#q0dHSxRn4Wv8P42R77b0_pad-11" x="159292.31" y="-81231.263"/><use xlink:href="#q0dHSxRn4Wv8P42R77b0_pad-10" x="151672.31" y="-78691.263"/><use xlink:href="#q0dHSxRn4Wv8P42R77b0_pad-15" x="79760" y="-68000"/><use xlink:href="#q0dHSxRn4Wv8P42R77b0_pad-14" x="82300" y="-68000"/><use xlink:href="#q0dHSxRn4Wv8P42R77b0_pad-15" x="89660" y="-68000"/><use xlink:href="#q0dHSxRn4Wv8P42R77b0_pad-14" x="92200" y="-68000"/><use xlink:href="#q0dHSxRn4Wv8P42R77b0_pad-15" x="97740" y="-68000"/><use xlink:href="#q0dHSxRn4Wv8P42R77b0_pad-14" x="95200" y="-68000"/><use xlink:href="#q0dHSxRn4Wv8P42R77b0_pad-21" x="86620" y="-110500"/><use xlink:href="#q0dHSxRn4Wv8P42R77b0_pad-22" x="79000" y="-110500"/><use xlink:href="#q0dHSxRn4Wv8P42R77b0_pad-21" x="89520" y="-112700"/><use xlink:href="#q0dHSxRn4Wv8P42R77b0_pad-22" x="81900" y="-112700"/><use xlink:href="#q0dHSxRn4Wv8P42R77b0_pad-21" x="86620" y="-115000"/><use xlink:href="#q0dHSxRn4Wv8P42R77b0_pad-22" x="79000" y="-115000"/><use xlink:href="#q0dHSxRn4Wv8P42R77b0_pad-21" x="89420" y="-117200"/><use xlink:href="#q0dHSxRn4Wv8P42R77b0_pad-22" x="81800" y="-117200"/><use xlink:href="#q0dHSxRn4Wv8P42R77b0_pad-28" x="159300" y="-126020"/><use xlink:href="#q0dHSxRn4Wv8P42R77b0_pad-28" x="144060" y="-118400"/><use xlink:href="#q0dHSxRn4Wv8P42R77b0_pad-29" x="156760" y="-126020"/><use xlink:href="#q0dHSxRn4Wv8P42R77b0_pad-29" x="146600" y="-118400"/><use xlink:href="#q0dHSxRn4Wv8P42R77b0_pad-29" x="154220" y="-126020"/><use xlink:href="#q0dHSxRn4Wv8P42R77b0_pad-29" x="149140" y="-118400"/><use xlink:href="#q0dHSxRn4Wv8P42R77b0_pad-29" x="151680" y="-126020"/><use xlink:href="#q0dHSxRn4Wv8P42R77b0_pad-29" x="151680" y="-118400"/><use xlink:href="#q0dHSxRn4Wv8P42R77b0_pad-29" x="149140" y="-126020"/><use xlink:href="#q0dHSxRn4Wv8P42R77b0_pad-29" x="154220" y="-118400"/><use xlink:href="#q0dHSxRn4Wv8P42R77b0_pad-29" x="146600" y="-126020"/><use xlink:href="#q0dHSxRn4Wv8P42R77b0_pad-28" x="156760" y="-118400"/><use xlink:href="#q0dHSxRn4Wv8P42R77b0_pad-29" x="144060" y="-126020"/><use xlink:href="#q0dHSxRn4Wv8P42R77b0_pad-30" x="159300" y="-118400"/><use xlink:href="#q0dHSxRn4Wv8P42R77b0_pad-10" x="84700" y="-107000"/><use xlink:href="#q0dHSxRn4Wv8P42R77b0_pad-11" x="99940" y="-99380"/><use xlink:href="#q0dHSxRn4Wv8P42R77b0_pad-11" x="87240" y="-107000"/><use xlink:href="#q0dHSxRn4Wv8P42R77b0_pad-11" x="97400" y="-99380"/><use xlink:href="#q0dHSxRn4Wv8P42R77b0_pad-11" x="89780" y="-107000"/><use xlink:href="#q0dHSxRn4Wv8P42R77b0_pad-11" x="94860" y="-99380"/><use xlink:href="#q0dHSxRn4Wv8P42R77b0_pad-11" x="92320" y="-107000"/><use xlink:href="#q0dHSxRn4Wv8P42R77b0_pad-11" x="92320" y="-99380"/><use xlink:href="#q0dHSxRn4Wv8P42R77b0_pad-11" x="94860" y="-107000"/><use xlink:href="#q0dHSxRn4Wv8P42R77b0_pad-11" x="89780" y="-99380"/><use xlink:href="#q0dHSxRn4Wv8P42R77b0_pad-11" x="97400" y="-107000"/><use xlink:href="#q0dHSxRn4Wv8P42R77b0_pad-11" x="87240" y="-99380"/><use xlink:href="#q0dHSxRn4Wv8P42R77b0_pad-11" x="99940" y="-107000"/><use xlink:href="#q0dHSxRn4Wv8P42R77b0_pad-11" x="84700" y="-99380"/><use xlink:href="#q0dHSxRn4Wv8P42R77b0_pad-16" x="116608.735" y="-134232.309"/><use xlink:href="#q0dHSxRn4Wv8P42R77b0_pad-16" x="116608.735" y="-131692.309"/><use xlink:href="#q0dHSxRn4Wv8P42R77b0_pad-17" x="116608.735" y="-136772.309"/><use xlink:href="#q0dHSxRn4Wv8P42R77b0_pad-17" x="88708.738" y="-136872.31"/><use xlink:href="#q0dHSxRn4Wv8P42R77b0_pad-16" x="88708.738" y="-131792.31"/><use xlink:href="#q0dHSxRn4Wv8P42R77b0_pad-16" x="88708.738" y="-134332.31"/><use xlink:href="#q0dHSxRn4Wv8P42R77b0_pad-16" x="98240" y="-127872.31"/><use xlink:href="#q0dHSxRn4Wv8P42R77b0_pad-16" x="100780" y="-127872.31"/><use xlink:href="#q0dHSxRn4Wv8P42R77b0_pad-17" x="95700" y="-127872.31"/><use xlink:href="#q0dHSxRn4Wv8P42R77b0_pad-17" x="64600" y="-102500"/><use xlink:href="#q0dHSxRn4Wv8P42R77b0_pad-16" x="64600" y="-107580"/><use xlink:href="#q0dHSxRn4Wv8P42R77b0_pad-16" x="64600" y="-105040"/><use xlink:href="#q0dHSxRn4Wv8P42R77b0_pad-17" x="73091.266" y="-97827.69"/><use xlink:href="#q0dHSxRn4Wv8P42R77b0_pad-16" x="73091.266" y="-102907.69"/><use xlink:href="#q0dHSxRn4Wv8P42R77b0_pad-16" x="73091.266" y="-100367.69"/><path d="M 92600 -70800 84900 -70800 M 102900 -68000 102900 -70800 95200 -70800 92600 -70800 M 125225 -74400 126400 -74400 M 121625 -70800 125225 -74400 M 102900 -70800 121625 -70800" fill="none" stroke-width="250"/><path d="M 124975 -74400 126400 -74400 M 121375 -70800 124975 -74400 M 82300 -68000 84900 -68000 84900 -70800 M 95200 -68000 92600 -68000 M 95200 -68000 95200 -70800 M 102900 -70700 103000 -70800 M 102900 -68000 102900 -70700 M 77361.461 -70800 103000 -70800 121375 -70800 M 133100 -74400 134900 -72600 M 126400 -74400 133100 -74400 M 135902.31 -91491.263 136411.047 -92000 M 135902.31 -90091.263 135902.31 -91491.263 M 149163.573 -92000 151572.309 -89591.264 M 136411.047 -92000 149163.573 -92000 M 135902.31 -88691.263 135902.31 -90091.263 M 134111.047 -86900 135902.31 -88691.263 M 126400 -86900 134111.047 -86900" fill="none" stroke-width="500"/><path d="M 74508.739 -137517.387 74508.735 -135472.312 M 76191.352 -139200 74508.739 -137517.387 M 98982.365 -139200 76191.352 -139200 M 100188.737 -135872.31 100188.737 -137993.628 98982.365 -139200" fill="none" stroke-width="1500"/><path d="M 76300 -70800 77361.461 -70800 M 74900 -69400 76300 -70800 M 74900 -68000 74900 -69400" fill="none" stroke-width="500"/><path d="M 91908.737 -130272.309 94308.737 -127872.308 M 91908.738 -135572.31 91908.737 -130272.309 M 88708.738 -136872.31 90608.739 -136872.309 91908.738 -135572.31 M 94308.739 -127872.31 94308.737 -127872.308 M 95700 -127872.31 94308.739 -127872.31" fill="none" stroke-width="1000"/><path d="M 89780 -107340 86620 -110500 M 89780 -107000 89780 -107340 M 92320 -109900 89520 -112700 M 92320 -107000 92320 -109900 M 94860 -109540 89400 -115000 M 94860 -107000 94860 -109540 M 86620 -115000 89400 -115000 M 97400 -109220 89420 -117200 M 97400 -107000 97400 -109220" fill="none" stroke-width="500"/><path d="M 95108.736 -135872.308 95108.736 -133372.308 M 159300 -129300 159300 -126020 M 156500 -132100 159300 -129300 M 159300 -123820 159300 -126020 M 160300 -122820 159300 -123820 M 160900 -122220 160300 -122820 M 160900 -96100 160900 -122220 M 159700 -94900 160900 -96100 M 123900 -94900 159700 -94900 M 123300 -97460 123300 -95500 123900 -94900 M 95127.692 -133372.308 96400 -132100 M 95108.736 -133372.308 95127.692 -133372.308 M 96400 -132100 156500 -132100" fill="none" stroke-width="1000"/><path d="M 144422.309 -89191.264 143522.31 -90091.263 M 149713.573 -83900 144422.309 -89191.264 M 159292.31 -81231.263 156623.573 -83900 149713.573 -83900 M 71260.001 -111300.001 71960 -112000 M 69200 -109240 71260.001 -111300.001 M 67500 -97660 69200 -99360 69200 -109240" fill="none" stroke-width="500"/><path d="M 64508.738 -135472.308 67108.738 -132872.31 M 86568.078 -132872.31 85800 -132872.31 M 87648.078 -131792.31 86568.078 -132872.31 M 88708.738 -131792.31 87648.078 -131792.31 M 67108.738 -132872.31 85800 -132872.31" fill="none" stroke-width="1500"/><path d="M 105208.737 -128862.257 104198.684 -129872.307 M 105208.74 -127872.311 105208.737 -128862.257 M 99179.338 -129872.308 100500 -129872.308 M 98240 -128932.97 99179.338 -129872.308 M 98240 -127872.31 98240 -128932.97 M 104198.684 -129872.307 100500 -129872.308" fill="none" stroke-width="500"/><path d="M 77700 -119750 77700 -120600 M 76050 -118100 77700 -119750 M 65900 -118100 68200 -118100 76050 -118100" fill="none" stroke-width="250"/><path d="M 77700 -119500 77700 -120600 M 76300 -118100 77700 -119500 M 65900 -118100 76300 -118100 M 78800 -120600 79200 -120200 M 77700 -120600 78800 -120600 M 124800 -106500 111100 -120200 M 137120 -106500 124800 -106500 M 146160 -97460 137120 -106500 M 79200 -120200 111100 -120200 M 68200 -121900 68200 -118100 M 134500 -70200 134900 -70600 M 129140 -70200 134500 -70200 M 79000 -78863.575 79000 -110500 M 85012.31 -72851.265 79000 -78863.575 M 95172.31 -72851.265 99400 -77078.955 M 99400 -95700 97700 -97400 M 99400 -77078.955 99400 -95700 M 81900 -99100 81900 -99200 M 83600 -97400 81900 -99100 M 97700 -97400 83600 -97400" fill="none" stroke-width="500"/><path d="M 81900 -112700 81900 -99200" fill="none" stroke-width="250"/><path d="M 81900 -99100 81900 -112700 M 79000 -112900 79000 -115000 M 80500 -111400 79000 -112900 M 87200 -90983.575 87200 -95600 M 90092.31 -88091.265 87200 -90983.575 M 87200 -95600 86200 -96600 M 82600 -96600 80500 -98700 M 86200 -96600 82600 -96600 M 80500 -98700 80500 -111400 M 87552.31 -82852.31 91400 -86700 M 87552.31 -72851.265 87552.31 -82852.31 M 91400 -90700 93200 -92500 M 91400 -86700 91400 -90700 M 87499.999 -126700.001 86800 -127400 M 92800 -121400 87499.999 -126700.001 M 134400 -121400 92800 -121400 M 141000 -114800 134400 -121400 M 151240 -112700 149140 -114800 141000 -114800 M 112921.051 -122700 107748.74 -127872.311 M 135100 -122700 112921.051 -122700 M 142099.99 -115700.01 135100 -122700 M 153780 -112700 150779.99 -115700.01 142099.99 -115700.01 M 152420 -116600 156320 -112700 M 143200 -116600 152420 -116600 M 135700 -124100 143200 -116600 M 116500 -129200 121600 -124100 135700 -124100" fill="none" stroke-width="500"/></g><g id="WyHfx3lfoqT4FnJRkyss_bottom_soldermask"><use xlink:href="#z4B7hx9PabE4udsEXajW_pad-10" x="123300" y="-112700"/><use xlink:href="#z4B7hx9PabE4udsEXajW_pad-11" x="156320" y="-97460"/><use xlink:href="#z4B7hx9PabE4udsEXajW_pad-11" x="125840" y="-112700"/><use xlink:href="#z4B7hx9PabE4udsEXajW_pad-11" x="153780" y="-97460"/><use xlink:href="#z4B7hx9PabE4udsEXajW_pad-11" x="128380" y="-112700"/><use xlink:href="#z4B7hx9PabE4udsEXajW_pad-11" x="151240" y="-97460"/><use xlink:href="#z4B7hx9PabE4udsEXajW_pad-11" x="130920" y="-112700"/><use xlink:href="#z4B7hx9PabE4udsEXajW_pad-11" x="148700" y="-97460"/><use xlink:href="#z4B7hx9PabE4udsEXajW_pad-11" x="133460" y="-112700"/><use xlink:href="#z4B7hx9PabE4udsEXajW_pad-11" x="146160" y="-97460"/><use xlink:href="#z4B7hx9PabE4udsEXajW_pad-11" x="136000" y="-112700"/><use xlink:href="#z4B7hx9PabE4udsEXajW_pad-11" x="143620" y="-97460"/><use xlink:href="#z4B7hx9PabE4udsEXajW_pad-11" x="138540" y="-112700"/><use xlink:href="#z4B7hx9PabE4udsEXajW_pad-11" x="141080" y="-97460"/><use xlink:href="#z4B7hx9PabE4udsEXajW_pad-11" x="141080" y="-112700"/><use xlink:href="#z4B7hx9PabE4udsEXajW_pad-11" x="138540" y="-97460"/><use xlink:href="#z4B7hx9PabE4udsEXajW_pad-11" x="143620" y="-112700"/><use xlink:href="#z4B7hx9PabE4udsEXajW_pad-11" x="136000" y="-97460"/><use xlink:href="#z4B7hx9PabE4udsEXajW_pad-11" x="146160" y="-112700"/><use xlink:href="#z4B7hx9PabE4udsEXajW_pad-11" x="133460" y="-97460"/><use xlink:href="#z4B7hx9PabE4udsEXajW_pad-11" x="148700" y="-112700"/><use xlink:href="#z4B7hx9PabE4udsEXajW_pad-11" x="130920" y="-97460"/><use xlink:href="#z4B7hx9PabE4udsEXajW_pad-11" x="151240" y="-112700"/><use xlink:href="#z4B7hx9PabE4udsEXajW_pad-11" x="128380" y="-97460"/><use xlink:href="#z4B7hx9PabE4udsEXajW_pad-11" x="153780" y="-112700"/><use xlink:href="#z4B7hx9PabE4udsEXajW_pad-11" x="125840" y="-97460"/><use xlink:href="#z4B7hx9PabE4udsEXajW_pad-11" x="156320" y="-112700"/><use xlink:href="#z4B7hx9PabE4udsEXajW_pad-11" x="123300" y="-97460"/><use xlink:href="#z4B7hx9PabE4udsEXajW_pad-11" x="158860" y="-112700"/><use xlink:href="#z4B7hx9PabE4udsEXajW_pad-11" x="158860" y="-97460"/><path d="M 134471.319 -78093.671 134519.855 -78100.87 134567.452 -78112.793 134613.652 -78129.323 134658.008 -78150.302 134700.095 -78175.528 134739.507 -78204.758 134775.863 -78237.71 134808.815 -78274.066 134838.045 -78313.478 134863.271 -78355.565 134884.25 -78399.921 134900.78 -78446.121 134912.703 -78493.718 134919.902 -78542.254 134922.31 -78591.263 134922.31 -81591.263 134919.902 -81640.272 134912.703 -81688.808 134900.78 -81736.405 134884.25 -81782.605 134863.271 -81826.961 134838.045 -81869.048 134808.815 -81908.46 134775.863 -81944.816 134739.507 -81977.768 134700.095 -82006.998 134658.008 -82032.224 134613.652 -82053.203 134567.452 -82069.733 134519.855 -82081.656 134471.319 -82088.855 134422.31 -82091.263 133422.31 -82091.263 133373.301 -82088.855 133324.765 -82081.656 133277.168 -82069.733 133230.968 -82053.203 133186.612 -82032.224 133144.525 -82006.998 133105.113 -81977.768 133068.757 -81944.816 133035.805 -81908.46 133006.575 -81869.048 132981.349 -81826.961 132960.37 -81782.605 132943.84 -81736.405 132931.917 -81688.808 132924.718 -81640.272 132922.31 -81591.263 132922.31 -78591.263 132924.718 -78542.254 132931.917 -78493.718 132943.84 -78446.121 132960.37 -78399.921 132981.349 -78355.565 133006.575 -78313.478 133035.805 -78274.066 133068.757 -78237.71 133105.113 -78204.758 133144.525 -78175.528 133186.612 -78150.302 133230.968 -78129.323 133277.168 -78112.793 133324.765 -78100.87 133373.301 -78093.671 133422.31 -78091.263 134422.31 -78091.263 134471.319 -78093.671 134471.319 -78093.671"/><use xlink:href="#z4B7hx9PabE4udsEXajW_pad-13" x="133922.31" y="-80091.263"/><use xlink:href="#z4B7hx9PabE4udsEXajW_pad-14" x="135902.31" y="-90091.263"/><use xlink:href="#z4B7hx9PabE4udsEXajW_pad-15" x="139672.31" y="-90091.263"/><use xlink:href="#z4B7hx9PabE4udsEXajW_pad-15" x="143522.31" y="-90091.263"/><path d="M 145971.319 -78093.671 146019.855 -78100.87 146067.452 -78112.793 146113.652 -78129.323 146158.008 -78150.302 146200.095 -78175.528 146239.507 -78204.758 146275.863 -78237.71 146308.815 -78274.066 146338.045 -78313.478 146363.271 -78355.565 146384.25 -78399.921 146400.78 -78446.121 146412.703 -78493.718 146419.902 -78542.254 146422.31 -78591.263 146422.31 -81591.263 146419.902 -81640.272 146412.703 -81688.808 146400.78 -81736.405 146384.25 -81782.605 146363.271 -81826.961 146338.045 -81869.048 146308.815 -81908.46 146275.863 -81944.816 146239.507 -81977.768 146200.095 -82006.998 146158.008 -82032.224 146113.652 -82053.203 146067.452 -82069.733 146019.855 -82081.656 145971.319 -82088.855 145922.31 -82091.263 144922.31 -82091.263 144873.301 -82088.855 144824.765 -82081.656 144777.168 -82069.733 144730.968 -82053.203 144686.612 -82032.224 144644.525 -82006.998 144605.113 -81977.768 144568.757 -81944.816 144535.805 -81908.46 144506.575 -81869.048 144481.349 -81826.961 144460.37 -81782.605 144443.84 -81736.405 144431.917 -81688.808 144424.718 -81640.272 144422.31 -81591.263 144422.31 -78591.263 144424.718 -78542.254 144431.917 -78493.718 144443.84 -78446.121 144460.37 -78399.921 144481.349 -78355.565 144506.575 -78313.478 144535.805 -78274.066 144568.757 -78237.71 144605.113 -78204.758 144644.525 -78175.528 144686.612 -78150.302 144730.968 -78129.323 144777.168 -78112.793 144824.765 -78100.87 144873.301 -78093.671 144922.31 -78091.263 145922.31 -78091.263 145971.319 -78093.671 145971.319 -78093.671"/><use xlink:href="#z4B7hx9PabE4udsEXajW_pad-13" x="145422.31" y="-80091.263"/><use xlink:href="#z4B7hx9PabE4udsEXajW_pad-16" x="73460" y="-106900"/><use xlink:href="#z4B7hx9PabE4udsEXajW_pad-16" x="70920" y="-106900"/><use xlink:href="#z4B7hx9PabE4udsEXajW_pad-17" x="76000" y="-106900"/><use xlink:href="#z4B7hx9PabE4udsEXajW_pad-18" x="126400" y="-86900"/><use xlink:href="#z4B7hx9PabE4udsEXajW_pad-18" x="121400" y="-86900"/><use xlink:href="#z4B7hx9PabE4udsEXajW_pad-18" x="126400" y="-74400"/><use xlink:href="#z4B7hx9PabE4udsEXajW_pad-18" x="121400" y="-74400"/><use xlink:href="#z4B7hx9PabE4udsEXajW_pad-16" x="82472.31" y="-72851.265"/><use xlink:href="#z4B7hx9PabE4udsEXajW_pad-16" x="85012.31" y="-72851.265"/><use xlink:href="#z4B7hx9PabE4udsEXajW_pad-16" x="87552.31" y="-72851.265"/><use xlink:href="#z4B7hx9PabE4udsEXajW_pad-16" x="90092.31" y="-72851.265"/><use xlink:href="#z4B7hx9PabE4udsEXajW_pad-16" x="92632.31" y="-72851.265"/><use xlink:href="#z4B7hx9PabE4udsEXajW_pad-16" x="95172.31" y="-72851.265"/><use xlink:href="#z4B7hx9PabE4udsEXajW_pad-16" x="95172.31" y="-88091.265"/><use xlink:href="#z4B7hx9PabE4udsEXajW_pad-16" x="92632.31" y="-88091.265"/><use xlink:href="#z4B7hx9PabE4udsEXajW_pad-16" x="90092.31" y="-88091.265"/><use xlink:href="#z4B7hx9PabE4udsEXajW_pad-16" x="87552.31" y="-88091.265"/><use xlink:href="#z4B7hx9PabE4udsEXajW_pad-16" x="85012.31" y="-88091.265"/><use xlink:href="#z4B7hx9PabE4udsEXajW_pad-17" x="82472.31" y="-88091.265"/><use xlink:href="#z4B7hx9PabE4udsEXajW_pad-19" x="64200" y="-98927.692"/><use xlink:href="#z4B7hx9PabE4udsEXajW_pad-20" x="65900" y="-110480"/><use xlink:href="#z4B7hx9PabE4udsEXajW_pad-14" x="65900" y="-118100"/><use xlink:href="#z4B7hx9PabE4udsEXajW_pad-21" x="70740" y="-121900"/><use xlink:href="#z4B7hx9PabE4udsEXajW_pad-22" x="68200" y="-121900"/><use xlink:href="#z4B7hx9PabE4udsEXajW_pad-23" x="75700" y="-120600"/><use xlink:href="#z4B7hx9PabE4udsEXajW_pad-24" x="77700" y="-120600"/><use xlink:href="#z4B7hx9PabE4udsEXajW_pad-21" x="67500" y="-97660"/><use xlink:href="#z4B7hx9PabE4udsEXajW_pad-22" x="67500" y="-100200"/><use xlink:href="#z4B7hx9PabE4udsEXajW_pad-21" x="71960" y="-112000"/><use xlink:href="#z4B7hx9PabE4udsEXajW_pad-22" x="74500" y="-112000"/><use xlink:href="#z4B7hx9PabE4udsEXajW_pad-21" x="67460" y="-93700"/><use xlink:href="#z4B7hx9PabE4udsEXajW_pad-22" x="70000" y="-93700"/><use xlink:href="#z4B7hx9PabE4udsEXajW_pad-15" x="99560" y="-68000"/><use xlink:href="#z4B7hx9PabE4udsEXajW_pad-14" x="102100" y="-68000"/><use xlink:href="#z4B7hx9PabE4udsEXajW_pad-15" x="87840" y="-68000"/><use xlink:href="#z4B7hx9PabE4udsEXajW_pad-14" x="85300" y="-68000"/><use xlink:href="#z4B7hx9PabE4udsEXajW_pad-15" x="77940" y="-68000"/><use xlink:href="#z4B7hx9PabE4udsEXajW_pad-14" x="75400" y="-68000"/><use xlink:href="#z4B7hx9PabE4udsEXajW_pad-25" x="110888.737" y="-135872.309"/><use xlink:href="#z4B7hx9PabE4udsEXajW_pad-26" x="105808.737" y="-135872.309"/><use xlink:href="#z4B7hx9PabE4udsEXajW_pad-13" x="140508.736" y="-135472.31"/><use xlink:href="#z4B7hx9PabE4udsEXajW_pad-13" x="130508.736" y="-135472.31"/><use xlink:href="#z4B7hx9PabE4udsEXajW_pad-13" x="74508.736" y="-135472.308"/><use xlink:href="#z4B7hx9PabE4udsEXajW_pad-13" x="64508.736" y="-135472.308"/><use xlink:href="#z4B7hx9PabE4udsEXajW_pad-25" x="100188.736" y="-135872.308"/><use xlink:href="#z4B7hx9PabE4udsEXajW_pad-26" x="95108.736" y="-135872.308"/><use xlink:href="#z4B7hx9PabE4udsEXajW_pad-20" x="131388.736" y="-126172.308"/><use xlink:href="#z4B7hx9PabE4udsEXajW_pad-14" x="139008.736" y="-126172.308"/><use xlink:href="#z4B7hx9PabE4udsEXajW_pad-20" x="65288.736" y="-126272.31"/><use xlink:href="#z4B7hx9PabE4udsEXajW_pad-14" x="72908.736" y="-126272.31"/><use xlink:href="#z4B7hx9PabE4udsEXajW_pad-23" x="134900" y="-72600"/><use xlink:href="#z4B7hx9PabE4udsEXajW_pad-24" x="134900" y="-70600"/><use xlink:href="#z4B7hx9PabE4udsEXajW_pad-22" x="107296.051" y="-93896.051"/><path d="M 107296.051 -93896.051 107296.051 -93896.051" fill="none" stroke-width="1400"/><use xlink:href="#z4B7hx9PabE4udsEXajW_pad-22" x="105500" y="-92100"/><use xlink:href="#z4B7hx9PabE4udsEXajW_pad-22" x="112196.051" y="-95596.051"/><path d="M 112196.051 -95596.051 112196.051 -95596.051" fill="none" stroke-width="1400"/><use xlink:href="#z4B7hx9PabE4udsEXajW_pad-22" x="110400" y="-93800"/><use xlink:href="#z4B7hx9PabE4udsEXajW_pad-22" x="117096.051" y="-97296.051"/><path d="M 117096.051 -97296.051 117096.051 -97296.051" fill="none" stroke-width="1400"/><use xlink:href="#z4B7hx9PabE4udsEXajW_pad-22" x="115300" y="-95500"/><use xlink:href="#z4B7hx9PabE4udsEXajW_pad-21" x="97400" y="-95040"/><use xlink:href="#z4B7hx9PabE4udsEXajW_pad-22" x="97400" y="-92500"/><use xlink:href="#z4B7hx9PabE4udsEXajW_pad-21" x="93200" y="-95040"/><use xlink:href="#z4B7hx9PabE4udsEXajW_pad-22" x="93200" y="-92500"/><use xlink:href="#z4B7hx9PabE4udsEXajW_pad-21" x="89100" y="-95040"/><use xlink:href="#z4B7hx9PabE4udsEXajW_pad-22" x="89100" y="-92500"/><use xlink:href="#z4B7hx9PabE4udsEXajW_pad-21" x="84900" y="-95040"/><use xlink:href="#z4B7hx9PabE4udsEXajW_pad-22" x="84900" y="-92500"/><use xlink:href="#z4B7hx9PabE4udsEXajW_pad-21" x="151572.309" y="-87051.264"/><use xlink:href="#z4B7hx9PabE4udsEXajW_pad-22" x="151572.309" y="-89591.264"/><use xlink:href="#z4B7hx9PabE4udsEXajW_pad-21" x="107748.74" y="-127872.311"/><use xlink:href="#z4B7hx9PabE4udsEXajW_pad-22" x="105208.74" y="-127872.311"/><use xlink:href="#z4B7hx9PabE4udsEXajW_pad-21" x="86800" y="-129940"/><use xlink:href="#z4B7hx9PabE4udsEXajW_pad-22" x="86800" y="-127400"/><use xlink:href="#z4B7hx9PabE4udsEXajW_pad-21" x="113960" y="-129200"/><use xlink:href="#z4B7hx9PabE4udsEXajW_pad-22" x="116500" y="-129200"/><use xlink:href="#z4B7hx9PabE4udsEXajW_pad-21" x="129140" y="-70200"/><use xlink:href="#z4B7hx9PabE4udsEXajW_pad-22" x="126600" y="-70200"/><use xlink:href="#z4B7hx9PabE4udsEXajW_pad-21" x="120760" y="-91100"/><use xlink:href="#z4B7hx9PabE4udsEXajW_pad-22" x="123300" y="-91100"/><use xlink:href="#z4B7hx9PabE4udsEXajW_pad-11" x="159292.31" y="-78691.263"/><use xlink:href="#z4B7hx9PabE4udsEXajW_pad-11" x="151672.31" y="-81231.263"/><use xlink:href="#z4B7hx9PabE4udsEXajW_pad-11" x="159292.31" y="-81231.263"/><use xlink:href="#z4B7hx9PabE4udsEXajW_pad-10" x="151672.31" y="-78691.263"/><use xlink:href="#z4B7hx9PabE4udsEXajW_pad-15" x="79760" y="-68000"/><use xlink:href="#z4B7hx9PabE4udsEXajW_pad-14" x="82300" y="-68000"/><use xlink:href="#z4B7hx9PabE4udsEXajW_pad-15" x="89660" y="-68000"/><use xlink:href="#z4B7hx9PabE4udsEXajW_pad-14" x="92200" y="-68000"/><use xlink:href="#z4B7hx9PabE4udsEXajW_pad-15" x="97740" y="-68000"/><use xlink:href="#z4B7hx9PabE4udsEXajW_pad-14" x="95200" y="-68000"/><use xlink:href="#z4B7hx9PabE4udsEXajW_pad-21" x="86620" y="-110500"/><use xlink:href="#z4B7hx9PabE4udsEXajW_pad-22" x="79000" y="-110500"/><use xlink:href="#z4B7hx9PabE4udsEXajW_pad-21" x="89520" y="-112700"/><use xlink:href="#z4B7hx9PabE4udsEXajW_pad-22" x="81900" y="-112700"/><use xlink:href="#z4B7hx9PabE4udsEXajW_pad-21" x="86620" y="-115000"/><use xlink:href="#z4B7hx9PabE4udsEXajW_pad-22" x="79000" y="-115000"/><use xlink:href="#z4B7hx9PabE4udsEXajW_pad-21" x="89420" y="-117200"/><use xlink:href="#z4B7hx9PabE4udsEXajW_pad-22" x="81800" y="-117200"/><use xlink:href="#z4B7hx9PabE4udsEXajW_pad-28" x="159300" y="-126020"/><use xlink:href="#z4B7hx9PabE4udsEXajW_pad-28" x="144060" y="-118400"/><use xlink:href="#z4B7hx9PabE4udsEXajW_pad-29" x="156760" y="-126020"/><use xlink:href="#z4B7hx9PabE4udsEXajW_pad-29" x="146600" y="-118400"/><use xlink:href="#z4B7hx9PabE4udsEXajW_pad-29" x="154220" y="-126020"/><use xlink:href="#z4B7hx9PabE4udsEXajW_pad-29" x="149140" y="-118400"/><use xlink:href="#z4B7hx9PabE4udsEXajW_pad-29" x="151680" y="-126020"/><use xlink:href="#z4B7hx9PabE4udsEXajW_pad-29" x="151680" y="-118400"/><use xlink:href="#z4B7hx9PabE4udsEXajW_pad-29" x="149140" y="-126020"/><use xlink:href="#z4B7hx9PabE4udsEXajW_pad-29" x="154220" y="-118400"/><use xlink:href="#z4B7hx9PabE4udsEXajW_pad-29" x="146600" y="-126020"/><use xlink:href="#z4B7hx9PabE4udsEXajW_pad-28" x="156760" y="-118400"/><use xlink:href="#z4B7hx9PabE4udsEXajW_pad-29" x="144060" y="-126020"/><use xlink:href="#z4B7hx9PabE4udsEXajW_pad-30" x="159300" y="-118400"/><use xlink:href="#z4B7hx9PabE4udsEXajW_pad-10" x="84700" y="-107000"/><use xlink:href="#z4B7hx9PabE4udsEXajW_pad-11" x="99940" y="-99380"/><use xlink:href="#z4B7hx9PabE4udsEXajW_pad-11" x="87240" y="-107000"/><use xlink:href="#z4B7hx9PabE4udsEXajW_pad-11" x="97400" y="-99380"/><use xlink:href="#z4B7hx9PabE4udsEXajW_pad-11" x="89780" y="-107000"/><use xlink:href="#z4B7hx9PabE4udsEXajW_pad-11" x="94860" y="-99380"/><use xlink:href="#z4B7hx9PabE4udsEXajW_pad-11" x="92320" y="-107000"/><use xlink:href="#z4B7hx9PabE4udsEXajW_pad-11" x="92320" y="-99380"/><use xlink:href="#z4B7hx9PabE4udsEXajW_pad-11" x="94860" y="-107000"/><use xlink:href="#z4B7hx9PabE4udsEXajW_pad-11" x="89780" y="-99380"/><use xlink:href="#z4B7hx9PabE4udsEXajW_pad-11" x="97400" y="-107000"/><use xlink:href="#z4B7hx9PabE4udsEXajW_pad-11" x="87240" y="-99380"/><use xlink:href="#z4B7hx9PabE4udsEXajW_pad-11" x="99940" y="-107000"/><use xlink:href="#z4B7hx9PabE4udsEXajW_pad-11" x="84700" y="-99380"/><use xlink:href="#z4B7hx9PabE4udsEXajW_pad-16" x="116608.735" y="-134232.309"/><use xlink:href="#z4B7hx9PabE4udsEXajW_pad-16" x="116608.735" y="-131692.309"/><use xlink:href="#z4B7hx9PabE4udsEXajW_pad-17" x="116608.735" y="-136772.309"/><use xlink:href="#z4B7hx9PabE4udsEXajW_pad-17" x="88708.738" y="-136872.31"/><use xlink:href="#z4B7hx9PabE4udsEXajW_pad-16" x="88708.738" y="-131792.31"/><use xlink:href="#z4B7hx9PabE4udsEXajW_pad-16" x="88708.738" y="-134332.31"/><use xlink:href="#z4B7hx9PabE4udsEXajW_pad-16" x="98240" y="-127872.31"/><use xlink:href="#z4B7hx9PabE4udsEXajW_pad-16" x="100780" y="-127872.31"/><use xlink:href="#z4B7hx9PabE4udsEXajW_pad-17" x="95700" y="-127872.31"/><use xlink:href="#z4B7hx9PabE4udsEXajW_pad-17" x="64600" y="-102500"/><use xlink:href="#z4B7hx9PabE4udsEXajW_pad-16" x="64600" y="-107580"/><use xlink:href="#z4B7hx9PabE4udsEXajW_pad-16" x="64600" y="-105040"/><use xlink:href="#z4B7hx9PabE4udsEXajW_pad-17" x="73091.266" y="-97827.69"/><use xlink:href="#z4B7hx9PabE4udsEXajW_pad-16" x="73091.266" y="-102907.69"/><use xlink:href="#z4B7hx9PabE4udsEXajW_pad-16" x="73091.266" y="-100367.69"/></g><g id="WyHfx3lfoqT4FnJRkyss_bottom_drill1" transform="scale(25.4,25.4)"><use xlink:href="#BC4w0pVvjCe30zBpnAwo_pad-1" x="2980.3" y="-4748"/><use xlink:href="#BC4w0pVvjCe30zBpnAwo_pad-1" x="3059.1" y="-4748"/><use xlink:href="#BC4w0pVvjCe30zBpnAwo_pad-1" x="5311" y="-2779.5"/><use xlink:href="#BC4w0pVvjCe30zBpnAwo_pad-1" x="5311" y="-2858.3"/><use xlink:href="#BC4w0pVvjCe30zBpnAwo_pad-2" x="4346.5" y="-3692.9"/><use xlink:href="#BC4w0pVvjCe30zBpnAwo_pad-2" x="4417.2" y="-3763.6"/><use xlink:href="#BC4w0pVvjCe30zBpnAwo_pad-2" x="4142.1" y="-5034.3"/><use xlink:href="#BC4w0pVvjCe30zBpnAwo_pad-2" x="4242.1" y="-5034.3"/><use xlink:href="#BC4w0pVvjCe30zBpnAwo_pad-2" x="3220.5" y="-4614.2"/><use xlink:href="#BC4w0pVvjCe30zBpnAwo_pad-2" x="3520.5" y="-4614.2"/><use xlink:href="#BC4w0pVvjCe30zBpnAwo_pad-2" x="3224.4" y="-4437"/><use xlink:href="#BC4w0pVvjCe30zBpnAwo_pad-2" x="3524.4" y="-4437"/><use xlink:href="#BC4w0pVvjCe30zBpnAwo_pad-2" x="4754.3" y="-3586.6"/><use xlink:href="#BC4w0pVvjCe30zBpnAwo_pad-2" x="4854.3" y="-3586.6"/><use xlink:href="#BC4w0pVvjCe30zBpnAwo_pad-2" x="5967.4" y="-3427.2"/><use xlink:href="#BC4w0pVvjCe30zBpnAwo_pad-2" x="5967.4" y="-3527.2"/><use xlink:href="#BC4w0pVvjCe30zBpnAwo_pad-2" x="3110.2" y="-4350.4"/><use xlink:href="#BC4w0pVvjCe30zBpnAwo_pad-2" x="3410.2" y="-4350.4"/><use xlink:href="#BC4w0pVvjCe30zBpnAwo_pad-2" x="2685" y="-4799.2"/><use xlink:href="#BC4w0pVvjCe30zBpnAwo_pad-2" x="2785" y="-4799.2"/><use xlink:href="#BC4w0pVvjCe30zBpnAwo_pad-2" x="4153.5" y="-3626"/><use xlink:href="#BC4w0pVvjCe30zBpnAwo_pad-2" x="4224.3" y="-3696.7"/><use xlink:href="#BC4w0pVvjCe30zBpnAwo_pad-2" x="4984.3" y="-2763.8"/><use xlink:href="#BC4w0pVvjCe30zBpnAwo_pad-2" x="5084.3" y="-2763.8"/><use xlink:href="#BC4w0pVvjCe30zBpnAwo_pad-2" x="3507.9" y="-3641.7"/><use xlink:href="#BC4w0pVvjCe30zBpnAwo_pad-2" x="3507.9" y="-3741.7"/><use xlink:href="#BC4w0pVvjCe30zBpnAwo_pad-2" x="2657.5" y="-3844.9"/><use xlink:href="#BC4w0pVvjCe30zBpnAwo_pad-2" x="2657.5" y="-3944.9"/><use xlink:href="#BC4w0pVvjCe30zBpnAwo_pad-2" x="3342.5" y="-3641.7"/><use xlink:href="#BC4w0pVvjCe30zBpnAwo_pad-2" x="3342.5" y="-3741.7"/><use xlink:href="#BC4w0pVvjCe30zBpnAwo_pad-2" x="3669.3" y="-3641.7"/><use xlink:href="#BC4w0pVvjCe30zBpnAwo_pad-2" x="3669.3" y="-3741.7"/><use xlink:href="#BC4w0pVvjCe30zBpnAwo_pad-2" x="2655.9" y="-3689"/><use xlink:href="#BC4w0pVvjCe30zBpnAwo_pad-2" x="2755.9" y="-3689"/><use xlink:href="#BC4w0pVvjCe30zBpnAwo_pad-2" x="4486.6" y="-5086.6"/><use xlink:href="#BC4w0pVvjCe30zBpnAwo_pad-2" x="4586.6" y="-5086.6"/><use xlink:href="#BC4w0pVvjCe30zBpnAwo_pad-2" x="4539.4" y="-3759.8"/><use xlink:href="#BC4w0pVvjCe30zBpnAwo_pad-2" x="4610.1" y="-3830.6"/><use xlink:href="#BC4w0pVvjCe30zBpnAwo_pad-2" x="3110.2" y="-4527.6"/><use xlink:href="#BC4w0pVvjCe30zBpnAwo_pad-2" x="3410.2" y="-4527.6"/><use xlink:href="#BC4w0pVvjCe30zBpnAwo_pad-2" x="3834.6" y="-3641.7"/><use xlink:href="#BC4w0pVvjCe30zBpnAwo_pad-2" x="3834.6" y="-3741.7"/><use xlink:href="#BC4w0pVvjCe30zBpnAwo_pad-2" x="2833.1" y="-4409.4"/><use xlink:href="#BC4w0pVvjCe30zBpnAwo_pad-2" x="2933.1" y="-4409.4"/><use xlink:href="#BC4w0pVvjCe30zBpnAwo_pad-2" x="3417.3" y="-5015.7"/><use xlink:href="#BC4w0pVvjCe30zBpnAwo_pad-2" x="3417.3" y="-5115.7"/><use xlink:href="#BC4w0pVvjCe30zBpnAwo_pad-3" x="3334.6" y="-3912.6"/><use xlink:href="#BC4w0pVvjCe30zBpnAwo_pad-3" x="3334.6" y="-4212.6"/><use xlink:href="#BC4w0pVvjCe30zBpnAwo_pad-3" x="3434.6" y="-3912.6"/><use xlink:href="#BC4w0pVvjCe30zBpnAwo_pad-3" x="3434.6" y="-4212.6"/><use xlink:href="#BC4w0pVvjCe30zBpnAwo_pad-3" x="3534.6" y="-3912.6"/><use xlink:href="#BC4w0pVvjCe30zBpnAwo_pad-3" x="3534.6" y="-4212.6"/><use xlink:href="#BC4w0pVvjCe30zBpnAwo_pad-3" x="3634.6" y="-3912.6"/><use xlink:href="#BC4w0pVvjCe30zBpnAwo_pad-3" x="3634.6" y="-4212.6"/><use xlink:href="#BC4w0pVvjCe30zBpnAwo_pad-3" x="3734.6" y="-3912.6"/><use xlink:href="#BC4w0pVvjCe30zBpnAwo_pad-3" x="3734.6" y="-4212.6"/><use xlink:href="#BC4w0pVvjCe30zBpnAwo_pad-3" x="3834.6" y="-3912.6"/><use xlink:href="#BC4w0pVvjCe30zBpnAwo_pad-3" x="3834.6" y="-4212.6"/><use xlink:href="#BC4w0pVvjCe30zBpnAwo_pad-3" x="3934.6" y="-3912.6"/><use xlink:href="#BC4w0pVvjCe30zBpnAwo_pad-3" x="3934.6" y="-4212.6"/><use xlink:href="#BC4w0pVvjCe30zBpnAwo_pad-3" x="3492.5" y="-5188.7"/><use xlink:href="#BC4w0pVvjCe30zBpnAwo_pad-3" x="3492.5" y="-5288.7"/><use xlink:href="#BC4w0pVvjCe30zBpnAwo_pad-3" x="3492.5" y="-5388.7"/><use xlink:href="#BC4w0pVvjCe30zBpnAwo_pad-3" x="5971.4" y="-3098.1"/><use xlink:href="#BC4w0pVvjCe30zBpnAwo_pad-3" x="5971.4" y="-3198.1"/><use xlink:href="#BC4w0pVvjCe30zBpnAwo_pad-3" x="6271.4" y="-3098.1"/><use xlink:href="#BC4w0pVvjCe30zBpnAwo_pad-3" x="6271.4" y="-3198.1"/><use xlink:href="#BC4w0pVvjCe30zBpnAwo_pad-3" x="5671.7" y="-4661.4"/><use xlink:href="#BC4w0pVvjCe30zBpnAwo_pad-3" x="5671.7" y="-4961.4"/><use xlink:href="#BC4w0pVvjCe30zBpnAwo_pad-3" x="5771.7" y="-4661.4"/><use xlink:href="#BC4w0pVvjCe30zBpnAwo_pad-3" x="5771.7" y="-4961.4"/><use xlink:href="#BC4w0pVvjCe30zBpnAwo_pad-3" x="5871.7" y="-4661.4"/><use xlink:href="#BC4w0pVvjCe30zBpnAwo_pad-3" x="5871.7" y="-4961.4"/><use xlink:href="#BC4w0pVvjCe30zBpnAwo_pad-3" x="5971.7" y="-4661.4"/><use xlink:href="#BC4w0pVvjCe30zBpnAwo_pad-3" x="5971.7" y="-4961.4"/><use xlink:href="#BC4w0pVvjCe30zBpnAwo_pad-3" x="6071.7" y="-4661.4"/><use xlink:href="#BC4w0pVvjCe30zBpnAwo_pad-3" x="6071.7" y="-4961.4"/><use xlink:href="#BC4w0pVvjCe30zBpnAwo_pad-3" x="6171.7" y="-4661.4"/><use xlink:href="#BC4w0pVvjCe30zBpnAwo_pad-3" x="6171.7" y="-4961.4"/><use xlink:href="#BC4w0pVvjCe30zBpnAwo_pad-3" x="6271.7" y="-4661.4"/><use xlink:href="#BC4w0pVvjCe30zBpnAwo_pad-3" x="6271.7" y="-4961.4"/><use xlink:href="#BC4w0pVvjCe30zBpnAwo_pad-3" x="2877.6" y="-3851.5"/><use xlink:href="#BC4w0pVvjCe30zBpnAwo_pad-3" x="2877.6" y="-3951.5"/><use xlink:href="#BC4w0pVvjCe30zBpnAwo_pad-3" x="2877.6" y="-4051.5"/><use xlink:href="#BC4w0pVvjCe30zBpnAwo_pad-3" x="3767.7" y="-5034.3"/><use xlink:href="#BC4w0pVvjCe30zBpnAwo_pad-3" x="3867.7" y="-5034.3"/><use xlink:href="#BC4w0pVvjCe30zBpnAwo_pad-3" x="3967.7" y="-5034.3"/><use xlink:href="#BC4w0pVvjCe30zBpnAwo_pad-3" x="2543.3" y="-4035.4"/><use xlink:href="#BC4w0pVvjCe30zBpnAwo_pad-3" x="2543.3" y="-4135.4"/><use xlink:href="#BC4w0pVvjCe30zBpnAwo_pad-3" x="2543.3" y="-4235.4"/><use xlink:href="#BC4w0pVvjCe30zBpnAwo_pad-3" x="2792.1" y="-4208.7"/><use xlink:href="#BC4w0pVvjCe30zBpnAwo_pad-3" x="2892.1" y="-4208.7"/><use xlink:href="#BC4w0pVvjCe30zBpnAwo_pad-3" x="2992.1" y="-4208.7"/><use xlink:href="#BC4w0pVvjCe30zBpnAwo_pad-3" x="4590.9" y="-5184.7"/><use xlink:href="#BC4w0pVvjCe30zBpnAwo_pad-3" x="4590.9" y="-5284.7"/><use xlink:href="#BC4w0pVvjCe30zBpnAwo_pad-3" x="4590.9" y="-5384.7"/><use xlink:href="#BC4w0pVvjCe30zBpnAwo_pad-4" x="2527.6" y="-3894.8"/><use xlink:href="#BC4w0pVvjCe30zBpnAwo_pad-5" x="3358.3" y="-2677.2"/><use xlink:href="#BC4w0pVvjCe30zBpnAwo_pad-5" x="3458.3" y="-2677.2"/><use xlink:href="#BC4w0pVvjCe30zBpnAwo_pad-5" x="5172.8" y="-4967.4"/><use xlink:href="#BC4w0pVvjCe30zBpnAwo_pad-5" x="5472.8" y="-4967.4"/><use xlink:href="#BC4w0pVvjCe30zBpnAwo_pad-5" x="4854.3" y="-3837"/><use xlink:href="#BC4w0pVvjCe30zBpnAwo_pad-5" x="4854.3" y="-4437"/><use xlink:href="#BC4w0pVvjCe30zBpnAwo_pad-5" x="4954.3" y="-3837"/><use xlink:href="#BC4w0pVvjCe30zBpnAwo_pad-5" x="4954.3" y="-4437"/><use xlink:href="#BC4w0pVvjCe30zBpnAwo_pad-5" x="5054.3" y="-3837"/><use xlink:href="#BC4w0pVvjCe30zBpnAwo_pad-5" x="5054.3" y="-4437"/><use xlink:href="#BC4w0pVvjCe30zBpnAwo_pad-5" x="5154.3" y="-3837"/><use xlink:href="#BC4w0pVvjCe30zBpnAwo_pad-5" x="5154.3" y="-4437"/><use xlink:href="#BC4w0pVvjCe30zBpnAwo_pad-5" x="5254.3" y="-3837"/><use xlink:href="#BC4w0pVvjCe30zBpnAwo_pad-5" x="5254.3" y="-4437"/><use xlink:href="#BC4w0pVvjCe30zBpnAwo_pad-5" x="5354.3" y="-3837"/><use xlink:href="#BC4w0pVvjCe30zBpnAwo_pad-5" x="5354.3" y="-4437"/><use xlink:href="#BC4w0pVvjCe30zBpnAwo_pad-5" x="5454.3" y="-3837"/><use xlink:href="#BC4w0pVvjCe30zBpnAwo_pad-5" x="5454.3" y="-4437"/><use xlink:href="#BC4w0pVvjCe30zBpnAwo_pad-5" x="5554.3" y="-3837"/><use xlink:href="#BC4w0pVvjCe30zBpnAwo_pad-5" x="5554.3" y="-4437"/><use xlink:href="#BC4w0pVvjCe30zBpnAwo_pad-5" x="5654.3" y="-3837"/><use xlink:href="#BC4w0pVvjCe30zBpnAwo_pad-5" x="5654.3" y="-4437"/><use xlink:href="#BC4w0pVvjCe30zBpnAwo_pad-5" x="5754.3" y="-3837"/><use xlink:href="#BC4w0pVvjCe30zBpnAwo_pad-5" x="5754.3" y="-4437"/><use xlink:href="#BC4w0pVvjCe30zBpnAwo_pad-5" x="5854.3" y="-3837"/><use xlink:href="#BC4w0pVvjCe30zBpnAwo_pad-5" x="5854.3" y="-4437"/><use xlink:href="#BC4w0pVvjCe30zBpnAwo_pad-5" x="5954.3" y="-3837"/><use xlink:href="#BC4w0pVvjCe30zBpnAwo_pad-5" x="5954.3" y="-4437"/><use xlink:href="#BC4w0pVvjCe30zBpnAwo_pad-5" x="6054.3" y="-3837"/><use xlink:href="#BC4w0pVvjCe30zBpnAwo_pad-5" x="6054.3" y="-4437"/><use xlink:href="#BC4w0pVvjCe30zBpnAwo_pad-5" x="6154.3" y="-3837"/><use xlink:href="#BC4w0pVvjCe30zBpnAwo_pad-5" x="6154.3" y="-4437"/><use xlink:href="#BC4w0pVvjCe30zBpnAwo_pad-5" x="6254.3" y="-3837"/><use xlink:href="#BC4w0pVvjCe30zBpnAwo_pad-5" x="6254.3" y="-4437"/><use xlink:href="#BC4w0pVvjCe30zBpnAwo_pad-5" x="3919.7" y="-2677.2"/><use xlink:href="#BC4w0pVvjCe30zBpnAwo_pad-5" x="4019.7" y="-2677.2"/><use xlink:href="#BC4w0pVvjCe30zBpnAwo_pad-5" x="2570.4" y="-4971.4"/><use xlink:href="#BC4w0pVvjCe30zBpnAwo_pad-5" x="2870.4" y="-4971.4"/><use xlink:href="#BC4w0pVvjCe30zBpnAwo_pad-5" x="3748" y="-2677.2"/><use xlink:href="#BC4w0pVvjCe30zBpnAwo_pad-5" x="3848" y="-2677.2"/><use xlink:href="#BC4w0pVvjCe30zBpnAwo_pad-5" x="3140.2" y="-2677.2"/><use xlink:href="#BC4w0pVvjCe30zBpnAwo_pad-5" x="3240.2" y="-2677.2"/><use xlink:href="#BC4w0pVvjCe30zBpnAwo_pad-5" x="2968.5" y="-2677.2"/><use xlink:href="#BC4w0pVvjCe30zBpnAwo_pad-5" x="3068.5" y="-2677.2"/><use xlink:href="#BC4w0pVvjCe30zBpnAwo_pad-5" x="2594.5" y="-4349.6"/><use xlink:href="#BC4w0pVvjCe30zBpnAwo_pad-5" x="2594.5" y="-4649.6"/><use xlink:href="#BC4w0pVvjCe30zBpnAwo_pad-5" x="3529.9" y="-2677.2"/><use xlink:href="#BC4w0pVvjCe30zBpnAwo_pad-5" x="3629.9" y="-2677.2"/><use xlink:href="#BC4w0pVvjCe30zBpnAwo_pad-6" x="5138.1" y="-5333.6"/><use xlink:href="#BC4w0pVvjCe30zBpnAwo_pad-6" x="5531.8" y="-5333.6"/><use xlink:href="#BC4w0pVvjCe30zBpnAwo_pad-6" x="3246.9" y="-2868.2"/><use xlink:href="#BC4w0pVvjCe30zBpnAwo_pad-6" x="3246.9" y="-3468.2"/><use xlink:href="#BC4w0pVvjCe30zBpnAwo_pad-6" x="3346.9" y="-2868.2"/><use xlink:href="#BC4w0pVvjCe30zBpnAwo_pad-6" x="3346.9" y="-3468.2"/><use xlink:href="#BC4w0pVvjCe30zBpnAwo_pad-6" x="3446.9" y="-2868.2"/><use xlink:href="#BC4w0pVvjCe30zBpnAwo_pad-6" x="3446.9" y="-3468.2"/><use xlink:href="#BC4w0pVvjCe30zBpnAwo_pad-6" x="3546.9" y="-2868.2"/><use xlink:href="#BC4w0pVvjCe30zBpnAwo_pad-6" x="3546.9" y="-3468.2"/><use xlink:href="#BC4w0pVvjCe30zBpnAwo_pad-6" x="3646.9" y="-2868.2"/><use xlink:href="#BC4w0pVvjCe30zBpnAwo_pad-6" x="3646.9" y="-3468.2"/><use xlink:href="#BC4w0pVvjCe30zBpnAwo_pad-6" x="3746.9" y="-2868.2"/><use xlink:href="#BC4w0pVvjCe30zBpnAwo_pad-6" x="3746.9" y="-3468.2"/><use xlink:href="#BC4w0pVvjCe30zBpnAwo_pad-6" x="5350.5" y="-3546.9"/><use xlink:href="#BC4w0pVvjCe30zBpnAwo_pad-6" x="5498.9" y="-3546.9"/><use xlink:href="#BC4w0pVvjCe30zBpnAwo_pad-6" x="5650.5" y="-3546.9"/><use xlink:href="#BC4w0pVvjCe30zBpnAwo_pad-6" x="2539.7" y="-5333.6"/><use xlink:href="#BC4w0pVvjCe30zBpnAwo_pad-6" x="2933.4" y="-5333.6"/><use xlink:href="#BC4w0pVvjCe30zBpnAwo_pad-7" x="4779.5" y="-2929.1"/><use xlink:href="#BC4w0pVvjCe30zBpnAwo_pad-7" x="4779.5" y="-3421.3"/><use xlink:href="#BC4w0pVvjCe30zBpnAwo_pad-7" x="4976.4" y="-2929.1"/><use xlink:href="#BC4w0pVvjCe30zBpnAwo_pad-7" x="4976.4" y="-3421.3"/><use xlink:href="#BC4w0pVvjCe30zBpnAwo_pad-9" x="3744.4" y="-5349.3"/><use xlink:href="#BC4w0pVvjCe30zBpnAwo_pad-9" x="3944.4" y="-5349.3"/><use xlink:href="#BC4w0pVvjCe30zBpnAwo_pad-9" x="4165.7" y="-5349.3"/><use xlink:href="#BC4w0pVvjCe30zBpnAwo_pad-9" x="4365.7" y="-5349.3"/><path d="M 5272.5 -3192.6 5272.5 -3113.8 M 5725.3 -3192.6 5725.3 -3113.8" fill="none" stroke-width="59.1"/></g><clipPath id="WyHfx3lfoqT4FnJRkyss_bottom_outline"><path d="M 162600.001 -142000 61000 -142000 61000 -65800 162600 -65800 162600.001 -142000" fill="none" stroke-width="200"/></clipPath><mask id="WyHfx3lfoqT4FnJRkyss_bottom_mech-mask"><g fill="#000" stroke="#000"><rect x="61000" y="-142000" width="101600.001" height="76200" fill="#fff"/><use xlink:href="#WyHfx3lfoqT4FnJRkyss_bottom_drill1"/></g></mask><mask id="WyHfx3lfoqT4FnJRkyss_bottom_cf-mask"><g fill="#fff" stroke="#fff"><use xlink:href="#WyHfx3lfoqT4FnJRkyss_bottom_soldermask"/></g></mask><mask id="WyHfx3lfoqT4FnJRkyss_bottom_sm-mask"><g fill="#000" stroke="#000"><rect x="61000" y="-142000" width="101600.001" height="76200" fill="#fff"/><use xlink:href="#WyHfx3lfoqT4FnJRkyss_bottom_soldermask"/></g></mask></defs><g transform="translate(0,-207800) scale(1,-1)"><g mask="url(#WyHfx3lfoqT4FnJRkyss_bottom_mech-mask)" clip-path="url(#WyHfx3lfoqT4FnJRkyss_bottom_outline)" transform="translate(223600.001,0) scale(-1,1)"><rect x="61000" y="-142000" width="101600.001" height="76200" fill="currentColor" class="WyHfx3lfoqT4FnJRkyss_fr4"/><use xlink:href="#WyHfx3lfoqT4FnJRkyss_bottom_copper" fill="currentColor" stroke="currentColor" class="WyHfx3lfoqT4FnJRkyss_cu"/><use xlink:href="#WyHfx3lfoqT4FnJRkyss_bottom_copper" fill="currentColor" stroke="currentColor" class="WyHfx3lfoqT4FnJRkyss_cf" mask="url(#WyHfx3lfoqT4FnJRkyss_bottom_cf-mask)"/><g mask="url(#WyHfx3lfoqT4FnJRkyss_bottom_sm-mask)"><rect x="61000" y="-142000" width="101600.001" height="76200" fill="currentColor" class="WyHfx3lfoqT4FnJRkyss_sm"/><use xlink:href="#WyHfx3lfoqT4FnJRkyss_bottom_silkscreen" fill="currentColor" stroke="currentColor" class="WyHfx3lfoqT4FnJRkyss_ss"/></g></g></g></svg>