<svg version="1.1" xmlns="http://www.w3.org/2000/svg" xmlns:xlink="http://www.w3.org/1999/xlink" stroke-linecap="round" stroke-linejoin="round" stroke-width="0" fill-rule="evenodd" width="93.074mm" height="92.88992999999999mm" viewBox="56509.736 -160547.31 93074 92889.93" id="gi44s3hjRG1TBHRGOrN0"><g transform="translate(0,-228204.69) scale(1,-1)" fill="currentColor" stroke="currentColor"><path d="M 135008.736 -135972.31 136008.736 -133972.31 M 137508.736 -135972.31 137508.736 -134972.31 136508.736 -134972.31 M 133508.736 -135972.31 133508.736 -134972.31 134508.736 -134972.31 M 134508.736 -135972.31 136508.736 -135972.31 M 136508.736 -135988.31 136508.736 -133972.31 134508.736 -133972.31 M 134508.736 -135972.31 134508.736 -133972.31" fill="none" stroke-width="120"/><path d="M 149508.736 -160472.31 122584.736 -160472.31 122584.736 -128468.31 149508.736 -128468.31 149508.736 -160472.31" fill="none" stroke-width="150"/><path d="M 69008.736 -135972.308 70008.736 -133972.308 M 71508.736 -135972.308 71508.736 -134972.308 70508.736 -134972.308 M 67508.736 -135972.308 67508.736 -134972.308 68508.736 -134972.308 M 68508.736 -135972.308 70508.736 -135972.308 M 70508.736 -135988.308 70508.736 -133972.308 68508.736 -133972.308 M 68508.736 -135972.308 68508.736 -133972.308" fill="none" stroke-width="120"/><path d="M 83508.736 -160472.308 56584.736 -160472.308 56584.736 -128468.308 83508.736 -128468.308 83508.736 -160472.308" fill="none" stroke-width="150"/><path d="M 133505 -69530.199 133905 -69530.199 M 133705 -69330.199 133705 -69730.199 M 134530 -73681 135270 -73681 M 134363 -73641 135437 -73641 M 134236 -73601 135564 -73601 M 134132 -73561 135668 -73561 M 134041 -73521 135759 -73521 M 133960 -73481 135840 -73481 M 133887 -73441 135913 -73441 M 135740 -73401 135980 -73401 M 133820 -73401 134060 -73401 M 135740 -73361 136042 -73361 M 133758 -73361 134060 -73361 M 135740 -73321 136100 -73321 M 133700 -73321 134060 -73321 M 135740 -73281 136154 -73281 M 133646 -73281 134060 -73281 M 135740 -73241 136204 -73241 M 133596 -73241 134060 -73241 M 135740 -73201 136251 -73201 M 133549 -73201 134060 -73201 M 135740 -73161 136296 -73161 M 133504 -73161 134060 -73161 M 135740 -73121 136338 -73121 M 133462 -73121 134060 -73121 M 135740 -73081 136378 -73081 M 133422 -73081 134060 -73081 M 135740 -73041 136416 -73041 M 133384 -73041 134060 -73041 M 135740 -73001 136452 -73001 M 133348 -73001 134060 -73001 M 135740 -72961 136487 -72961 M 133313 -72961 134060 -72961 M 135740 -72921 136519 -72921 M 133281 -72921 134060 -72921 M 135740 -72881 136550 -72881 M 133250 -72881 134060 -72881 M 135740 -72841 136580 -72841 M 133220 -72841 134060 -72841 M 135740 -72801 136608 -72801 M 133192 -72801 134060 -72801 M 135740 -72761 136635 -72761 M 133165 -72761 134060 -72761 M 135740 -72721 136660 -72721 M 133140 -72721 134060 -72721 M 135740 -72681 136685 -72681 M 133115 -72681 134060 -72681 M 135740 -72641 136708 -72641 M 133092 -72641 134060 -72641 M 135740 -72601 136730 -72601 M 133070 -72601 134060 -72601 M 135740 -72561 136751 -72561 M 133049 -72561 134060 -72561 M 135740 -72521 136770 -72521 M 133030 -72521 134060 -72521 M 135740 -72481 136789 -72481 M 133011 -72481 134060 -72481 M 135740 -72441 136807 -72441 M 132993 -72441 134060 -72441 M 135740 -72401 136824 -72401 M 132976 -72401 134060 -72401 M 135740 -72361 136840 -72361 M 132960 -72361 134060 -72361 M 135740 -72321 136854 -72321 M 132946 -72321 134060 -72321 M 135740 -72280 136868 -72280 M 132932 -72280 134060 -72280 M 135740 -72240 136882 -72240 M 132918 -72240 134060 -72240 M 135740 -72200 136894 -72200 M 132906 -72200 134060 -72200 M 135740 -72160 136905 -72160 M 132895 -72160 134060 -72160 M 135740 -72120 136916 -72120 M 132884 -72120 134060 -72120 M 135740 -72080 136925 -72080 M 132875 -72080 134060 -72080 M 135740 -72040 136934 -72040 M 132866 -72040 134060 -72040 M 135740 -72000 136942 -72000 M 132858 -72000 134060 -72000 M 135740 -71960 136950 -71960 M 132850 -71960 134060 -71960 M 135740 -71920 136956 -71920 M 132844 -71920 134060 -71920 M 135740 -71880 136962 -71880 M 132838 -71880 134060 -71880 M 135740 -71840 136967 -71840 M 132833 -71840 134060 -71840 M 135740 -71800 136971 -71800 M 132829 -71800 134060 -71800 M 132826 -71760 136974 -71760 M 132823 -71720 136977 -71720 M 132821 -71680 136979 -71680 M 132820 -71640 136980 -71640 M 132820 -71600 136980 -71600 M 137020 -71600 A 2120 2120 0 0 1 132780 -71600 2120 2120 0 0 1 137020 -71600 M 106150.538 -92750.538 106588.944 -93188.944 M 106420 -92100 A 920 920 0 0 1 104580 -92100 920 920 0 0 1 106420 -92100 M 111050.538 -94450.538 111488.944 -94888.944 M 111320 -93800 A 920 920 0 0 1 109480 -93800 920 920 0 0 1 111320 -93800 M 115950.538 -96150.538 116388.944 -96588.944 M 116220 -95500 A 920 920 0 0 1 114380 -95500 920 920 0 0 1 116220 -95500 M 115580 -129200 114960 -129200 M 117420 -129200 A 920 920 0 0 1 115580 -129200 920 920 0 0 1 117420 -129200 M 127520 -70200 128140 -70200 M 127520 -70200 A 920 920 0 0 1 125680 -70200 920 920 0 0 1 127520 -70200 M 122380 -91100 121760 -91100 M 124220 -91100 A 920 920 0 0 1 122380 -91100 920 920 0 0 1 124220 -91100 M 114758.735 -136032.309 114758.735 -132432.309 M 115485.94 -136556.493 A 2581.1818762 2581.1818762 0 0 0 114758.735 -136032.309 M 117707.542 -136588.709 A 2599.9995737 2599.9995737 0 0 1 119208.735 -134232.309 M 117707.542 -131875.909 A 2599.9995737 2599.9995737 0 0 0 119208.735 -134232.309 M 115485.94 -131908.125 A 2581.1818762 2581.1818762 0 0 1 114758.735 -132432.309 M 87585.943 -132008.126 A 2581.1818762 2581.1818762 0 0 1 86858.738 -132532.31 M 89807.545 -131975.91 A 2599.9995737 2599.9995737 0 0 0 91308.738 -134332.31 M 89807.545 -136688.71 A 2599.9995737 2599.9995737 0 0 1 91308.738 -134332.31 M 87585.943 -136656.494 A 2581.1818762 2581.1818762 0 0 0 86858.738 -136132.31 L 86858.738 -132532.31 M 96440 -126022.31 100040 -126022.31 M 95915.816 -126749.515 A 2581.1818762 2581.1818762 0 0 0 96440 -126022.31 M 95883.6 -128971.117 A 2599.9995737 2599.9995737 0 0 1 98240 -130472.31 M 100596.4 -128971.117 A 2599.9995737 2599.9995737 0 0 0 98240 -130472.31 M 100564.184 -126749.515 A 2581.1818762 2581.1818762 0 0 1 100040 -126022.31" fill="none" stroke-width="120"/><path d="M 132007.142 -71433.333 132054.761 -71385.714 132102.38 -71242.857 132102.38 -71147.619 132054.761 -71004.761 131959.523 -70909.523 131864.285 -70861.904 131673.809 -70814.285 131530.952 -70814.285 131340.476 -70861.904 131245.238 -70909.523 131150 -71004.761 131102.38 -71147.619 131102.38 -71242.857 131150 -71385.714 131197.619 -71433.333 M 132102.38 -72385.714 132102.38 -71814.285 M 132102.38 -72100 131102.38 -72100 131245.238 -72004.761 131340.476 -71909.523 131388.095 -71814.285 M 138602.38 -70528.571 138602.38 -69957.142 M 138602.38 -70242.857 137602.38 -70242.857 137745.238 -70147.619 137840.476 -70052.38 137888.095 -69957.142 M 137602.38 -71147.619 137602.38 -71242.857 137650 -71338.095 137697.619 -71385.714 137792.857 -71433.333 137983.333 -71480.952 138221.428 -71480.952 138411.904 -71433.333 138507.142 -71385.714 138554.761 -71338.095 138602.38 -71242.857 138602.38 -71147.619 138554.761 -71052.38 138507.142 -71004.761 138411.904 -70957.142 138221.428 -70909.523 137983.333 -70909.523 137792.857 -70957.142 137697.619 -71004.761 137650 -71052.38 137602.38 -71147.619 M 137935.714 -72338.095 138602.38 -72338.095 M 137935.714 -71909.523 138459.523 -71909.523 138554.761 -71957.142 138602.38 -72052.38 138602.38 -72195.238 138554.761 -72290.476 138507.142 -72338.095 M 138078.571 -73147.619 138078.571 -72814.285 M 138602.38 -72814.285 137602.38 -72814.285 137602.38 -73290.476 M 104838.35 -94793.403 105410.77 -94692.388 M 105242.411 -95197.464 105949.518 -94490.358 105680.144 -94220.983 105579.129 -94187.312 105511.785 -94187.312 105410.77 -94220.983 105309.755 -94321.999 105276.083 -94423.014 105276.083 -94490.358 105309.755 -94591.373 105579.129 -94860.747 M 104164.915 -94119.968 104568.976 -94524.029 M 104366.945 -94321.999 105074.052 -93614.892 105040.381 -93783.251 105040.381 -93917.938 105074.052 -94018.953 M 108951.018 -92195.964 108951.018 -92128.621 108917.346 -92027.606 108748.987 -91859.247 108647.972 -91825.575 108580.628 -91825.575 108479.613 -91859.247 108412.27 -91926.59 108344.926 -92061.277 108344.926 -92869.399 107907.193 -92431.667 M 108277.583 -91522.529 108277.583 -91455.186 108243.911 -91354.171 108075.552 -91185.812 107974.537 -91152.14 107907.193 -91152.14 107806.178 -91185.812 107738.835 -91253.155 107671.491 -91387.842 107671.491 -92195.964 107233.758 -91758.232 M 107503.132 -90613.392 107435.789 -90546.049 107334.774 -90512.377 107267.43 -90512.377 107166.415 -90546.049 106998.056 -90647.064 106829.697 -90815.423 106728.682 -90983.781 106695.01 -91084.797 106695.01 -91152.14 106728.682 -91253.155 106796.026 -91320.499 106897.041 -91354.171 106964.384 -91354.171 107065.4 -91320.499 107233.758 -91219.484 107402.117 -91051.125 107503.132 -90882.766 107536.804 -90781.751 107536.804 -90714.407 107503.132 -90613.392 M 109738.35 -96493.403 110310.77 -96392.388 M 110142.411 -96897.464 110849.518 -96190.358 110580.144 -95920.983 110479.129 -95887.312 110411.785 -95887.312 110310.77 -95920.983 110209.755 -96021.999 110176.083 -96123.014 110176.083 -96190.358 110209.755 -96291.373 110479.129 -96560.747 M 110108.739 -95584.266 110108.739 -95516.922 110075.068 -95415.907 109906.709 -95247.548 109805.693 -95213.877 109738.35 -95213.877 109637.335 -95247.548 109569.991 -95314.892 109502.648 -95449.579 109502.648 -96257.701 109064.915 -95819.968 M 113851.018 -93895.964 113851.018 -93828.621 113817.346 -93727.606 113648.987 -93559.247 113547.972 -93525.575 113480.628 -93525.575 113379.613 -93559.247 113312.27 -93626.59 113244.926 -93761.277 113244.926 -94569.399 112807.193 -94131.667 M 113177.583 -93222.529 113177.583 -93155.186 113143.911 -93054.171 112975.552 -92885.812 112874.537 -92852.14 112807.193 -92852.14 112706.178 -92885.812 112638.835 -92953.155 112571.491 -93087.842 112571.491 -93895.964 112133.758 -93458.232 M 112403.132 -92313.392 112335.789 -92246.049 112234.774 -92212.377 112167.43 -92212.377 112066.415 -92246.049 111898.056 -92347.064 111729.697 -92515.423 111628.682 -92683.781 111595.01 -92784.797 111595.01 -92852.14 111628.682 -92953.155 111696.026 -93020.499 111797.041 -93054.171 111864.384 -93054.171 111965.4 -93020.499 112133.758 -92919.484 112302.117 -92751.125 112403.132 -92582.766 112436.804 -92481.751 112436.804 -92414.407 112403.132 -92313.392 M 114638.35 -98193.403 115210.77 -98092.388 M 115042.411 -98597.464 115749.518 -97890.358 115480.144 -97620.983 115379.129 -97587.312 115311.785 -97587.312 115210.77 -97620.983 115109.755 -97721.999 115076.083 -97823.014 115076.083 -97890.358 115109.755 -97991.373 115379.129 -98260.747 M 115109.755 -97250.594 114672.022 -96812.861 114638.35 -97317.938 114537.335 -97216.922 114436.319 -97183.251 114368.976 -97183.251 114267.961 -97216.922 114099.602 -97385.281 114065.93 -97486.296 114065.93 -97553.64 114099.602 -97654.655 114301.632 -97856.686 114402.648 -97890.358 114469.991 -97890.358 M 118751.018 -95595.964 118751.018 -95528.621 118717.346 -95427.606 118548.987 -95259.247 118447.972 -95225.575 118380.628 -95225.575 118279.613 -95259.247 118212.27 -95326.59 118144.926 -95461.277 118144.926 -96269.399 117707.193 -95831.667 M 118077.583 -94922.529 118077.583 -94855.186 118043.911 -94754.171 117875.552 -94585.812 117774.537 -94552.14 117707.193 -94552.14 117606.178 -94585.812 117538.835 -94653.155 117471.491 -94787.842 117471.491 -95595.964 117033.758 -95158.232 M 117303.132 -94013.392 117235.789 -93946.049 117134.774 -93912.377 117067.43 -93912.377 116966.415 -93946.049 116798.056 -94047.064 116629.697 -94215.423 116528.682 -94383.781 116495.01 -94484.797 116495.01 -94552.14 116528.682 -94653.155 116596.026 -94720.499 116697.041 -94754.171 116764.384 -94754.171 116865.4 -94720.499 117033.758 -94619.484 117202.117 -94451.125 117303.132 -94282.766 117336.804 -94181.751 117336.804 -94114.407 117303.132 -94013.392 M 115872.857 -127732.38 116206.19 -127256.19 M 116444.285 -127732.38 116444.285 -126732.38 116063.333 -126732.38 115968.095 -126780 115920.476 -126827.619 115872.857 -126922.857 115872.857 -127065.714 115920.476 -127160.952 115968.095 -127208.571 116063.333 -127256.19 116444.285 -127256.19 M 114920.476 -127732.38 115491.904 -127732.38 M 115206.19 -127732.38 115206.19 -126732.38 115301.428 -126875.238 115396.666 -126970.476 115491.904 -127018.095 M 114444.285 -127732.38 114253.809 -127732.38 114158.571 -127684.761 114110.952 -127637.142 114015.714 -127494.285 113968.095 -127303.809 113968.095 -126922.857 114015.714 -126827.619 114063.333 -126780 114158.571 -126732.38 114349.047 -126732.38 114444.285 -126780 114491.904 -126827.619 114539.523 -126922.857 114539.523 -127160.952 114491.904 -127256.19 114444.285 -127303.809 114349.047 -127351.428 114158.571 -127351.428 114063.333 -127303.809 114015.714 -127256.19 113968.095 -127160.952 M 112852.38 -128985.714 112852.38 -128414.285 M 112852.38 -128700 111852.38 -128700 111995.238 -128604.761 112090.476 -128509.523 112138.095 -128414.285 M 112852.38 -129414.285 111852.38 -129414.285 M 112852.38 -129985.714 112280.952 -129557.142 M 111852.38 -129985.714 112423.809 -129414.285 M 128512.857 -72572.38 128846.19 -72096.19 M 129084.285 -72572.38 129084.285 -71572.38 128703.333 -71572.38 128608.095 -71620 128560.476 -71667.619 128512.857 -71762.857 128512.857 -71905.714 128560.476 -72000.952 128608.095 -72048.571 128703.333 -72096.19 129084.285 -72096.19 M 128131.904 -71667.619 128084.285 -71620 127989.047 -71572.38 127750.952 -71572.38 127655.714 -71620 127608.095 -71667.619 127560.476 -71762.857 127560.476 -71858.095 127608.095 -72000.952 128179.523 -72572.38 127560.476 -72572.38 M 126941.428 -71572.38 126846.19 -71572.38 126750.952 -71620 126703.333 -71667.619 126655.714 -71762.857 126608.095 -71953.333 126608.095 -72191.428 126655.714 -72381.904 126703.333 -72477.142 126750.952 -72524.761 126846.19 -72572.38 126941.428 -72572.38 127036.666 -72524.761 127084.285 -72477.142 127131.904 -72381.904 127179.523 -72191.428 127179.523 -71953.333 127131.904 -71762.857 127084.285 -71667.619 127036.666 -71620 126941.428 -71572.38 M 128084.285 -68732.38 128655.714 -68732.38 M 128370 -68732.38 128370 -67732.38 128465.238 -67875.238 128560.476 -67970.476 128655.714 -68018.095 M 127655.714 -68732.38 127655.714 -67732.38 M 127084.285 -68732.38 127512.857 -68160.952 M 127084.285 -67732.38 127655.714 -68303.809 M 122672.857 -89632.38 123006.19 -89156.19 M 123244.285 -89632.38 123244.285 -88632.38 122863.333 -88632.38 122768.095 -88680 122720.476 -88727.619 122672.857 -88822.857 122672.857 -88965.714 122720.476 -89060.952 122768.095 -89108.571 122863.333 -89156.19 123244.285 -89156.19 M 122291.904 -88727.619 122244.285 -88680 122149.047 -88632.38 121910.952 -88632.38 121815.714 -88680 121768.095 -88727.619 121720.476 -88822.857 121720.476 -88918.095 121768.095 -89060.952 122339.523 -89632.38 121720.476 -89632.38 M 120768.095 -89632.38 121339.523 -89632.38 M 121053.809 -89632.38 121053.809 -88632.38 121149.047 -88775.238 121244.285 -88870.476 121339.523 -88918.095 M 122720.476 -93472.38 123291.904 -93472.38 M 123006.19 -93472.38 123006.19 -92472.38 123101.428 -92615.238 123196.666 -92710.476 123291.904 -92758.095 M 122101.428 -92472.38 122006.19 -92472.38 121910.952 -92520 121863.333 -92567.619 121815.714 -92662.857 121768.095 -92853.333 121768.095 -93091.428 121815.714 -93281.904 121863.333 -93377.142 121910.952 -93424.761 122006.19 -93472.38 122101.428 -93472.38 122196.666 -93424.761 122244.285 -93377.142 122291.904 -93281.904 122339.523 -93091.428 122339.523 -92853.333 122291.904 -92662.857 122244.285 -92567.619 122196.666 -92520 122101.428 -92472.38 M 121339.523 -93472.38 121339.523 -92472.38 M 120768.095 -93472.38 121196.666 -92900.952 M 120768.095 -92472.38 121339.523 -93043.809 M 120716.354 -134137.07 120668.735 -134041.832 120573.496 -133946.594 120430.639 -133803.737 120383.02 -133708.499 120383.02 -133613.261 M 120621.115 -133660.88 120573.496 -133565.642 120478.258 -133470.404 120287.782 -133422.785 119954.449 -133422.785 119763.973 -133470.404 119668.735 -133565.642 119621.115 -133660.88 119621.115 -133851.356 119668.735 -133946.594 119763.973 -134041.832 119954.449 -134089.451 120287.782 -134089.451 120478.258 -134041.832 120573.496 -133946.594 120621.115 -133851.356 120621.115 -133660.88 M 120621.115 -135041.832 120621.115 -134470.404 M 120621.115 -134756.118 119621.115 -134756.118 119763.973 -134660.88 119859.211 -134565.642 119906.83 -134470.404 M 113271.115 -133518.023 113271.115 -133041.832 113747.306 -132994.213 113699.687 -133041.832 113652.068 -133137.07 113652.068 -133375.166 113699.687 -133470.404 113747.306 -133518.023 113842.544 -133565.642 114080.639 -133565.642 114175.877 -133518.023 114223.496 -133470.404 114271.115 -133375.166 114271.115 -133137.07 114223.496 -133041.832 114175.877 -132994.213 M 113604.449 -134422.785 114271.115 -134422.785 M 113223.496 -134184.689 113937.782 -133946.594 113937.782 -134565.642 M 113271.115 -134851.356 113271.115 -135518.023 114271.115 -135089.451 M 92816.357 -134237.071 92768.738 -134141.833 92673.499 -134046.595 92530.642 -133903.738 92483.023 -133808.5 92483.023 -133713.262 M 92721.118 -133760.881 92673.499 -133665.643 92578.261 -133570.405 92387.785 -133522.786 92054.452 -133522.786 91863.976 -133570.405 91768.738 -133665.643 91721.118 -133760.881 91721.118 -133951.357 91768.738 -134046.595 91863.976 -134141.833 92054.452 -134189.452 92387.785 -134189.452 92578.261 -134141.833 92673.499 -134046.595 92721.118 -133951.357 92721.118 -133760.881 M 91816.357 -134570.405 91768.738 -134618.024 91721.118 -134713.262 91721.118 -134951.357 91768.738 -135046.595 91816.357 -135094.214 91911.595 -135141.833 92006.833 -135141.833 92149.69 -135094.214 92721.118 -134522.786 92721.118 -135141.833 M 85371.118 -133618.024 85371.118 -133141.833 85847.309 -133094.214 85799.69 -133141.833 85752.071 -133237.071 85752.071 -133475.167 85799.69 -133570.405 85847.309 -133618.024 85942.547 -133665.643 86180.642 -133665.643 86275.88 -133618.024 86323.499 -133570.405 86371.118 -133475.167 86371.118 -133237.071 86323.499 -133141.833 86275.88 -133094.214 M 85704.452 -134522.786 86371.118 -134522.786 M 85323.499 -134284.69 86037.785 -134046.595 86037.785 -134665.643 M 85371.118 -134951.357 85371.118 -135618.024 86371.118 -135189.452 M 98335.238 -131979.929 98430.476 -131932.31 98525.714 -131837.071 98668.571 -131694.214 98763.809 -131646.595 98859.047 -131646.595 M 98811.428 -131884.69 98906.666 -131837.071 99001.904 -131741.833 99049.523 -131551.357 99049.523 -131218.024 99001.904 -131027.548 98906.666 -130932.31 98811.428 -130884.69 98620.952 -130884.69 98525.714 -130932.31 98430.476 -131027.548 98382.857 -131218.024 98382.857 -131551.357 98430.476 -131741.833 98525.714 -131837.071 98620.952 -131884.69 98811.428 -131884.69 M 98049.523 -130884.69 97430.476 -130884.69 97763.809 -131265.643 97620.952 -131265.643 97525.714 -131313.262 97478.095 -131360.881 97430.476 -131456.119 97430.476 -131694.214 97478.095 -131789.452 97525.714 -131837.071 97620.952 -131884.69 97906.666 -131884.69 98001.904 -131837.071 98049.523 -131789.452 M 98954.285 -124534.69 99430.476 -124534.69 99478.095 -125010.881 99430.476 -124963.262 99335.238 -124915.643 99097.142 -124915.643 99001.904 -124963.262 98954.285 -125010.881 98906.666 -125106.119 98906.666 -125344.214 98954.285 -125439.452 99001.904 -125487.071 99097.142 -125534.69 99335.238 -125534.69 99430.476 -125487.071 99478.095 -125439.452 M 98049.523 -124868.024 98049.523 -125534.69 M 98287.619 -124487.071 98525.714 -125201.357 97906.666 -125201.357 M 97620.952 -124534.69 96954.285 -124534.69 97382.857 -125534.69" fill="none" stroke-width="150"/></g></svg>