<svg version="1.1" xmlns="http://www.w3.org/2000/svg" xmlns:xlink="http://www.w3.org/1999/xlink" stroke-linecap="round" stroke-linejoin="round" stroke-width="0" fill-rule="evenodd" width="3.7756in" height="2.74495in" viewBox="2511.85 -5404.45 3775.6 2744.95" id="BC4w0pVvjCe30zBpnAwo"><defs><circle cx="0" cy="0" r="11.8" id="BC4w0pVvjCe30zBpnAwo_pad-1"/><circle cx="0" cy="0" r="13.8" id="BC4w0pVvjCe30zBpnAwo_pad-2"/><circle cx="0" cy="0" r="15.75" id="BC4w0pVvjCe30zBpnAwo_pad-3"/><circle cx="0" cy="0" r="15.75" id="BC4w0pVvjCe30zBpnAwo_pad-4"/><circle cx="0" cy="0" r="17.7" id="BC4w0pVvjCe30zBpnAwo_pad-5"/><circle cx="0" cy="0" r="19.7" id="BC4w0pVvjCe30zBpnAwo_pad-6"/><circle cx="0" cy="0" r="25.6" id="BC4w0pVvjCe30zBpnAwo_pad-7"/><circle cx="0" cy="0" r="29.9" id="BC4w0pVvjCe30zBpnAwo_pad-9"/></defs><g transform="translate(0,-8063.95) scale(1,-1)" fill="currentColor" stroke="currentColor"><use xlink:href="#BC4w0pVvjCe30zBpnAwo_pad-1" x="2980.3" y="-4748"/><use xlink:href="#BC4w0pVvjCe30zBpnAwo_pad-1" x="3059.1" y="-4748"/><use xlink:href="#BC4w0pVvjCe30zBpnAwo_pad-1" x="5311" y="-2779.5"/><use xlink:href="#BC4w0pVvjCe30zBpnAwo_pad-1" x="5311" y="-2858.3"/><use xlink:href="#BC4w0pVvjCe30zBpnAwo_pad-2" x="4346.5" y="-3692.9"/><use xlink:href="#BC4w0pVvjCe30zBpnAwo_pad-2" x="4417.2" y="-3763.6"/><use xlink:href="#BC4w0pVvjCe30zBpnAwo_pad-2" x="4142.1" y="-5034.3"/><use xlink:href="#BC4w0pVvjCe30zBpnAwo_pad-2" x="4242.1" y="-5034.3"/><use xlink:href="#BC4w0pVvjCe30zBpnAwo_pad-2" x="3220.5" y="-4614.2"/><use xlink:href="#BC4w0pVvjCe30zBpnAwo_pad-2" x="3520.5" y="-4614.2"/><use xlink:href="#BC4w0pVvjCe30zBpnAwo_pad-2" x="3224.4" y="-4437"/><use xlink:href="#BC4w0pVvjCe30zBpnAwo_pad-2" x="3524.4" y="-4437"/><use xlink:href="#BC4w0pVvjCe30zBpnAwo_pad-2" x="4754.3" y="-3586.6"/><use xlink:href="#BC4w0pVvjCe30zBpnAwo_pad-2" x="4854.3" y="-3586.6"/><use xlink:href="#BC4w0pVvjCe30zBpnAwo_pad-2" x="5967.4" y="-3427.2"/><use xlink:href="#BC4w0pVvjCe30zBpnAwo_pad-2" x="5967.4" y="-3527.2"/><use xlink:href="#BC4w0pVvjCe30zBpnAwo_pad-2" x="3110.2" y="-4350.4"/><use xlink:href="#BC4w0pVvjCe30zBpnAwo_pad-2" x="3410.2" y="-4350.4"/><use xlink:href="#BC4w0pVvjCe30zBpnAwo_pad-2" x="2685" y="-4799.2"/><use xlink:href="#BC4w0pVvjCe30zBpnAwo_pad-2" x="2785" y="-4799.2"/><use xlink:href="#BC4w0pVvjCe30zBpnAwo_pad-2" x="4153.5" y="-3626"/><use xlink:href="#BC4w0pVvjCe30zBpnAwo_pad-2" x="4224.3" y="-3696.7"/><use xlink:href="#BC4w0pVvjCe30zBpnAwo_pad-2" x="4984.3" y="-2763.8"/><use xlink:href="#BC4w0pVvjCe30zBpnAwo_pad-2" x="5084.3" y="-2763.8"/><use xlink:href="#BC4w0pVvjCe30zBpnAwo_pad-2" x="3507.9" y="-3641.7"/><use xlink:href="#BC4w0pVvjCe30zBpnAwo_pad-2" x="3507.9" y="-3741.7"/><use xlink:href="#BC4w0pVvjCe30zBpnAwo_pad-2" x="2657.5" y="-3844.9"/><use xlink:href="#BC4w0pVvjCe30zBpnAwo_pad-2" x="2657.5" y="-3944.9"/><use xlink:href="#BC4w0pVvjCe30zBpnAwo_pad-2" x="3342.5" y="-3641.7"/><use xlink:href="#BC4w0pVvjCe30zBpnAwo_pad-2" x="3342.5" y="-3741.7"/><use xlink:href="#BC4w0pVvjCe30zBpnAwo_pad-2" x="3669.3" y="-3641.7"/><use xlink:href="#BC4w0pVvjCe30zBpnAwo_pad-2" x="3669.3" y="-3741.7"/><use xlink:href="#BC4w0pVvjCe30zBpnAwo_pad-2" x="2655.9" y="-3689"/><use xlink:href="#BC4w0pVvjCe30zBpnAwo_pad-2" x="2755.9" y="-3689"/><use xlink:href="#BC4w0pVvjCe30zBpnAwo_pad-2" x="4486.6" y="-5086.6"/><use xlink:href="#BC4w0pVvjCe30zBpnAwo_pad-2" x="4586.6" y="-5086.6"/><use xlink:href="#BC4w0pVvjCe30zBpnAwo_pad-2" x="4539.4" y="-3759.8"/><use xlink:href="#BC4w0pVvjCe30zBpnAwo_pad-2" x="4610.1" y="-3830.6"/><use xlink:href="#BC4w0pVvjCe30zBpnAwo_pad-2" x="3110.2" y="-4527.6"/><use xlink:href="#BC4w0pVvjCe30zBpnAwo_pad-2" x="3410.2" y="-4527.6"/><use xlink:href="#BC4w0pVvjCe30zBpnAwo_pad-2" x="3834.6" y="-3641.7"/><use xlink:href="#BC4w0pVvjCe30zBpnAwo_pad-2" x="3834.6" y="-3741.7"/><use xlink:href="#BC4w0pVvjCe30zBpnAwo_pad-2" x="2833.1" y="-4409.4"/><use xlink:href="#BC4w0pVvjCe30zBpnAwo_pad-2" x="2933.1" y="-4409.4"/><use xlink:href="#BC4w0pVvjCe30zBpnAwo_pad-2" x="3417.3" y="-5015.7"/><use xlink:href="#BC4w0pVvjCe30zBpnAwo_pad-2" x="3417.3" y="-5115.7"/><use xlink:href="#BC4w0pVvjCe30zBpnAwo_pad-3" x="3334.6" y="-3912.6"/><use xlink:href="#BC4w0pVvjCe30zBpnAwo_pad-3" x="3334.6" y="-4212.6"/><use xlink:href="#BC4w0pVvjCe30zBpnAwo_pad-3" x="3434.6" y="-3912.6"/><use xlink:href="#BC4w0pVvjCe30zBpnAwo_pad-3" x="3434.6" y="-4212.6"/><use xlink:href="#BC4w0pVvjCe30zBpnAwo_pad-3" x="3534.6" y="-3912.6"/><use xlink:href="#BC4w0pVvjCe30zBpnAwo_pad-3" x="3534.6" y="-4212.6"/><use xlink:href="#BC4w0pVvjCe30zBpnAwo_pad-3" x="3634.6" y="-3912.6"/><use xlink:href="#BC4w0pVvjCe30zBpnAwo_pad-3" x="3634.6" y="-4212.6"/><use xlink:href="#BC4w0pVvjCe30zBpnAwo_pad-3" x="3734.6" y="-3912.6"/><use xlink:href="#BC4w0pVvjCe30zBpnAwo_pad-3" x="3734.6" y="-4212.6"/><use xlink:href="#BC4w0pVvjCe30zBpnAwo_pad-3" x="3834.6" y="-3912.6"/><use xlink:href="#BC4w0pVvjCe30zBpnAwo_pad-3" x="3834.6" y="-4212.6"/><use xlink:href="#BC4w0pVvjCe30zBpnAwo_pad-3" x="3934.6" y="-3912.6"/><use xlink:href="#BC4w0pVvjCe30zBpnAwo_pad-3" x="3934.6" y="-4212.6"/><use xlink:href="#BC4w0pVvjCe30zBpnAwo_pad-3" x="3492.5" y="-5188.7"/><use xlink:href="#BC4w0pVvjCe30zBpnAwo_pad-3" x="3492.5" y="-5288.7"/><use xlink:href="#BC4w0pVvjCe30zBpnAwo_pad-3" x="3492.5" y="-5388.7"/><use xlink:href="#BC4w0pVvjCe30zBpnAwo_pad-3" x="5971.4" y="-3098.1"/><use xlink:href="#BC4w0pVvjCe30zBpnAwo_pad-3" x="5971.4" y="-3198.1"/><use xlink:href="#BC4w0pVvjCe30zBpnAwo_pad-3" x="6271.4" y="-3098.1"/><use xlink:href="#BC4w0pVvjCe30zBpnAwo_pad-3" x="6271.4" y="-3198.1"/><use xlink:href="#BC4w0pVvjCe30zBpnAwo_pad-3" x="5671.7" y="-4661.4"/><use xlink:href="#BC4w0pVvjCe30zBpnAwo_pad-3" x="5671.7" y="-4961.4"/><use xlink:href="#BC4w0pVvjCe30zBpnAwo_pad-3" x="5771.7" y="-4661.4"/><use xlink:href="#BC4w0pVvjCe30zBpnAwo_pad-3" x="5771.7" y="-4961.4"/><use xlink:href="#BC4w0pVvjCe30zBpnAwo_pad-3" x="5871.7" y="-4661.4"/><use xlink:href="#BC4w0pVvjCe30zBpnAwo_pad-3" x="5871.7" y="-4961.4"/><use xlink:href="#BC4w0pVvjCe30zBpnAwo_pad-3" x="5971.7" y="-4661.4"/><use xlink:href="#BC4w0pVvjCe30zBpnAwo_pad-3" x="5971.7" y="-4961.4"/><use xlink:href="#BC4w0pVvjCe30zBpnAwo_pad-3" x="6071.7" y="-4661.4"/><use xlink:href="#BC4w0pVvjCe30zBpnAwo_pad-3" x="6071.7" y="-4961.4"/><use xlink:href="#BC4w0pVvjCe30zBpnAwo_pad-3" x="6171.7" y="-4661.4"/><use xlink:href="#BC4w0pVvjCe30zBpnAwo_pad-3" x="6171.7" y="-4961.4"/><use xlink:href="#BC4w0pVvjCe30zBpnAwo_pad-3" x="6271.7" y="-4661.4"/><use xlink:href="#BC4w0pVvjCe30zBpnAwo_pad-3" x="6271.7" y="-4961.4"/><use xlink:href="#BC4w0pVvjCe30zBpnAwo_pad-3" x="2877.6" y="-3851.5"/><use xlink:href="#BC4w0pVvjCe30zBpnAwo_pad-3" x="2877.6" y="-3951.5"/><use xlink:href="#BC4w0pVvjCe30zBpnAwo_pad-3" x="2877.6" y="-4051.5"/><use xlink:href="#BC4w0pVvjCe30zBpnAwo_pad-3" x="3767.7" y="-5034.3"/><use xlink:href="#BC4w0pVvjCe30zBpnAwo_pad-3" x="3867.7" y="-5034.3"/><use xlink:href="#BC4w0pVvjCe30zBpnAwo_pad-3" x="3967.7" y="-5034.3"/><use xlink:href="#BC4w0pVvjCe30zBpnAwo_pad-3" x="2543.3" y="-4035.4"/><use xlink:href="#BC4w0pVvjCe30zBpnAwo_pad-3" x="2543.3" y="-4135.4"/><use xlink:href="#BC4w0pVvjCe30zBpnAwo_pad-3" x="2543.3" y="-4235.4"/><use xlink:href="#BC4w0pVvjCe30zBpnAwo_pad-3" x="2792.1" y="-4208.7"/><use xlink:href="#BC4w0pVvjCe30zBpnAwo_pad-3" x="2892.1" y="-4208.7"/><use xlink:href="#BC4w0pVvjCe30zBpnAwo_pad-3" x="2992.1" y="-4208.7"/><use xlink:href="#BC4w0pVvjCe30zBpnAwo_pad-3" x="4590.9" y="-5184.7"/><use xlink:href="#BC4w0pVvjCe30zBpnAwo_pad-3" x="4590.9" y="-5284.7"/><use xlink:href="#BC4w0pVvjCe30zBpnAwo_pad-3" x="4590.9" y="-5384.7"/><use xlink:href="#BC4w0pVvjCe30zBpnAwo_pad-4" x="2527.6" y="-3894.8"/><use xlink:href="#BC4w0pVvjCe30zBpnAwo_pad-5" x="3358.3" y="-2677.2"/><use xlink:href="#BC4w0pVvjCe30zBpnAwo_pad-5" x="3458.3" y="-2677.2"/><use xlink:href="#BC4w0pVvjCe30zBpnAwo_pad-5" x="5172.8" y="-4967.4"/><use xlink:href="#BC4w0pVvjCe30zBpnAwo_pad-5" x="5472.8" y="-4967.4"/><use xlink:href="#BC4w0pVvjCe30zBpnAwo_pad-5" x="4854.3" y="-3837"/><use xlink:href="#BC4w0pVvjCe30zBpnAwo_pad-5" x="4854.3" y="-4437"/><use xlink:href="#BC4w0pVvjCe30zBpnAwo_pad-5" x="4954.3" y="-3837"/><use xlink:href="#BC4w0pVvjCe30zBpnAwo_pad-5" x="4954.3" y="-4437"/><use xlink:href="#BC4w0pVvjCe30zBpnAwo_pad-5" x="5054.3" y="-3837"/><use xlink:href="#BC4w0pVvjCe30zBpnAwo_pad-5" x="5054.3" y="-4437"/><use xlink:href="#BC4w0pVvjCe30zBpnAwo_pad-5" x="5154.3" y="-3837"/><use xlink:href="#BC4w0pVvjCe30zBpnAwo_pad-5" x="5154.3" y="-4437"/><use xlink:href="#BC4w0pVvjCe30zBpnAwo_pad-5" x="5254.3" y="-3837"/><use xlink:href="#BC4w0pVvjCe30zBpnAwo_pad-5" x="5254.3" y="-4437"/><use xlink:href="#BC4w0pVvjCe30zBpnAwo_pad-5" x="5354.3" y="-3837"/><use xlink:href="#BC4w0pVvjCe30zBpnAwo_pad-5" x="5354.3" y="-4437"/><use xlink:href="#BC4w0pVvjCe30zBpnAwo_pad-5" x="5454.3" y="-3837"/><use xlink:href="#BC4w0pVvjCe30zBpnAwo_pad-5" x="5454.3" y="-4437"/><use xlink:href="#BC4w0pVvjCe30zBpnAwo_pad-5" x="5554.3" y="-3837"/><use xlink:href="#BC4w0pVvjCe30zBpnAwo_pad-5" x="5554.3" y="-4437"/><use xlink:href="#BC4w0pVvjCe30zBpnAwo_pad-5" x="5654.3" y="-3837"/><use xlink:href="#BC4w0pVvjCe30zBpnAwo_pad-5" x="5654.3" y="-4437"/><use xlink:href="#BC4w0pVvjCe30zBpnAwo_pad-5" x="5754.3" y="-3837"/><use xlink:href="#BC4w0pVvjCe30zBpnAwo_pad-5" x="5754.3" y="-4437"/><use xlink:href="#BC4w0pVvjCe30zBpnAwo_pad-5" x="5854.3" y="-3837"/><use xlink:href="#BC4w0pVvjCe30zBpnAwo_pad-5" x="5854.3" y="-4437"/><use xlink:href="#BC4w0pVvjCe30zBpnAwo_pad-5" x="5954.3" y="-3837"/><use xlink:href="#BC4w0pVvjCe30zBpnAwo_pad-5" x="5954.3" y="-4437"/><use xlink:href="#BC4w0pVvjCe30zBpnAwo_pad-5" x="6054.3" y="-3837"/><use xlink:href="#BC4w0pVvjCe30zBpnAwo_pad-5" x="6054.3" y="-4437"/><use xlink:href="#BC4w0pVvjCe30zBpnAwo_pad-5" x="6154.3" y="-3837"/><use xlink:href="#BC4w0pVvjCe30zBpnAwo_pad-5" x="6154.3" y="-4437"/><use xlink:href="#BC4w0pVvjCe30zBpnAwo_pad-5" x="6254.3" y="-3837"/><use xlink:href="#BC4w0pVvjCe30zBpnAwo_pad-5" x="6254.3" y="-4437"/><use xlink:href="#BC4w0pVvjCe30zBpnAwo_pad-5" x="3919.7" y="-2677.2"/><use xlink:href="#BC4w0pVvjCe30zBpnAwo_pad-5" x="4019.7" y="-2677.2"/><use xlink:href="#BC4w0pVvjCe30zBpnAwo_pad-5" x="2570.4" y="-4971.4"/><use xlink:href="#BC4w0pVvjCe30zBpnAwo_pad-5" x="2870.4" y="-4971.4"/><use xlink:href="#BC4w0pVvjCe30zBpnAwo_pad-5" x="3748" y="-2677.2"/><use xlink:href="#BC4w0pVvjCe30zBpnAwo_pad-5" x="3848" y="-2677.2"/><use xlink:href="#BC4w0pVvjCe30zBpnAwo_pad-5" x="3140.2" y="-2677.2"/><use xlink:href="#BC4w0pVvjCe30zBpnAwo_pad-5" x="3240.2" y="-2677.2"/><use xlink:href="#BC4w0pVvjCe30zBpnAwo_pad-5" x="2968.5" y="-2677.2"/><use xlink:href="#BC4w0pVvjCe30zBpnAwo_pad-5" x="3068.5" y="-2677.2"/><use xlink:href="#BC4w0pVvjCe30zBpnAwo_pad-5" x="2594.5" y="-4349.6"/><use xlink:href="#BC4w0pVvjCe30zBpnAwo_pad-5" x="2594.5" y="-4649.6"/><use xlink:href="#BC4w0pVvjCe30zBpnAwo_pad-5" x="3529.9" y="-2677.2"/><use xlink:href="#BC4w0pVvjCe30zBpnAwo_pad-5" x="3629.9" y="-2677.2"/><use xlink:href="#BC4w0pVvjCe30zBpnAwo_pad-6" x="5138.1" y="-5333.6"/><use xlink:href="#BC4w0pVvjCe30zBpnAwo_pad-6" x="5531.8" y="-5333.6"/><use xlink:href="#BC4w0pVvjCe30zBpnAwo_pad-6" x="3246.9" y="-2868.2"/><use xlink:href="#BC4w0pVvjCe30zBpnAwo_pad-6" x="3246.9" y="-3468.2"/><use xlink:href="#BC4w0pVvjCe30zBpnAwo_pad-6" x="3346.9" y="-2868.2"/><use xlink:href="#BC4w0pVvjCe30zBpnAwo_pad-6" x="3346.9" y="-3468.2"/><use xlink:href="#BC4w0pVvjCe30zBpnAwo_pad-6" x="3446.9" y="-2868.2"/><use xlink:href="#BC4w0pVvjCe30zBpnAwo_pad-6" x="3446.9" y="-3468.2"/><use xlink:href="#BC4w0pVvjCe30zBpnAwo_pad-6" x="3546.9" y="-2868.2"/><use xlink:href="#BC4w0pVvjCe30zBpnAwo_pad-6" x="3546.9" y="-3468.2"/><use xlink:href="#BC4w0pVvjCe30zBpnAwo_pad-6" x="3646.9" y="-2868.2"/><use xlink:href="#BC4w0pVvjCe30zBpnAwo_pad-6" x="3646.9" y="-3468.2"/><use xlink:href="#BC4w0pVvjCe30zBpnAwo_pad-6" x="3746.9" y="-2868.2"/><use xlink:href="#BC4w0pVvjCe30zBpnAwo_pad-6" x="3746.9" y="-3468.2"/><use xlink:href="#BC4w0pVvjCe30zBpnAwo_pad-6" x="5350.5" y="-3546.9"/><use xlink:href="#BC4w0pVvjCe30zBpnAwo_pad-6" x="5498.9" y="-3546.9"/><use xlink:href="#BC4w0pVvjCe30zBpnAwo_pad-6" x="5650.5" y="-3546.9"/><use xlink:href="#BC4w0pVvjCe30zBpnAwo_pad-6" x="2539.7" y="-5333.6"/><use xlink:href="#BC4w0pVvjCe30zBpnAwo_pad-6" x="2933.4" y="-5333.6"/><use xlink:href="#BC4w0pVvjCe30zBpnAwo_pad-7" x="4779.5" y="-2929.1"/><use xlink:href="#BC4w0pVvjCe30zBpnAwo_pad-7" x="4779.5" y="-3421.3"/><use xlink:href="#BC4w0pVvjCe30zBpnAwo_pad-7" x="4976.4" y="-2929.1"/><use xlink:href="#BC4w0pVvjCe30zBpnAwo_pad-7" x="4976.4" y="-3421.3"/><use xlink:href="#BC4w0pVvjCe30zBpnAwo_pad-9" x="3744.4" y="-5349.3"/><use xlink:href="#BC4w0pVvjCe30zBpnAwo_pad-9" x="3944.4" y="-5349.3"/><use xlink:href="#BC4w0pVvjCe30zBpnAwo_pad-9" x="4165.7" y="-5349.3"/><use xlink:href="#BC4w0pVvjCe30zBpnAwo_pad-9" x="4365.7" y="-5349.3"/><path d="M 5272.5 -3192.6 5272.5 -3113.8 M 5725.3 -3192.6 5725.3 -3113.8" fill="none" stroke-width="59.1"/></g></svg>