<svg version="1.1" xmlns="http://www.w3.org/2000/svg" xmlns:xlink="http://www.w3.org/1999/xlink" stroke-linecap="round" stroke-linejoin="round" stroke-width="0" fill-rule="evenodd" width="97.74949000000001mm" height="72.467387mm" viewBox="63200.51 -139567.387 97749.49 72467.387" id="WmRcARX8F-zxOstGqIqH"><defs><rect x="-800" y="-800" width="1600" height="1600" id="WmRcARX8F-zxOstGqIqH_pad-10"/><rect x="-800" y="-800" width="1600" height="1600" rx="800" ry="800" id="WmRcARX8F-zxOstGqIqH_pad-11"/><circle cx="0" cy="0" r="1000" id="WmRcARX8F-zxOstGqIqH_pad-13"/><rect x="-900" y="-900" width="1800" height="1800" id="WmRcARX8F-zxOstGqIqH_pad-14"/><circle cx="0" cy="0" r="900" id="WmRcARX8F-zxOstGqIqH_pad-15"/><circle cx="0" cy="0" r="750" id="WmRcARX8F-zxOstGqIqH_pad-16"/><rect x="-750" y="-750" width="1500" height="1500" id="WmRcARX8F-zxOstGqIqH_pad-17"/><rect x="-925" y="-1524" width="1850" height="3048" rx="925" ry="925" id="WmRcARX8F-zxOstGqIqH_pad-18"/><circle cx="0" cy="0" r="999.49" id="WmRcARX8F-zxOstGqIqH_pad-19"/><rect x="-900" y="-900" width="1800" height="1800" rx="900" ry="900" id="WmRcARX8F-zxOstGqIqH_pad-20"/><rect x="-700" y="-700" width="1400" height="1400" rx="700" ry="700" id="WmRcARX8F-zxOstGqIqH_pad-21"/><circle cx="0" cy="0" r="700" id="WmRcARX8F-zxOstGqIqH_pad-22"/><circle cx="0" cy="0" r="600" id="WmRcARX8F-zxOstGqIqH_pad-23"/><rect x="-600" y="-600" width="1200" height="1200" id="WmRcARX8F-zxOstGqIqH_pad-24"/><circle cx="0" cy="0" r="1500" id="WmRcARX8F-zxOstGqIqH_pad-25"/><rect x="-1500" y="-1500" width="3000" height="3000" id="WmRcARX8F-zxOstGqIqH_pad-26"/><rect x="-800" y="-1200" width="1600" height="2400" rx="800" ry="800" id="WmRcARX8F-zxOstGqIqH_pad-28"/><circle cx="0" cy="0" r="400" id="WmRcARX8F-zxOstGqIqH_pad-29"/><rect x="-800" y="-1200" width="1600" height="2400" id="WmRcARX8F-zxOstGqIqH_pad-30"/></defs><g transform="translate(0,-206667.387) scale(1,-1)" fill="currentColor" stroke="currentColor"><use xlink:href="#WmRcARX8F-zxOstGqIqH_pad-10" x="123300" y="-112700"/><use xlink:href="#WmRcARX8F-zxOstGqIqH_pad-11" x="156320" y="-97460"/><use xlink:href="#WmRcARX8F-zxOstGqIqH_pad-11" x="125840" y="-112700"/><use xlink:href="#WmRcARX8F-zxOstGqIqH_pad-11" x="153780" y="-97460"/><use xlink:href="#WmRcARX8F-zxOstGqIqH_pad-11" x="128380" y="-112700"/><use xlink:href="#WmRcARX8F-zxOstGqIqH_pad-11" x="151240" y="-97460"/><use xlink:href="#WmRcARX8F-zxOstGqIqH_pad-11" x="130920" y="-112700"/><use xlink:href="#WmRcARX8F-zxOstGqIqH_pad-11" x="148700" y="-97460"/><use xlink:href="#WmRcARX8F-zxOstGqIqH_pad-11" x="133460" y="-112700"/><use xlink:href="#WmRcARX8F-zxOstGqIqH_pad-11" x="146160" y="-97460"/><use xlink:href="#WmRcARX8F-zxOstGqIqH_pad-11" x="136000" y="-112700"/><use xlink:href="#WmRcARX8F-zxOstGqIqH_pad-11" x="143620" y="-97460"/><use xlink:href="#WmRcARX8F-zxOstGqIqH_pad-11" x="138540" y="-112700"/><use xlink:href="#WmRcARX8F-zxOstGqIqH_pad-11" x="141080" y="-97460"/><use xlink:href="#WmRcARX8F-zxOstGqIqH_pad-11" x="141080" y="-112700"/><use xlink:href="#WmRcARX8F-zxOstGqIqH_pad-11" x="138540" y="-97460"/><use xlink:href="#WmRcARX8F-zxOstGqIqH_pad-11" x="143620" y="-112700"/><use xlink:href="#WmRcARX8F-zxOstGqIqH_pad-11" x="136000" y="-97460"/><use xlink:href="#WmRcARX8F-zxOstGqIqH_pad-11" x="146160" y="-112700"/><use xlink:href="#WmRcARX8F-zxOstGqIqH_pad-11" x="133460" y="-97460"/><use xlink:href="#WmRcARX8F-zxOstGqIqH_pad-11" x="148700" y="-112700"/><use xlink:href="#WmRcARX8F-zxOstGqIqH_pad-11" x="130920" y="-97460"/><use xlink:href="#WmRcARX8F-zxOstGqIqH_pad-11" x="151240" y="-112700"/><use xlink:href="#WmRcARX8F-zxOstGqIqH_pad-11" x="128380" y="-97460"/><use xlink:href="#WmRcARX8F-zxOstGqIqH_pad-11" x="153780" y="-112700"/><use xlink:href="#WmRcARX8F-zxOstGqIqH_pad-11" x="125840" y="-97460"/><use xlink:href="#WmRcARX8F-zxOstGqIqH_pad-11" x="156320" y="-112700"/><use xlink:href="#WmRcARX8F-zxOstGqIqH_pad-11" x="123300" y="-97460"/><use xlink:href="#WmRcARX8F-zxOstGqIqH_pad-11" x="158860" y="-112700"/><use xlink:href="#WmRcARX8F-zxOstGqIqH_pad-11" x="158860" y="-97460"/><path d="M 134471.319 -78093.671 134519.855 -78100.87 134567.452 -78112.793 134613.652 -78129.323 134658.008 -78150.302 134700.095 -78175.528 134739.507 -78204.758 134775.863 -78237.71 134808.815 -78274.066 134838.045 -78313.478 134863.271 -78355.565 134884.25 -78399.921 134900.78 -78446.121 134912.703 -78493.718 134919.902 -78542.254 134922.31 -78591.263 134922.31 -81591.263 134919.902 -81640.272 134912.703 -81688.808 134900.78 -81736.405 134884.25 -81782.605 134863.271 -81826.961 134838.045 -81869.048 134808.815 -81908.46 134775.863 -81944.816 134739.507 -81977.768 134700.095 -82006.998 134658.008 -82032.224 134613.652 -82053.203 134567.452 -82069.733 134519.855 -82081.656 134471.319 -82088.855 134422.31 -82091.263 133422.31 -82091.263 133373.301 -82088.855 133324.765 -82081.656 133277.168 -82069.733 133230.968 -82053.203 133186.612 -82032.224 133144.525 -82006.998 133105.113 -81977.768 133068.757 -81944.816 133035.805 -81908.46 133006.575 -81869.048 132981.349 -81826.961 132960.37 -81782.605 132943.84 -81736.405 132931.917 -81688.808 132924.718 -81640.272 132922.31 -81591.263 132922.31 -78591.263 132924.718 -78542.254 132931.917 -78493.718 132943.84 -78446.121 132960.37 -78399.921 132981.349 -78355.565 133006.575 -78313.478 133035.805 -78274.066 133068.757 -78237.71 133105.113 -78204.758 133144.525 -78175.528 133186.612 -78150.302 133230.968 -78129.323 133277.168 -78112.793 133324.765 -78100.87 133373.301 -78093.671 133422.31 -78091.263 134422.31 -78091.263 134471.319 -78093.671 134471.319 -78093.671"/><use xlink:href="#WmRcARX8F-zxOstGqIqH_pad-13" x="133922.31" y="-80091.263"/><use xlink:href="#WmRcARX8F-zxOstGqIqH_pad-14" x="135902.31" y="-90091.263"/><use xlink:href="#WmRcARX8F-zxOstGqIqH_pad-15" x="139672.31" y="-90091.263"/><use xlink:href="#WmRcARX8F-zxOstGqIqH_pad-15" x="143522.31" y="-90091.263"/><path d="M 145971.319 -78093.671 146019.855 -78100.87 146067.452 -78112.793 146113.652 -78129.323 146158.008 -78150.302 146200.095 -78175.528 146239.507 -78204.758 146275.863 -78237.71 146308.815 -78274.066 146338.045 -78313.478 146363.271 -78355.565 146384.25 -78399.921 146400.78 -78446.121 146412.703 -78493.718 146419.902 -78542.254 146422.31 -78591.263 146422.31 -81591.263 146419.902 -81640.272 146412.703 -81688.808 146400.78 -81736.405 146384.25 -81782.605 146363.271 -81826.961 146338.045 -81869.048 146308.815 -81908.46 146275.863 -81944.816 146239.507 -81977.768 146200.095 -82006.998 146158.008 -82032.224 146113.652 -82053.203 146067.452 -82069.733 146019.855 -82081.656 145971.319 -82088.855 145922.31 -82091.263 144922.31 -82091.263 144873.301 -82088.855 144824.765 -82081.656 144777.168 -82069.733 144730.968 -82053.203 144686.612 -82032.224 144644.525 -82006.998 144605.113 -81977.768 144568.757 -81944.816 144535.805 -81908.46 144506.575 -81869.048 144481.349 -81826.961 144460.37 -81782.605 144443.84 -81736.405 144431.917 -81688.808 144424.718 -81640.272 144422.31 -81591.263 144422.31 -78591.263 144424.718 -78542.254 144431.917 -78493.718 144443.84 -78446.121 144460.37 -78399.921 144481.349 -78355.565 144506.575 -78313.478 144535.805 -78274.066 144568.757 -78237.71 144605.113 -78204.758 144644.525 -78175.528 144686.612 -78150.302 144730.968 -78129.323 144777.168 -78112.793 144824.765 -78100.87 144873.301 -78093.671 144922.31 -78091.263 145922.31 -78091.263 145971.319 -78093.671 145971.319 -78093.671"/><use xlink:href="#WmRcARX8F-zxOstGqIqH_pad-13" x="145422.31" y="-80091.263"/><use xlink:href="#WmRcARX8F-zxOstGqIqH_pad-16" x="73460" y="-106900"/><use xlink:href="#WmRcARX8F-zxOstGqIqH_pad-16" x="70920" y="-106900"/><use xlink:href="#WmRcARX8F-zxOstGqIqH_pad-17" x="76000" y="-106900"/><use xlink:href="#WmRcARX8F-zxOstGqIqH_pad-18" x="126400" y="-86900"/><use xlink:href="#WmRcARX8F-zxOstGqIqH_pad-18" x="121400" y="-86900"/><use xlink:href="#WmRcARX8F-zxOstGqIqH_pad-18" x="126400" y="-74400"/><use xlink:href="#WmRcARX8F-zxOstGqIqH_pad-18" x="121400" y="-74400"/><use xlink:href="#WmRcARX8F-zxOstGqIqH_pad-16" x="82472.31" y="-72851.265"/><use xlink:href="#WmRcARX8F-zxOstGqIqH_pad-16" x="85012.31" y="-72851.265"/><use xlink:href="#WmRcARX8F-zxOstGqIqH_pad-16" x="87552.31" y="-72851.265"/><use xlink:href="#WmRcARX8F-zxOstGqIqH_pad-16" x="90092.31" y="-72851.265"/><use xlink:href="#WmRcARX8F-zxOstGqIqH_pad-16" x="92632.31" y="-72851.265"/><use xlink:href="#WmRcARX8F-zxOstGqIqH_pad-16" x="95172.31" y="-72851.265"/><use xlink:href="#WmRcARX8F-zxOstGqIqH_pad-16" x="95172.31" y="-88091.265"/><use xlink:href="#WmRcARX8F-zxOstGqIqH_pad-16" x="92632.31" y="-88091.265"/><use xlink:href="#WmRcARX8F-zxOstGqIqH_pad-16" x="90092.31" y="-88091.265"/><use xlink:href="#WmRcARX8F-zxOstGqIqH_pad-16" x="87552.31" y="-88091.265"/><use xlink:href="#WmRcARX8F-zxOstGqIqH_pad-16" x="85012.31" y="-88091.265"/><use xlink:href="#WmRcARX8F-zxOstGqIqH_pad-17" x="82472.31" y="-88091.265"/><use xlink:href="#WmRcARX8F-zxOstGqIqH_pad-19" x="64200" y="-98927.692"/><use xlink:href="#WmRcARX8F-zxOstGqIqH_pad-20" x="65900" y="-110480"/><use xlink:href="#WmRcARX8F-zxOstGqIqH_pad-14" x="65900" y="-118100"/><use xlink:href="#WmRcARX8F-zxOstGqIqH_pad-21" x="70740" y="-121900"/><use xlink:href="#WmRcARX8F-zxOstGqIqH_pad-22" x="68200" y="-121900"/><use xlink:href="#WmRcARX8F-zxOstGqIqH_pad-23" x="75700" y="-120600"/><use xlink:href="#WmRcARX8F-zxOstGqIqH_pad-24" x="77700" y="-120600"/><use xlink:href="#WmRcARX8F-zxOstGqIqH_pad-21" x="67500" y="-97660"/><use xlink:href="#WmRcARX8F-zxOstGqIqH_pad-22" x="67500" y="-100200"/><use xlink:href="#WmRcARX8F-zxOstGqIqH_pad-21" x="71960" y="-112000"/><use xlink:href="#WmRcARX8F-zxOstGqIqH_pad-22" x="74500" y="-112000"/><use xlink:href="#WmRcARX8F-zxOstGqIqH_pad-21" x="67460" y="-93700"/><use xlink:href="#WmRcARX8F-zxOstGqIqH_pad-22" x="70000" y="-93700"/><use xlink:href="#WmRcARX8F-zxOstGqIqH_pad-15" x="99560" y="-68000"/><use xlink:href="#WmRcARX8F-zxOstGqIqH_pad-14" x="102100" y="-68000"/><use xlink:href="#WmRcARX8F-zxOstGqIqH_pad-15" x="87840" y="-68000"/><use xlink:href="#WmRcARX8F-zxOstGqIqH_pad-14" x="85300" y="-68000"/><use xlink:href="#WmRcARX8F-zxOstGqIqH_pad-15" x="77940" y="-68000"/><use xlink:href="#WmRcARX8F-zxOstGqIqH_pad-14" x="75400" y="-68000"/><use xlink:href="#WmRcARX8F-zxOstGqIqH_pad-25" x="110888.737" y="-135872.309"/><use xlink:href="#WmRcARX8F-zxOstGqIqH_pad-26" x="105808.737" y="-135872.309"/><use xlink:href="#WmRcARX8F-zxOstGqIqH_pad-13" x="140508.736" y="-135472.31"/><use xlink:href="#WmRcARX8F-zxOstGqIqH_pad-13" x="130508.736" y="-135472.31"/><use xlink:href="#WmRcARX8F-zxOstGqIqH_pad-13" x="74508.736" y="-135472.308"/><use xlink:href="#WmRcARX8F-zxOstGqIqH_pad-13" x="64508.736" y="-135472.308"/><use xlink:href="#WmRcARX8F-zxOstGqIqH_pad-25" x="100188.736" y="-135872.308"/><use xlink:href="#WmRcARX8F-zxOstGqIqH_pad-26" x="95108.736" y="-135872.308"/><use xlink:href="#WmRcARX8F-zxOstGqIqH_pad-20" x="131388.736" y="-126172.308"/><use xlink:href="#WmRcARX8F-zxOstGqIqH_pad-14" x="139008.736" y="-126172.308"/><use xlink:href="#WmRcARX8F-zxOstGqIqH_pad-20" x="65288.736" y="-126272.31"/><use xlink:href="#WmRcARX8F-zxOstGqIqH_pad-14" x="72908.736" y="-126272.31"/><use xlink:href="#WmRcARX8F-zxOstGqIqH_pad-23" x="134900" y="-72600"/><use xlink:href="#WmRcARX8F-zxOstGqIqH_pad-24" x="134900" y="-70600"/><use xlink:href="#WmRcARX8F-zxOstGqIqH_pad-22" x="107296.051" y="-93896.051"/><path d="M 107296.051 -93896.051 107296.051 -93896.051" fill="none" stroke-width="1400"/><use xlink:href="#WmRcARX8F-zxOstGqIqH_pad-22" x="105500" y="-92100"/><use xlink:href="#WmRcARX8F-zxOstGqIqH_pad-22" x="112196.051" y="-95596.051"/><path d="M 112196.051 -95596.051 112196.051 -95596.051" fill="none" stroke-width="1400"/><use xlink:href="#WmRcARX8F-zxOstGqIqH_pad-22" x="110400" y="-93800"/><use xlink:href="#WmRcARX8F-zxOstGqIqH_pad-22" x="117096.051" y="-97296.051"/><path d="M 117096.051 -97296.051 117096.051 -97296.051" fill="none" stroke-width="1400"/><use xlink:href="#WmRcARX8F-zxOstGqIqH_pad-22" x="115300" y="-95500"/><use xlink:href="#WmRcARX8F-zxOstGqIqH_pad-21" x="97400" y="-95040"/><use xlink:href="#WmRcARX8F-zxOstGqIqH_pad-22" x="97400" y="-92500"/><use xlink:href="#WmRcARX8F-zxOstGqIqH_pad-21" x="93200" y="-95040"/><use xlink:href="#WmRcARX8F-zxOstGqIqH_pad-22" x="93200" y="-92500"/><use xlink:href="#WmRcARX8F-zxOstGqIqH_pad-21" x="89100" y="-95040"/><use xlink:href="#WmRcARX8F-zxOstGqIqH_pad-22" x="89100" y="-92500"/><use xlink:href="#WmRcARX8F-zxOstGqIqH_pad-21" x="84900" y="-95040"/><use xlink:href="#WmRcARX8F-zxOstGqIqH_pad-22" x="84900" y="-92500"/><use xlink:href="#WmRcARX8F-zxOstGqIqH_pad-21" x="151572.309" y="-87051.264"/><use xlink:href="#WmRcARX8F-zxOstGqIqH_pad-22" x="151572.309" y="-89591.264"/><use xlink:href="#WmRcARX8F-zxOstGqIqH_pad-21" x="107748.74" y="-127872.311"/><use xlink:href="#WmRcARX8F-zxOstGqIqH_pad-22" x="105208.74" y="-127872.311"/><use xlink:href="#WmRcARX8F-zxOstGqIqH_pad-21" x="86800" y="-129940"/><use xlink:href="#WmRcARX8F-zxOstGqIqH_pad-22" x="86800" y="-127400"/><use xlink:href="#WmRcARX8F-zxOstGqIqH_pad-21" x="113960" y="-129200"/><use xlink:href="#WmRcARX8F-zxOstGqIqH_pad-22" x="116500" y="-129200"/><use xlink:href="#WmRcARX8F-zxOstGqIqH_pad-21" x="129140" y="-70200"/><use xlink:href="#WmRcARX8F-zxOstGqIqH_pad-22" x="126600" y="-70200"/><use xlink:href="#WmRcARX8F-zxOstGqIqH_pad-21" x="120760" y="-91100"/><use xlink:href="#WmRcARX8F-zxOstGqIqH_pad-22" x="123300" y="-91100"/><use xlink:href="#WmRcARX8F-zxOstGqIqH_pad-11" x="159292.31" y="-78691.263"/><use xlink:href="#WmRcARX8F-zxOstGqIqH_pad-11" x="151672.31" y="-81231.263"/><use xlink:href="#WmRcARX8F-zxOstGqIqH_pad-11" x="159292.31" y="-81231.263"/><use xlink:href="#WmRcARX8F-zxOstGqIqH_pad-10" x="151672.31" y="-78691.263"/><use xlink:href="#WmRcARX8F-zxOstGqIqH_pad-15" x="79760" y="-68000"/><use xlink:href="#WmRcARX8F-zxOstGqIqH_pad-14" x="82300" y="-68000"/><use xlink:href="#WmRcARX8F-zxOstGqIqH_pad-15" x="89660" y="-68000"/><use xlink:href="#WmRcARX8F-zxOstGqIqH_pad-14" x="92200" y="-68000"/><use xlink:href="#WmRcARX8F-zxOstGqIqH_pad-15" x="97740" y="-68000"/><use xlink:href="#WmRcARX8F-zxOstGqIqH_pad-14" x="95200" y="-68000"/><use xlink:href="#WmRcARX8F-zxOstGqIqH_pad-21" x="86620" y="-110500"/><use xlink:href="#WmRcARX8F-zxOstGqIqH_pad-22" x="79000" y="-110500"/><use xlink:href="#WmRcARX8F-zxOstGqIqH_pad-21" x="89520" y="-112700"/><use xlink:href="#WmRcARX8F-zxOstGqIqH_pad-22" x="81900" y="-112700"/><use xlink:href="#WmRcARX8F-zxOstGqIqH_pad-21" x="86620" y="-115000"/><use xlink:href="#WmRcARX8F-zxOstGqIqH_pad-22" x="79000" y="-115000"/><use xlink:href="#WmRcARX8F-zxOstGqIqH_pad-21" x="89420" y="-117200"/><use xlink:href="#WmRcARX8F-zxOstGqIqH_pad-22" x="81800" y="-117200"/><use xlink:href="#WmRcARX8F-zxOstGqIqH_pad-28" x="159300" y="-126020"/><use xlink:href="#WmRcARX8F-zxOstGqIqH_pad-28" x="144060" y="-118400"/><use xlink:href="#WmRcARX8F-zxOstGqIqH_pad-29" x="156760" y="-126020"/><use xlink:href="#WmRcARX8F-zxOstGqIqH_pad-29" x="146600" y="-118400"/><use xlink:href="#WmRcARX8F-zxOstGqIqH_pad-29" x="154220" y="-126020"/><use xlink:href="#WmRcARX8F-zxOstGqIqH_pad-29" x="149140" y="-118400"/><use xlink:href="#WmRcARX8F-zxOstGqIqH_pad-29" x="151680" y="-126020"/><use xlink:href="#WmRcARX8F-zxOstGqIqH_pad-29" x="151680" y="-118400"/><use xlink:href="#WmRcARX8F-zxOstGqIqH_pad-29" x="149140" y="-126020"/><use xlink:href="#WmRcARX8F-zxOstGqIqH_pad-29" x="154220" y="-118400"/><use xlink:href="#WmRcARX8F-zxOstGqIqH_pad-29" x="146600" y="-126020"/><use xlink:href="#WmRcARX8F-zxOstGqIqH_pad-28" x="156760" y="-118400"/><use xlink:href="#WmRcARX8F-zxOstGqIqH_pad-29" x="144060" y="-126020"/><use xlink:href="#WmRcARX8F-zxOstGqIqH_pad-30" x="159300" y="-118400"/><use xlink:href="#WmRcARX8F-zxOstGqIqH_pad-10" x="84700" y="-107000"/><use xlink:href="#WmRcARX8F-zxOstGqIqH_pad-11" x="99940" y="-99380"/><use xlink:href="#WmRcARX8F-zxOstGqIqH_pad-11" x="87240" y="-107000"/><use xlink:href="#WmRcARX8F-zxOstGqIqH_pad-11" x="97400" y="-99380"/><use xlink:href="#WmRcARX8F-zxOstGqIqH_pad-11" x="89780" y="-107000"/><use xlink:href="#WmRcARX8F-zxOstGqIqH_pad-11" x="94860" y="-99380"/><use xlink:href="#WmRcARX8F-zxOstGqIqH_pad-11" x="92320" y="-107000"/><use xlink:href="#WmRcARX8F-zxOstGqIqH_pad-11" x="92320" y="-99380"/><use xlink:href="#WmRcARX8F-zxOstGqIqH_pad-11" x="94860" y="-107000"/><use xlink:href="#WmRcARX8F-zxOstGqIqH_pad-11" x="89780" y="-99380"/><use xlink:href="#WmRcARX8F-zxOstGqIqH_pad-11" x="97400" y="-107000"/><use xlink:href="#WmRcARX8F-zxOstGqIqH_pad-11" x="87240" y="-99380"/><use xlink:href="#WmRcARX8F-zxOstGqIqH_pad-11" x="99940" y="-107000"/><use xlink:href="#WmRcARX8F-zxOstGqIqH_pad-11" x="84700" y="-99380"/><use xlink:href="#WmRcARX8F-zxOstGqIqH_pad-16" x="116608.735" y="-134232.309"/><use xlink:href="#WmRcARX8F-zxOstGqIqH_pad-16" x="116608.735" y="-131692.309"/><use xlink:href="#WmRcARX8F-zxOstGqIqH_pad-17" x="116608.735" y="-136772.309"/><use xlink:href="#WmRcARX8F-zxOstGqIqH_pad-17" x="88708.738" y="-136872.31"/><use xlink:href="#WmRcARX8F-zxOstGqIqH_pad-16" x="88708.738" y="-131792.31"/><use xlink:href="#WmRcARX8F-zxOstGqIqH_pad-16" x="88708.738" y="-134332.31"/><use xlink:href="#WmRcARX8F-zxOstGqIqH_pad-16" x="98240" y="-127872.31"/><use xlink:href="#WmRcARX8F-zxOstGqIqH_pad-16" x="100780" y="-127872.31"/><use xlink:href="#WmRcARX8F-zxOstGqIqH_pad-17" x="95700" y="-127872.31"/><use xlink:href="#WmRcARX8F-zxOstGqIqH_pad-17" x="64600" y="-102500"/><use xlink:href="#WmRcARX8F-zxOstGqIqH_pad-16" x="64600" y="-107580"/><use xlink:href="#WmRcARX8F-zxOstGqIqH_pad-16" x="64600" y="-105040"/><use xlink:href="#WmRcARX8F-zxOstGqIqH_pad-17" x="73091.266" y="-97827.69"/><use xlink:href="#WmRcARX8F-zxOstGqIqH_pad-16" x="73091.266" y="-102907.69"/><use xlink:href="#WmRcARX8F-zxOstGqIqH_pad-16" x="73091.266" y="-100367.69"/><path d="M 139008.736 -133972.308 140508.737 -135472.309 M 139008.736 -126172.308 139008.736 -133972.308 M 72908.739 -133872.308 74508.735 -135472.312 M 72908.736 -126272.31 72908.739 -133872.308" fill="none" stroke-width="1500"/><path d="M 139008.736 -126172.308 139008.737 -124272.309 138108.737 -123372.308 M 113908.737 -123372.308 113208.737 -123372.31 M 100408.737 -123372.307 100408.734 -123372.31 M 113208.737 -123372.31 101900 -123372.307 100408.737 -123372.307 M 135400 -123372.308 133000 -123372.308 M 99940 -123332.31 99900 -123372.31 M 99940 -107000 99940 -123332.31 M 100408.734 -123372.31 99900 -123372.31 M 133000 -123372.308 130900 -123372.308 113908.737 -123372.308 M 130920 -123352.308 130900 -123372.308 M 130920 -112700 130920 -123352.308 M 133208.737 -90091.263 125840 -97460 M 135902.31 -90091.263 133208.737 -90091.263" fill="none" stroke-width="1000"/><path d="M 137787.692 -123372.308 136400 -123372.308 M 142760 -118400 137787.692 -123372.308 M 144060 -118400 142760 -118400" fill="none" stroke-width="500"/><path d="M 138108.737 -123372.308 136400 -123372.308 135400 -123372.308" fill="none" stroke-width="1000"/><path d="M 71508.736 -126272.31 72908.736 -126272.31 M 70740 -125503.574 71508.736 -126272.31 M 70740 -121900 70740 -125503.574 M 74400 -121900 75700 -120600 M 70740 -121900 74400 -121900" fill="none" stroke-width="500"/><path d="M 93888.735 -129572.31 100188.737 -135872.31 M 93708.738 -129392.313 93888.735 -129572.31 M 93708.735 -125672.311 93708.738 -129392.313 M 99900 -123372.31 96008.736 -123372.31 93708.735 -125672.311" fill="none" stroke-width="1000"/><path d="M 88913.749 -137077.318 88708.735 -137077.319 M 90653.814 -138817.387 88913.749 -137077.318 M 108908.737 -138817.386 114563.66 -138817.386 M 104308.737 -138817.387 90653.814 -138817.387 M 105808.736 -138717.387 105908.737 -138817.387 M 105808.737 -135872.309 105808.736 -138717.387 M 104308.737 -138817.387 105908.737 -138817.387 108908.737 -138817.386 M 116608.735 -136772.311 114563.66 -138817.386 M 116608.735 -136772.309 116608.735 -136772.311" fill="none" stroke-width="1500"/><path d="M 97400 -95040 94860 -97580 M 94860 -99380 94860 -97580 M 93200 -98500 92320 -99380 M 93200 -95040 93200 -98500 M 89100 -98700 89780 -99380 M 89100 -95040 89100 -98700 M 87240 -97380 87240 -99380 M 84900 -95040 87240 -97380" fill="none" stroke-width="500"/><path d="M 95108.736 -133372.308 95108.736 -135872.308 M 92000 -130263.572 95108.736 -133372.308 M 84700 -103100 84700 -107000 M 96780 -102200 85600 -102200 M 97400 -99380 97400 -101580 96780 -102200 M 85600 -102200 84700 -102200 M 84700 -99380 84700 -102200 84700 -103100 M 86700 -122100 92000 -127400 92000 -130263.572 M 86700 -122100 84700 -120100 M 84700 -107000 84700 -120100 M 123300 -91100 123300 -97460 M 140931.047 -87500 143522.31 -90091.263 M 140931.047 -87500 130800 -87500 M 127200 -91100 123300 -91100 M 130800 -87500 127200 -91100" fill="none" stroke-width="1000"/><path d="M 159292.31 -78691.263 159292.31 -81607.69 159292.31 -81231.263 M 67460 -97620 67500 -97660 M 67460 -93700 67460 -97620 M 81400 -120100 84700 -120100 M 80400 -120100 81400 -120100 M 73270.051 -114300 74600 -114300 M 71960 -112989.949 73270.051 -114300 M 71960 -112000 71960 -112989.949 M 74600 -114300 80400 -120100" fill="none" stroke-width="500"/><path d="M 131388.738 -134592.307 130508.738 -135472.308 M 131388.737 -126172.309 131388.738 -134592.307 M 121449.395 -135472.309 124400 -135472.309 M 117669.395 -131692.309 121449.395 -135472.309 M 116608.735 -131692.309 117669.395 -131692.309 M 130508.738 -135472.308 124400 -135472.309 M 65288.737 -126272.308 65288.737 -134692.307 M 64508.736 -135472.308 65288.737 -134692.307" fill="none" stroke-width="1500"/><path d="M 151800 -115300 154060 -115300 M 151800 -115300 151960 -115300 M 136060 -115300 151800 -115300" fill="none" stroke-width="250"/><path d="M 136060 -115300 154060 -115300 M 133460 -112700 136060 -115300" fill="none" stroke-width="500"/><path d="M 155660 -116900 156760 -118000" fill="none" stroke-width="250"/><path d="M 155460 -116700 155400 -116640 M 156760 -118000 155460 -116700 M 156760 -118400 156760 -118000 M 154060 -115300 155400 -116640 155660 -116900 M 64600 -109180 65900 -110480 M 64600 -107580 64600 -109180 M 66460 -106900 70920 -106900 M 64600 -105040 66460 -106900 M 67500 -100200 67500 -101800 M 66800 -102500 64600 -102500 M 67500 -101800 66800 -102500 M 76000 -110500 74500 -112000 M 76000 -106900 76000 -110500 M 73091.266 -106531.266 73460 -106900 M 73091.266 -102907.69 73091.266 -106531.266 M 72866.266 -97827.69 73091.266 -97827.69 M 71841.266 -97827.69 73091.266 -97827.69 M 70000 -95986.424 71841.266 -97827.69 M 70000 -93700 70000 -95986.424 M 160600 -118400 160700 -118300 M 159300 -118400 160600 -118400" fill="none" stroke-width="500"/><path d="M 160700 -102300 160700 -88400" fill="none" stroke-width="250"/><path d="M 160700 -88400 160700 -102500 M 160700 -118300 160700 -102500 160700 -102300 M 154800 -82500 160700 -88400 M 154800 -79300 154800 -82500 M 149900 -74400 154800 -79300 M 139800 -74400 149900 -74400 M 134900 -70600 136000 -70600 139800 -74400 M 115232.309 -134232.309 116608.735 -134232.309 M 113960 -129200 113960 -132960 115232.309 -134232.309 M 86815.768 -133500 86800 -133500 M 87648.078 -134332.31 86815.768 -133500 M 88708.738 -134332.31 87648.078 -134332.31 M 86800 -129940 86800 -133500 M 121400 -73801 121400 -74400 M 125001 -70200 121400 -73801 M 126600 -70200 125001 -70200 M 121400 -90460 120760 -91100 M 121400 -86900 121400 -90460 M 64200 -98927.692 64227.692 -98900 M 71623.576 -98900 73091.266 -100367.69 M 64227.692 -98900 71623.576 -98900 M 82499.999 -116500.001 81800 -117200 M 83050.001 -115949.999 82499.999 -116500.001 M 83050.001 -91114.234 83050.001 -115949.999 M 85012.31 -89151.925 83050.001 -91114.234 M 85012.31 -88091.265 85012.31 -89151.925 M 83013.575 -86300 93300 -86300 M 82472.31 -86841.265 83013.575 -86300 M 82472.31 -88091.265 82472.31 -86841.265 M 93900 -86900 93900 -89000 M 93300 -86300 93900 -86900 M 97400 -92500 93900 -89000 M 89100 -91623.575 89100 -92500 M 92632.31 -88091.265 89100 -91623.575 M 87552.31 -89847.69 84900 -92500 M 87552.31 -88091.265 87552.31 -89847.69" fill="none" stroke-width="500"/><path d="M 105673.737 -130657.31 107008.737 -131992.311 M 110888.738 -135872.309 107008.737 -131992.311 M 109388.738 -134372.31 110888.737 -135872.309 M 105016.428 -130000 109388.738 -134372.31 M 100780 -127872.31 102907.69 -130000 105016.428 -130000" fill="none" stroke-width="1000"/><path d="M 83222.309 -73601.264 82472.31 -72851.265 M 83222.309 -74222.309 83222.309 -73601.264 M 115800 -106800 83222.309 -74222.309 M 137720 -106800 143620 -112700 M 115800 -106800 137720 -106800 M 133460 -96303.573 133460 -97460 M 139672.31 -90091.263 133460 -96303.573 M 149160 -103000 158860 -112700 M 107296.051 -93896.051 116400 -103000 149160 -103000 M 118300 -101700 155751.37 -101700 M 112196.051 -95596.051 118300 -101700 M 158860 -98591.37 155751.37 -101700 M 158860 -97460 158860 -98591.37 M 150440.001 -98259.999 151240 -97460 M 148600 -100100 150440.001 -98259.999 M 119900 -100100 148600 -100100 M 117096.051 -97296.051 119900 -100100 M 89040 -105200 102100 -105200 M 87240 -107000 89040 -105200 M 102100 -105200 107300 -110400 M 133700 -110400 136000 -112700 M 107300 -110400 133700 -110400 M 135140 -109300 138540 -112700 M 108728.63 -109300 135140 -109300 M 99940 -99380 99940 -100511.37 108728.63 -109300 M 115181.045 -108100 95172.31 -88091.265 M 141080 -112700 136480 -108100 115181.045 -108100 M 115897.998 -104200 116100 -104200 M 92632.31 -80934.312 115897.998 -104200 M 92632.31 -72851.265 92632.31 -80934.312" fill="none" stroke-width="500"/><path d="M 116100 -104200 140200 -104200" fill="none" stroke-width="250"/><path d="M 140200 -104200 148700 -112700 M 115897.998 -104200 140200 -104200 M 139060 -105600 146160 -112700 M 115900 -105600 139060 -105600 M 90092.31 -72851.265 90092.31 -79792.31 115900 -105600 M 148700 -96328.63 148700 -97460 M 148700 -88933.624 148700 -96328.63 M 150582.36 -87051.264 148700 -88933.624 M 151572.309 -87051.264 150582.36 -87051.264 M 151672.31 -86951.263 151572.309 -87051.264 M 151672.31 -81231.263 151672.31 -86951.263 M 151672.31 -78691.263 151672.31 -81231.263 M 79741.843 -68018.157 79760 -68000 M 96100 -71300 98900 -74100 M 81787.208 -71300 96100 -71300 M 79760 -68000 79760 -69272.792 81787.208 -71300 M 98900 -85500 105500 -92100 M 98900 -74100 98900 -85500 M 77940 -68000 79760 -68000" fill="none" stroke-width="500"/><path d="M 100200 -79400 100200 -79300 M 100200 -73400 100200 -79100 100200 -79300 M 100200 -79100 100200 -83600" fill="none" stroke-width="250"/><path d="M 87440 -68000 90060 -68000 M 97000 -70200 100200 -73400 M 100200 -83600 110400 -93800 M 100200 -73400 100200 -83600 M 89660 -68000 87940 -68000 M 90587.208 -70200 91300 -70200 M 89660 -69272.792 90587.208 -70200 M 89660 -68000 89660 -69272.792 M 91300 -70200 97000 -70200" fill="none" stroke-width="500"/><path d="M 101400 -78400 101400 -77500 M 101400 -72932.792 101400 -77500 M 101400 -81600 101400 -77500" fill="none" stroke-width="250"/><path d="M 97740 -69272.792 101400 -72932.792 M 97740 -68000 97740 -69272.792 M 101400 -81600 115300 -95500 M 101400 -72932.792 101400 -81600 M 97740 -68000 99560 -68000" fill="none" stroke-width="500"/></g></svg>