<svg version="1.1" xmlns="http://www.w3.org/2000/svg" xmlns:xlink="http://www.w3.org/1999/xlink" stroke-linecap="round" stroke-linejoin="round" stroke-width="0" fill-rule="evenodd" width="98.19949000000001mm" height="72.85mm" viewBox="63200.51 -139950 98199.49 72850" id="q0dHSxRn4Wv8P42R77b0"><defs><rect x="-800" y="-800" width="1600" height="1600" id="q0dHSxRn4Wv8P42R77b0_pad-10"/><rect x="-800" y="-800" width="1600" height="1600" rx="800" ry="800" id="q0dHSxRn4Wv8P42R77b0_pad-11"/><circle cx="0" cy="0" r="1000" id="q0dHSxRn4Wv8P42R77b0_pad-13"/><rect x="-900" y="-900" width="1800" height="1800" id="q0dHSxRn4Wv8P42R77b0_pad-14"/><circle cx="0" cy="0" r="900" id="q0dHSxRn4Wv8P42R77b0_pad-15"/><circle cx="0" cy="0" r="750" id="q0dHSxRn4Wv8P42R77b0_pad-16"/><rect x="-750" y="-750" width="1500" height="1500" id="q0dHSxRn4Wv8P42R77b0_pad-17"/><rect x="-925" y="-1524" width="1850" height="3048" rx="925" ry="925" id="q0dHSxRn4Wv8P42R77b0_pad-18"/><circle cx="0" cy="0" r="999.49" id="q0dHSxRn4Wv8P42R77b0_pad-19"/><rect x="-900" y="-900" width="1800" height="1800" rx="900" ry="900" id="q0dHSxRn4Wv8P42R77b0_pad-20"/><rect x="-700" y="-700" width="1400" height="1400" rx="700" ry="700" id="q0dHSxRn4Wv8P42R77b0_pad-21"/><circle cx="0" cy="0" r="700" id="q0dHSxRn4Wv8P42R77b0_pad-22"/><circle cx="0" cy="0" r="600" id="q0dHSxRn4Wv8P42R77b0_pad-23"/><rect x="-600" y="-600" width="1200" height="1200" id="q0dHSxRn4Wv8P42R77b0_pad-24"/><circle cx="0" cy="0" r="1500" id="q0dHSxRn4Wv8P42R77b0_pad-25"/><rect x="-1500" y="-1500" width="3000" height="3000" id="q0dHSxRn4Wv8P42R77b0_pad-26"/><rect x="-800" y="-1200" width="1600" height="2400" rx="800" ry="800" id="q0dHSxRn4Wv8P42R77b0_pad-28"/><circle cx="0" cy="0" r="400" id="q0dHSxRn4Wv8P42R77b0_pad-29"/><rect x="-800" y="-1200" width="1600" height="2400" id="q0dHSxRn4Wv8P42R77b0_pad-30"/></defs><g transform="translate(0,-207050) scale(1,-1)" fill="currentColor" stroke="currentColor"><use xlink:href="#q0dHSxRn4Wv8P42R77b0_pad-10" x="123300" y="-112700"/><use xlink:href="#q0dHSxRn4Wv8P42R77b0_pad-11" x="156320" y="-97460"/><use xlink:href="#q0dHSxRn4Wv8P42R77b0_pad-11" x="125840" y="-112700"/><use xlink:href="#q0dHSxRn4Wv8P42R77b0_pad-11" x="153780" y="-97460"/><use xlink:href="#q0dHSxRn4Wv8P42R77b0_pad-11" x="128380" y="-112700"/><use xlink:href="#q0dHSxRn4Wv8P42R77b0_pad-11" x="151240" y="-97460"/><use xlink:href="#q0dHSxRn4Wv8P42R77b0_pad-11" x="130920" y="-112700"/><use xlink:href="#q0dHSxRn4Wv8P42R77b0_pad-11" x="148700" y="-97460"/><use xlink:href="#q0dHSxRn4Wv8P42R77b0_pad-11" x="133460" y="-112700"/><use xlink:href="#q0dHSxRn4Wv8P42R77b0_pad-11" x="146160" y="-97460"/><use xlink:href="#q0dHSxRn4Wv8P42R77b0_pad-11" x="136000" y="-112700"/><use xlink:href="#q0dHSxRn4Wv8P42R77b0_pad-11" x="143620" y="-97460"/><use xlink:href="#q0dHSxRn4Wv8P42R77b0_pad-11" x="138540" y="-112700"/><use xlink:href="#q0dHSxRn4Wv8P42R77b0_pad-11" x="141080" y="-97460"/><use xlink:href="#q0dHSxRn4Wv8P42R77b0_pad-11" x="141080" y="-112700"/><use xlink:href="#q0dHSxRn4Wv8P42R77b0_pad-11" x="138540" y="-97460"/><use xlink:href="#q0dHSxRn4Wv8P42R77b0_pad-11" x="143620" y="-112700"/><use xlink:href="#q0dHSxRn4Wv8P42R77b0_pad-11" x="136000" y="-97460"/><use xlink:href="#q0dHSxRn4Wv8P42R77b0_pad-11" x="146160" y="-112700"/><use xlink:href="#q0dHSxRn4Wv8P42R77b0_pad-11" x="133460" y="-97460"/><use xlink:href="#q0dHSxRn4Wv8P42R77b0_pad-11" x="148700" y="-112700"/><use xlink:href="#q0dHSxRn4Wv8P42R77b0_pad-11" x="130920" y="-97460"/><use xlink:href="#q0dHSxRn4Wv8P42R77b0_pad-11" x="151240" y="-112700"/><use xlink:href="#q0dHSxRn4Wv8P42R77b0_pad-11" x="128380" y="-97460"/><use xlink:href="#q0dHSxRn4Wv8P42R77b0_pad-11" x="153780" y="-112700"/><use xlink:href="#q0dHSxRn4Wv8P42R77b0_pad-11" x="125840" y="-97460"/><use xlink:href="#q0dHSxRn4Wv8P42R77b0_pad-11" x="156320" y="-112700"/><use xlink:href="#q0dHSxRn4Wv8P42R77b0_pad-11" x="123300" y="-97460"/><use xlink:href="#q0dHSxRn4Wv8P42R77b0_pad-11" x="158860" y="-112700"/><use xlink:href="#q0dHSxRn4Wv8P42R77b0_pad-11" x="158860" y="-97460"/><path d="M 134471.319 -78093.671 134519.855 -78100.87 134567.452 -78112.793 134613.652 -78129.323 134658.008 -78150.302 134700.095 -78175.528 134739.507 -78204.758 134775.863 -78237.71 134808.815 -78274.066 134838.045 -78313.478 134863.271 -78355.565 134884.25 -78399.921 134900.78 -78446.121 134912.703 -78493.718 134919.902 -78542.254 134922.31 -78591.263 134922.31 -81591.263 134919.902 -81640.272 134912.703 -81688.808 134900.78 -81736.405 134884.25 -81782.605 134863.271 -81826.961 134838.045 -81869.048 134808.815 -81908.46 134775.863 -81944.816 134739.507 -81977.768 134700.095 -82006.998 134658.008 -82032.224 134613.652 -82053.203 134567.452 -82069.733 134519.855 -82081.656 134471.319 -82088.855 134422.31 -82091.263 133422.31 -82091.263 133373.301 -82088.855 133324.765 -82081.656 133277.168 -82069.733 133230.968 -82053.203 133186.612 -82032.224 133144.525 -82006.998 133105.113 -81977.768 133068.757 -81944.816 133035.805 -81908.46 133006.575 -81869.048 132981.349 -81826.961 132960.37 -81782.605 132943.84 -81736.405 132931.917 -81688.808 132924.718 -81640.272 132922.31 -81591.263 132922.31 -78591.263 132924.718 -78542.254 132931.917 -78493.718 132943.84 -78446.121 132960.37 -78399.921 132981.349 -78355.565 133006.575 -78313.478 133035.805 -78274.066 133068.757 -78237.71 133105.113 -78204.758 133144.525 -78175.528 133186.612 -78150.302 133230.968 -78129.323 133277.168 -78112.793 133324.765 -78100.87 133373.301 -78093.671 133422.31 -78091.263 134422.31 -78091.263 134471.319 -78093.671 134471.319 -78093.671"/><use xlink:href="#q0dHSxRn4Wv8P42R77b0_pad-13" x="133922.31" y="-80091.263"/><use xlink:href="#q0dHSxRn4Wv8P42R77b0_pad-14" x="135902.31" y="-90091.263"/><use xlink:href="#q0dHSxRn4Wv8P42R77b0_pad-15" x="139672.31" y="-90091.263"/><use xlink:href="#q0dHSxRn4Wv8P42R77b0_pad-15" x="143522.31" y="-90091.263"/><path d="M 145971.319 -78093.671 146019.855 -78100.87 146067.452 -78112.793 146113.652 -78129.323 146158.008 -78150.302 146200.095 -78175.528 146239.507 -78204.758 146275.863 -78237.71 146308.815 -78274.066 146338.045 -78313.478 146363.271 -78355.565 146384.25 -78399.921 146400.78 -78446.121 146412.703 -78493.718 146419.902 -78542.254 146422.31 -78591.263 146422.31 -81591.263 146419.902 -81640.272 146412.703 -81688.808 146400.78 -81736.405 146384.25 -81782.605 146363.271 -81826.961 146338.045 -81869.048 146308.815 -81908.46 146275.863 -81944.816 146239.507 -81977.768 146200.095 -82006.998 146158.008 -82032.224 146113.652 -82053.203 146067.452 -82069.733 146019.855 -82081.656 145971.319 -82088.855 145922.31 -82091.263 144922.31 -82091.263 144873.301 -82088.855 144824.765 -82081.656 144777.168 -82069.733 144730.968 -82053.203 144686.612 -82032.224 144644.525 -82006.998 144605.113 -81977.768 144568.757 -81944.816 144535.805 -81908.46 144506.575 -81869.048 144481.349 -81826.961 144460.37 -81782.605 144443.84 -81736.405 144431.917 -81688.808 144424.718 -81640.272 144422.31 -81591.263 144422.31 -78591.263 144424.718 -78542.254 144431.917 -78493.718 144443.84 -78446.121 144460.37 -78399.921 144481.349 -78355.565 144506.575 -78313.478 144535.805 -78274.066 144568.757 -78237.71 144605.113 -78204.758 144644.525 -78175.528 144686.612 -78150.302 144730.968 -78129.323 144777.168 -78112.793 144824.765 -78100.87 144873.301 -78093.671 144922.31 -78091.263 145922.31 -78091.263 145971.319 -78093.671 145971.319 -78093.671"/><use xlink:href="#q0dHSxRn4Wv8P42R77b0_pad-13" x="145422.31" y="-80091.263"/><use xlink:href="#q0dHSxRn4Wv8P42R77b0_pad-16" x="73460" y="-106900"/><use xlink:href="#q0dHSxRn4Wv8P42R77b0_pad-16" x="70920" y="-106900"/><use xlink:href="#q0dHSxRn4Wv8P42R77b0_pad-17" x="76000" y="-106900"/><use xlink:href="#q0dHSxRn4Wv8P42R77b0_pad-18" x="126400" y="-86900"/><use xlink:href="#q0dHSxRn4Wv8P42R77b0_pad-18" x="121400" y="-86900"/><use xlink:href="#q0dHSxRn4Wv8P42R77b0_pad-18" x="126400" y="-74400"/><use xlink:href="#q0dHSxRn4Wv8P42R77b0_pad-18" x="121400" y="-74400"/><use xlink:href="#q0dHSxRn4Wv8P42R77b0_pad-16" x="82472.31" y="-72851.265"/><use xlink:href="#q0dHSxRn4Wv8P42R77b0_pad-16" x="85012.31" y="-72851.265"/><use xlink:href="#q0dHSxRn4Wv8P42R77b0_pad-16" x="87552.31" y="-72851.265"/><use xlink:href="#q0dHSxRn4Wv8P42R77b0_pad-16" x="90092.31" y="-72851.265"/><use xlink:href="#q0dHSxRn4Wv8P42R77b0_pad-16" x="92632.31" y="-72851.265"/><use xlink:href="#q0dHSxRn4Wv8P42R77b0_pad-16" x="95172.31" y="-72851.265"/><use xlink:href="#q0dHSxRn4Wv8P42R77b0_pad-16" x="95172.31" y="-88091.265"/><use xlink:href="#q0dHSxRn4Wv8P42R77b0_pad-16" x="92632.31" y="-88091.265"/><use xlink:href="#q0dHSxRn4Wv8P42R77b0_pad-16" x="90092.31" y="-88091.265"/><use xlink:href="#q0dHSxRn4Wv8P42R77b0_pad-16" x="87552.31" y="-88091.265"/><use xlink:href="#q0dHSxRn4Wv8P42R77b0_pad-16" x="85012.31" y="-88091.265"/><use xlink:href="#q0dHSxRn4Wv8P42R77b0_pad-17" x="82472.31" y="-88091.265"/><use xlink:href="#q0dHSxRn4Wv8P42R77b0_pad-19" x="64200" y="-98927.692"/><use xlink:href="#q0dHSxRn4Wv8P42R77b0_pad-20" x="65900" y="-110480"/><use xlink:href="#q0dHSxRn4Wv8P42R77b0_pad-14" x="65900" y="-118100"/><use xlink:href="#q0dHSxRn4Wv8P42R77b0_pad-21" x="70740" y="-121900"/><use xlink:href="#q0dHSxRn4Wv8P42R77b0_pad-22" x="68200" y="-121900"/><use xlink:href="#q0dHSxRn4Wv8P42R77b0_pad-23" x="75700" y="-120600"/><use xlink:href="#q0dHSxRn4Wv8P42R77b0_pad-24" x="77700" y="-120600"/><use xlink:href="#q0dHSxRn4Wv8P42R77b0_pad-21" x="67500" y="-97660"/><use xlink:href="#q0dHSxRn4Wv8P42R77b0_pad-22" x="67500" y="-100200"/><use xlink:href="#q0dHSxRn4Wv8P42R77b0_pad-21" x="71960" y="-112000"/><use xlink:href="#q0dHSxRn4Wv8P42R77b0_pad-22" x="74500" y="-112000"/><use xlink:href="#q0dHSxRn4Wv8P42R77b0_pad-21" x="67460" y="-93700"/><use xlink:href="#q0dHSxRn4Wv8P42R77b0_pad-22" x="70000" y="-93700"/><use xlink:href="#q0dHSxRn4Wv8P42R77b0_pad-15" x="99560" y="-68000"/><use xlink:href="#q0dHSxRn4Wv8P42R77b0_pad-14" x="102100" y="-68000"/><use xlink:href="#q0dHSxRn4Wv8P42R77b0_pad-15" x="87840" y="-68000"/><use xlink:href="#q0dHSxRn4Wv8P42R77b0_pad-14" x="85300" y="-68000"/><use xlink:href="#q0dHSxRn4Wv8P42R77b0_pad-15" x="77940" y="-68000"/><use xlink:href="#q0dHSxRn4Wv8P42R77b0_pad-14" x="75400" y="-68000"/><use xlink:href="#q0dHSxRn4Wv8P42R77b0_pad-25" x="110888.737" y="-135872.309"/><use xlink:href="#q0dHSxRn4Wv8P42R77b0_pad-26" x="105808.737" y="-135872.309"/><use xlink:href="#q0dHSxRn4Wv8P42R77b0_pad-13" x="140508.736" y="-135472.31"/><use xlink:href="#q0dHSxRn4Wv8P42R77b0_pad-13" x="130508.736" y="-135472.31"/><use xlink:href="#q0dHSxRn4Wv8P42R77b0_pad-13" x="74508.736" y="-135472.308"/><use xlink:href="#q0dHSxRn4Wv8P42R77b0_pad-13" x="64508.736" y="-135472.308"/><use xlink:href="#q0dHSxRn4Wv8P42R77b0_pad-25" x="100188.736" y="-135872.308"/><use xlink:href="#q0dHSxRn4Wv8P42R77b0_pad-26" x="95108.736" y="-135872.308"/><use xlink:href="#q0dHSxRn4Wv8P42R77b0_pad-20" x="131388.736" y="-126172.308"/><use xlink:href="#q0dHSxRn4Wv8P42R77b0_pad-14" x="139008.736" y="-126172.308"/><use xlink:href="#q0dHSxRn4Wv8P42R77b0_pad-20" x="65288.736" y="-126272.31"/><use xlink:href="#q0dHSxRn4Wv8P42R77b0_pad-14" x="72908.736" y="-126272.31"/><use xlink:href="#q0dHSxRn4Wv8P42R77b0_pad-23" x="134900" y="-72600"/><use xlink:href="#q0dHSxRn4Wv8P42R77b0_pad-24" x="134900" y="-70600"/><use xlink:href="#q0dHSxRn4Wv8P42R77b0_pad-22" x="107296.051" y="-93896.051"/><path d="M 107296.051 -93896.051 107296.051 -93896.051" fill="none" stroke-width="1400"/><use xlink:href="#q0dHSxRn4Wv8P42R77b0_pad-22" x="105500" y="-92100"/><use xlink:href="#q0dHSxRn4Wv8P42R77b0_pad-22" x="112196.051" y="-95596.051"/><path d="M 112196.051 -95596.051 112196.051 -95596.051" fill="none" stroke-width="1400"/><use xlink:href="#q0dHSxRn4Wv8P42R77b0_pad-22" x="110400" y="-93800"/><use xlink:href="#q0dHSxRn4Wv8P42R77b0_pad-22" x="117096.051" y="-97296.051"/><path d="M 117096.051 -97296.051 117096.051 -97296.051" fill="none" stroke-width="1400"/><use xlink:href="#q0dHSxRn4Wv8P42R77b0_pad-22" x="115300" y="-95500"/><use xlink:href="#q0dHSxRn4Wv8P42R77b0_pad-21" x="97400" y="-95040"/><use xlink:href="#q0dHSxRn4Wv8P42R77b0_pad-22" x="97400" y="-92500"/><use xlink:href="#q0dHSxRn4Wv8P42R77b0_pad-21" x="93200" y="-95040"/><use xlink:href="#q0dHSxRn4Wv8P42R77b0_pad-22" x="93200" y="-92500"/><use xlink:href="#q0dHSxRn4Wv8P42R77b0_pad-21" x="89100" y="-95040"/><use xlink:href="#q0dHSxRn4Wv8P42R77b0_pad-22" x="89100" y="-92500"/><use xlink:href="#q0dHSxRn4Wv8P42R77b0_pad-21" x="84900" y="-95040"/><use xlink:href="#q0dHSxRn4Wv8P42R77b0_pad-22" x="84900" y="-92500"/><use xlink:href="#q0dHSxRn4Wv8P42R77b0_pad-21" x="151572.309" y="-87051.264"/><use xlink:href="#q0dHSxRn4Wv8P42R77b0_pad-22" x="151572.309" y="-89591.264"/><use xlink:href="#q0dHSxRn4Wv8P42R77b0_pad-21" x="107748.74" y="-127872.311"/><use xlink:href="#q0dHSxRn4Wv8P42R77b0_pad-22" x="105208.74" y="-127872.311"/><use xlink:href="#q0dHSxRn4Wv8P42R77b0_pad-21" x="86800" y="-129940"/><use xlink:href="#q0dHSxRn4Wv8P42R77b0_pad-22" x="86800" y="-127400"/><use xlink:href="#q0dHSxRn4Wv8P42R77b0_pad-21" x="113960" y="-129200"/><use xlink:href="#q0dHSxRn4Wv8P42R77b0_pad-22" x="116500" y="-129200"/><use xlink:href="#q0dHSxRn4Wv8P42R77b0_pad-21" x="129140" y="-70200"/><use xlink:href="#q0dHSxRn4Wv8P42R77b0_pad-22" x="126600" y="-70200"/><use xlink:href="#q0dHSxRn4Wv8P42R77b0_pad-21" x="120760" y="-91100"/><use xlink:href="#q0dHSxRn4Wv8P42R77b0_pad-22" x="123300" y="-91100"/><use xlink:href="#q0dHSxRn4Wv8P42R77b0_pad-11" x="159292.31" y="-78691.263"/><use xlink:href="#q0dHSxRn4Wv8P42R77b0_pad-11" x="151672.31" y="-81231.263"/><use xlink:href="#q0dHSxRn4Wv8P42R77b0_pad-11" x="159292.31" y="-81231.263"/><use xlink:href="#q0dHSxRn4Wv8P42R77b0_pad-10" x="151672.31" y="-78691.263"/><use xlink:href="#q0dHSxRn4Wv8P42R77b0_pad-15" x="79760" y="-68000"/><use xlink:href="#q0dHSxRn4Wv8P42R77b0_pad-14" x="82300" y="-68000"/><use xlink:href="#q0dHSxRn4Wv8P42R77b0_pad-15" x="89660" y="-68000"/><use xlink:href="#q0dHSxRn4Wv8P42R77b0_pad-14" x="92200" y="-68000"/><use xlink:href="#q0dHSxRn4Wv8P42R77b0_pad-15" x="97740" y="-68000"/><use xlink:href="#q0dHSxRn4Wv8P42R77b0_pad-14" x="95200" y="-68000"/><use xlink:href="#q0dHSxRn4Wv8P42R77b0_pad-21" x="86620" y="-110500"/><use xlink:href="#q0dHSxRn4Wv8P42R77b0_pad-22" x="79000" y="-110500"/><use xlink:href="#q0dHSxRn4Wv8P42R77b0_pad-21" x="89520" y="-112700"/><use xlink:href="#q0dHSxRn4Wv8P42R77b0_pad-22" x="81900" y="-112700"/><use xlink:href="#q0dHSxRn4Wv8P42R77b0_pad-21" x="86620" y="-115000"/><use xlink:href="#q0dHSxRn4Wv8P42R77b0_pad-22" x="79000" y="-115000"/><use xlink:href="#q0dHSxRn4Wv8P42R77b0_pad-21" x="89420" y="-117200"/><use xlink:href="#q0dHSxRn4Wv8P42R77b0_pad-22" x="81800" y="-117200"/><use xlink:href="#q0dHSxRn4Wv8P42R77b0_pad-28" x="159300" y="-126020"/><use xlink:href="#q0dHSxRn4Wv8P42R77b0_pad-28" x="144060" y="-118400"/><use xlink:href="#q0dHSxRn4Wv8P42R77b0_pad-29" x="156760" y="-126020"/><use xlink:href="#q0dHSxRn4Wv8P42R77b0_pad-29" x="146600" y="-118400"/><use xlink:href="#q0dHSxRn4Wv8P42R77b0_pad-29" x="154220" y="-126020"/><use xlink:href="#q0dHSxRn4Wv8P42R77b0_pad-29" x="149140" y="-118400"/><use xlink:href="#q0dHSxRn4Wv8P42R77b0_pad-29" x="151680" y="-126020"/><use xlink:href="#q0dHSxRn4Wv8P42R77b0_pad-29" x="151680" y="-118400"/><use xlink:href="#q0dHSxRn4Wv8P42R77b0_pad-29" x="149140" y="-126020"/><use xlink:href="#q0dHSxRn4Wv8P42R77b0_pad-29" x="154220" y="-118400"/><use xlink:href="#q0dHSxRn4Wv8P42R77b0_pad-29" x="146600" y="-126020"/><use xlink:href="#q0dHSxRn4Wv8P42R77b0_pad-28" x="156760" y="-118400"/><use xlink:href="#q0dHSxRn4Wv8P42R77b0_pad-29" x="144060" y="-126020"/><use xlink:href="#q0dHSxRn4Wv8P42R77b0_pad-30" x="159300" y="-118400"/><use xlink:href="#q0dHSxRn4Wv8P42R77b0_pad-10" x="84700" y="-107000"/><use xlink:href="#q0dHSxRn4Wv8P42R77b0_pad-11" x="99940" y="-99380"/><use xlink:href="#q0dHSxRn4Wv8P42R77b0_pad-11" x="87240" y="-107000"/><use xlink:href="#q0dHSxRn4Wv8P42R77b0_pad-11" x="97400" y="-99380"/><use xlink:href="#q0dHSxRn4Wv8P42R77b0_pad-11" x="89780" y="-107000"/><use xlink:href="#q0dHSxRn4Wv8P42R77b0_pad-11" x="94860" y="-99380"/><use xlink:href="#q0dHSxRn4Wv8P42R77b0_pad-11" x="92320" y="-107000"/><use xlink:href="#q0dHSxRn4Wv8P42R77b0_pad-11" x="92320" y="-99380"/><use xlink:href="#q0dHSxRn4Wv8P42R77b0_pad-11" x="94860" y="-107000"/><use xlink:href="#q0dHSxRn4Wv8P42R77b0_pad-11" x="89780" y="-99380"/><use xlink:href="#q0dHSxRn4Wv8P42R77b0_pad-11" x="97400" y="-107000"/><use xlink:href="#q0dHSxRn4Wv8P42R77b0_pad-11" x="87240" y="-99380"/><use xlink:href="#q0dHSxRn4Wv8P42R77b0_pad-11" x="99940" y="-107000"/><use xlink:href="#q0dHSxRn4Wv8P42R77b0_pad-11" x="84700" y="-99380"/><use xlink:href="#q0dHSxRn4Wv8P42R77b0_pad-16" x="116608.735" y="-134232.309"/><use xlink:href="#q0dHSxRn4Wv8P42R77b0_pad-16" x="116608.735" y="-131692.309"/><use xlink:href="#q0dHSxRn4Wv8P42R77b0_pad-17" x="116608.735" y="-136772.309"/><use xlink:href="#q0dHSxRn4Wv8P42R77b0_pad-17" x="88708.738" y="-136872.31"/><use xlink:href="#q0dHSxRn4Wv8P42R77b0_pad-16" x="88708.738" y="-131792.31"/><use xlink:href="#q0dHSxRn4Wv8P42R77b0_pad-16" x="88708.738" y="-134332.31"/><use xlink:href="#q0dHSxRn4Wv8P42R77b0_pad-16" x="98240" y="-127872.31"/><use xlink:href="#q0dHSxRn4Wv8P42R77b0_pad-16" x="100780" y="-127872.31"/><use xlink:href="#q0dHSxRn4Wv8P42R77b0_pad-17" x="95700" y="-127872.31"/><use xlink:href="#q0dHSxRn4Wv8P42R77b0_pad-17" x="64600" y="-102500"/><use xlink:href="#q0dHSxRn4Wv8P42R77b0_pad-16" x="64600" y="-107580"/><use xlink:href="#q0dHSxRn4Wv8P42R77b0_pad-16" x="64600" y="-105040"/><use xlink:href="#q0dHSxRn4Wv8P42R77b0_pad-17" x="73091.266" y="-97827.69"/><use xlink:href="#q0dHSxRn4Wv8P42R77b0_pad-16" x="73091.266" y="-102907.69"/><use xlink:href="#q0dHSxRn4Wv8P42R77b0_pad-16" x="73091.266" y="-100367.69"/><path d="M 92600 -70800 84900 -70800 M 102900 -68000 102900 -70800 95200 -70800 92600 -70800 M 125225 -74400 126400 -74400 M 121625 -70800 125225 -74400 M 102900 -70800 121625 -70800" fill="none" stroke-width="250"/><path d="M 124975 -74400 126400 -74400 M 121375 -70800 124975 -74400 M 82300 -68000 84900 -68000 84900 -70800 M 95200 -68000 92600 -68000 M 95200 -68000 95200 -70800 M 102900 -70700 103000 -70800 M 102900 -68000 102900 -70700 M 77361.461 -70800 103000 -70800 121375 -70800 M 133100 -74400 134900 -72600 M 126400 -74400 133100 -74400 M 135902.31 -91491.263 136411.047 -92000 M 135902.31 -90091.263 135902.31 -91491.263 M 149163.573 -92000 151572.309 -89591.264 M 136411.047 -92000 149163.573 -92000 M 135902.31 -88691.263 135902.31 -90091.263 M 134111.047 -86900 135902.31 -88691.263 M 126400 -86900 134111.047 -86900" fill="none" stroke-width="500"/><path d="M 74508.739 -137517.387 74508.735 -135472.312 M 76191.352 -139200 74508.739 -137517.387 M 98982.365 -139200 76191.352 -139200 M 100188.737 -135872.31 100188.737 -137993.628 98982.365 -139200" fill="none" stroke-width="1500"/><path d="M 76300 -70800 77361.461 -70800 M 74900 -69400 76300 -70800 M 74900 -68000 74900 -69400" fill="none" stroke-width="500"/><path d="M 91908.737 -130272.309 94308.737 -127872.308 M 91908.738 -135572.31 91908.737 -130272.309 M 88708.738 -136872.31 90608.739 -136872.309 91908.738 -135572.31 M 94308.739 -127872.31 94308.737 -127872.308 M 95700 -127872.31 94308.739 -127872.31" fill="none" stroke-width="1000"/><path d="M 89780 -107340 86620 -110500 M 89780 -107000 89780 -107340 M 92320 -109900 89520 -112700 M 92320 -107000 92320 -109900 M 94860 -109540 89400 -115000 M 94860 -107000 94860 -109540 M 86620 -115000 89400 -115000 M 97400 -109220 89420 -117200 M 97400 -107000 97400 -109220" fill="none" stroke-width="500"/><path d="M 95108.736 -135872.308 95108.736 -133372.308 M 159300 -129300 159300 -126020 M 156500 -132100 159300 -129300 M 159300 -123820 159300 -126020 M 160300 -122820 159300 -123820 M 160900 -122220 160300 -122820 M 160900 -96100 160900 -122220 M 159700 -94900 160900 -96100 M 123900 -94900 159700 -94900 M 123300 -97460 123300 -95500 123900 -94900 M 95127.692 -133372.308 96400 -132100 M 95108.736 -133372.308 95127.692 -133372.308 M 96400 -132100 156500 -132100" fill="none" stroke-width="1000"/><path d="M 144422.309 -89191.264 143522.31 -90091.263 M 149713.573 -83900 144422.309 -89191.264 M 159292.31 -81231.263 156623.573 -83900 149713.573 -83900 M 71260.001 -111300.001 71960 -112000 M 69200 -109240 71260.001 -111300.001 M 67500 -97660 69200 -99360 69200 -109240" fill="none" stroke-width="500"/><path d="M 64508.738 -135472.308 67108.738 -132872.31 M 86568.078 -132872.31 85800 -132872.31 M 87648.078 -131792.31 86568.078 -132872.31 M 88708.738 -131792.31 87648.078 -131792.31 M 67108.738 -132872.31 85800 -132872.31" fill="none" stroke-width="1500"/><path d="M 105208.737 -128862.257 104198.684 -129872.307 M 105208.74 -127872.311 105208.737 -128862.257 M 99179.338 -129872.308 100500 -129872.308 M 98240 -128932.97 99179.338 -129872.308 M 98240 -127872.31 98240 -128932.97 M 104198.684 -129872.307 100500 -129872.308" fill="none" stroke-width="500"/><path d="M 77700 -119750 77700 -120600 M 76050 -118100 77700 -119750 M 65900 -118100 68200 -118100 76050 -118100" fill="none" stroke-width="250"/><path d="M 77700 -119500 77700 -120600 M 76300 -118100 77700 -119500 M 65900 -118100 76300 -118100 M 78800 -120600 79200 -120200 M 77700 -120600 78800 -120600 M 124800 -106500 111100 -120200 M 137120 -106500 124800 -106500 M 146160 -97460 137120 -106500 M 79200 -120200 111100 -120200 M 68200 -121900 68200 -118100 M 134500 -70200 134900 -70600 M 129140 -70200 134500 -70200 M 79000 -78863.575 79000 -110500 M 85012.31 -72851.265 79000 -78863.575 M 95172.31 -72851.265 99400 -77078.955 M 99400 -95700 97700 -97400 M 99400 -77078.955 99400 -95700 M 81900 -99100 81900 -99200 M 83600 -97400 81900 -99100 M 97700 -97400 83600 -97400" fill="none" stroke-width="500"/><path d="M 81900 -112700 81900 -99200" fill="none" stroke-width="250"/><path d="M 81900 -99100 81900 -112700 M 79000 -112900 79000 -115000 M 80500 -111400 79000 -112900 M 87200 -90983.575 87200 -95600 M 90092.31 -88091.265 87200 -90983.575 M 87200 -95600 86200 -96600 M 82600 -96600 80500 -98700 M 86200 -96600 82600 -96600 M 80500 -98700 80500 -111400 M 87552.31 -82852.31 91400 -86700 M 87552.31 -72851.265 87552.31 -82852.31 M 91400 -90700 93200 -92500 M 91400 -86700 91400 -90700 M 87499.999 -126700.001 86800 -127400 M 92800 -121400 87499.999 -126700.001 M 134400 -121400 92800 -121400 M 141000 -114800 134400 -121400 M 151240 -112700 149140 -114800 141000 -114800 M 112921.051 -122700 107748.74 -127872.311 M 135100 -122700 112921.051 -122700 M 142099.99 -115700.01 135100 -122700 M 153780 -112700 150779.99 -115700.01 142099.99 -115700.01 M 152420 -116600 156320 -112700 M 143200 -116600 152420 -116600 M 135700 -124100 143200 -116600 M 116500 -129200 121600 -124100 135700 -124100" fill="none" stroke-width="500"/></g></svg>