<svg version="1.1" xmlns="http://www.w3.org/2000/svg" xmlns:xlink="http://www.w3.org/1999/xlink" stroke-linecap="round" stroke-linejoin="round" stroke-width="0" fill-rule="evenodd" width="103.59690499999999mm" height="74.455714mm" viewBox="61663.095 -141460.714 103596.905 74455.714" id="oHXSEoDIOzuACwdxEQE7"><g transform="translate(0,-208465.714) scale(1,-1)" fill="currentColor" stroke="currentColor"><path d="M 83400 -104000 A 800 800 0 0 0 83400 -102400 M 160600 -121500 A 800 800 0 0 0 160600 -123100" fill="none" stroke-width="600"/><path d="M 94914.285 -139678.571 94200 -139678.571 94128.571 -140392.857 94200 -140321.428 94342.857 -140250 94700 -140250 94842.857 -140321.428 94914.285 -140392.857 94985.714 -140535.714 94985.714 -140892.857 94914.285 -141035.714 94842.857 -141107.142 94700 -141178.571 94342.857 -141178.571 94200 -141107.142 94128.571 -141035.714 M 95414.285 -139678.571 95914.285 -141178.571 96414.285 -139678.571 M 99057.142 -139650 98914.285 -139578.571 98700 -139578.571 98485.714 -139650 98342.857 -139792.857 98271.428 -139935.714 98200 -140221.428 98200 -140435.714 98271.428 -140721.428 98342.857 -140864.285 98485.714 -141007.142 98700 -141078.571 98842.857 -141078.571 99057.142 -141007.142 99128.571 -140935.714 99128.571 -140435.714 98842.857 -140435.714 M 99771.428 -141078.571 99771.428 -139578.571 100628.571 -141078.571 100628.571 -139578.571 M 101342.857 -141078.571 101342.857 -139578.571 101700 -139578.571 101914.285 -139650 102057.142 -139792.857 102128.571 -139935.714 102200 -140221.428 102200 -140435.714 102128.571 -140721.428 102057.142 -140864.285 101914.285 -141007.142 101700 -141078.571 101342.857 -141078.571 M 110392.857 -140292.857 110607.142 -140364.285 110678.571 -140435.714 110750 -140578.571 110750 -140792.857 110678.571 -140935.714 110607.142 -141007.142 110464.285 -141078.571 109892.857 -141078.571 109892.857 -139578.571 110392.857 -139578.571 110535.714 -139650 110607.142 -139721.428 110678.571 -139864.285 110678.571 -140007.142 110607.142 -140150 110535.714 -140221.428 110392.857 -140292.857 109892.857 -140292.857 M 111250 -139578.571 112250 -139578.571 111250 -141078.571 112250 -141078.571 M 104971.428 -141078.571 104114.285 -141078.571 M 104542.857 -141078.571 104542.857 -139578.571 104400 -139792.857 104257.142 -139935.714 104114.285 -140007.142 M 105542.857 -139721.428 105614.285 -139650 105757.142 -139578.571 106114.285 -139578.571 106257.142 -139650 106328.571 -139721.428 106400 -139864.285 106400 -140007.142 106328.571 -140221.428 105471.428 -141078.571 106400 -141078.571 M 106828.571 -139578.571 107328.571 -141078.571 107828.571 -139578.571" fill="none" stroke-width="300"/><path d="M 124570 -111430 122030 -111430 122030 -114100 M 124570 -114100 162800 -114100 M 119360 -114100 122030 -114100 M 122030 -98730 122030 -96060 M 122030 -98730 160130 -98730 160130 -96060 M 124570 -111430 124570 -114100 M 124570 -111430 160130 -111430 160130 -114100" fill="none" stroke-width="120"/><path d="M 155050 -108890 155050 -101270 165210 -101270 165210 -108890 155050 -108890" fill="none" stroke-width="100"/><path d="M 162800 -114100 162800 -96060 119360 -96060 119360 -114100" fill="none" stroke-width="120"/><path d="M 142001.835 -80181.263 A 2289.525 2289.525 0 0 1 137422.785 -80181.263 2289.525 2289.525 0 0 1 142001.835 -80181.263" fill="none" stroke-width="150"/><path d="M 144157.31 -83741.263 145427.31 -85011.263 145427.31 -91361.263 M 135267.31 -83741.263 133997.31 -85011.263 M 145391.923 -80431.263 A 5679.613 5679.613 0 0 1 134032.697 -80431.263 5679.613 5679.613 0 0 1 145391.923 -80431.263 M 133997.31 -91361.263 145427.31 -91361.263 M 133997.31 -85011.263 133997.31 -91361.263" fill="none" stroke-width="50"/><path d="M 75260 -105050 71660 -105050 M 75784.184 -105777.205 A 2581.1818762 2581.1818762 0 0 1 75260 -105050 M 75816.4 -107998.807 A 2599.9995737 2599.9995737 0 0 0 73460 -109500 M 71103.6 -107998.807 A 2599.9995737 2599.9995737 0 0 1 73460 -109500 M 71135.816 -105777.205 A 2581.1818762 2581.1818762 0 0 0 71660 -105050 M 130050 -74500 130050 -86800 M 125470 -86800 122330 -86800 M 117750 -86800 117750 -74500 M 127330 -74500 130050 -74500 M 128439.05 -80750 A 4579.05 4579.05 0 0 1 119280.95 -80750 4579.05 4579.05 0 0 1 128439.05 -80750 M 117750 -74500 120470 -74500 M 122330 -74500 125470 -74500 M 120470 -86800 117750 -86800 M 130050 -86800 127330 -86800 M 81472.31 -90471.265 83472.31 -90471.265 M 114092.31 -70851.265 63552.31 -70851.265 M 114092.31 -90091.265 114092.31 -70851.265 M 63552.31 -90091.265 114092.31 -90091.265 M 63552.31 -90091.265 63552.31 -70851.265 M 64430 -116230 67370 -116230 M 64430 -115990 67370 -115990 M 64430 -116110 67370 -116110 M 67370 -111570 67040 -111570 M 67370 -117010 67370 -111570 M 67040 -117010 67370 -117010 M 64430 -111570 64760 -111570 M 64430 -117010 64430 -111570 M 64760 -117010 64430 -117010 M 69120 -121900 69740 -121900 M 69120 -121900 A 920 920 0 0 1 67280 -121900 920 920 0 0 1 69120 -121900 M 78769.801 -121995 78769.801 -121595 M 78969.801 -121795 78569.801 -121795 M 74619 -120970 74619 -120230 M 74659 -121137 74659 -120063 M 74699 -121264 74699 -119936 M 74739 -121368 74739 -119832 M 74779 -121459 74779 -119741 M 74819 -121540 74819 -119660 M 74859 -121613 74859 -119587 M 74899 -119760 74899 -119520 M 74899 -121680 74899 -121440 M 74939 -119760 74939 -119458 M 74939 -121742 74939 -121440 M 74979 -119760 74979 -119400 M 74979 -121800 74979 -121440 M 75019 -119760 75019 -119346 M 75019 -121854 75019 -121440 M 75059 -119760 75059 -119296 M 75059 -121904 75059 -121440 M 75099 -119760 75099 -119249 M 75099 -121951 75099 -121440 M 75139 -119760 75139 -119204 M 75139 -121996 75139 -121440 M 75179 -119760 75179 -119162 M 75179 -122038 75179 -121440 M 75219 -119760 75219 -119122 M 75219 -122078 75219 -121440 M 75259 -119760 75259 -119084 M 75259 -122116 75259 -121440 M 75299 -119760 75299 -119048 M 75299 -122152 75299 -121440 M 75339 -119760 75339 -119013 M 75339 -122187 75339 -121440 M 75379 -119760 75379 -118981 M 75379 -122219 75379 -121440 M 75419 -119760 75419 -118950 M 75419 -122250 75419 -121440 M 75459 -119760 75459 -118920 M 75459 -122280 75459 -121440 M 75499 -119760 75499 -118892 M 75499 -122308 75499 -121440 M 75539 -119760 75539 -118865 M 75539 -122335 75539 -121440 M 75579 -119760 75579 -118840 M 75579 -122360 75579 -121440 M 75619 -119760 75619 -118815 M 75619 -122385 75619 -121440 M 75659 -119760 75659 -118792 M 75659 -122408 75659 -121440 M 75699 -119760 75699 -118770 M 75699 -122430 75699 -121440 M 75739 -119760 75739 -118749 M 75739 -122451 75739 -121440 M 75779 -119760 75779 -118730 M 75779 -122470 75779 -121440 M 75819 -119760 75819 -118711 M 75819 -122489 75819 -121440 M 75859 -119760 75859 -118693 M 75859 -122507 75859 -121440 M 75899 -119760 75899 -118676 M 75899 -122524 75899 -121440 M 75939 -119760 75939 -118660 M 75939 -122540 75939 -121440 M 75979 -119760 75979 -118646 M 75979 -122554 75979 -121440 M 76020 -119760 76020 -118632 M 76020 -122568 76020 -121440 M 76060 -119760 76060 -118618 M 76060 -122582 76060 -121440 M 76100 -119760 76100 -118606 M 76100 -122594 76100 -121440 M 76140 -119760 76140 -118595 M 76140 -122605 76140 -121440 M 76180 -119760 76180 -118584 M 76180 -122616 76180 -121440 M 76220 -119760 76220 -118575 M 76220 -122625 76220 -121440 M 76260 -119760 76260 -118566 M 76260 -122634 76260 -121440 M 76300 -119760 76300 -118558 M 76300 -122642 76300 -121440 M 76340 -119760 76340 -118550 M 76340 -122650 76340 -121440 M 76380 -119760 76380 -118544 M 76380 -122656 76380 -121440 M 76420 -119760 76420 -118538 M 76420 -122662 76420 -121440 M 76460 -119760 76460 -118533 M 76460 -122667 76460 -121440 M 76500 -119760 76500 -118529 M 76500 -122671 76500 -121440 M 76540 -122674 76540 -118526 M 76580 -122677 76580 -118523 M 76620 -122679 76620 -118521 M 76660 -122680 76660 -118520 M 76700 -122680 76700 -118520 M 78820 -120600 A 2120 2120 0 0 1 74580 -120600 2120 2120 0 0 1 78820 -120600 M 67500 -99280 67500 -98660 M 68420 -100200 A 920 920 0 0 1 66580 -100200 920 920 0 0 1 68420 -100200 M 73580 -112000 72960 -112000 M 75420 -112000 A 920 920 0 0 1 73580 -112000 920 920 0 0 1 75420 -112000 M 69080 -93700 68460 -93700 M 70920 -93700 A 920 920 0 0 1 69080 -93700 920 920 0 0 1 70920 -93700 M 98820 -67175 98820 -67065 M 98820 -68935 98820 -68825 M 98830 -67065 98820 -67065 M 101020 -67065 100289 -67065 M 98830 -68935 98820 -68935 M 101020 -68935 100289 -68935 M 88580 -68825 88580 -68935 M 88580 -67065 88580 -67175 M 88570 -68935 88580 -68935 M 86380 -68935 87111 -68935 M 88570 -67065 88580 -67065 M 86380 -67065 87111 -67065 M 78680 -68825 78680 -68935 M 78680 -67065 78680 -67175 M 78670 -68935 78680 -68935 M 76480 -68935 77211 -68935 M 78670 -67065 78680 -67065 M 76480 -67065 77211 -67065 M 103268.737 -139682.309 113428.737 -139682.309 M 103268.737 -132062.309 103268.737 -139682.309 M 113428.737 -132062.309 103268.737 -132062.309 M 113428.737 -139682.309 113428.737 -132062.309 M 113428.737 -138412.309 103268.737 -138412.309 M 92568.736 -139682.308 102728.736 -139682.308 M 92568.736 -132062.308 92568.736 -139682.308 M 102728.736 -132062.308 92568.736 -132062.308 M 102728.736 -139682.308 102728.736 -132062.308 M 102728.736 -138412.308 92568.736 -138412.308 M 137138.736 -127642.308 137138.736 -124702.308 M 136898.736 -127642.308 136898.736 -124702.308 M 137018.736 -127642.308 137018.736 -124702.308 M 132478.736 -124702.308 132478.736 -125032.308 M 137918.736 -124702.308 132478.736 -124702.308 M 137918.736 -125032.308 137918.736 -124702.308 M 132478.736 -127642.308 132478.736 -127312.308 M 137918.736 -127642.308 132478.736 -127642.308 M 137918.736 -127312.308 137918.736 -127642.308 M 71038.736 -127742.31 71038.736 -124802.31 M 70798.736 -127742.31 70798.736 -124802.31 M 70918.736 -127742.31 70918.736 -124802.31 M 66378.736 -124802.31 66378.736 -125132.31 M 71818.736 -124802.31 66378.736 -124802.31 M 71818.736 -125132.31 71818.736 -124802.31 M 66378.736 -127742.31 66378.736 -127412.31 M 71818.736 -127742.31 66378.736 -127742.31 M 71818.736 -127412.31 71818.736 -127742.31 M 97400 -93420 97400 -94040 M 98320 -92500 A 920 920 0 0 1 96480 -92500 920 920 0 0 1 98320 -92500 M 93200 -93420 93200 -94040 M 94120 -92500 A 920 920 0 0 1 92280 -92500 920 920 0 0 1 94120 -92500 M 89100 -93420 89100 -94040 M 90020 -92500 A 920 920 0 0 1 88180 -92500 920 920 0 0 1 90020 -92500 M 84900 -93420 84900 -94040 M 85820 -92500 A 920 920 0 0 1 83980 -92500 920 920 0 0 1 85820 -92500 M 151572.309 -88671.264 151572.309 -88051.264 M 152492.309 -89591.264 A 920 920 0 0 1 150652.309 -89591.264 920 920 0 0 1 152492.309 -89591.264 M 106128.74 -127872.311 106748.74 -127872.311 M 106128.74 -127872.311 A 920 920 0 0 1 104288.74 -127872.311 920 920 0 0 1 106128.74 -127872.311 M 86800 -128320 86800 -128940 M 87720 -127400 A 920 920 0 0 1 85880 -127400 920 920 0 0 1 87720 -127400 M 154805.643 -80596.263 154805.643 -81866.263 M 153452.31 -81796.263 154805.643 -81796.263 M 153452.31 -81676.263 154805.643 -81676.263 M 153452.31 -81556.263 154805.643 -81556.263 M 153452.31 -81436.263 154805.643 -81436.263 M 153452.31 -81316.263 154805.643 -81316.263 M 153452.31 -81196.263 154805.643 -81196.263 M 153452.31 -81076.263 154805.643 -81076.263 M 153452.31 -80956.263 154805.643 -80956.263 M 153452.31 -80836.263 154805.643 -80836.263 M 153452.31 -80716.263 154805.643 -80716.263 M 157512.31 -80596.263 153452.31 -80596.263 M 157512.31 -81866.263 157512.31 -80596.263 M 153452.31 -81866.263 157512.31 -81866.263 M 153452.31 -80596.263 153452.31 -81866.263 M 154805.643 -78056.263 154805.643 -79326.263 M 153452.31 -79256.263 154805.643 -79256.263 M 153452.31 -79136.263 154805.643 -79136.263 M 153452.31 -79016.263 154805.643 -79016.263 M 153452.31 -78896.263 154805.643 -78896.263 M 153452.31 -78776.263 154805.643 -78776.263 M 153452.31 -78656.263 154805.643 -78656.263 M 153452.31 -78536.263 154805.643 -78536.263 M 153452.31 -78416.263 154805.643 -78416.263 M 153452.31 -78296.263 154805.643 -78296.263 M 153452.31 -78176.263 154805.643 -78176.263 M 157512.31 -78056.263 153452.31 -78056.263 M 157512.31 -79326.263 157512.31 -78056.263 M 153452.31 -79326.263 157512.31 -79326.263 M 153452.31 -78056.263 153452.31 -79326.263 M 150292.31 -76031.263 150292.31 -77414.263 M 150292.31 -76031.263 151676.31 -76031.263 M 160432.31 -76271.263 160432.31 -83651.263 M 150532.31 -76271.263 150532.31 -83651.263 160432.31 -83651.263 M 150532.31 -76271.263 160432.31 -76271.263 M 79020 -67175 79020 -67065 M 79020 -68935 79020 -68825 M 79030 -67065 79020 -67065 M 81220 -67065 80489 -67065 M 79030 -68935 79020 -68935 M 81220 -68935 80489 -68935 M 88920 -67175 88920 -67065 M 88920 -68935 88920 -68825 M 88930 -67065 88920 -67065 M 91120 -67065 90389 -67065 M 88930 -68935 88920 -68935 M 91120 -68935 90389 -68935 M 98480 -68825 98480 -68935 M 98480 -67065 98480 -67175 M 98470 -68935 98480 -68935 M 96280 -68935 97011 -68935 M 98470 -67065 98480 -67065 M 96280 -67065 97011 -67065 M 85680 -110500 84730 -110500 M 79940 -110500 80890 -110500 M 84730 -109580 80890 -109580 M 84730 -111420 84730 -109580 M 80890 -111420 84730 -111420 M 80890 -109580 80890 -111420 M 88580 -112700 87630 -112700 M 82840 -112700 83790 -112700 M 87630 -111780 83790 -111780 M 87630 -113620 87630 -111780 M 83790 -113620 87630 -113620 M 83790 -111780 83790 -113620 M 85680 -115000 84730 -115000 M 79940 -115000 80890 -115000 M 84730 -114080 80890 -114080 M 84730 -115920 84730 -114080 M 80890 -115920 84730 -115920 M 80890 -114080 80890 -115920 M 88480 -117200 87530 -117200 M 82740 -117200 83690 -117200 M 87530 -116280 83690 -116280 M 87530 -118120 87530 -116280 M 83690 -118120 87530 -118120 M 83690 -116280 83690 -118120 M 160630 -124460 160630 -123210 M 142730 -124460 160630 -124460 M 142730 -119960 142730 -124460 M 160630 -119960 142730 -119960 M 160630 -121210 160630 -119960 M 160630 -123210 A 1000 1000 0 0 0 160630 -121210 M 83370 -102190 A 1000 1000 0 0 0 83370 -104190 L 83370 -105840 101270 -105840 101270 -100540 83370 -100540 83370 -102190 M 63477.205 -107364.184 A 2581.1818762 2581.1818762 0 0 0 62750 -106840 M 65698.807 -107396.4 A 2599.9995737 2599.9995737 0 0 1 67200 -105040 M 65698.807 -102683.6 A 2599.9995737 2599.9995737 0 0 0 67200 -105040 M 63477.205 -102715.816 A 2581.1818762 2581.1818762 0 0 1 62750 -103240 L 62750 -106840 M 71968.471 -102691.874 A 2581.1818762 2581.1818762 0 0 0 71241.266 -102167.69 M 74190.073 -102724.09 A 2599.9995737 2599.9995737 0 0 1 75691.266 -100367.69 M 74190.073 -98011.29 A 2599.9995737 2599.9995737 0 0 0 75691.266 -100367.69 M 71968.471 -98043.506 A 2581.1818762 2581.1818762 0 0 1 71241.266 -98567.69 L 71241.266 -102167.69" fill="none" stroke-width="120"/><path d="M 118386.666 -105794.285 118386.666 -105318.095 M 118672.38 -105889.523 117672.38 -105556.19 118672.38 -105222.857 M 118672.38 -104365.714 118672.38 -104937.142 M 118672.38 -104651.428 117672.38 -104651.428 117815.238 -104746.666 117910.476 -104841.904 117958.095 -104937.142 M 132442.857 -104966.666 132919.047 -104966.666 M 132347.619 -105252.38 132680.952 -104252.38 133014.285 -105252.38 M 133347.619 -105252.38 133347.619 -104585.714 M 133347.619 -104776.19 133395.238 -104680.952 133442.857 -104633.333 133538.095 -104585.714 133633.333 -104585.714 M 134395.238 -105252.38 134395.238 -104252.38 M 134395.238 -105204.761 134300 -105252.38 134109.523 -105252.38 134014.285 -105204.761 133966.666 -105157.142 133919.047 -105061.904 133919.047 -104776.19 133966.666 -104680.952 134014.285 -104633.333 134109.523 -104585.714 134300 -104585.714 134395.238 -104633.333 M 135300 -104585.714 135300 -105252.38 M 134871.428 -104585.714 134871.428 -105109.523 134919.047 -105204.761 135014.285 -105252.38 135157.142 -105252.38 135252.38 -105204.761 135300 -105157.142 M 135776.19 -105252.38 135776.19 -104585.714 M 135776.19 -104252.38 135728.571 -104300 135776.19 -104347.619 135823.809 -104300 135776.19 -104252.38 135776.19 -104347.619 M 136252.38 -104585.714 136252.38 -105252.38 M 136252.38 -104680.952 136300 -104633.333 136395.238 -104585.714 136538.095 -104585.714 136633.333 -104633.333 136680.952 -104728.571 136680.952 -105252.38 M 137300 -105252.38 137204.761 -105204.761 137157.142 -105157.142 137109.523 -105061.904 137109.523 -104776.19 137157.142 -104680.952 137204.761 -104633.333 137300 -104585.714 137442.857 -104585.714 137538.095 -104633.333 137585.714 -104680.952 137633.333 -104776.19 137633.333 -105061.904 137585.714 -105157.142 137538.095 -105204.761 137442.857 -105252.38 137300 -105252.38 M 137823.809 -105347.619 138585.714 -105347.619 M 138823.809 -105252.38 138823.809 -104252.38 139395.238 -105252.38 139395.238 -104252.38 M 140300 -105252.38 140300 -104728.571 140252.38 -104633.333 140157.142 -104585.714 139966.666 -104585.714 139871.428 -104633.333 M 140300 -105204.761 140204.761 -105252.38 139966.666 -105252.38 139871.428 -105204.761 139823.809 -105109.523 139823.809 -105014.285 139871.428 -104919.047 139966.666 -104871.428 140204.761 -104871.428 140300 -104823.809 M 140776.19 -104585.714 140776.19 -105252.38 M 140776.19 -104680.952 140823.809 -104633.333 140919.047 -104585.714 141061.904 -104585.714 141157.142 -104633.333 141204.761 -104728.571 141204.761 -105252.38 M 141823.809 -105252.38 141728.571 -105204.761 141680.952 -105157.142 141633.333 -105061.904 141633.333 -104776.19 141680.952 -104680.952 141728.571 -104633.333 141823.809 -104585.714 141966.666 -104585.714 142061.904 -104633.333 142109.523 -104680.952 142157.142 -104776.19 142157.142 -105061.904 142109.523 -105157.142 142061.904 -105204.761 141966.666 -105252.38 141823.809 -105252.38 M 139009.523 -92552.38 138438.095 -92552.38 M 138723.809 -92552.38 138723.809 -91552.38 138628.571 -91695.238 138533.333 -91790.476 138438.095 -91838.095 M 139628.571 -91552.38 139723.809 -91552.38 139819.047 -91600 139866.666 -91647.619 139914.285 -91742.857 139961.904 -91933.333 139961.904 -92171.428 139914.285 -92361.904 139866.666 -92457.142 139819.047 -92504.761 139723.809 -92552.38 139628.571 -92552.38 139533.333 -92504.761 139485.714 -92457.142 139438.095 -92361.904 139390.476 -92171.428 139390.476 -91933.333 139438.095 -91742.857 139485.714 -91647.619 139533.333 -91600 139628.571 -91552.38 M 140390.476 -92552.38 140390.476 -91552.38 M 140961.904 -92552.38 140533.333 -91980.952 M 140961.904 -91552.38 140390.476 -92123.809 M 76604.761 -105547.619 76509.523 -105500 76414.285 -105404.761 76271.428 -105261.904 76176.19 -105214.285 76080.952 -105214.285 M 76128.571 -105452.38 76033.333 -105404.761 75938.095 -105309.523 75890.476 -105119.047 75890.476 -104785.714 75938.095 -104595.238 76033.333 -104500 76128.571 -104452.38 76319.047 -104452.38 76414.285 -104500 76509.523 -104595.238 76557.142 -104785.714 76557.142 -105119.047 76509.523 -105309.523 76414.285 -105404.761 76319.047 -105452.38 76128.571 -105452.38 M 77461.904 -104452.38 76985.714 -104452.38 76938.095 -104928.571 76985.714 -104880.952 77080.952 -104833.333 77319.047 -104833.333 77414.285 -104880.952 77461.904 -104928.571 77509.523 -105023.809 77509.523 -105261.904 77461.904 -105357.142 77414.285 -105404.761 77319.047 -105452.38 77080.952 -105452.38 76985.714 -105404.761 76938.095 -105357.142 M 77352.38 -107914.285 77352.38 -108390.476 77828.571 -108438.095 77780.952 -108390.476 77733.333 -108295.238 77733.333 -108057.142 77780.952 -107961.904 77828.571 -107914.285 77923.809 -107866.666 78161.904 -107866.666 78257.142 -107914.285 78304.761 -107961.904 78352.38 -108057.142 78352.38 -108295.238 78304.761 -108390.476 78257.142 -108438.095 M 77685.714 -107009.523 78352.38 -107009.523 M 77304.761 -107247.619 78019.047 -107485.714 78019.047 -106866.666 M 77352.38 -106580.952 77352.38 -105914.285 78352.38 -106342.857 M 61738.095 -89152.38 61738.095 -89961.904 61785.714 -90057.142 61833.333 -90104.761 61928.571 -90152.38 62119.047 -90152.38 62214.285 -90104.761 62261.904 -90057.142 62309.523 -89961.904 62309.523 -89152.38 M 63309.523 -90152.38 62738.095 -90152.38 M 63023.809 -90152.38 63023.809 -89152.38 62928.571 -89295.238 62833.333 -89390.476 62738.095 -89438.095 M 72300 -90785.714 72300 -91452.38 M 72061.904 -90404.761 71823.809 -91119.047 72442.857 -91119.047 M 72585.714 -91547.619 73347.619 -91547.619 M 73585.714 -91452.38 73585.714 -90452.38 73823.809 -90452.38 73966.666 -90500 74061.904 -90595.238 74109.523 -90690.476 74157.142 -90880.952 74157.142 -91023.809 74109.523 -91214.285 74061.904 -91309.523 73966.666 -91404.761 73823.809 -91452.38 73585.714 -91452.38 M 74585.714 -91452.38 74585.714 -90785.714 M 74585.714 -90452.38 74538.095 -90500 74585.714 -90547.619 74633.333 -90500 74585.714 -90452.38 74585.714 -90547.619 M 75490.476 -90785.714 75490.476 -91595.238 75442.857 -91690.476 75395.238 -91738.095 75300 -91785.714 75157.142 -91785.714 75061.904 -91738.095 M 75490.476 -91404.761 75395.238 -91452.38 75204.761 -91452.38 75109.523 -91404.761 75061.904 -91357.142 75014.285 -91261.904 75014.285 -90976.19 75061.904 -90880.952 75109.523 -90833.333 75204.761 -90785.714 75395.238 -90785.714 75490.476 -90833.333 M 75966.666 -91452.38 75966.666 -90785.714 M 75966.666 -90452.38 75919.047 -90500 75966.666 -90547.619 76014.285 -90500 75966.666 -90452.38 75966.666 -90547.619 M 76300 -90785.714 76680.952 -90785.714 M 76442.857 -90452.38 76442.857 -91309.523 76490.476 -91404.761 76585.714 -91452.38 76680.952 -91452.38 M 76776.19 -91547.619 77538.095 -91547.619 M 77680.952 -90452.38 78347.619 -90452.38 77919.047 -91452.38 M 78490.476 -91547.619 79252.38 -91547.619 M 79442.857 -91404.761 79585.714 -91452.38 79823.809 -91452.38 79919.047 -91404.761 79966.666 -91357.142 80014.285 -91261.904 80014.285 -91166.666 79966.666 -91071.428 79919.047 -91023.809 79823.809 -90976.19 79633.333 -90928.571 79538.095 -90880.952 79490.476 -90833.333 79442.857 -90738.095 79442.857 -90642.857 79490.476 -90547.619 79538.095 -90500 79633.333 -90452.38 79871.428 -90452.38 80014.285 -90500 M 80823.809 -91404.761 80728.571 -91452.38 80538.095 -91452.38 80442.857 -91404.761 80395.238 -91309.523 80395.238 -90928.571 80442.857 -90833.333 80538.095 -90785.714 80728.571 -90785.714 80823.809 -90833.333 80871.428 -90928.571 80871.428 -91023.809 80395.238 -91119.047 M 81728.571 -90785.714 81728.571 -91595.238 81680.952 -91690.476 81633.333 -91738.095 81538.095 -91785.714 81395.238 -91785.714 81300 -91738.095 M 81728.571 -91404.761 81633.333 -91452.38 81442.857 -91452.38 81347.619 -91404.761 81300 -91357.142 81252.38 -91261.904 81252.38 -90976.19 81300 -90880.952 81347.619 -90833.333 81442.857 -90785.714 81633.333 -90785.714 81728.571 -90833.333" fill="none" stroke-width="150"/><path d="M 62949.821 -97000 63521.25 -97000 M 62792.678 -97342.857 63342.678 -96142.857 63592.678 -97342.857 M 63992.678 -97342.857 64142.678 -96142.857 64678.392 -97342.857 64828.392 -96142.857 M 65228.392 -96142.857 65914.107 -96142.857 M 65421.25 -97342.857 65571.25 -96142.857" fill="none" stroke-width="200"/><path d="M 63882.38 -115028.095 62882.38 -115028.095 62882.38 -114790 62930 -114647.142 63025.238 -114551.904 63120.476 -114504.285 63310.952 -114456.666 63453.809 -114456.666 63644.285 -114504.285 63739.523 -114551.904 63834.761 -114647.142 63882.38 -114790 63882.38 -115028.095 M 63882.38 -113504.285 63882.38 -114075.714 M 63882.38 -113790 62882.38 -113790 63025.238 -113885.238 63120.476 -113980.476 63168.095 -114075.714 M 64452.38 -118361.904 63452.38 -118361.904 M 64452.38 -117790.476 63880.952 -118219.047 M 63452.38 -117790.476 64023.809 -118361.904 M 68827.142 -120432.38 68493.809 -119956.19 M 68255.714 -120432.38 68255.714 -119432.38 68636.666 -119432.38 68731.904 -119480 68779.523 -119527.619 68827.142 -119622.857 68827.142 -119765.714 68779.523 -119860.952 68731.904 -119908.571 68636.666 -119956.19 68255.714 -119956.19 M 69779.523 -120432.38 69208.095 -120432.38 M 69493.809 -120432.38 69493.809 -119432.38 69398.571 -119575.238 69303.333 -119670.476 69208.095 -119718.095 M 70636.666 -119765.714 70636.666 -120432.38 M 70398.571 -119384.761 70160.476 -120099.047 70779.523 -120099.047 M 64000 -121547.619 64047.619 -121500 64142.857 -121452.38 64380.952 -121452.38 64476.19 -121500 64523.809 -121547.619 64571.428 -121642.857 64571.428 -121738.095 64523.809 -121880.952 63952.38 -122452.38 64571.428 -122452.38 M 65000 -122357.142 65047.619 -122404.761 65000 -122452.38 64952.38 -122404.761 65000 -122357.142 65000 -122452.38 M 65428.571 -121547.619 65476.19 -121500 65571.428 -121452.38 65809.523 -121452.38 65904.761 -121500 65952.38 -121547.619 66000 -121642.857 66000 -121738.095 65952.38 -121880.952 65380.952 -122452.38 66000 -122452.38 M 66428.571 -122452.38 66428.571 -121452.38 M 67000 -122452.38 66571.428 -121880.952 M 67000 -121452.38 66428.571 -122023.809 M 79542.857 -120633.333 79495.238 -120585.714 79447.619 -120442.857 79447.619 -120347.619 79495.238 -120204.761 79590.476 -120109.523 79685.714 -120061.904 79876.19 -120014.285 80019.047 -120014.285 80209.523 -120061.904 80304.761 -120109.523 80400 -120204.761 80447.619 -120347.619 80447.619 -120442.857 80400 -120585.714 80352.38 -120633.333 M 80352.38 -121014.285 80400 -121061.904 80447.619 -121157.142 80447.619 -121395.238 80400 -121490.476 80352.38 -121538.095 80257.142 -121585.714 80161.904 -121585.714 80019.047 -121538.095 79447.619 -120966.666 79447.619 -121585.714 M 75052.38 -124252.38 74480.952 -124252.38 M 74766.666 -124252.38 74766.666 -123252.38 74671.428 -123395.238 74576.19 -123490.476 74480.952 -123538.095 M 75671.428 -123252.38 75766.666 -123252.38 75861.904 -123300 75909.523 -123347.619 75957.142 -123442.857 76004.761 -123633.333 76004.761 -123871.428 75957.142 -124061.904 75909.523 -124157.142 75861.904 -124204.761 75766.666 -124252.38 75671.428 -124252.38 75576.19 -124204.761 75528.571 -124157.142 75480.952 -124061.904 75433.333 -123871.428 75433.333 -123633.333 75480.952 -123442.857 75528.571 -123347.619 75576.19 -123300 75671.428 -123252.38 M 76623.809 -123252.38 76719.047 -123252.38 76814.285 -123300 76861.904 -123347.619 76909.523 -123442.857 76957.142 -123633.333 76957.142 -123871.428 76909.523 -124061.904 76861.904 -124157.142 76814.285 -124204.761 76719.047 -124252.38 76623.809 -124252.38 76528.571 -124204.761 76480.952 -124157.142 76433.333 -124061.904 76385.714 -123871.428 76385.714 -123633.333 76433.333 -123442.857 76480.952 -123347.619 76528.571 -123300 76623.809 -123252.38 M 77814.285 -123585.714 77814.285 -124252.38 M 77385.714 -123585.714 77385.714 -124109.523 77433.333 -124204.761 77528.571 -124252.38 77671.428 -124252.38 77766.666 -124204.761 77814.285 -124157.142 M 78623.809 -123728.571 78290.476 -123728.571 M 78290.476 -124252.38 78290.476 -123252.38 78766.666 -123252.38 M 69552.38 -98842.857 69076.19 -99176.19 M 69552.38 -99414.285 68552.38 -99414.285 68552.38 -99033.333 68600 -98938.095 68647.619 -98890.476 68742.857 -98842.857 68885.714 -98842.857 68980.952 -98890.476 69028.571 -98938.095 69076.19 -99033.333 69076.19 -99414.285 M 69552.38 -97890.476 69552.38 -98461.904 M 69552.38 -98176.19 68552.38 -98176.19 68695.238 -98271.428 68790.476 -98366.666 68838.095 -98461.904 M 68552.38 -96985.714 68552.38 -97461.904 69028.571 -97509.523 68980.952 -97461.904 68933.333 -97366.666 68933.333 -97128.571 68980.952 -97033.333 69028.571 -96985.714 69123.809 -96938.095 69361.904 -96938.095 69457.142 -96985.714 69504.761 -97033.333 69552.38 -97128.571 69552.38 -97366.666 69504.761 -97461.904 69457.142 -97509.523 M 69652.38 -101414.285 69652.38 -101985.714 M 69652.38 -101700 68652.38 -101700 68795.238 -101795.238 68890.476 -101890.476 68938.095 -101985.714 M 69652.38 -100985.714 68652.38 -100985.714 M 69652.38 -100414.285 69080.952 -100842.857 M 68652.38 -100414.285 69223.809 -100985.714 M 70852.38 -112742.857 70376.19 -113076.19 M 70852.38 -113314.285 69852.38 -113314.285 69852.38 -112933.333 69900 -112838.095 69947.619 -112790.476 70042.857 -112742.857 70185.714 -112742.857 70280.952 -112790.476 70328.571 -112838.095 70376.19 -112933.333 70376.19 -113314.285 M 70852.38 -111790.476 70852.38 -112361.904 M 70852.38 -112076.19 69852.38 -112076.19 69995.238 -112171.428 70090.476 -112266.666 70138.095 -112361.904 M 69852.38 -110933.333 69852.38 -111123.809 69900 -111219.047 69947.619 -111266.666 70090.476 -111361.904 70280.952 -111409.523 70661.904 -111409.523 70757.142 -111361.904 70804.761 -111314.285 70852.38 -111219.047 70852.38 -111028.571 70804.761 -110933.333 70757.142 -110885.714 70661.904 -110838.095 70423.809 -110838.095 70328.571 -110885.714 70280.952 -110933.333 70233.333 -111028.571 70233.333 -111219.047 70280.952 -111314.285 70328.571 -111361.904 70423.809 -111409.523 M 72233.333 -114252.38 71661.904 -114252.38 M 71947.619 -114252.38 71947.619 -113252.38 71852.38 -113395.238 71757.142 -113490.476 71661.904 -113538.095 M 72852.38 -113252.38 72947.619 -113252.38 73042.857 -113300 73090.476 -113347.619 73138.095 -113442.857 73185.714 -113633.333 73185.714 -113871.428 73138.095 -114061.904 73090.476 -114157.142 73042.857 -114204.761 72947.619 -114252.38 72852.38 -114252.38 72757.142 -114204.761 72709.523 -114157.142 72661.904 -114061.904 72614.285 -113871.428 72614.285 -113633.333 72661.904 -113442.857 72709.523 -113347.619 72757.142 -113300 72852.38 -113252.38 M 73804.761 -113252.38 73900 -113252.38 73995.238 -113300 74042.857 -113347.619 74090.476 -113442.857 74138.095 -113633.333 74138.095 -113871.428 74090.476 -114061.904 74042.857 -114157.142 73995.238 -114204.761 73900 -114252.38 73804.761 -114252.38 73709.523 -114204.761 73661.904 -114157.142 73614.285 -114061.904 73566.666 -113871.428 73566.666 -113633.333 73614.285 -113442.857 73661.904 -113347.619 73709.523 -113300 73804.761 -113252.38 M 74566.666 -114252.38 74566.666 -113252.38 M 75138.095 -114252.38 74709.523 -113680.952 M 75138.095 -113252.38 74566.666 -113823.809 M 67957.142 -92552.38 67623.809 -92076.19 M 67385.714 -92552.38 67385.714 -91552.38 67766.666 -91552.38 67861.904 -91600 67909.523 -91647.619 67957.142 -91742.857 67957.142 -91885.714 67909.523 -91980.952 67861.904 -92028.571 67766.666 -92076.19 67385.714 -92076.19 M 68909.523 -92552.38 68338.095 -92552.38 M 68623.809 -92552.38 68623.809 -91552.38 68528.571 -91695.238 68433.333 -91790.476 68338.095 -91838.095 M 69242.857 -91552.38 69909.523 -91552.38 69480.952 -92552.38 M 65852.38 -93985.714 65852.38 -94557.142 M 65852.38 -94271.428 64852.38 -94271.428 64995.238 -94366.666 65090.476 -94461.904 65138.095 -94557.142 M 65852.38 -93557.142 64852.38 -93557.142 65566.666 -93223.809 64852.38 -92890.476 65852.38 -92890.476 M 95885.714 -69585.714 96123.809 -70252.38 M 96361.904 -69585.714 96123.809 -70252.38 96028.571 -70490.476 95980.952 -70538.095 95885.714 -70585.714 M 97266.666 -70252.38 96695.238 -70252.38 M 96980.952 -70252.38 96980.952 -69252.38 96885.714 -69395.238 96790.476 -69490.476 96695.238 -69538.095 M 86252.38 -70252.38 86252.38 -69585.714 M 86252.38 -69776.19 86300 -69680.952 86347.619 -69633.333 86442.857 -69585.714 86538.095 -69585.714 M 87395.238 -70252.38 86823.809 -70252.38 M 87109.523 -70252.38 87109.523 -69252.38 87014.285 -69395.238 86919.047 -69490.476 86823.809 -69538.095 M 76938.095 -69585.714 76938.095 -70395.238 76890.476 -70490.476 76842.857 -70538.095 76747.619 -70585.714 76604.761 -70585.714 76509.523 -70538.095 M 76938.095 -70204.761 76842.857 -70252.38 76652.38 -70252.38 76557.142 -70204.761 76509.523 -70157.142 76461.904 -70061.904 76461.904 -69776.19 76509.523 -69680.952 76557.142 -69633.333 76652.38 -69585.714 76842.857 -69585.714 76938.095 -69633.333 M 77938.095 -70252.38 77366.666 -70252.38 M 77652.38 -70252.38 77652.38 -69252.38 77557.142 -69395.238 77461.904 -69490.476 77366.666 -69538.095 M 140252.38 -141052.38 140157.142 -141004.761 140109.523 -140957.142 140061.904 -140861.904 140061.904 -140576.19 140109.523 -140480.952 140157.142 -140433.333 140252.38 -140385.714 140395.238 -140385.714 140490.476 -140433.333 140538.095 -140480.952 140585.714 -140576.19 140585.714 -140861.904 140538.095 -140957.142 140490.476 -141004.761 140395.238 -141052.38 140252.38 -141052.38 M 141014.285 -140385.714 141014.285 -141052.38 M 141014.285 -140480.952 141061.904 -140433.333 141157.142 -140385.714 141300 -140385.714 141395.238 -140433.333 141442.857 -140528.571 141442.857 -141052.38 M 142490.476 -141052.38 142157.142 -140576.19 M 141919.047 -141052.38 141919.047 -140052.38 142300 -140052.38 142395.238 -140100 142442.857 -140147.619 142490.476 -140242.857 142490.476 -140385.714 142442.857 -140480.952 142395.238 -140528.571 142300 -140576.19 141919.047 -140576.19 M 143300 -141004.761 143204.761 -141052.38 143014.285 -141052.38 142919.047 -141004.761 142871.428 -140909.523 142871.428 -140528.571 142919.047 -140433.333 143014.285 -140385.714 143204.761 -140385.714 143300 -140433.333 143347.619 -140528.571 143347.619 -140623.809 142871.428 -140719.047 M 143919.047 -141052.38 143823.809 -141004.761 143776.19 -140909.523 143776.19 -140052.38 M 144728.571 -141052.38 144728.571 -140528.571 144680.952 -140433.333 144585.714 -140385.714 144395.238 -140385.714 144300 -140433.333 M 144728.571 -141004.761 144633.333 -141052.38 144395.238 -141052.38 144300 -141004.761 144252.38 -140909.523 144252.38 -140814.285 144300 -140719.047 144395.238 -140671.428 144633.333 -140671.428 144728.571 -140623.809 M 145109.523 -140385.714 145347.619 -141052.38 M 145585.714 -140385.714 145347.619 -141052.38 145252.38 -141290.476 145204.761 -141338.095 145109.523 -141385.714 M 74233.333 -141052.38 74138.095 -141004.761 74090.476 -140957.142 74042.857 -140861.904 74042.857 -140576.19 74090.476 -140480.952 74138.095 -140433.333 74233.333 -140385.714 74376.19 -140385.714 74471.428 -140433.333 74519.047 -140480.952 74566.666 -140576.19 74566.666 -140861.904 74519.047 -140957.142 74471.428 -141004.761 74376.19 -141052.38 74233.333 -141052.38 M 74852.38 -140385.714 75233.333 -140385.714 M 74995.238 -141052.38 74995.238 -140195.238 75042.857 -140100 75138.095 -140052.38 75233.333 -140052.38 M 75423.809 -140385.714 75804.761 -140385.714 M 75566.666 -141052.38 75566.666 -140195.238 75614.285 -140100 75709.523 -140052.38 75804.761 -140052.38 M 76709.523 -141052.38 76376.19 -140576.19 M 76138.095 -141052.38 76138.095 -140052.38 76519.047 -140052.38 76614.285 -140100 76661.904 -140147.619 76709.523 -140242.857 76709.523 -140385.714 76661.904 -140480.952 76614.285 -140528.571 76519.047 -140576.19 76138.095 -140576.19 M 77519.047 -141004.761 77423.809 -141052.38 77233.333 -141052.38 77138.095 -141004.761 77090.476 -140909.523 77090.476 -140528.571 77138.095 -140433.333 77233.333 -140385.714 77423.809 -140385.714 77519.047 -140433.333 77566.666 -140528.571 77566.666 -140623.809 77090.476 -140719.047 M 78138.095 -141052.38 78042.857 -141004.761 77995.238 -140909.523 77995.238 -140052.38 M 78947.619 -141052.38 78947.619 -140528.571 78900 -140433.333 78804.761 -140385.714 78614.285 -140385.714 78519.047 -140433.333 M 78947.619 -141004.761 78852.38 -141052.38 78614.285 -141052.38 78519.047 -141004.761 78471.428 -140909.523 78471.428 -140814.285 78519.047 -140719.047 78614.285 -140671.428 78852.38 -140671.428 78947.619 -140623.809 M 79328.571 -140385.714 79566.666 -141052.38 M 79804.761 -140385.714 79566.666 -141052.38 79471.428 -141290.476 79423.809 -141338.095 79328.571 -141385.714 M 134460.64 -129094.688 134460.64 -128094.688 134698.736 -128094.688 134841.593 -128142.308 134936.831 -128237.546 134984.45 -128332.784 135032.069 -128523.26 135032.069 -128666.117 134984.45 -128856.593 134936.831 -128951.831 134841.593 -129047.069 134698.736 -129094.688 134460.64 -129094.688 M 135889.212 -128428.022 135889.212 -129094.688 M 135651.116 -128047.069 135413.021 -128761.355 136032.069 -128761.355 M 138746.831 -128524.688 138746.831 -127524.688 M 139318.259 -128524.688 138889.688 -127953.26 M 139318.259 -127524.688 138746.831 -128096.117 M 68360.64 -129194.69 68360.64 -128194.69 68598.736 -128194.69 68741.593 -128242.31 68836.831 -128337.548 68884.45 -128432.786 68932.069 -128623.262 68932.069 -128766.119 68884.45 -128956.595 68836.831 -129051.833 68741.593 -129147.071 68598.736 -129194.69 68360.64 -129194.69 M 69836.831 -128194.69 69360.64 -128194.69 69313.021 -128670.881 69360.64 -128623.262 69455.878 -128575.643 69693.974 -128575.643 69789.212 -128623.262 69836.831 -128670.881 69884.45 -128766.119 69884.45 -129004.214 69836.831 -129099.452 69789.212 -129147.071 69693.974 -129194.69 69455.878 -129194.69 69360.64 -129147.071 69313.021 -129099.452 M 72646.831 -128624.69 72646.831 -127624.69 M 73218.259 -128624.69 72789.688 -128053.262 M 73218.259 -127624.69 72646.831 -128196.119 M 97333.333 -97152.38 97000 -96676.19 M 96761.904 -97152.38 96761.904 -96152.38 97142.857 -96152.38 97238.095 -96200 97285.714 -96247.619 97333.333 -96342.857 97333.333 -96485.714 97285.714 -96580.952 97238.095 -96628.571 97142.857 -96676.19 96761.904 -96676.19 M 97904.761 -96580.952 97809.523 -96533.333 97761.904 -96485.714 97714.285 -96390.476 97714.285 -96342.857 97761.904 -96247.619 97809.523 -96200 97904.761 -96152.38 98095.238 -96152.38 98190.476 -96200 98238.095 -96247.619 98285.714 -96342.857 98285.714 -96390.476 98238.095 -96485.714 98190.476 -96533.333 98095.238 -96580.952 97904.761 -96580.952 97809.523 -96628.571 97761.904 -96676.19 97714.285 -96771.428 97714.285 -96961.904 97761.904 -97057.142 97809.523 -97104.761 97904.761 -97152.38 98095.238 -97152.38 98190.476 -97104.761 98238.095 -97057.142 98285.714 -96961.904 98285.714 -96771.428 98238.095 -96676.19 98190.476 -96628.571 98095.238 -96580.952 M 98927.619 -95008.095 98880 -94960.476 98832.38 -94865.238 98832.38 -94627.142 98880 -94531.904 98927.619 -94484.285 99022.857 -94436.666 99118.095 -94436.666 99260.952 -94484.285 99832.38 -95055.714 99832.38 -94436.666 M 98927.619 -94055.714 98880 -94008.095 98832.38 -93912.857 98832.38 -93674.761 98880 -93579.523 98927.619 -93531.904 99022.857 -93484.285 99118.095 -93484.285 99260.952 -93531.904 99832.38 -94103.333 99832.38 -93484.285 M 98832.38 -92865.238 98832.38 -92770 98880 -92674.761 98927.619 -92627.142 99022.857 -92579.523 99213.333 -92531.904 99451.428 -92531.904 99641.904 -92579.523 99737.142 -92627.142 99784.761 -92674.761 99832.38 -92770 99832.38 -92865.238 99784.761 -92960.476 99737.142 -93008.095 99641.904 -93055.714 99451.428 -93103.333 99213.333 -93103.333 99022.857 -93055.714 98927.619 -93008.095 98880 -92960.476 98832.38 -92865.238 M 93033.333 -97152.38 92700 -96676.19 M 92461.904 -97152.38 92461.904 -96152.38 92842.857 -96152.38 92938.095 -96200 92985.714 -96247.619 93033.333 -96342.857 93033.333 -96485.714 92985.714 -96580.952 92938.095 -96628.571 92842.857 -96676.19 92461.904 -96676.19 M 93509.523 -97152.38 93700 -97152.38 93795.238 -97104.761 93842.857 -97057.142 93938.095 -96914.285 93985.714 -96723.809 93985.714 -96342.857 93938.095 -96247.619 93890.476 -96200 93795.238 -96152.38 93604.761 -96152.38 93509.523 -96200 93461.904 -96247.619 93414.285 -96342.857 93414.285 -96580.952 93461.904 -96676.19 93509.523 -96723.809 93604.761 -96771.428 93795.238 -96771.428 93890.476 -96723.809 93938.095 -96676.19 93985.714 -96580.952 M 94727.619 -95008.095 94680 -94960.476 94632.38 -94865.238 94632.38 -94627.142 94680 -94531.904 94727.619 -94484.285 94822.857 -94436.666 94918.095 -94436.666 95060.952 -94484.285 95632.38 -95055.714 95632.38 -94436.666 M 94727.619 -94055.714 94680 -94008.095 94632.38 -93912.857 94632.38 -93674.761 94680 -93579.523 94727.619 -93531.904 94822.857 -93484.285 94918.095 -93484.285 95060.952 -93531.904 95632.38 -94103.333 95632.38 -93484.285 M 94632.38 -92865.238 94632.38 -92770 94680 -92674.761 94727.619 -92627.142 94822.857 -92579.523 95013.333 -92531.904 95251.428 -92531.904 95441.904 -92579.523 95537.142 -92627.142 95584.761 -92674.761 95632.38 -92770 95632.38 -92865.238 95584.761 -92960.476 95537.142 -93008.095 95441.904 -93055.714 95251.428 -93103.333 95013.333 -93103.333 94822.857 -93055.714 94727.619 -93008.095 94680 -92960.476 94632.38 -92865.238 M 88557.142 -97252.38 88223.809 -96776.19 M 87985.714 -97252.38 87985.714 -96252.38 88366.666 -96252.38 88461.904 -96300 88509.523 -96347.619 88557.142 -96442.857 88557.142 -96585.714 88509.523 -96680.952 88461.904 -96728.571 88366.666 -96776.19 87985.714 -96776.19 M 89509.523 -97252.38 88938.095 -97252.38 M 89223.809 -97252.38 89223.809 -96252.38 89128.571 -96395.238 89033.333 -96490.476 88938.095 -96538.095 M 90128.571 -96252.38 90223.809 -96252.38 90319.047 -96300 90366.666 -96347.619 90414.285 -96442.857 90461.904 -96633.333 90461.904 -96871.428 90414.285 -97061.904 90366.666 -97157.142 90319.047 -97204.761 90223.809 -97252.38 90128.571 -97252.38 90033.333 -97204.761 89985.714 -97157.142 89938.095 -97061.904 89890.476 -96871.428 89890.476 -96633.333 89938.095 -96442.857 89985.714 -96347.619 90033.333 -96300 90128.571 -96252.38 M 90627.619 -95008.095 90580 -94960.476 90532.38 -94865.238 90532.38 -94627.142 90580 -94531.904 90627.619 -94484.285 90722.857 -94436.666 90818.095 -94436.666 90960.952 -94484.285 91532.38 -95055.714 91532.38 -94436.666 M 90627.619 -94055.714 90580 -94008.095 90532.38 -93912.857 90532.38 -93674.761 90580 -93579.523 90627.619 -93531.904 90722.857 -93484.285 90818.095 -93484.285 90960.952 -93531.904 91532.38 -94103.333 91532.38 -93484.285 M 90532.38 -92865.238 90532.38 -92770 90580 -92674.761 90627.619 -92627.142 90722.857 -92579.523 90913.333 -92531.904 91151.428 -92531.904 91341.904 -92579.523 91437.142 -92627.142 91484.761 -92674.761 91532.38 -92770 91532.38 -92865.238 91484.761 -92960.476 91437.142 -93008.095 91341.904 -93055.714 91151.428 -93103.333 90913.333 -93103.333 90722.857 -93055.714 90627.619 -93008.095 90580 -92960.476 90532.38 -92865.238 M 84157.142 -97152.38 83823.809 -96676.19 M 83585.714 -97152.38 83585.714 -96152.38 83966.666 -96152.38 84061.904 -96200 84109.523 -96247.619 84157.142 -96342.857 84157.142 -96485.714 84109.523 -96580.952 84061.904 -96628.571 83966.666 -96676.19 83585.714 -96676.19 M 85109.523 -97152.38 84538.095 -97152.38 M 84823.809 -97152.38 84823.809 -96152.38 84728.571 -96295.238 84633.333 -96390.476 84538.095 -96438.095 M 86061.904 -97152.38 85490.476 -97152.38 M 85776.19 -97152.38 85776.19 -96152.38 85680.952 -96295.238 85585.714 -96390.476 85490.476 -96438.095 M 86427.619 -95008.095 86380 -94960.476 86332.38 -94865.238 86332.38 -94627.142 86380 -94531.904 86427.619 -94484.285 86522.857 -94436.666 86618.095 -94436.666 86760.952 -94484.285 87332.38 -95055.714 87332.38 -94436.666 M 86427.619 -94055.714 86380 -94008.095 86332.38 -93912.857 86332.38 -93674.761 86380 -93579.523 86427.619 -93531.904 86522.857 -93484.285 86618.095 -93484.285 86760.952 -93531.904 87332.38 -94103.333 87332.38 -93484.285 M 86332.38 -92865.238 86332.38 -92770 86380 -92674.761 86427.619 -92627.142 86522.857 -92579.523 86713.333 -92531.904 86951.428 -92531.904 87141.904 -92579.523 87237.142 -92627.142 87284.761 -92674.761 87332.38 -92770 87332.38 -92865.238 87284.761 -92960.476 87237.142 -93008.095 87141.904 -93055.714 86951.428 -93103.333 86713.333 -93103.333 86522.857 -93055.714 86427.619 -93008.095 86380 -92960.476 86332.38 -92865.238 M 150104.689 -88964.121 149628.499 -89297.454 M 150104.689 -89535.549 149104.689 -89535.549 149104.689 -89154.597 149152.309 -89059.359 149199.928 -89011.74 149295.166 -88964.121 149438.023 -88964.121 149533.261 -89011.74 149580.88 -89059.359 149628.499 -89154.597 149628.499 -89535.549 M 150104.689 -88011.74 150104.689 -88583.168 M 150104.689 -88297.454 149104.689 -88297.454 149247.547 -88392.692 149342.785 -88487.93 149390.404 -88583.168 M 149199.928 -87630.787 149152.309 -87583.168 149104.689 -87487.93 149104.689 -87249.835 149152.309 -87154.597 149199.928 -87106.978 149295.166 -87059.359 149390.404 -87059.359 149533.261 -87106.978 150104.689 -87678.406 150104.689 -87059.359 M 153944.689 -89011.74 153944.689 -89583.168 M 153944.689 -89297.454 152944.689 -89297.454 153087.547 -89392.692 153182.785 -89487.93 153230.404 -89583.168 M 152944.689 -88392.692 152944.689 -88297.454 152992.309 -88202.216 153039.928 -88154.597 153135.166 -88106.978 153325.642 -88059.359 153563.737 -88059.359 153754.213 -88106.978 153849.451 -88154.597 153897.07 -88202.216 153944.689 -88297.454 153944.689 -88392.692 153897.07 -88487.93 153849.451 -88535.549 153754.213 -88583.168 153563.737 -88630.787 153325.642 -88630.787 153135.166 -88583.168 153039.928 -88535.549 152992.309 -88487.93 152944.689 -88392.692 M 153944.689 -87630.787 152944.689 -87630.787 M 153944.689 -87059.359 153373.261 -87487.93 M 152944.689 -87059.359 153516.118 -87630.787 M 105835.882 -126404.691 105502.549 -125928.501 M 105264.454 -126404.691 105264.454 -125404.691 105645.406 -125404.691 105740.644 -125452.311 105788.263 -125499.93 105835.882 -125595.168 105835.882 -125738.025 105788.263 -125833.263 105740.644 -125880.882 105645.406 -125928.501 105264.454 -125928.501 M 106788.263 -126404.691 106216.835 -126404.691 M 106502.549 -126404.691 106502.549 -125404.691 106407.311 -125547.549 106312.073 -125642.787 106216.835 -125690.406 M 107121.597 -125404.691 107740.644 -125404.691 107407.311 -125785.644 107550.168 -125785.644 107645.406 -125833.263 107693.025 -125880.882 107740.644 -125976.12 107740.644 -126214.215 107693.025 -126309.453 107645.406 -126357.072 107550.168 -126404.691 107264.454 -126404.691 107169.216 -126357.072 107121.597 -126309.453 M 106264.454 -130244.691 105693.025 -130244.691 M 105978.74 -130244.691 105978.74 -129244.691 105883.501 -129387.549 105788.263 -129482.787 105693.025 -129530.406 M 106693.025 -130244.691 106693.025 -129244.691 M 107264.454 -130244.691 106835.882 -129673.263 M 107264.454 -129244.691 106693.025 -129816.12 M 89172.38 -129312.857 88696.19 -129646.19 M 89172.38 -129884.285 88172.38 -129884.285 88172.38 -129503.333 88220 -129408.095 88267.619 -129360.476 88362.857 -129312.857 88505.714 -129312.857 88600.952 -129360.476 88648.571 -129408.095 88696.19 -129503.333 88696.19 -129884.285 M 89172.38 -128360.476 89172.38 -128931.904 M 89172.38 -128646.19 88172.38 -128646.19 88315.238 -128741.428 88410.476 -128836.666 88458.095 -128931.904 M 88600.952 -127789.047 88553.333 -127884.285 88505.714 -127931.904 88410.476 -127979.523 88362.857 -127979.523 88267.619 -127931.904 88220 -127884.285 88172.38 -127789.047 88172.38 -127598.571 88220 -127503.333 88267.619 -127455.714 88362.857 -127408.095 88410.476 -127408.095 88505.714 -127455.714 88553.333 -127503.333 88600.952 -127598.571 88600.952 -127789.047 88648.571 -127884.285 88696.19 -127931.904 88791.428 -127979.523 88981.904 -127979.523 89077.142 -127931.904 89124.761 -127884.285 89172.38 -127789.047 89172.38 -127598.571 89124.761 -127503.333 89077.142 -127455.714 88981.904 -127408.095 88791.428 -127408.095 88696.19 -127455.714 88648.571 -127503.333 88600.952 -127598.571 M 85332.38 -128884.285 85332.38 -129455.714 M 85332.38 -129170 84332.38 -129170 84475.238 -129265.238 84570.476 -129360.476 84618.095 -129455.714 M 85332.38 -128455.714 84332.38 -128455.714 M 85332.38 -127884.285 84760.952 -128312.857 M 84332.38 -127884.285 84903.809 -128455.714 M 151268.024 -85056.024 151410.881 -85103.643 151648.976 -85103.643 151744.214 -85056.024 151791.833 -85008.405 151839.452 -84913.167 151839.452 -84817.929 151791.833 -84722.691 151744.214 -84675.072 151648.976 -84627.453 151458.5 -84579.834 151363.262 -84532.215 151315.643 -84484.596 151268.024 -84389.358 151268.024 -84294.12 151315.643 -84198.882 151363.262 -84151.263 151458.5 -84103.643 151696.595 -84103.643 151839.452 -84151.263 M 152172.786 -84103.643 152410.881 -85103.643 152601.357 -84389.358 152791.833 -85103.643 153029.929 -84103.643 M 153172.786 -85198.882 153934.69 -85198.882 M 154172.786 -85103.643 154172.786 -84103.643 154410.881 -84103.643 154553.738 -84151.263 154648.976 -84246.501 154696.595 -84341.739 154744.214 -84532.215 154744.214 -84675.072 154696.595 -84865.548 154648.976 -84960.786 154553.738 -85056.024 154410.881 -85103.643 154172.786 -85103.643 M 155172.786 -85103.643 155172.786 -84103.643 M 155648.976 -85103.643 155648.976 -84103.643 156029.929 -84103.643 156125.167 -84151.263 156172.786 -84198.882 156220.405 -84294.12 156220.405 -84436.977 156172.786 -84532.215 156125.167 -84579.834 156029.929 -84627.453 155648.976 -84627.453 M 156410.881 -85198.882 157172.786 -85198.882 M 157315.643 -85103.643 157839.452 -84436.977 M 157315.643 -84436.977 157839.452 -85103.643 M 158410.881 -84103.643 158506.119 -84103.643 158601.357 -84151.263 158648.976 -84198.882 158696.595 -84294.12 158744.214 -84484.596 158744.214 -84722.691 158696.595 -84913.167 158648.976 -85008.405 158601.357 -85056.024 158506.119 -85103.643 158410.881 -85103.643 158315.643 -85056.024 158268.024 -85008.405 158220.405 -84913.167 158172.786 -84722.691 158172.786 -84484.596 158220.405 -84294.12 158268.024 -84198.882 158315.643 -84151.263 158410.881 -84103.643 M 159125.167 -84198.882 159172.786 -84151.263 159268.024 -84103.643 159506.119 -84103.643 159601.357 -84151.263 159648.976 -84198.882 159696.595 -84294.12 159696.595 -84389.358 159648.976 -84532.215 159077.548 -85103.643 159696.595 -85103.643 M 80538.095 -69585.714 80538.095 -70395.238 80490.476 -70490.476 80442.857 -70538.095 80347.619 -70585.714 80204.761 -70585.714 80109.523 -70538.095 M 80538.095 -70204.761 80442.857 -70252.38 80252.38 -70252.38 80157.142 -70204.761 80109.523 -70157.142 80061.904 -70061.904 80061.904 -69776.19 80109.523 -69680.952 80157.142 -69633.333 80252.38 -69585.714 80442.857 -69585.714 80538.095 -69633.333 M 80966.666 -69347.619 81014.285 -69300 81109.523 -69252.38 81347.619 -69252.38 81442.857 -69300 81490.476 -69347.619 81538.095 -69442.857 81538.095 -69538.095 81490.476 -69680.952 80919.047 -70252.38 81538.095 -70252.38 M 90052.38 -70252.38 90052.38 -69585.714 M 90052.38 -69776.19 90100 -69680.952 90147.619 -69633.333 90242.857 -69585.714 90338.095 -69585.714 M 90623.809 -69347.619 90671.428 -69300 90766.666 -69252.38 91004.761 -69252.38 91100 -69300 91147.619 -69347.619 91195.238 -69442.857 91195.238 -69538.095 91147.619 -69680.952 90576.19 -70252.38 91195.238 -70252.38 M 100085.714 -69585.714 100323.809 -70252.38 M 100561.904 -69585.714 100323.809 -70252.38 100228.571 -70490.476 100180.952 -70538.095 100085.714 -70585.714 M 100895.238 -69347.619 100942.857 -69300 101038.095 -69252.38 101276.19 -69252.38 101371.428 -69300 101419.047 -69347.619 101466.666 -69442.857 101466.666 -69538.095 101419.047 -69680.952 100847.619 -70252.38 101466.666 -70252.38 M 77033.333 -111052.38 76700 -110576.19 M 76461.904 -111052.38 76461.904 -110052.38 76842.857 -110052.38 76938.095 -110100 76985.714 -110147.619 77033.333 -110242.857 77033.333 -110385.714 76985.714 -110480.952 76938.095 -110528.571 76842.857 -110576.19 76461.904 -110576.19 M 77890.476 -110385.714 77890.476 -111052.38 M 77652.38 -110004.761 77414.285 -110719.047 78033.333 -110719.047 M 87761.904 -110147.619 87809.523 -110100 87904.761 -110052.38 88142.857 -110052.38 88238.095 -110100 88285.714 -110147.619 88333.333 -110242.857 88333.333 -110338.095 88285.714 -110480.952 87714.285 -111052.38 88333.333 -111052.38 M 88714.285 -110147.619 88761.904 -110100 88857.142 -110052.38 89095.238 -110052.38 89190.476 -110100 89238.095 -110147.619 89285.714 -110242.857 89285.714 -110338.095 89238.095 -110480.952 88666.666 -111052.38 89285.714 -111052.38 M 89904.761 -110052.38 90000 -110052.38 90095.238 -110100 90142.857 -110147.619 90190.476 -110242.857 90238.095 -110433.333 90238.095 -110671.428 90190.476 -110861.904 90142.857 -110957.142 90095.238 -111004.761 90000 -111052.38 89904.761 -111052.38 89809.523 -111004.761 89761.904 -110957.142 89714.285 -110861.904 89666.666 -110671.428 89666.666 -110433.333 89714.285 -110242.857 89761.904 -110147.619 89809.523 -110100 89904.761 -110052.38 M 79833.333 -113152.38 79500 -112676.19 M 79261.904 -113152.38 79261.904 -112152.38 79642.857 -112152.38 79738.095 -112200 79785.714 -112247.619 79833.333 -112342.857 79833.333 -112485.714 79785.714 -112580.952 79738.095 -112628.571 79642.857 -112676.19 79261.904 -112676.19 M 80738.095 -112152.38 80261.904 -112152.38 80214.285 -112628.571 80261.904 -112580.952 80357.142 -112533.333 80595.238 -112533.333 80690.476 -112580.952 80738.095 -112628.571 80785.714 -112723.809 80785.714 -112961.904 80738.095 -113057.142 80690.476 -113104.761 80595.238 -113152.38 80357.142 -113152.38 80261.904 -113104.761 80214.285 -113057.142 M 90661.904 -112247.619 90709.523 -112200 90804.761 -112152.38 91042.857 -112152.38 91138.095 -112200 91185.714 -112247.619 91233.333 -112342.857 91233.333 -112438.095 91185.714 -112580.952 90614.285 -113152.38 91233.333 -113152.38 M 91614.285 -112247.619 91661.904 -112200 91757.142 -112152.38 91995.238 -112152.38 92090.476 -112200 92138.095 -112247.619 92185.714 -112342.857 92185.714 -112438.095 92138.095 -112580.952 91566.666 -113152.38 92185.714 -113152.38 M 92804.761 -112152.38 92900 -112152.38 92995.238 -112200 93042.857 -112247.619 93090.476 -112342.857 93138.095 -112533.333 93138.095 -112771.428 93090.476 -112961.904 93042.857 -113057.142 92995.238 -113104.761 92900 -113152.38 92804.761 -113152.38 92709.523 -113104.761 92661.904 -113057.142 92614.285 -112961.904 92566.666 -112771.428 92566.666 -112533.333 92614.285 -112342.857 92661.904 -112247.619 92709.523 -112200 92804.761 -112152.38 M 76933.333 -115452.38 76600 -114976.19 M 76361.904 -115452.38 76361.904 -114452.38 76742.857 -114452.38 76838.095 -114500 76885.714 -114547.619 76933.333 -114642.857 76933.333 -114785.714 76885.714 -114880.952 76838.095 -114928.571 76742.857 -114976.19 76361.904 -114976.19 M 77790.476 -114452.38 77600 -114452.38 77504.761 -114500 77457.142 -114547.619 77361.904 -114690.476 77314.285 -114880.952 77314.285 -115261.904 77361.904 -115357.142 77409.523 -115404.761 77504.761 -115452.38 77695.238 -115452.38 77790.476 -115404.761 77838.095 -115357.142 77885.714 -115261.904 77885.714 -115023.809 77838.095 -114928.571 77790.476 -114880.952 77695.238 -114833.333 77504.761 -114833.333 77409.523 -114880.952 77361.904 -114928.571 77314.285 -115023.809 M 87761.904 -114547.619 87809.523 -114500 87904.761 -114452.38 88142.857 -114452.38 88238.095 -114500 88285.714 -114547.619 88333.333 -114642.857 88333.333 -114738.095 88285.714 -114880.952 87714.285 -115452.38 88333.333 -115452.38 M 88714.285 -114547.619 88761.904 -114500 88857.142 -114452.38 89095.238 -114452.38 89190.476 -114500 89238.095 -114547.619 89285.714 -114642.857 89285.714 -114738.095 89238.095 -114880.952 88666.666 -115452.38 89285.714 -115452.38 M 89904.761 -114452.38 90000 -114452.38 90095.238 -114500 90142.857 -114547.619 90190.476 -114642.857 90238.095 -114833.333 90238.095 -115071.428 90190.476 -115261.904 90142.857 -115357.142 90095.238 -115404.761 90000 -115452.38 89904.761 -115452.38 89809.523 -115404.761 89761.904 -115357.142 89714.285 -115261.904 89666.666 -115071.428 89666.666 -114833.333 89714.285 -114642.857 89761.904 -114547.619 89809.523 -114500 89904.761 -114452.38 M 79733.333 -117652.38 79400 -117176.19 M 79161.904 -117652.38 79161.904 -116652.38 79542.857 -116652.38 79638.095 -116700 79685.714 -116747.619 79733.333 -116842.857 79733.333 -116985.714 79685.714 -117080.952 79638.095 -117128.571 79542.857 -117176.19 79161.904 -117176.19 M 80066.666 -116652.38 80733.333 -116652.38 80304.761 -117652.38 M 90561.904 -116747.619 90609.523 -116700 90704.761 -116652.38 90942.857 -116652.38 91038.095 -116700 91085.714 -116747.619 91133.333 -116842.857 91133.333 -116938.095 91085.714 -117080.952 90514.285 -117652.38 91133.333 -117652.38 M 91514.285 -116747.619 91561.904 -116700 91657.142 -116652.38 91895.238 -116652.38 91990.476 -116700 92038.095 -116747.619 92085.714 -116842.857 92085.714 -116938.095 92038.095 -117080.952 91466.666 -117652.38 92085.714 -117652.38 M 92704.761 -116652.38 92800 -116652.38 92895.238 -116700 92942.857 -116747.619 92990.476 -116842.857 93038.095 -117033.333 93038.095 -117271.428 92990.476 -117461.904 92942.857 -117557.142 92895.238 -117604.761 92800 -117652.38 92704.761 -117652.38 92609.523 -117604.761 92561.904 -117557.142 92514.285 -117461.904 92466.666 -117271.428 92466.666 -117033.333 92514.285 -116842.857 92561.904 -116747.619 92609.523 -116700 92704.761 -116652.38 M 149509.523 -127652.38 149509.523 -128461.904 149557.142 -128557.142 149604.761 -128604.761 149700 -128652.38 149890.476 -128652.38 149985.714 -128604.761 150033.333 -128557.142 150080.952 -128461.904 150080.952 -127652.38 M 150461.904 -127652.38 151128.571 -127652.38 150700 -128652.38 M 151938.095 -127985.714 151938.095 -128652.38 M 151700 -127604.761 151461.904 -128319.047 152080.952 -128319.047 M 152985.714 -128652.38 152414.285 -128652.38 M 152700 -128652.38 152700 -127652.38 152604.761 -127795.238 152509.523 -127890.476 152414.285 -127938.095 M 153842.857 -127985.714 153842.857 -128652.38 M 153604.761 -127604.761 153366.666 -128319.047 153985.714 -128319.047 M 101652.38 -105966.666 102461.904 -105966.666 102557.142 -105919.047 102604.761 -105871.428 102652.38 -105776.19 102652.38 -105585.714 102604.761 -105490.476 102557.142 -105442.857 102461.904 -105395.238 101652.38 -105395.238 M 101652.38 -105014.285 101652.38 -104347.619 102652.38 -104776.19 M 101985.714 -103538.095 102652.38 -103538.095 M 101604.761 -103776.19 102319.047 -104014.285 102319.047 -103395.238 M 102652.38 -102490.476 102652.38 -103061.904 M 102652.38 -102776.19 101652.38 -102776.19 101795.238 -102871.428 101890.476 -102966.666 101938.095 -103061.904 M 101652.38 -101633.333 101652.38 -101823.809 101700 -101919.047 101747.619 -101966.666 101890.476 -102061.904 102080.952 -102109.523 102461.904 -102109.523 102557.142 -102061.904 102604.761 -102014.285 102652.38 -101919.047 102652.38 -101728.571 102604.761 -101633.333 102557.142 -101585.714 102461.904 -101538.095 102223.809 -101538.095 102128.571 -101585.714 102080.952 -101633.333 102033.333 -101728.571 102033.333 -101919.047 102080.952 -102014.285 102128.571 -102061.904 102223.809 -102109.523 M 101985.714 -100680.952 102652.38 -100680.952 M 101604.761 -100919.047 102319.047 -101157.142 102319.047 -100538.095 M 67304.761 -103347.619 67209.523 -103300 67114.285 -103204.761 66971.428 -103061.904 66876.19 -103014.285 66780.952 -103014.285 M 66828.571 -103252.38 66733.333 -103204.761 66638.095 -103109.523 66590.476 -102919.047 66590.476 -102585.714 66638.095 -102395.238 66733.333 -102300 66828.571 -102252.38 67019.047 -102252.38 67114.285 -102300 67209.523 -102395.238 67257.142 -102585.714 67257.142 -102919.047 67209.523 -103109.523 67114.285 -103204.761 67019.047 -103252.38 66828.571 -103252.38 M 68114.285 -102585.714 68114.285 -103252.38 M 67876.19 -102204.761 67638.095 -102919.047 68257.142 -102919.047 M 67452.38 -106314.285 67452.38 -106790.476 67928.571 -106838.095 67880.952 -106790.476 67833.333 -106695.238 67833.333 -106457.142 67880.952 -106361.904 67928.571 -106314.285 68023.809 -106266.666 68261.904 -106266.666 68357.142 -106314.285 68404.761 -106361.904 68452.38 -106457.142 68452.38 -106695.238 68404.761 -106790.476 68357.142 -106838.095 M 67785.714 -105409.523 68452.38 -105409.523 M 67404.761 -105647.619 68119.047 -105885.714 68119.047 -105266.666 M 67452.38 -104980.952 67452.38 -104314.285 68452.38 -104742.857 M 75504.761 -98247.619 75409.523 -98200 75314.285 -98104.761 75171.428 -97961.904 75076.19 -97914.285 74980.952 -97914.285 M 75028.571 -98152.38 74933.333 -98104.761 74838.095 -98009.523 74790.476 -97819.047 74790.476 -97485.714 74838.095 -97295.238 74933.333 -97200 75028.571 -97152.38 75219.047 -97152.38 75314.285 -97200 75409.523 -97295.238 75457.142 -97485.714 75457.142 -97819.047 75409.523 -98009.523 75314.285 -98104.761 75219.047 -98152.38 75028.571 -98152.38 M 76314.285 -97152.38 76123.809 -97152.38 76028.571 -97200 75980.952 -97247.619 75885.714 -97390.476 75838.095 -97580.952 75838.095 -97961.904 75885.714 -98057.142 75933.333 -98104.761 76028.571 -98152.38 76219.047 -98152.38 76314.285 -98104.761 76361.904 -98057.142 76409.523 -97961.904 76409.523 -97723.809 76361.904 -97628.571 76314.285 -97580.952 76219.047 -97533.333 76028.571 -97533.333 75933.333 -97580.952 75885.714 -97628.571 75838.095 -97723.809 M 76052.38 -101814.285 76052.38 -102290.476 76528.571 -102338.095 76480.952 -102290.476 76433.333 -102195.238 76433.333 -101957.142 76480.952 -101861.904 76528.571 -101814.285 76623.809 -101766.666 76861.904 -101766.666 76957.142 -101814.285 77004.761 -101861.904 77052.38 -101957.142 77052.38 -102195.238 77004.761 -102290.476 76957.142 -102338.095 M 76385.714 -100909.523 77052.38 -100909.523 M 76004.761 -101147.619 76719.047 -101385.714 76719.047 -100766.666 M 76052.38 -100480.952 76052.38 -99814.285 77052.38 -100242.857" fill="none" stroke-width="150"/></g></svg>